# Blender 3.6.0
# www.blender.org
mtllib bomb.mtl
o Icosphere
v 0.000000 0.197184 0.000000
v 18.379623 14.237808 13.353421
v -7.020254 14.237802 21.606487
v -22.718426 14.237906 0.000000
v -7.020254 14.237802 -21.606487
v 18.379623 14.237808 -13.353421
v 7.020254 36.956566 21.606487
v -18.379623 36.956558 13.353421
v -18.379623 36.956558 -13.353421
v 7.020254 36.956566 -21.606487
v 22.718426 36.956459 0.000000
v 0.000000 50.997185 0.000000
v -4.126371 3.990561 12.699881
v 10.803196 3.990568 7.848888
v 6.676867 12.243447 20.548895
v 21.606455 12.243492 0.000000
v 10.803196 3.990568 -7.848888
v -13.353538 3.990631 0.000000
v -17.480009 12.243484 12.699923
v -4.126371 3.990561 -12.699881
v -17.480009 12.243484 -12.699923
v 6.676868 12.243447 -20.548895
v 24.156870 25.597183 7.848920
v 24.156870 25.597183 -7.848920
v 0.000000 25.597183 25.400000
v 14.929755 25.597183 20.549026
v -24.156870 25.597183 7.848920
v -14.929755 25.597183 20.549026
v -14.929755 25.597183 -20.549026
v -24.156870 25.597183 -7.848920
v 14.929755 25.597183 -20.549026
v 0.000000 25.597183 -25.400000
v 17.480009 38.950882 12.699923
v -6.676868 38.950920 20.548895
v -21.606455 38.950874 0.000000
v -6.676867 38.950920 -20.548895
v 17.480009 38.950882 -12.699923
v 4.126371 47.203804 12.699881
v 13.353538 47.203735 0.000000
v -10.803196 47.203796 7.848888
v -10.803196 47.203796 -7.848888
v 4.126371 47.203804 -12.699881
v -0.000000 43.818707 -7.654858
v -0.000000 52.427540 -7.654858
v 7.280203 43.818707 -2.365481
v 7.280203 52.427540 -2.365481
v 4.499412 43.818707 6.192911
v 4.499412 52.427540 6.192911
v -4.499413 43.818707 6.192911
v -4.499413 52.427540 6.192911
v -7.280203 43.818707 -2.365481
v -7.280203 52.427540 -2.365481
v -1.588308 33.168777 -3.320583
v -1.588308 57.887009 -3.320583
v 3.113447 33.168777 -2.842292
v 3.113447 57.887009 -2.842292
v 4.111487 33.168777 1.777143
v 4.111487 57.887009 1.777143
v 0.026555 33.168777 4.153820
v 0.026555 57.887009 4.153820
v -3.496111 33.168777 1.003251
v -3.496111 57.887009 1.003251
v -2.496027 62.747795 -2.792458
v 1.956878 64.203362 -2.169383
v 3.049969 63.647385 2.394751
v -0.727366 61.848206 4.592462
v -4.154982 61.292229 1.386592
v -4.934861 66.842766 -1.373507
v -1.191028 69.534691 -0.337882
v 0.172905 68.506462 4.068671
v -2.727967 65.179062 5.756443
v -5.884743 64.150841 2.392993
vn -0.0000 -1.0000 -0.0000
vn 0.4253 -0.8507 0.3090
vn -0.1625 -0.8507 0.5000
vn 0.7236 -0.4472 0.5257
vn 0.8506 -0.5257 -0.0000
vn -0.5257 -0.8507 -0.0000
vn -0.1625 -0.8507 -0.5000
vn 0.4253 -0.8507 -0.3090
vn 0.9511 -0.0000 0.3090
vn -0.2764 -0.4472 0.8506
vn 0.2629 -0.5257 0.8090
vn -0.0000 -0.0000 1.0000
vn -0.8944 -0.4472 -0.0000
vn -0.6882 -0.5257 0.5000
vn -0.9511 -0.0000 0.3090
vn -0.2764 -0.4472 -0.8506
vn -0.6882 -0.5257 -0.5000
vn -0.5878 -0.0000 -0.8090
vn 0.7236 -0.4472 -0.5257
vn 0.2629 -0.5257 -0.8090
vn 0.5878 -0.0000 -0.8090
vn 0.5878 -0.0000 0.8090
vn -0.5878 -0.0000 0.8090
vn -0.9511 -0.0000 -0.3090
vn -0.0000 -0.0000 -1.0000
vn 0.9511 -0.0000 -0.3090
vn 0.2764 0.4472 0.8506
vn 0.6882 0.5257 0.5000
vn 0.1625 0.8507 0.5000
vn -0.7236 0.4472 0.5257
vn -0.2629 0.5257 0.8090
vn -0.4253 0.8507 0.3090
vn -0.7236 0.4472 -0.5257
vn -0.8506 0.5257 -0.0000
vn -0.4253 0.8507 -0.3090
vn 0.2764 0.4472 -0.8506
vn -0.2629 0.5257 -0.8090
vn 0.1625 0.8507 -0.5000
vn 0.8944 0.4472 -0.0000
vn 0.6882 0.5257 -0.5000
vn 0.5257 0.8507 -0.0000
vn -0.0000 1.0000 -0.0000
vn 0.1012 -0.0000 -0.9949
vn 0.1002 0.0655 -0.9928
vn 0.1004 0.0588 -0.9932
vn 0.9774 -0.0000 -0.2112
vn 0.9729 0.0974 -0.2098
vn 0.9725 0.1015 -0.2097
vn 0.5029 -0.0000 0.8643
vn -0.6624 -0.1059 0.7416
vn -0.6627 -0.1015 0.7420
vn -0.5977 -0.3815 0.7052
vn -0.5971 -0.3831 0.7048
vn -0.6666 -0.0000 0.7454
vn -0.9149 -0.0000 -0.4037
vn -0.9124 -0.0673 -0.4037
vn -0.9129 -0.0602 -0.4038
vn -0.5228 -0.5450 0.6555
vn 0.9112 0.3740 -0.1727
vn 0.9109 0.3749 -0.1725
vn -0.8721 -0.2362 -0.4285
vn -0.8730 -0.2339 -0.4280
vn 0.0597 0.2329 -0.9707
vn 0.0603 0.2312 -0.9710
vn -0.6086 0.7101 0.3541
vn 0.8324 0.5379 -0.1330
vn -0.8269 -0.3392 -0.4486
vn 0.0202 0.3366 -0.9414
vt 0.307326 0.513788
vt 0.382073 0.487792
vt 0.382073 0.539783
vt 0.456821 0.461796
vt 0.382073 0.435801
vt 0.456821 0.409805
vt 0.307326 0.097859
vt 0.382073 0.071863
vt 0.382073 0.123854
vt 0.307326 0.201841
vt 0.382073 0.175846
vt 0.382073 0.227837
vt 0.307326 0.305823
vt 0.382073 0.279828
vt 0.382073 0.331819
vt 0.531568 0.435801
vt 0.456821 0.565778
vt 0.456821 0.513788
vt 0.531568 0.539783
vt 0.456821 0.149850
vt 0.456821 0.097859
vt 0.531568 0.123854
vt 0.456821 0.253832
vt 0.456821 0.201841
vt 0.531568 0.227837
vt 0.456821 0.357814
vt 0.456821 0.305823
vt 0.531568 0.331819
vt 0.531568 0.487792
vt 0.531568 0.591774
vt 0.531568 0.175846
vt 0.531568 0.279828
vt 0.531568 0.383810
vt 0.606315 0.513788
vt 0.606315 0.461796
vt 0.681062 0.487792
vt 0.606315 0.617770
vt 0.606315 0.565779
vt 0.681062 0.591774
vt 0.606315 0.201841
vt 0.606315 0.149850
vt 0.681062 0.175846
vt 0.606315 0.305823
vt 0.606315 0.253832
vt 0.681062 0.279828
vt 0.606315 0.409805
vt 0.606315 0.357814
vt 0.681062 0.383810
vt 0.681062 0.331819
vt 0.755809 0.357814
vt 0.681062 0.227837
vt 0.755809 0.253832
vt 0.681062 0.123854
vt 0.755809 0.149850
vt 0.606315 0.097859
vt 0.681062 0.539783
vt 0.755809 0.565778
vt 0.681062 0.435801
vt 0.755809 0.461796
vt 0.531568 0.071863
vt 0.456821 0.045868
vt 0.382073 0.383810
vt 0.307326 0.409805
vt 0.627343 0.322604
vt 0.627343 0.372965
vt 0.587229 0.372965
vt 0.587229 0.322604
vt 0.547115 0.372965
vt 0.547115 0.322604
vt 0.507001 0.372965
vt 0.507001 0.322604
vt 0.522696 0.304894
vt 0.476915 0.321597
vt 0.431135 0.304894
vt 0.448621 0.277867
vt 0.505210 0.277867
vt 0.466887 0.372965
vt 0.466887 0.322604
vt 0.426773 0.372965
vt 0.426773 0.322604
vt 0.577201 0.321597
vt 0.622981 0.304894
vt 0.605495 0.277867
vt 0.548906 0.277867
vt 0.531420 0.304894
vt 0.509470 0.638491
vt 0.862327 0.638491
vt 0.862327 0.671069
vt 0.509470 0.671069
vt 0.862327 0.704374
vt 0.509470 0.704374
vt 0.862327 0.736523
vt 0.509470 0.736523
vt 0.862327 0.769092
vt 0.932807 0.736523
vt 0.932807 0.769092
vt 0.509470 0.769092
vt 0.862327 0.800432
vt 0.509470 0.800432
vt 0.712698 0.912096
vt 0.730874 0.882322
vt 0.789694 0.882322
vt 0.807870 0.912096
vt 0.760284 0.930497
vt 0.999862 0.736523
vt 0.999862 0.769092
vt 0.932807 0.671069
vt 0.932807 0.704374
vt 0.932807 0.800432
vt 0.932807 0.638491
vt 0.730874 0.882260
vt 0.712698 0.852486
vt 0.760284 0.834085
vt 0.807870 0.852486
vt 0.789694 0.882260
vt 0.999862 0.671069
vt 0.999862 0.704374
vt 0.999862 0.800432
vt 0.999862 0.638491
s 1
usemtl Material
f 1/1/1 14/2/2 13/3/3
f 2/4/4 14/5/2 16/6/5
f 1/7/1 13/8/3 18/9/6
f 1/10/1 18/11/6 20/12/7
f 1/13/1 20/14/7 17/15/8
f 2/4/4 16/6/5 23/16/9
f 3/17/10 15/18/11 25/19/12
f 4/20/13 19/21/14 27/22/15
f 5/23/16 21/24/17 29/25/18
f 6/26/19 22/27/20 31/28/21
f 2/4/4 23/16/9 26/29/22
f 3/17/10 25/19/12 28/30/23
f 4/20/13 27/22/15 30/31/24
f 5/23/16 29/25/18 32/32/25
f 6/26/19 31/28/21 24/33/26
f 7/34/27 33/35/28 38/36/29
f 8/37/30 34/38/31 40/39/32
f 9/40/33 35/41/34 41/42/35
f 10/43/36 36/44/37 42/45/38
f 11/46/39 37/47/40 39/48/41
f 39/48/41 42/49/38 12/50/42
f 39/48/41 37/47/40 42/49/38
f 37/47/40 10/43/36 42/49/38
f 42/45/38 41/51/35 12/52/42
f 42/45/38 36/44/37 41/51/35
f 36/44/37 9/40/33 41/51/35
f 41/42/35 40/53/32 12/54/42
f 41/42/35 35/41/34 40/53/32
f 35/41/34 8/55/30 40/53/32
f 40/39/32 38/56/29 12/57/42
f 40/39/32 34/38/31 38/56/29
f 34/38/31 7/34/27 38/56/29
f 38/36/29 39/58/41 12/59/42
f 38/36/29 33/35/28 39/58/41
f 33/35/28 11/46/39 39/58/41
f 24/33/26 37/47/40 11/46/39
f 24/33/26 31/28/21 37/47/40
f 31/28/21 10/43/36 37/47/40
f 32/32/25 36/44/37 10/43/36
f 32/32/25 29/25/18 36/44/37
f 29/25/18 9/40/33 36/44/37
f 30/31/24 35/41/34 9/40/33
f 30/31/24 27/22/15 35/41/34
f 27/22/15 8/55/30 35/41/34
f 28/30/23 34/38/31 8/37/30
f 28/30/23 25/19/12 34/38/31
f 25/19/12 7/34/27 34/38/31
f 26/29/22 33/35/28 7/34/27
f 26/29/22 23/16/9 33/35/28
f 23/16/9 11/46/39 33/35/28
f 31/28/21 32/32/25 10/43/36
f 31/28/21 22/27/20 32/32/25
f 22/27/20 5/23/16 32/32/25
f 29/25/18 30/31/24 9/40/33
f 29/25/18 21/24/17 30/31/24
f 21/24/17 4/20/13 30/31/24
f 27/22/15 28/60/23 8/55/30
f 27/22/15 19/21/14 28/60/23
f 19/21/14 3/61/10 28/60/23
f 25/19/12 26/29/22 7/34/27
f 25/19/12 15/18/11 26/29/22
f 15/18/11 2/4/4 26/29/22
f 23/16/9 24/33/26 11/46/39
f 23/16/9 16/6/5 24/33/26
f 16/6/5 6/26/19 24/33/26
f 17/15/8 22/27/20 6/26/19
f 17/15/8 20/14/7 22/27/20
f 20/14/7 5/23/16 22/27/20
f 20/12/7 21/24/17 5/23/16
f 20/12/7 18/11/6 21/24/17
f 18/11/6 4/20/13 21/24/17
f 18/9/6 19/21/14 4/20/13
f 18/9/6 13/8/3 19/21/14
f 13/8/3 3/61/10 19/21/14
f 16/6/5 17/62/8 6/26/19
f 16/6/5 14/5/2 17/62/8
f 14/5/2 1/63/1 17/62/8
f 13/3/3 15/18/11 3/17/10
f 13/3/3 14/2/2 15/18/11
f 14/2/2 2/4/4 15/18/11
f 43/64/21 44/65/21 46/66/21 45/67/21
f 45/67/9 46/66/9 48/68/9 47/69/9
f 47/69/12 48/68/12 50/70/12 49/71/12
f 46/72/42 44/73/42 52/74/42 50/75/42 48/76/42
f 49/71/15 50/70/15 52/77/15 51/78/15
f 51/78/18 52/77/18 44/79/18 43/80/18
f 43/81/1 45/82/1 47/83/1 49/84/1 51/85/1
f 53/86/43 54/87/44 56/88/45 55/89/43
f 55/89/46 56/88/47 58/90/48 57/91/46
f 57/91/49 58/90/49 60/92/49 59/93/49
f 62/94/50 60/92/51 66/95/52 67/96/53
f 59/93/54 60/92/51 62/94/50 61/97/54
f 61/97/55 62/94/56 54/98/57 53/99/55
f 53/100/1 55/101/1 57/102/1 59/103/1 61/104/1
f 67/96/53 66/95/52 71/105/58 72/106/58
f 58/90/48 56/88/47 64/107/59 65/108/60
f 54/98/57 62/94/56 67/96/61 63/109/62
f 56/88/45 54/87/44 63/110/63 64/107/64
f 60/92/49 58/90/49 65/108/49 66/95/49
f 69/111/65 68/112/65 72/113/65 71/114/65 70/115/65
f 65/108/60 64/107/59 69/116/66 70/117/66
f 63/109/62 67/96/61 72/106/67 68/118/67
f 66/95/49 65/108/49 70/117/49 71/105/49
f 64/107/64 63/110/63 68/119/68 69/116/68
