# Blender 3.6.2
# www.blender.org
mtllib BOOK_TEMPLATE.mtl
o BOOK
v 11.128457 14.978590 -3.066830
v 11.128457 -15.059996 -3.066830
v -10.871544 14.978590 -3.066830
v -10.871544 -15.059996 -3.066830
v -9.952017 14.978588 2.410275
v -9.952017 14.978588 -2.438633
v 10.144805 14.777465 2.410275
v 10.144805 14.777465 -2.438633
v 10.144805 -14.858870 2.410275
v 10.144805 -14.858870 -2.438633
v -9.952017 -15.059994 2.410275
v -9.952017 -15.059994 -2.438633
v 11.059453 14.978590 2.343266
v 11.059453 14.978590 -2.356925
v -3.422072 14.978588 -2.438633
v -3.422072 14.978588 2.410275
v -3.422072 -15.059994 -2.438633
v -0.205430 -15.059994 -2.438633
v -3.422072 -15.059994 2.410275
v 11.059453 -15.059996 2.343266
v 11.059453 -15.059996 -2.356925
v -11.235633 14.978590 -0.006829
v -10.308685 14.978590 -0.006829
v -10.308685 -15.059996 -0.006829
v -11.235633 -15.059996 -0.006829
v 10.144806 14.356746 -2.526830
v 10.144806 -14.438151 -2.526830
v 10.144806 14.356746 2.513172
v 10.144806 -14.438151 2.513172
v -10.109631 14.552159 -2.526830
v -10.109631 -14.633565 -2.526830
v -10.109631 14.552159 2.513172
v -10.109631 -14.633565 2.513172
v -10.473720 -14.633565 -0.006829
v 9.773296 14.356746 -0.006829
v -10.473720 14.552159 -0.006829
v 9.773296 -14.438151 -0.006829
v 11.128457 14.978590 3.053171
v 11.128457 -15.059996 3.053171
v -10.871544 -15.059996 3.053171
v -10.871544 14.978590 3.053171
v -10.830040 -14.987644 3.065962
v -10.830040 14.889305 3.065962
v -10.837438 -14.985329 -3.106614
v -10.837438 14.869071 -3.106614
v 11.085368 -14.987644 3.065962
v 11.085368 14.889305 3.065962
v 11.092753 -14.985329 -3.106614
v 11.092753 14.869071 -3.106614
v -10.876676 -15.026496 3.026110
v -10.876676 14.949988 3.026110
v -11.237830 14.949988 -0.006916
v -11.237830 -15.026496 -0.006916
v -10.876676 -15.026495 -3.039946
v -10.876676 14.949987 -3.039946
v -11.237830 14.949987 -0.006920
v -11.237830 -15.026495 -0.006920
vn -0.0000 1.0000 -0.0000
vn -0.9930 -0.0000 -0.1181
vn -0.0000 -1.0000 -0.0000
vn 0.9953 -0.0000 -0.0967
vn 0.9953 -0.0000 0.0967
vn -0.0000 -0.0000 -1.0000
vn 0.9893 -0.0000 -0.1460
vn -0.0731 -0.0000 -0.9973
vn -0.0890 -0.0000 0.9960
vn 0.9894 -0.0000 0.1451
vn -0.9930 -0.0000 0.1181
vn 0.9893 -0.0000 0.1458
vn -0.0000 -0.0000 1.0000
vn -0.9897 -0.0000 -0.1430
vn 0.0098 -1.0000 -0.0000
vn -0.9897 -0.0000 0.1430
vn 0.0098 1.0000 -0.0000
vn -0.9930 -0.0000 0.1182
vn -0.9930 -0.0000 -0.1182
vn -0.2133 0.9768 0.0207
vn 0.0141 0.9480 -0.3181
vn -0.2130 0.9768 -0.0207
vn 0.0140 0.9457 0.3247
vn 0.9893 -0.0000 -0.1458
vn 0.0096 -1.0000 -0.0014
vn 0.0096 -1.0000 0.0014
vn -0.2133 -0.9768 0.0207
vn 0.0141 -0.9480 -0.3181
vn 0.0096 1.0000 -0.0014
vn 0.0096 1.0000 0.0014
vn -0.2130 -0.9768 -0.0207
vn 0.0183 -0.9435 0.3308
vt 0.414558 0.822765
vt 0.463755 0.822400
vt 0.488943 0.822765
vt 0.500025 0.817728
vt 0.490842 0.725621
vt 0.500025 0.725621
vt 0.500261 0.822843
vt 0.488488 0.822259
vt 0.500181 0.822246
vt 0.413838 0.824011
vt 0.586264 0.821043
vt 0.586264 0.824011
vt 0.586264 0.821043
vt 0.414152 0.725666
vt 0.484429 0.817726
vt 0.414152 0.817726
vt 0.586305 0.822765
vt 0.515029 0.822409
vt 0.537107 0.822409
vt 0.493011 0.821871
vt 0.491639 0.821695
vt 0.491639 0.821871
vt 0.493011 0.823106
vt 0.493011 0.822753
vt 0.491639 0.822993
vt 0.493011 0.822849
vt 0.491639 0.822867
vt 0.493011 0.822867
vt 0.493011 0.822287
vt 0.491639 0.822305
vt 0.493011 0.822305
vt 0.493011 0.822048
vt 0.491639 0.822048
vt 0.509209 0.817728
vt 0.509209 0.725621
vt 0.170011 0.731549
vt 0.237501 0.731468
vt 0.170571 0.740676
vt 0.174992 0.683111
vt 0.152853 0.705251
vt 0.152853 0.683111
vt 0.174992 0.627762
vt 0.152853 0.638832
vt 0.152853 0.627762
vt 0.241876 0.731439
vt 0.325690 0.722341
vt 0.325697 0.740616
vt 0.174992 0.638832
vt 0.152853 0.660971
vt 0.174992 0.616692
vt 0.152853 0.616692
vt 0.491639 0.822161
vt 0.491639 0.822401
vt 0.515765 0.725544
vt 0.586182 0.817850
vt 0.515765 0.817850
vt 0.811867 0.660491
vt 0.797290 0.660491
vt 0.801981 0.660491
vt 0.515029 0.822400
vt 0.537107 0.822400
vt 0.081969 0.722298
vt 0.165801 0.731520
vt 0.081975 0.740663
vt 0.511837 0.822255
vt 0.500144 0.822870
vt 0.500214 0.822273
vt 0.488943 0.822765
vt 0.414558 0.822765
vt 0.452880 0.822409
vt 0.488559 0.822258
vt 0.485554 0.822914
vt 0.511907 0.822256
vt 0.443767 0.685060
vt 0.090846 0.223153
vt 0.443767 0.223153
vt 0.910191 0.685628
vt 0.556146 0.222381
vt 0.910191 0.222380
vt 0.546196 0.685170
vt 0.500143 0.222277
vt 0.546196 0.222277
vt 0.499983 0.222277
vt 0.453929 0.685170
vt 0.453929 0.222277
vt 0.414760 0.822362
vt 0.417882 0.822400
vt 0.485834 0.822400
vt 0.490842 0.817728
vt 0.413838 0.821043
vt 0.413838 0.821043
vt 0.484429 0.725666
vt 0.582981 0.822408
vt 0.586103 0.822362
vt 0.511920 0.822765
vt 0.493011 0.821695
vt 0.491639 0.823106
vt 0.493011 0.822993
vt 0.491639 0.822753
vt 0.491639 0.822849
vt 0.491639 0.822287
vt 0.170635 0.722340
vt 0.236941 0.722341
vt 0.236877 0.740677
vt 0.174992 0.705251
vt 0.241265 0.722312
vt 0.327073 0.731473
vt 0.241195 0.740648
vt 0.174992 0.660971
vt 0.493011 0.822401
vt 0.493011 0.822161
vt 0.491639 0.822218
vt 0.586182 0.725544
vt 0.582981 0.822400
vt 0.586103 0.822362
vt 0.080592 0.731486
vt 0.166482 0.722311
vt 0.166412 0.740647
vt 0.514851 0.822903
vt 0.463755 0.822409
vt 0.485834 0.822409
vt 0.414759 0.822362
vt 0.417882 0.822408
vt 0.090846 0.685060
vt 0.556146 0.685628
vt 0.500143 0.685170
vt 0.499983 0.685170
s 0
usemtl Material
f 38/1/1 16/2/1 41/3/1
f 22/4/2 4/5/2 25/6/2
f 25/7/3 12/8/3 24/9/3
f 39/10/4 13/11/4 38/12/4
f 1/10/5 21/13/5 2/12/5
f 3/14/6 2/15/6 4/16/6
f 1/17/1 6/18/1 15/19/1
f 23/20/7 11/21/7 24/22/7
f 5/23/6 7/24/6 19/25/6
f 13/26/8 9/27/8 7/28/8
f 8/29/9 21/30/9 14/31/9
f 6/32/10 24/22/10 12/33/10
f 41/34/11 25/6/11 40/35/11
f 35/36/12 37/37/12 26/38/12
f 28/39/13 33/40/13 29/41/13
f 36/42/14 31/43/14 34/44/14
f 37/45/15 33/46/15 31/47/15
f 30/48/6 27/49/6 31/43/6
f 32/50/16 34/44/16 33/51/16
f 6/32/13 17/52/13 10/53/13
f 38/54/13 40/55/13 39/56/13
f 9/57/13 11/58/13 19/59/13
f 39/17/3 11/60/3 19/61/3
f 32/62/17 35/63/17 30/64/17
f 11/65/3 25/66/3 24/67/3
f 4/68/3 2/69/3 18/70/3
f 5/71/1 22/7/1 41/72/1
f 6/73/1 22/66/1 23/67/1
f 45/74/6 48/75/6 44/76/6
f 47/77/13 42/78/13 46/79/13
f 51/80/18 53/81/18 50/82/18
f 57/83/19 55/84/19 54/85/19
f 38/1/20 13/86/20 7/87/20
f 16/2/1 5/88/1 41/3/1
f 38/1/21 7/87/21 16/2/21
f 22/4/2 3/89/2 4/5/2
f 25/7/3 4/72/3 12/8/3
f 39/10/4 20/90/4 13/11/4
f 1/10/5 14/91/5 21/13/5
f 3/14/6 1/92/6 2/15/6
f 8/93/22 14/94/22 1/17/22
f 1/17/1 3/95/1 6/18/1
f 15/19/23 8/93/23 1/17/23
f 23/20/7 5/96/7 11/21/7
f 19/25/6 11/97/6 5/23/6
f 5/23/6 16/98/6 7/24/6
f 7/24/6 9/99/6 19/25/6
f 13/26/8 20/100/8 9/27/8
f 8/29/9 10/101/9 21/30/9
f 6/32/10 23/20/10 24/22/10
f 41/34/11 22/4/11 25/6/11
f 35/36/24 28/102/24 29/103/24
f 37/37/12 27/104/12 26/38/12
f 35/36/24 29/103/24 37/37/24
f 28/39/13 32/105/13 33/40/13
f 36/42/14 30/48/14 31/43/14
f 37/45/25 29/106/25 33/46/25
f 33/46/3 34/107/3 31/47/3
f 31/47/26 27/108/26 37/45/26
f 30/48/6 26/109/6 27/49/6
f 32/50/16 36/42/16 34/44/16
f 8/110/13 15/111/13 6/32/13
f 6/32/13 12/33/13 17/52/13
f 17/52/13 18/112/13 10/53/13
f 10/53/13 8/110/13 6/32/13
f 38/54/13 41/113/13 40/55/13
f 9/114/27 20/115/27 39/17/27
f 39/17/3 40/95/3 11/60/3
f 19/61/28 9/114/28 39/17/28
f 30/64/1 36/116/1 32/62/1
f 32/62/29 28/117/29 35/63/29
f 35/63/30 26/118/30 30/64/30
f 11/65/3 40/119/3 25/66/3
f 17/120/3 12/121/3 4/68/3
f 2/69/31 21/122/31 10/123/31
f 18/70/3 17/120/3 4/68/3
f 2/69/32 10/123/32 18/70/32
f 5/71/1 23/9/1 22/7/1
f 6/73/1 3/119/1 22/66/1
f 45/74/6 49/124/6 48/75/6
f 47/77/13 43/125/13 42/78/13
f 51/80/18 52/126/18 53/81/18
f 57/83/19 56/127/19 55/84/19
o COLLIDER
v -10.919871 -14.972643 3.044204
v -10.919871 14.972643 3.044204
v -10.919871 -14.972643 -3.054329
v -10.919871 14.972643 -3.054329
v 11.092273 -14.972643 3.044204
v 11.092273 14.972643 3.044204
v 11.092273 -14.972643 -3.054329
v 11.092273 14.972643 -3.054329
vn -1.0000 -0.0000 -0.0000
vn -0.0000 -0.0000 -1.0000
vn 1.0000 -0.0000 -0.0000
vn -0.0000 -0.0000 1.0000
vn -0.0000 -1.0000 -0.0000
vn -0.0000 1.0000 -0.0000
vt 0.625000 0.000000
vt 0.375000 0.250000
vt 0.375000 0.000000
vt 0.625000 0.250000
vt 0.375000 0.500000
vt 0.625000 0.500000
vt 0.375000 0.750000
vt 0.625000 0.750000
vt 0.375000 1.000000
vt 0.125000 0.750000
vt 0.125000 0.500000
vt 0.875000 0.500000
vt 0.625000 1.000000
vt 0.875000 0.750000
s 0
f 59/128/33 60/129/33 58/130/33
f 61/131/34 64/132/34 60/129/34
f 65/133/35 62/134/35 64/132/35
f 63/135/36 58/136/36 62/134/36
f 64/132/37 58/137/37 60/138/37
f 61/139/38 63/135/38 65/133/38
f 59/128/33 61/131/33 60/129/33
f 61/131/34 65/133/34 64/132/34
f 65/133/35 63/135/35 62/134/35
f 63/135/36 59/140/36 58/136/36
f 64/132/37 62/134/37 58/137/37
f 61/139/38 59/141/38 63/135/38
