# WaveFront *.obj file (generated by CINEMA 4D)

mtllib ./Eisle.mtl

v 12.80000019073486 35.70000076293945 6.84999990463257
v 12.80000019073486 36.09999847412109 9.39999961853027
v 12.80000019073486 31.45000076293945 7.90000009536743
v -12.80000019073486 35.70000076293945 6.84999990463257
v -12.80000019073486 31.45000076293945 7.90000009536743
v -12.80000019073486 36.09999847412109 9.39999961853027
v 14.55000019073486 34.09999847412109 1.79999995231628
v 12.80000019073486 34.09999847412109 1.79999995231628
v 14.55000019073486 65.90000152587891 -6.69999980926514
v -14.55000019073486 34.09999847412109 1.79999995231628
v -14.55000019073486 65.90000152587891 -6.69999980926514
v -12.80000019073486 34.09999847412109 1.79999995231628
v -2.65000009536743 44.09999847412109 -0.89999997615814
v 2.65000009536743 44.09999847412109 -0.89999997615814
v 0 33.65000152587891 -4.84999990463257
v -0.60000002384186 29.70000076293945 -4.59999990463257
v 1.04999995231628 31 2.70000004768372
v -1.04999995231628 31 2.70000004768372
v 0.60000002384186 29.70000076293945 -4.59999990463257
v 16.54999923706055 0.5 12.19999980926514
v 8.30000019073486 30.04999923706055 3
v 8.30000019073486 30.5 4.34999990463257
v 16.54999923706055 -0.05000000074506 10.5
v 0.60000002384186 32 -3.75
v -1.04999995231628 33 2.15000009536743
v 1.04999995231628 33 2.15000009536743
v -0.60000002384186 32 -3.75
v -16.54999923706055 0.5 12.19999980926514
v -8.30000019073486 30.04999923706055 3
v -16.54999923706055 -0.05000000074506 10.5
v -8.30000019073486 30.5 4.34999990463257
v -12.80000019073486 29.75 2.84999990463257
v 4.80000019073486 30.10000038146973 3
v 13.39999961853027 0.5 12.19999980926514
v 4.80000019073486 30.5 4.34999990463257
v 13.39999961853027 -0.05000000074506 10.5
v -13.39999961853027 0.5 12.19999980926514
v -4.80000019073486 30.10000038146973 3
v -4.80000019073486 30.5 4.34999990463257
v -13.39999961853027 -0.05000000074506 10.5
v 14.55000019073486 35.70000076293945 6.84999990463257
v 14.55000019073486 67.5 -1.60000002384186
v -14.55000019073486 35.70000076293945 6.84999990463257
v -14.55000019073486 67.5 -1.60000002384186
v 12.80000019073486 29.75 2.84999990463257
v 1.95000004768372 33 -3.25
v 0 0.40000000596046 -17.45000076293945
v 1.95000004768372 -0.20000000298023 -15.80000019073486
v -1.95000004768372 33 -3.25
v -1.95000004768372 -0.20000000298023 -15.80000019073486
v -6.69999980926514 36.15000152587891 1.25
v 6.69999980926514 36.15000152587891 1.25
# 52 vertices

vn 1 0 0
vn -1 0 0
vn 0 -0.25822472572327 -0.96608489751816
vn 0 0.35356402397156 -0.93541032075882
vn 0 -0.98451244831085 0.17531472444534
vn 0.96625262498856 0.2443835735321 -0.08144035190344
vn 0.96625953912735 0.24506492912769 -0.07928203046322
vn 0 0.98594093322754 -0.16709433495998
vn -0.96625953912735 0.24506492912769 -0.07928203046322
vn -0.96625262498856 0.2443835735321 -0.08144035190344
vn 0.99753576517105 0.02431260980666 -0.06581279635429
vn 0.99715691804886 -0.01996938884258 -0.07265857607126
vn -0.99753576517105 0.02431260980666 -0.06581279635429
vn -0.99715691804886 -0.01996938884258 -0.07265857607126
vn -0.96359556913376 -0.25635257363319 0.07594010978937
vn -0.96359866857529 -0.25437632203102 0.08228167146444
vn 0.96359556913376 -0.25635257363319 0.07594010978937
vn 0.96359866857529 -0.25437632203102 0.08228167146444
vn 0 -0.2417561262846 -0.97033703327179
vn 0.00343751558103 -0.24231360852718 -0.97019189596176
vn 0 0.25313168764114 0.96743184328079
vn -0.00343751558103 -0.24231360852718 -0.97019189596176
vn 0 0.98792386054993 -0.15494026243687
vn 0 0.95415246486664 -0.29932111501694
vn 0 -0.30700644850731 0.95170742273331
vn 0 -0.95329648256302 0.30203607678413
vn 0 -0.23463034629822 -0.9720846414566
vn 0 -0.94774162769318 0.31903892755508
vn 0.66289079189301 0.26528757810593 -0.7001416683197
vn 0.66908228397369 0.26278904080391 -0.69517683982849
vn -0.66289079189301 0.26528757810593 -0.7001416683197
vn -0.66908228397369 0.26278904080391 -0.69517683982849
vn 0 -0.35357439517975 0.93540638685226
vn 0 -0.81923925876617 0.57345187664032
vn -0.64266520738602 0.12287671118975 -0.75622928142548
vn -0.65030717849731 0.09591007977724 -0.75359261035919
vn 0 -0.25913283228874 -0.96584171056747
vn 0.00243754405528 -0.2583484351635 -0.96604871749878
vn -0.00081252556993 -0.26144573092461 -0.96521782875061
vn 0.64266520738602 0.12287671118975 -0.75622928142548
vn 0.65030717849731 0.09591007977724 -0.75359261035919
vn -0.00243754405528 -0.2583484351635 -0.96604871749878
vn 0.00081252556993 -0.26144573092461 -0.96521782875061
vn 0 -0.25709661841393 -0.96638572216034
vn 0 0.2567892074585 0.96646744012833
# 45 normals

vt 0.29411765933037 1 0
vt 0.3137255012989 1 0
vt 0.29411765933037 0.95686274766922 0
vt 0 0.65490198135376 0
vt 0.01176470611244 0.65490198135376 0
vt 0 1 0
vt 0.24313725531101 0.65490198135376 0
vt 0.24313725531101 1 0
vt 0.22745098173618 0.65490198135376 0
vt 0.14117647707462 0.76470589637756 0
vt 0.09803921729326 0.76470589637756 0
vt 0.12156862765551 0.67058825492859 0
vt 0.23137255012989 0.50588238239288 0
vt 0.24705882370472 0.50588238239288 0
vt 0 0.59607845544815 0
vt 0.2392156869173 0.58039218187332 0
vt 0.2392156869173 0.59607845544815 0
vt 0 0.57647061347961 0
vt 0.2352941185236 0.50588238239288 0
vt 0 0.59215688705444 0
vt 0.2392156869173 0.57647061347961 0
vt 0 0.57254904508591 0
vt 0.2392156869173 0.59215688705444 0
vt 0.25098040699959 0.99607843160629 0
vt 0.25098040699959 0.95294117927551 0
vt 0.24313725531101 0.58039218187332 0
vt 0.00392156885937 0.59607845544815 0
vt 0.24705882370472 0.59607845544815 0
vt 0.00392156885937 0.57647061347961 0
vt 0.00392156885937 0.59215688705444 0
vt 0.24313725531101 0.57647061347961 0
vt 0.24313725531101 0.59215688705444 0
vt 0.00392156885937 0.57254904508591 0
vt 0.2392156869173 0.5686274766922 0
vt 0.00392156885937 0.54509806632996 0
vt 0.24313725531101 0.53725492954254 0
vt 0.43137255311012 0.50980395078659 0
vt 0 0.50196081399918 0
vt 0.00392156885937 0.54117649793625 0
vt 0.2392156869173 0.57254904508591 0
vt 0.24313725531101 0.54117649793625 0
vt 0.2549019753933 0.94901961088181 0
vt 0.49411764740944 0.91764706373215 0
vt 0.49411764740944 0.94901961088181 0
vt 0.2549019753933 0.91764706373215 0
vt 0.27843138575554 0.90588235855103 0
vt 0.24705882370472 0.68235296010971 0
vt 0.27843138575554 0.678431391716 0
vt 0.25098040699959 0.90980392694473 0
vt 0.28235295414925 0.90588235855103 0
vt 0.3137255012989 0.69019609689713 0
vt 0.3137255012989 0.90588235855103 0
vt 0.28235295414925 0.69019609689713 0
vt 0.49019607901573 0.95686274766922 0
vt 0.28627452254295 1 0
vt 0.28627452254295 0.95686274766922 0
vt 0.49019607901573 1 0
vt 0.01176470611244 0.61176472902298 0
vt 0.22745098173618 0.61176472902298 0
vt 0.49411764740944 0.50196081399918 0
vt 0.0588235296309 0.53725492954254 0
vt 0.49411764740944 0.52941179275513 0
vt 0.0588235296309 0.50980395078659 0
vt 0.4705882370472 0.54117649793625 0
vt 0.42352941632271 0.54117649793625 0
vt 0.41568627953529 0.55686277151108 0
vt 0.49411764740944 0.6235294342041 0
vt 0.0627451017499 0.678431391716 0
vt 0.17647059261799 0.678431391716 0
vt 1 0.74117648601532 0
vt 1 1 0
vt 0.98823529481888 0.74117648601532 0
vt 0.81568628549576 0.74117648601532 0
vt 0.82745099067688 0.74117648601532 0
vt 0.81568628549576 1 0
# 75 texture coordinates

o Mesh
usemtl material
f 1/1/1 2/2/1 3/3/1
f 4/1/2 5/3/2 6/2/2
f 7/4/3 8/5/3 9/6/3
f 10/7/3 11/8/3 12/9/3
f 13/10/4 14/11/4 15/12/4
f 16/13/5 17/14/5 18/14/5
f 16/13/5 19/13/5 17/14/5
f 20/15/6 21/16/6 22/17/6
f 20/15/7 23/18/7 21/16/7
f 24/19/8 25/14/8 26/14/8
f 24/19/8 27/19/8 25/14/8
f 28/20/9 29/21/9 30/22/9
f 28/20/10 31/23/10 29/21/10
f 5/3/2 12/24/2 32/25/2
f 5/3/2 4/1/2 12/24/2
f 24/19/11 17/14/11 19/13/11
f 24/19/12 26/14/12 17/14/12
f 18/14/13 27/19/13 16/13/13
f 18/14/14 25/14/14 27/19/14
f 33/26/15 34/27/15 35/28/15
f 33/26/16 36/29/16 34/27/16
f 37/30/17 38/31/17 39/32/17
f 37/30/18 40/33/18 38/31/18
f 29/34/19 40/35/19 30/22/19
f 29/34/20 38/36/20 40/35/20
f 22/37/21 34/38/21 20/38/21
f 22/37/21 35/37/21 34/38/21
f 36/39/19 21/40/19 23/22/19
f 36/39/22 33/41/22 21/40/22
f 4/42/23 2/43/23 1/44/23
f 4/42/23 6/45/23 2/43/23
f 37/38/21 31/37/21 28/38/21
f 37/38/21 39/37/21 31/37/21
f 9/46/1 41/47/1 7/48/1
f 9/46/1 42/49/1 41/47/1
f 43/47/2 11/46/2 10/48/2
f 43/47/2 44/49/2 11/46/2
f 44/50/24 9/51/24 11/52/24
f 44/50/24 42/53/24 9/51/24
f 3/54/25 6/55/25 5/56/25
f 3/54/25 2/57/25 6/55/25
f 8/24/1 3/3/1 45/25/1
f 8/24/1 1/1/1 3/3/1
f 41/47/26 8/48/26 7/48/26
f 41/47/26 1/47/26 8/48/26
f 10/48/26 4/47/26 43/47/26
f 10/48/26 12/48/26 4/47/26
f 45/58/27 12/9/27 8/5/27
f 45/58/27 32/59/27 12/9/27
f 3/3/28 32/25/28 45/25/28
f 3/3/28 5/3/28 32/25/28
f 46/60/29 47/61/29 15/62/29
f 46/60/30 48/63/30 47/61/30
f 47/61/31 49/60/31 15/62/31
f 47/61/32 50/63/32 49/60/32
f 50/63/33 46/60/33 49/60/33
f 50/63/33 48/63/33 46/60/33
f 51/64/34 46/65/34 52/64/34
f 51/64/34 49/65/34 46/65/34
f 15/66/35 51/64/35 13/67/35
f 15/66/36 49/65/36 51/64/36
f 12/9/37 52/68/37 8/5/37
f 12/9/37 51/69/37 52/68/37
f 8/5/38 14/11/38 9/6/38
f 8/5/39 52/68/39 14/11/39
f 52/64/40 15/66/40 14/67/40
f 52/64/41 46/65/41 15/66/41
f 13/10/42 12/9/42 11/8/42
f 13/10/43 51/69/43 12/9/43
f 9/6/44 13/10/44 11/8/44
f 9/6/44 14/11/44 13/10/44
f 41/70/45 42/71/45 1/72/45
f 43/73/45 4/74/45 44/75/45
f 4/74/45 42/71/45 44/75/45
f 4/74/45 1/72/45 42/71/45

