# Blender v2.79 (sub 0) OBJ File: ''
# www.blender.org
mtllib jerma.mtl
o Cube_Cube.002
v 2.023682 149.206665 -5.588184
v 11.495958 145.307236 -5.429087
v 13.025391 135.769409 -5.039939
v 13.500041 139.247284 -5.181839
v -2.564612 148.100098 -5.543036
v -6.414558 138.509552 -5.151739
v -5.148823 134.083160 -4.971140
v -4.726911 129.604080 -4.788391
v -2.564611 127.180092 -4.689490
v -1.992920 124.644409 -4.586033
v 14.607559 133.450821 -4.945340
v 11.337740 129.498688 -4.784091
v 11.175130 126.437988 -4.659213
v 11.834368 125.084007 -4.603970
v 23.920389 119.838890 -4.389966
v 27.919762 116.852837 -4.268078
v 37.061188 106.928574 -3.863220
v 38.423615 102.844696 -3.696595
v 38.159920 99.990387 -3.580137
v 34.160542 96.433456 -3.435013
v 23.832491 91.032211 -3.214639
v 18.119099 90.241776 -3.182389
v 16.690750 87.167885 -3.056973
v 16.374315 79.369003 -2.738774
v 17.640053 69.409622 -2.332428
v 19.380440 60.978405 -1.988431
v 18.089390 59.081379 -1.910976
v 14.899734 40.642281 -1.158708
v 14.899734 35.027084 -0.929606
v 17.114773 27.691916 -0.630328
v 17.050467 0.003596 0.499368
v -9.891115 121.077988 -4.440522
v -12.093496 121.077988 -4.440522
v -18.776585 117.815109 -4.307394
v -25.857864 113.426056 -4.128318
v -28.447342 112.351677 -4.084483
v -26.530670 120.097389 -4.400457
v -26.957954 121.408661 -4.454013
v -23.142921 126.257347 -4.651843
v -22.849928 128.196823 -4.730974
v -20.066479 131.636642 -4.871321
v -22.593557 132.697861 -4.914619
v -25.596752 130.026520 -4.805626
v -26.292614 131.490265 -4.865349
v -25.779873 135.515594 -5.029584
v -26.841980 140.016647 -5.213175
v -28.270329 140.016647 -5.213229
v -28.929565 137.308701 -5.102744
v -29.771925 140.309402 -5.225174
v -33.214611 139.614120 -5.196806
v -36.107933 134.637344 -4.993751
v -35.558567 125.927994 -4.638407
v -34.642960 122.451576 -4.496512
v -37.332649 114.283829 -4.163320
v -39.283993 104.271736 -3.754823
v -38.967556 99.792648 -3.572075
v -35.697739 98.264481 -3.509725
v -25.308147 100.073685 -3.583487
v -16.131554 103.902863 -3.739774
v -13.582500 99.599426 -3.564192
v -12.264024 92.573402 -3.277527
v -14.021992 85.196075 -2.976529
v -16.790794 81.683052 -2.833141
v -16.702894 75.842667 -2.594906
v -19.120102 65.786667 -2.184616
v -18.856405 55.159790 -1.751035
v -16.395248 51.075912 -1.584410
v -10.775374 27.097477 -0.606025
v -10.805754 0.003596 0.499362
v 2.023682 149.280029 -3.789681
v 11.495958 145.380646 -3.630583
v 13.025391 135.842789 -3.241436
v 13.500041 139.320679 -3.383336
v -2.564612 148.173462 -3.744533
v -6.414558 138.582932 -3.353236
v -5.148823 134.156540 -3.172636
v -4.726911 129.677460 -2.989887
v -2.564611 127.253479 -2.890987
v -1.992920 124.717781 -2.787530
v 14.607559 133.524200 -3.146837
v 11.337740 129.572067 -2.985587
v 11.175130 126.511360 -2.860709
v 11.834368 125.157394 -2.805466
v 23.920389 119.912270 -2.591462
v 27.919762 116.926208 -2.469630
v 37.061188 107.001953 -2.064716
v 38.423615 102.918076 -1.898092
v 38.159920 100.063759 -1.781634
v 34.160542 96.506844 -1.636510
v 23.832491 91.105583 -1.416135
v 18.119099 90.315163 -1.383886
v 16.690750 87.241272 -1.258469
v 16.374315 79.442390 -0.940270
v 17.640053 69.483009 -0.533924
v 19.380440 61.051781 -0.189927
v 18.089390 59.154755 -0.112528
v 14.899734 40.715660 0.639796
v 14.899734 35.100460 0.868898
v 17.114773 27.765301 1.168176
v 17.050467 0.076982 2.297872
v -9.891115 121.151375 -2.642018
v -12.093496 121.151375 -2.642018
v -18.776585 117.888489 -2.508891
v -25.857864 113.499435 -2.329815
v -28.447342 112.425064 -2.285980
v -26.530670 120.170769 -2.602009
v -26.957954 121.482040 -2.655510
v -23.142921 126.330734 -2.853339
v -22.849928 128.270203 -2.932470
v -20.066479 131.710037 -3.072817
v -22.593557 132.771240 -3.116116
v -25.596752 130.099899 -3.007123
v -26.292614 131.563660 -3.066845
v -25.779873 135.588974 -3.231081
v -26.841980 140.090027 -3.414726
v -28.270329 140.090027 -3.414726
v -28.929565 137.382080 -3.304240
v -29.771925 140.382782 -3.426671
v -33.214611 139.687500 -3.398303
v -36.107933 134.710724 -3.195247
v -35.558567 126.001381 -2.839903
v -34.642960 122.524963 -2.698064
v -37.332649 114.357208 -2.364817
v -39.283993 104.345116 -1.956320
v -38.967556 99.866020 -1.773571
v -35.697739 98.337860 -1.711222
v -25.308147 100.147057 -1.785038
v -16.131554 103.976250 -1.941271
v -13.582500 99.672806 -1.765688
v -12.264024 92.646774 -1.479023
v -14.021992 85.269447 -1.178025
v -16.790794 81.756432 -1.034692
v -16.702894 75.916054 -0.796402
v -19.120102 65.860039 -0.386113
v -18.856405 55.233173 0.047469
v -16.395248 51.149292 0.214093
v -10.775374 27.170864 1.192423
v -10.805754 0.076982 2.297866
v 0.972763 87.682617 -2.632543
v 0.972766 51.682613 -1.386358
v 0.972759 0.000000 -50.332653
v 0.972763 0.000000 -28.217594
v -0.827237 87.682617 -2.632543
v -0.827241 -0.000000 -50.332653
v -0.827237 -0.000000 -28.217594
v -0.827234 51.682613 -1.386357
vt 0.595909 0.661041
vt 0.507650 0.687574
vt 0.576085 0.738643
vt 0.094839 0.669714
vt 0.152791 0.693915
vt 0.091368 0.754106
vt 0.693545 0.947664
vt 0.682933 0.954806
vt 0.693818 0.954362
vt 0.681970 0.931205
vt 0.692855 0.930761
vt 0.680474 0.894527
vt 0.691359 0.894083
vt 0.679615 0.873477
vt 0.690500 0.873033
vt 0.691177 0.889618
vt 0.682660 0.948108
vt 0.690084 0.862827
vt 0.680291 0.890062
vt 0.678092 0.836162
vt 0.679198 0.863271
vt 0.688978 0.835717
vt 0.677494 0.821491
vt 0.688379 0.821046
vt 0.676867 0.806143
vt 0.679042 0.859444
vt 0.689928 0.859000
vt 0.678066 0.835524
vt 0.688952 0.835080
vt 0.677310 0.816999
vt 0.688196 0.816555
vt 0.676976 0.808804
vt 0.687861 0.808360
vt 0.675681 0.777058
vt 0.686566 0.776614
vt 0.685828 0.758541
vt 0.674943 0.758985
vt 0.672493 0.698918
vt 0.683378 0.698474
vt 0.682370 0.673757
vt 0.671484 0.674201
vt 0.681665 0.656481
vt 0.670779 0.656925
vt 0.669901 0.635397
vt 0.680786 0.634953
vt 0.668567 0.602706
vt 0.679453 0.602262
vt 0.668372 0.597922
vt 0.679257 0.597478
vt 0.667613 0.579317
vt 0.678498 0.578873
vt 0.665687 0.532115
vt 0.676572 0.531670
vt 0.663228 0.471836
vt 0.674113 0.471391
vt 0.672031 0.420362
vt 0.661145 0.420806
vt 0.671562 0.408880
vt 0.660677 0.409324
vt 0.656124 0.297722
vt 0.667009 0.297277
vt 0.665622 0.263292
vt 0.654737 0.263736
vt 0.652926 0.219340
vt 0.663811 0.218896
vt 0.646088 0.051757
vt 0.656974 0.051312
vt 0.687753 0.805699
vt 0.675987 0.784558
vt 0.686872 0.784113
vt 0.686872 0.784113
vt 0.675181 0.764809
vt 0.675987 0.784558
vt 0.686066 0.764365
vt 0.674097 0.738244
vt 0.684983 0.737800
vt 0.673832 0.731742
vt 0.686630 0.778178
vt 0.684717 0.731298
vt 0.676068 0.786559
vt 0.675745 0.778623
vt 0.688151 0.815461
vt 0.686954 0.786115
vt 0.688630 0.827200
vt 0.677266 0.815906
vt 0.689480 0.848020
vt 0.677745 0.827644
vt 0.689742 0.854443
vt 0.678594 0.848464
vt 0.678197 0.838718
vt 0.678856 0.854887
vt 0.689443 0.847134
vt 0.689082 0.838274
vt 0.690437 0.871497
vt 0.678558 0.847578
vt 0.691549 0.898739
vt 0.679552 0.871941
vt 0.680664 0.899184
vt 0.680664 0.899184
vt 0.691549 0.898739
vt 0.679995 0.882794
vt 0.691621 0.900511
vt 0.690880 0.882350
vt 0.680564 0.896747
vt 0.680736 0.900956
vt 0.690221 0.866181
vt 0.691450 0.896303
vt 0.677184 0.813912
vt 0.679335 0.866625
vt 0.687211 0.792427
vt 0.688070 0.813468
vt 0.674309 0.743436
vt 0.676326 0.792871
vt 0.682722 0.682394
vt 0.685194 0.742992
vt 0.681616 0.655284
vt 0.671837 0.682838
vt 0.681239 0.646035
vt 0.670730 0.655728
vt 0.681685 0.656985
vt 0.670353 0.646479
vt 0.671746 0.680605
vt 0.670800 0.657429
vt 0.682631 0.680161
vt 0.670683 0.654559
vt 0.681568 0.654115
vt 0.668948 0.612034
vt 0.678011 0.566939
vt 0.679833 0.611590
vt 0.677144 0.545676
vt 0.667126 0.567383
vt 0.664816 0.510772
vt 0.666258 0.546120
vt 0.675702 0.510327
vt 0.662333 0.449908
vt 0.670594 0.385144
vt 0.673218 0.449463
vt 0.658700 0.360871
vt 0.659709 0.385589
vt 0.669586 0.360427
vt 0.652779 0.215742
vt 0.663664 0.215298
vt 0.646088 0.051757
vt 0.656974 0.051312
vt 0.861773 0.528155
vt 0.986976 0.035928
vt 0.986976 0.752445
vt 0.986976 0.035928
vt 0.861773 0.528155
vt 0.986976 0.752445
vt 0.849193 0.112841
vt 0.849193 0.112841
vt 0.715225 0.903970
vt 0.739537 0.964586
vt 0.768513 0.971580
vt 0.828332 0.946934
vt 0.837990 0.886652
vt 0.847982 0.871997
vt 0.827333 0.847018
vt 0.840988 0.908633
vt 0.723218 0.875994
vt 0.739537 0.832364
vt 0.725882 0.847684
vt 0.743148 0.816337
vt 0.826306 0.827673
vt 0.637157 0.773174
vt 0.679361 0.793796
vt 0.653860 0.685243
vt 0.592438 0.745433
vt 0.693270 0.793796
vt 0.669958 0.658044
vt 0.830469 0.819116
vt 0.906794 0.785965
vt 0.870158 0.598900
vt 0.932050 0.767092
vt 0.989779 0.704367
vt 0.998383 0.678555
vt 0.971462 0.638033
vt 0.996718 0.660514
vt 0.906238 0.603895
vt 0.585490 0.795886
vt 0.588189 0.787598
vt 0.536959 0.802478
vt 0.611433 0.838790
vt 0.609583 0.826532
vt 0.594087 0.850354
vt 0.613052 0.867238
vt 0.629011 0.860531
vt 0.586223 0.913496
vt 0.592930 0.885047
vt 0.573039 0.896380
vt 0.589692 0.859606
vt 0.531176 0.824450
vt 0.577203 0.913496
vt 0.545979 0.910952
vt 0.567720 0.915346
vt 0.527707 0.879497
vt 0.519973 0.750854
vt 0.530298 0.649606
vt 0.509648 0.659265
vt 0.650252 0.507892
vt 0.649697 0.544805
vt 0.667183 0.567009
vt 0.636653 0.377168
vt 0.634987 0.444334
vt 0.652195 0.351356
vt 0.869970 0.401954
vt 0.867132 0.467232
vt 0.863409 0.028560
vt 0.687494 0.028560
vt 0.687685 0.199803
vt 0.849827 0.285412
vt 0.863815 0.203560
vt 0.849827 0.249921
vt 0.859139 0.530179
vt 0.878123 0.413944
vt 0.861138 0.579471
vt 0.678284 0.613636
vt 0.267444 0.980253
vt 0.238468 0.973259
vt 0.214155 0.912643
vt 0.222148 0.884667
vt 0.224813 0.856357
vt 0.238468 0.841037
vt 0.327262 0.955607
vt 0.339918 0.917306
vt 0.326263 0.855691
vt 0.346912 0.880670
vt 0.336921 0.895324
vt 0.325236 0.836346
vt 0.242078 0.825010
vt 0.430981 0.775764
vt 0.405724 0.794637
vt 0.369088 0.607572
vt 0.329399 0.827789
vt 0.192200 0.802469
vt 0.178292 0.802469
vt 0.168888 0.666716
vt 0.488710 0.713039
vt 0.470392 0.646706
vt 0.495649 0.669187
vt 0.497314 0.687228
vt 0.405169 0.612568
vt 0.136087 0.781846
vt 0.360068 0.588144
vt 0.177215 0.622309
vt 0.075015 0.747315
vt 0.087119 0.796271
vt 0.035889 0.811151
vt 0.084421 0.804559
vt 0.108513 0.835205
vt 0.093017 0.859027
vt 0.110363 0.847463
vt 0.127941 0.869204
vt 0.111982 0.875911
vt 0.088622 0.868278
vt 0.091860 0.893720
vt 0.071970 0.905053
vt 0.030107 0.833123
vt 0.085153 0.922168
vt 0.066650 0.924019
vt 0.044909 0.919624
vt 0.076133 0.922168
vt 0.026638 0.888169
vt 0.018903 0.759527
vt 0.006580 0.696247
vt 0.008579 0.667937
vt 0.029228 0.658279
vt 0.166113 0.575682
vt 0.148628 0.553478
vt 0.149183 0.516564
vt 0.133918 0.453007
vt 0.366063 0.475905
vt 0.135583 0.385841
vt 0.151126 0.360029
vt 0.358069 0.538852
vt 0.186616 0.208476
vt 0.186424 0.037232
vt 0.362340 0.037232
vt 0.368900 0.410627
vt 0.362746 0.212233
vt 0.348757 0.258594
vt 0.348757 0.294084
vt 0.377054 0.422617
vn 0.0000 -0.0408 -0.9992
vn 0.0000 0.0408 0.9992
vn -0.2346 0.9713 -0.0396
vn 0.3809 0.9238 -0.0377
vn 0.9495 0.3135 -0.0128
vn 0.9908 -0.1350 0.0055
vn -0.9281 0.3720 -0.0152
vn -0.9615 -0.2745 0.0112
vn -0.9956 -0.0936 0.0038
vn -0.7465 -0.6648 0.0271
vn -0.9756 -0.2196 0.0090
vn 0.8262 0.5629 -0.0230
vn 0.7707 -0.6366 0.0260
vn 0.9986 -0.0530 0.0022
vn 0.8992 0.4371 -0.0178
vn 0.3984 0.9165 -0.0374
vn 0.5986 0.8004 -0.0326
vn 0.7358 0.6766 -0.0276
vn 0.9487 0.3160 -0.0129
vn 0.9958 -0.0918 0.0037
vn 0.6649 -0.7463 0.0304
vn 0.4637 -0.8852 0.0361
vn 0.1372 -0.9897 0.0404
vn 0.9070 -0.4208 0.0172
vn 0.9992 -0.0405 0.0017
vn 0.9920 0.1259 -0.0051
vn 0.9794 0.2018 -0.0082
vn 0.8269 -0.5618 0.0229
vn 0.9854 -0.1702 0.0069
vn 1.0000 -0.0000 0.0000
vn 0.9574 0.2886 -0.0118
vn 1.0000 -0.0023 0.0001
vn -0.4118 0.9105 -0.0372
vn 0.0000 0.9992 -0.0408
vn -0.4390 0.8977 -0.0366
vn -0.5271 0.8491 -0.0346
vn -0.3835 0.9228 -0.0376
vn 0.9708 -0.2398 0.0098
vn 0.9509 0.3093 -0.0126
vn 0.7861 -0.6175 0.0252
vn 0.9888 -0.1491 0.0061
vn 0.7776 -0.6282 0.0256
vn 0.3875 0.9211 -0.0376
vn -0.6649 0.7463 -0.0305
vn 0.9033 0.4287 -0.0175
vn 0.9920 -0.1262 0.0051
vn 0.9733 0.2293 -0.0094
vn -0.9717 0.2362 -0.0096
vn 0.9628 0.2698 -0.0110
vn -0.1981 0.9794 -0.0400
vn -0.8647 0.5019 -0.0205
vn -0.9980 -0.0628 0.0026
vn -0.9671 -0.2543 0.0104
vn -0.9499 0.3123 -0.0127
vn -0.9816 0.1910 -0.0078
vn -0.9975 -0.0704 0.0029
vn -0.4237 -0.9051 0.0369
vn 0.1717 -0.9843 0.0402
vn 0.3854 -0.9220 0.0376
vn -0.8606 -0.5089 0.0208
vn -0.9829 -0.1841 0.0075
vn -0.9728 0.2314 -0.0094
vn -0.7856 0.6182 -0.0252
vn -0.9999 -0.0150 0.0006
vn -0.9723 0.2333 -0.0095
vn -0.9997 -0.0248 0.0010
vn -0.8567 -0.5154 0.0210
vn -0.9737 -0.2278 0.0093
vn -1.0000 0.0011 -0.0000
vn -0.0000 -0.9992 0.0408
vn -1.0000 -0.0000 0.0000
vn 0.0000 -1.0000 -0.0000
vn 0.0000 0.0346 0.9994
vn 0.0000 -0.4608 0.8875
vn 0.0000 0.4779 -0.8784
vn 0.5986 0.8004 -0.0327
vn -0.3835 0.9228 -0.0377
vn 0.9920 -0.1261 0.0051
vn -0.1981 0.9794 -0.0399
usemtl None
s off
f 58/1/1 55/2/1 36/3/1
f 127/4/2 128/5/2 104/6/2
f 5/7/3 70/8/3 1/9/3
f 1/9/4 71/10/4 2/11/4
f 2/11/5 73/12/5 4/13/5
f 4/13/6 72/14/6 3/15/6
f 6/16/7 74/17/7 5/7/7
f 7/18/8 75/19/8 6/16/8
f 7/18/9 77/20/9 76/21/9
f 8/22/10 78/23/10 77/20/10
f 9/24/11 79/25/11 78/23/11
f 3/15/12 80/26/12 11/27/12
f 11/27/13 81/28/13 12/29/13
f 12/29/14 82/30/14 13/31/14
f 13/31/15 83/32/15 14/33/15
f 14/33/16 84/34/16 15/35/16
f 16/36/17 84/34/17 85/37/17
f 16/36/18 86/38/18 17/39/18
f 18/40/19 86/38/19 87/41/19
f 19/42/20 87/41/20 88/43/20
f 19/42/21 89/44/21 20/45/21
f 20/45/22 90/46/22 21/47/22
f 21/47/23 91/48/23 22/49/23
f 22/49/24 92/50/24 23/51/24
f 23/51/25 93/52/25 24/53/25
f 24/53/26 94/54/26 25/55/26
f 26/56/27 94/54/27 95/57/27
f 27/58/28 95/57/28 96/59/28
f 27/58/29 97/60/29 28/61/29
f 29/62/30 97/60/30 98/63/30
f 29/62/31 99/64/31 30/65/31
f 30/65/32 100/66/32 31/67/32
f 10/68/33 101/69/33 79/25/33
f 33/70/34 101/69/34 32/71/34
f 33/70/35 103/72/35 102/73/35
f 34/74/36 104/75/36 103/72/36
f 35/76/37 105/77/37 104/75/37
f 37/78/38 105/77/38 36/79/38
f 37/78/39 107/80/39 106/81/39
f 39/82/40 107/80/40 38/83/40
f 40/84/41 108/85/41 39/82/41
f 41/86/42 109/87/42 40/84/42
f 42/88/43 110/89/43 41/86/43
f 42/88/44 112/90/44 111/91/44
f 44/92/45 112/90/45 43/93/45
f 45/94/46 113/95/46 44/92/46
f 46/96/47 114/97/47 45/94/47
f 46/96/34 116/98/34 115/99/34
f 47/100/48 117/101/48 116/98/48
f 49/102/49 117/101/49 48/103/49
f 49/102/50 119/104/50 118/105/50
f 51/106/51 119/104/51 50/107/51
f 51/106/52 121/108/52 120/109/52
f 53/110/53 121/108/53 52/111/53
f 53/110/54 123/112/54 122/113/54
f 55/114/55 123/112/55 54/115/55
f 56/116/56 124/117/56 55/114/56
f 57/118/57 125/119/57 56/116/57
f 58/120/58 126/121/58 57/118/58
f 58/120/59 128/122/59 127/123/59
f 59/124/60 129/125/60 128/122/60
f 60/126/61 130/127/61 129/125/61
f 62/128/62 130/127/62 61/129/62
f 63/130/63 131/131/63 62/128/63
f 63/130/64 133/132/64 132/133/64
f 64/134/65 134/135/65 133/132/65
f 66/136/66 134/135/66 65/137/66
f 66/136/67 136/138/67 135/139/67
f 67/140/68 137/141/68 136/138/68
f 68/142/69 138/143/69 137/141/69
f 31/67/70 138/143/70 69/144/70
f 140/145/30 141/146/30 139/147/30
f 144/148/71 146/149/71 143/150/71
f 142/151/72 144/148/72 141/146/72
f 139/147/73 146/149/73 140/145/73
f 140/145/74 145/152/74 142/151/74
f 141/146/75 143/150/75 139/147/75
f 6/153/1 5/154/1 1/155/1
f 1/155/1 2/156/1 6/153/1
f 3/157/1 11/158/1 12/159/1
f 2/156/1 4/160/1 6/153/1
f 7/161/1 6/153/1 4/160/1
f 9/162/1 8/163/1 7/161/1
f 9/162/1 7/161/1 12/159/1
f 4/160/1 3/157/1 7/161/1
f 3/157/1 12/159/1 7/161/1
f 10/164/1 9/162/1 13/165/1
f 34/166/1 33/167/1 59/168/1
f 9/162/1 12/159/1 13/165/1
f 35/169/1 34/166/1 59/168/1
f 32/170/1 60/171/1 59/168/1
f 14/172/1 15/173/1 22/174/1
f 10/164/1 13/165/1 14/172/1
f 33/167/1 32/170/1 59/168/1
f 15/173/1 16/175/1 22/174/1
f 17/176/1 18/177/1 20/178/1
f 19/179/1 20/178/1 18/177/1
f 20/178/1 16/175/1 17/176/1
f 16/175/1 21/180/1 22/174/1
f 36/3/1 35/169/1 58/1/1
f 38/181/1 37/182/1 53/183/1
f 40/184/1 39/185/1 43/186/1
f 42/187/1 41/188/1 40/184/1
f 43/186/1 42/187/1 40/184/1
f 43/186/1 39/185/1 38/181/1
f 46/189/1 45/190/1 48/191/1
f 44/192/1 43/186/1 52/193/1
f 10/164/1 14/172/1 60/171/1
f 43/186/1 38/181/1 52/193/1
f 47/194/1 46/189/1 48/191/1
f 50/195/1 49/196/1 48/191/1
f 48/191/1 45/190/1 44/192/1
f 20/178/1 21/180/1 16/175/1
f 48/191/1 44/192/1 51/197/1
f 51/197/1 50/195/1 48/191/1
f 53/183/1 52/193/1 38/181/1
f 55/2/1 54/198/1 36/3/1
f 57/199/1 56/200/1 55/2/1
f 59/168/1 58/1/1 35/169/1
f 58/1/1 57/199/1 55/2/1
f 52/193/1 51/197/1 44/192/1
f 64/201/1 63/202/1 62/203/1
f 66/204/1 65/205/1 67/206/1
f 67/206/1 65/205/1 27/207/1
f 65/205/1 25/208/1 27/207/1
f 31/209/1 69/210/1 68/211/1
f 68/211/1 67/206/1 28/212/1
f 67/206/1 27/207/1 28/212/1
f 30/213/1 31/209/1 68/211/1
f 29/214/1 30/213/1 68/211/1
f 29/214/1 68/211/1 28/212/1
f 64/201/1 25/208/1 65/205/1
f 24/215/1 25/208/1 64/201/1
f 25/208/1 26/216/1 27/207/1
f 62/203/1 23/217/1 24/215/1
f 61/218/1 23/217/1 62/203/1
f 24/215/1 64/201/1 62/203/1
f 10/164/1 60/171/1 32/170/1
f 61/218/1 22/174/1 23/217/1
f 53/183/1 37/182/1 36/3/1
f 61/218/1 60/171/1 22/174/1
f 54/198/1 53/183/1 36/3/1
f 22/174/1 60/171/1 14/172/1
f 70/219/2 74/220/2 75/221/2
f 76/222/2 77/223/2 78/224/2
f 70/219/2 75/221/2 71/225/2
f 73/226/2 71/225/2 75/221/2
f 81/227/2 80/228/2 72/229/2
f 72/229/2 73/226/2 76/222/2
f 75/221/2 76/222/2 73/226/2
f 76/222/2 78/224/2 81/227/2
f 81/227/2 72/229/2 76/222/2
f 82/230/2 78/224/2 79/231/2
f 81/227/2 78/224/2 82/230/2
f 85/232/2 84/233/2 91/234/2
f 83/235/2 82/230/2 79/231/2
f 101/236/2 102/237/2 128/5/2
f 83/235/2 129/238/2 91/234/2
f 86/239/2 85/232/2 89/240/2
f 88/241/2 87/242/2 89/240/2
f 90/243/2 89/240/2 85/232/2
f 91/234/2 90/243/2 85/232/2
f 87/242/2 86/239/2 89/240/2
f 79/231/2 101/236/2 129/238/2
f 102/237/2 103/244/2 128/5/2
f 91/234/2 84/233/2 83/235/2
f 92/245/2 91/234/2 130/246/2
f 103/244/2 104/6/2 128/5/2
f 105/247/2 106/248/2 122/249/2
f 107/250/2 108/251/2 112/252/2
f 109/253/2 110/254/2 111/255/2
f 109/253/2 111/255/2 112/252/2
f 108/251/2 109/253/2 112/252/2
f 113/256/2 114/257/2 117/258/2
f 107/250/2 112/252/2 121/259/2
f 83/235/2 79/231/2 129/238/2
f 106/248/2 107/250/2 122/249/2
f 114/257/2 115/260/2 117/258/2
f 117/258/2 118/261/2 119/262/2
f 115/260/2 116/263/2 117/258/2
f 107/250/2 121/259/2 122/249/2
f 117/258/2 119/262/2 120/264/2
f 120/264/2 121/259/2 113/256/2
f 122/249/2 123/265/2 105/247/2
f 124/266/2 125/267/2 126/268/2
f 126/268/2 127/4/2 124/266/2
f 124/266/2 127/4/2 105/247/2
f 117/258/2 120/264/2 113/256/2
f 131/269/2 132/270/2 133/271/2
f 133/271/2 134/272/2 94/273/2
f 134/272/2 135/274/2 136/275/2
f 131/269/2 133/271/2 93/276/2
f 137/277/2 138/278/2 100/279/2
f 134/272/2 136/275/2 96/280/2
f 130/246/2 131/269/2 92/245/2
f 137/277/2 100/279/2 99/281/2
f 137/277/2 99/281/2 98/282/2
f 136/275/2 137/277/2 97/283/2
f 137/277/2 98/282/2 97/283/2
f 129/238/2 130/246/2 91/234/2
f 96/280/2 95/284/2 94/273/2
f 136/275/2 97/283/2 96/280/2
f 128/5/2 129/238/2 101/236/2
f 96/280/2 94/273/2 134/272/2
f 113/256/2 121/259/2 112/252/2
f 133/271/2 94/273/2 93/276/2
f 105/247/2 123/265/2 124/266/2
f 131/269/2 93/276/2 92/245/2
f 105/247/2 127/4/2 104/6/2
f 5/7/3 74/17/3 70/8/3
f 1/9/4 70/8/4 71/10/4
f 2/11/5 71/10/5 73/12/5
f 4/13/6 73/12/6 72/14/6
f 6/16/7 75/19/7 74/17/7
f 7/18/8 76/21/8 75/19/8
f 7/18/9 8/22/9 77/20/9
f 8/22/10 9/24/10 78/23/10
f 9/24/11 10/68/11 79/25/11
f 3/15/12 72/14/12 80/26/12
f 11/27/13 80/26/13 81/28/13
f 12/29/14 81/28/14 82/30/14
f 13/31/15 82/30/15 83/32/15
f 14/33/16 83/32/16 84/34/16
f 16/36/76 15/35/76 84/34/76
f 16/36/18 85/37/18 86/38/18
f 18/40/19 17/39/19 86/38/19
f 19/42/20 18/40/20 87/41/20
f 19/42/21 88/43/21 89/44/21
f 20/45/22 89/44/22 90/46/22
f 21/47/23 90/46/23 91/48/23
f 22/49/24 91/48/24 92/50/24
f 23/51/25 92/50/25 93/52/25
f 24/53/26 93/52/26 94/54/26
f 26/56/27 25/55/27 94/54/27
f 27/58/28 26/56/28 95/57/28
f 27/58/29 96/59/29 97/60/29
f 29/62/30 28/61/30 97/60/30
f 29/62/31 98/63/31 99/64/31
f 30/65/32 99/64/32 100/66/32
f 10/68/33 32/71/33 101/69/33
f 33/70/34 102/73/34 101/69/34
f 33/70/35 34/74/35 103/72/35
f 34/74/36 35/76/36 104/75/36
f 35/76/77 36/79/77 105/77/77
f 37/78/38 106/81/38 105/77/38
f 37/78/39 38/83/39 107/80/39
f 39/82/40 108/85/40 107/80/40
f 40/84/41 109/87/41 108/85/41
f 41/86/42 110/89/42 109/87/42
f 42/88/43 111/91/43 110/89/43
f 42/88/44 43/93/44 112/90/44
f 44/92/45 113/95/45 112/90/45
f 45/94/78 114/97/78 113/95/78
f 46/96/47 115/99/47 114/97/47
f 46/96/34 47/100/34 116/98/34
f 47/100/48 48/103/48 117/101/48
f 49/102/49 118/105/49 117/101/49
f 49/102/79 50/107/79 119/104/79
f 51/106/51 120/109/51 119/104/51
f 51/106/52 52/111/52 121/108/52
f 53/110/53 122/113/53 121/108/53
f 53/110/54 54/115/54 123/112/54
f 55/114/55 124/117/55 123/112/55
f 56/116/56 125/119/56 124/117/56
f 57/118/57 126/121/57 125/119/57
f 58/120/58 127/123/58 126/121/58
f 58/120/59 59/124/59 128/122/59
f 59/124/60 60/126/60 129/125/60
f 60/126/61 61/129/61 130/127/61
f 62/128/62 131/131/62 130/127/62
f 63/130/63 132/133/63 131/131/63
f 63/130/64 64/134/64 133/132/64
f 64/134/65 65/137/65 134/135/65
f 66/136/66 135/139/66 134/135/66
f 66/136/67 67/140/67 136/138/67
f 67/140/68 68/142/68 137/141/68
f 68/142/69 69/144/69 138/143/69
f 31/67/70 100/66/70 138/143/70
f 140/145/30 142/151/30 141/146/30
f 144/148/71 145/152/71 146/149/71
f 142/151/72 145/152/72 144/148/72
f 139/147/73 143/150/73 146/149/73
f 140/145/74 146/149/74 145/152/74
f 141/146/75 144/148/75 143/150/75
o 0_0.001
v -28.199409 0.000000 2.802207
v 28.199409 0.000000 2.802207
v -28.199409 0.000000 -49.793991
v 28.199409 0.000000 -49.793991
v -28.199409 148.930374 -5.555211
v -28.199409 148.930374 -3.246642
v 28.199409 148.930374 -3.246642
v 28.199409 148.930374 -5.555211
vn 0.0000 -1.0000 0.0000
vn 0.0000 1.0000 0.0000
vn 1.0000 0.0000 0.0000
vn -1.0000 0.0000 0.0000
vn 0.0000 0.2847 -0.9586
vn 0.0000 0.0406 0.9992
usemtl None_NONE
s off
f 147//80 149//80 150//80 148//80
f 152//81 153//81 154//81 151//81
f 148//82 150//82 154//82 153//82
f 149//83 147//83 152//83 151//83
f 150//84 149//84 151//84 154//84
f 147//85 148//85 153//85 152//85
