# Blender 3.5.1
# www.blender.org
mtllib kazzythedragon.mtl
o 0
v -38.528160 -65.369781 -4.198454
v -38.450748 -63.747608 -4.092163
v -38.581928 -68.770905 -4.421310
v -38.528160 -65.404160 -3.673740
v -38.450748 -63.781986 -3.567448
v -38.581928 -68.805283 -3.896595
v 42.290298 -68.805283 -3.896631
v 42.290295 -51.190750 -2.742453
v 42.290298 -68.770905 -4.421346
v 42.290295 -51.156368 -3.267168
v 40.896877 -49.688679 -3.170998
v 33.000820 -48.452736 -3.090009
v 40.896877 -49.723057 -2.646282
v 33.000820 -48.487114 -2.565295
v 25.956299 -44.547535 -2.307153
v 21.776033 -37.286350 -1.831368
v 25.956299 -44.513153 -2.831868
v 21.776033 -37.251968 -2.356083
v 22.163109 26.399292 1.814618
v 23.556532 26.476547 1.819679
v 22.163109 26.364906 2.339333
v 23.556532 26.442154 2.344394
v 23.556532 28.218842 2.460810
v 23.246881 35.866226 2.961900
v 23.556532 28.253212 1.936095
v 23.246881 35.900612 2.437185
v 17.131310 58.533882 3.920215
v 17.053898 73.674263 4.912277
v 17.131311 58.499512 4.444929
v 17.053900 73.639900 5.436992
v 29.130215 64.293045 4.824542
v 32.613773 63.443321 4.768864
v 29.130213 64.327431 4.299828
v 32.613773 63.477707 4.244149
v 36.639210 63.709450 4.259333
v 39.038994 66.644814 4.451669
v 36.639210 63.675064 4.784047
v 39.038994 66.610428 4.976384
v 39.735710 70.472755 5.229459
v 39.038994 74.103371 5.467352
v 39.735710 70.507149 4.704743
v 39.038994 74.137764 4.942637
v 23.479113 93.681129 6.223209
v 20.460037 94.144600 6.253582
v 23.479113 93.646751 6.747925
v 20.460037 94.110237 6.778296
v 18.292490 95.964165 6.899774
v 16.666830 100.212730 7.178156
v 18.292490 95.998528 6.375059
v 16.666830 100.247108 6.653441
v 9.699723 103.645958 6.876154
v 5.829104 102.487251 6.800233
v 9.699724 103.611580 7.400868
v 5.829104 102.452888 7.324948
v 8.228889 106.701469 7.603332
v 7.919243 118.442924 8.372683
v 8.228889 106.735832 7.078617
v 7.919243 118.477303 7.847968
v 1.494021 123.884590 8.202280
v -5.782748 123.807335 8.197221
v 1.494021 123.850227 8.726995
v -5.782747 123.772957 8.721936
v -11.433839 117.747719 8.327139
v -11.201608 106.315208 7.578032
v -11.433839 117.782097 7.802423
v -11.201609 106.349586 7.053316
v -9.653363 101.174019 6.714190
v -10.427486 98.702156 6.552222
v -9.653362 101.139641 7.238905
v -10.427485 98.667763 7.076938
v -14.607754 96.891075 6.960524
v -27.148546 95.114403 6.844115
v -14.607755 96.925468 6.435809
v -27.148546 95.148796 6.319400
v -28.851622 93.217628 6.192863
v -29.935392 87.887611 5.843616
v -28.851622 93.183250 6.717578
v -29.935392 87.853218 6.368331
v -30.322460 72.635612 5.371210
v -29.161272 70.163719 5.209240
v -30.322462 72.670006 4.846496
v -29.161274 70.198112 4.684525
v -26.451834 68.962166 4.603539
v -20.723326 69.193901 4.618722
v -26.451832 68.927773 5.128255
v -20.723324 69.159508 5.143437
v -19.484726 51.315536 3.974223
v -22.194159 29.918198 2.572179
v -19.484726 51.349922 3.449508
v -22.194159 29.952568 2.047464
v -21.652266 26.553749 1.824758
v -18.633194 24.236351 1.672911
v -21.652266 26.519363 2.349473
v -18.633194 24.201965 2.197626
v -21.187799 -7.546406 0.117339
v -27.148544 -37.827103 -1.866778
v -21.187799 -7.512024 -0.407376
v -27.148544 -37.792721 -2.391493
v -27.845263 -53.628296 -3.429107
v -29.935394 -57.722359 -3.697366
v -27.845263 -53.662674 -2.904392
v -29.935394 -57.756737 -3.172651
v -38.581928 -68.805283 -3.896595
v 42.290298 -68.805283 -3.896631
v -38.581928 -68.805283 38.730190
v 42.290302 -68.805283 38.730156
vn -0.0000 0.0654 -0.9979
vn -0.9989 0.0475 0.0031
vn -0.9999 0.0157 0.0010
vn -0.0000 -0.0654 0.9979
vn -0.0000 -0.9979 -0.0654
vn 1.0000 -0.0000 -0.0000
vn 0.7260 0.6863 0.0450
vn 0.1550 0.9858 0.0646
vn 0.4889 0.8705 0.0570
vn 0.8671 0.4971 0.0326
vn 1.0000 -0.0061 -0.0004
vn 0.0555 -0.9963 -0.0653
vn 0.9992 0.0403 0.0026
vn 0.9655 0.2598 0.0170
vn 1.0000 0.0051 0.0003
vn -0.6129 -0.7885 -0.0517
vn -0.2375 -0.9693 -0.0635
vn 0.0576 -0.9962 -0.0653
vn 0.7749 -0.6308 -0.0413
vn 0.9842 -0.1768 -0.0116
vn 0.9822 0.1877 0.0123
vn 0.7830 0.6207 0.0407
vn 0.1521 0.9863 0.0646
vn 0.6508 0.7576 0.0496
vn 0.9342 0.3559 0.0233
vn 0.4392 0.8965 0.0587
vn -0.2873 0.9558 0.0626
vn 0.8712 -0.4900 -0.0321
vn 0.9997 0.0263 0.0017
vn 0.6447 0.7628 0.0500
vn -0.0106 0.9978 0.0654
vn -0.7301 0.6819 0.0447
vn -0.9998 -0.0202 -0.0013
vn -0.9582 -0.2854 -0.0187
vn -0.9545 0.2976 0.0195
vn -0.3919 0.9181 0.0602
vn -0.1406 0.9880 0.0647
vn -0.7507 0.6592 0.0432
vn -0.9800 0.1984 0.0130
vn -0.9997 0.0253 0.0017
vn -0.9055 -0.4235 -0.0278
vn -0.4158 -0.9075 -0.0595
vn 0.0405 -0.9970 -0.0653
vn -0.9976 -0.0690 -0.0045
vn -0.9921 0.1251 0.0082
vn -0.9876 -0.1568 -0.0103
vn -0.6097 -0.7909 -0.0518
vn -0.9968 0.0799 0.0052
vn -0.9812 0.1923 0.0126
vn -0.9990 0.0438 0.0029
vn -0.8910 0.4530 0.0297
vn -0.5784 0.8140 0.0533
vn -1.0000 -0.0000 -0.0000
vn -0.0000 -1.0000 -0.0000
vt 0.385790 0.046641
vt 0.988292 0.038055
vt 0.385523 0.054370
vt 0.988292 0.046159
vt 0.385976 0.030437
vt 0.988292 0.021063
vt 0.997317 0.038392
vt 0.686202 0.046641
vt 0.685935 0.054370
vt 0.997317 0.046497
vt 0.997317 0.021400
vt 0.686387 0.030437
vt 0.997317 0.021400
vt 0.407511 0.031604
vt 0.407511 0.114361
vt 0.997316 0.109403
vt 0.107099 0.031604
vt 0.988292 0.021063
vt 0.107099 0.114361
vt 0.988290 0.109066
vt 0.111904 0.121354
vt 0.988290 0.116399
vt 0.139133 0.127242
vt 0.988290 0.122574
vt 0.412316 0.121354
vt 0.997315 0.116736
vt 0.439544 0.127242
vt 0.997315 0.122911
vt 0.463836 0.146012
vt 0.997314 0.142593
vt 0.478251 0.180608
vt 0.997313 0.178870
vt 0.163425 0.146012
vt 0.988290 0.142256
vt 0.177840 0.180608
vt 0.988288 0.178533
vt 0.176505 0.483874
vt 0.988280 0.496539
vt 0.171700 0.484242
vt 0.988280 0.496925
vt 0.476916 0.483874
vt 0.997305 0.496876
vt 0.472111 0.484242
vt 0.997305 0.497262
vt 0.472111 0.492707
vt 0.997305 0.506138
vt 0.473179 0.529143
vt 0.997304 0.544345
vt 0.171700 0.492707
vt 0.988280 0.505801
vt 0.172768 0.529143
vt 0.988279 0.544008
vt 0.193856 0.636979
vt 0.988276 0.657085
vt 0.194123 0.709115
vt 0.988274 0.732728
vt 0.494268 0.636979
vt 0.997301 0.657423
vt 0.494535 0.709115
vt 0.997299 0.733065
vt 0.452891 0.664582
vt 0.997300 0.686367
vt 0.440879 0.660534
vt 0.997300 0.682122
vt 0.152480 0.664582
vt 0.988275 0.686030
vt 0.140467 0.660534
vt 0.988276 0.681785
vt 0.126586 0.661638
vt 0.988275 0.682943
vt 0.118311 0.675624
vt 0.988275 0.697608
vt 0.426998 0.661638
vt 0.997300 0.683280
vt 0.418722 0.675624
vt 0.997300 0.697945
vt 0.416320 0.694026
vt 0.997299 0.717242
vt 0.418722 0.711324
vt 0.997299 0.735380
vt 0.115908 0.694026
vt 0.988275 0.716905
vt 0.118311 0.711324
vt 0.988274 0.735043
vt 0.171967 0.804438
vt 0.988272 0.832683
vt 0.182378 0.806646
vt 0.988272 0.834999
vt 0.472378 0.804438
vt 0.997296 0.833020
vt 0.482789 0.806646
vt 0.997297 0.835336
vt 0.490264 0.815479
vt 0.997296 0.844598
vt 0.495870 0.835721
vt 0.997296 0.865824
vt 0.189852 0.815479
vt 0.988271 0.844261
vt 0.195458 0.835721
vt 0.988270 0.865487
vt 0.219483 0.851915
vt 0.988271 0.882468
vt 0.232830 0.846395
vt 0.988271 0.876679
vt 0.519895 0.851915
vt 0.997296 0.882805
vt 0.533242 0.846395
vt 0.997296 0.877016
vt 0.524967 0.866637
vt 0.997294 0.898242
vt 0.526034 0.922579
vt 0.997294 0.956904
vt 0.224555 0.866637
vt 0.988270 0.897905
vt 0.225623 0.922579
vt 0.988269 0.956567
vt 0.247779 0.948342
vt 0.988268 0.983581
vt 0.272872 0.947974
vt 0.988268 0.983196
vt 0.548191 0.948342
vt 0.997293 0.983919
vt 0.573284 0.947974
vt 0.997292 0.983533
vt 0.592771 0.919267
vt 0.997293 0.953430
vt 0.591970 0.864797
vt 0.997295 0.896313
vt 0.292359 0.919267
vt 0.988268 0.953093
vt 0.291559 0.864797
vt 0.988270 0.895976
vt 0.286220 0.840138
vt 0.988271 0.870118
vt 0.288889 0.828360
vt 0.988271 0.857769
vt 0.586631 0.840138
vt 0.997296 0.870456
vt 0.589301 0.828360
vt 0.997296 0.858106
vt 0.603716 0.819895
vt 0.997296 0.849229
vt 0.646961 0.811431
vt 0.997296 0.840353
vt 0.303304 0.819895
vt 0.988271 0.848892
vt 0.346549 0.811431
vt 0.988272 0.840016
vt 0.352422 0.802230
vt 0.988272 0.830368
vt 0.356159 0.776835
vt 0.988273 0.803738
vt 0.652834 0.802230
vt 0.997296 0.830705
vt 0.656571 0.776835
vt 0.997298 0.804075
vt 0.657906 0.704331
vt 0.997299 0.728047
vt 0.653901 0.692553
vt 0.997299 0.715698
vt 0.357494 0.704331
vt 0.988274 0.727710
vt 0.353490 0.692553
vt 0.988275 0.715361
vt 0.344147 0.686665
vt 0.988275 0.709186
vt 0.324393 0.687769
vt 0.988274 0.710343
vt 0.644558 0.686665
vt 0.997300 0.709523
vt 0.624804 0.687769
vt 0.997300 0.710681
vt 0.620533 0.602751
vt 0.997302 0.621531
vt 0.629876 0.500804
vt 0.997305 0.514628
vt 0.320122 0.602751
vt 0.988277 0.621194
vt 0.329465 0.500804
vt 0.988280 0.514291
vt 0.327596 0.484610
vt 0.988280 0.497311
vt 0.317185 0.473569
vt 0.988280 0.485733
vt 0.628008 0.484610
vt 0.997305 0.497648
vt 0.617597 0.473569
vt 0.997306 0.486070
vt 0.626406 0.322304
vt 0.997310 0.327453
vt 0.646961 0.178032
vt 0.997313 0.176169
vt 0.325994 0.322304
vt 0.988285 0.327116
vt 0.346549 0.178032
vt 0.988289 0.175832
vt 0.348952 0.102583
vt 0.988290 0.096716
vt 0.356159 0.083077
vt 0.988291 0.076262
vt 0.649363 0.102583
vt 0.997316 0.097053
vt 0.656571 0.083077
vt 0.997316 0.076599
vt 0.686387 0.030437
vt 0.407511 0.031604
vt 0.686387 0.030437
vt 0.407511 0.031604
s 0
usemtl Material.001
f 9/17/1 3/5/1 1/1/1 2/3/1 100/199/1 99/197/1 98/195/1 97/193/1 92/183/1 91/181/1 90/179/1 89/177/1 84/167/1 83/165/1 82/163/1 81/161/1 76/151/1 75/149/1 74/147/1 73/145/1 68/135/1 67/133/1 66/131/1 65/129/1 60/119/1 59/117/1 58/115/1 57/113/1 52/103/1 51/101/1 50/99/1 49/97/1 44/87/1 43/85/1 42/83/1 41/81/1 36/71/1 35/69/1 34/67/1 33/65/1 28/55/1 27/53/1 26/51/1 25/49/1 20/39/1 19/37/1 18/35/1 17/33/1 12/23/1 11/21/1 10/19/1
f 2/4/2 1/2/2 4/7/2 5/10/2
f 1/2/3 3/6/3 6/11/3 4/7/3
f 7/14/4 8/15/4 13/25/4 14/27/4 15/29/4 16/31/4 21/41/4 22/43/4 23/45/4 24/47/4 29/57/4 30/59/4 31/61/4 32/63/4 37/73/4 38/75/4 39/77/4 40/79/4 45/89/4 46/91/4 47/93/4 48/95/4 53/105/4 54/107/4 55/109/4 56/111/4 61/121/4 62/123/4 63/125/4 64/127/4 69/137/4 70/139/4 71/141/4 72/143/4 77/153/4 78/155/4 79/157/4 80/159/4 85/169/4 86/171/4 87/173/4 88/175/4 93/185/4 94/187/4 95/189/4 96/191/4 101/201/4 102/203/4 5/9/4 4/8/4 6/12/4
f 3/6/5 9/18/5 7/13/5 6/11/5
f 9/18/6 10/20/6 8/16/6 7/13/6
f 10/20/7 11/22/7 13/26/7 8/16/7
f 11/22/8 12/24/8 14/28/8 13/26/8
f 12/24/9 17/34/9 15/30/9 14/28/9
f 17/34/10 18/36/10 16/32/10 15/30/10
f 18/36/11 19/38/11 21/42/11 16/32/11
f 19/38/12 20/40/12 22/44/12 21/42/12
f 20/40/6 25/50/6 23/46/6 22/44/6
f 25/50/13 26/52/13 24/48/13 23/46/13
f 26/52/14 27/54/14 29/58/14 24/48/14
f 27/54/15 28/56/15 30/60/15 29/58/15
f 28/56/16 33/66/16 31/62/16 30/60/16
f 33/66/17 34/68/17 32/64/17 31/62/17
f 34/68/18 35/70/18 37/74/18 32/64/18
f 35/70/19 36/72/19 38/76/19 37/74/19
f 36/72/20 41/82/20 39/78/20 38/76/20
f 41/82/21 42/84/21 40/80/21 39/78/21
f 42/84/22 43/86/22 45/90/22 40/80/22
f 43/86/23 44/88/23 46/92/23 45/90/23
f 44/88/24 49/98/24 47/94/24 46/92/24
f 49/98/25 50/100/25 48/96/25 47/94/25
f 50/100/26 51/102/26 53/106/26 48/96/26
f 51/102/27 52/104/27 54/108/27 53/106/27
f 52/104/28 57/114/28 55/110/28 54/108/28
f 57/114/29 58/116/29 56/112/29 55/110/29
f 58/116/30 59/118/30 61/122/30 56/112/30
f 59/118/31 60/120/31 62/124/31 61/122/31
f 60/120/32 65/130/32 63/126/32 62/124/32
f 65/130/33 66/132/33 64/128/33 63/126/33
f 66/132/34 67/134/34 69/138/34 64/128/34
f 67/134/35 68/136/35 70/140/35 69/138/35
f 68/136/36 73/146/36 71/142/36 70/140/36
f 73/146/37 74/148/37 72/144/37 71/142/37
f 74/148/38 75/150/38 77/154/38 72/144/38
f 75/150/39 76/152/39 78/156/39 77/154/39
f 76/152/40 81/162/40 79/158/40 78/156/40
f 81/162/41 82/164/41 80/160/41 79/158/41
f 82/164/42 83/166/42 85/170/42 80/160/42
f 83/166/43 84/168/43 86/172/43 85/170/43
f 84/168/44 89/178/44 87/174/44 86/172/44
f 89/178/45 90/180/45 88/176/45 87/174/45
f 90/180/46 91/182/46 93/186/46 88/176/46
f 91/182/47 92/184/47 94/188/47 93/186/47
f 92/184/48 97/194/48 95/190/48 94/188/48
f 97/194/49 98/196/49 96/192/49 95/190/49
f 98/196/50 99/198/50 101/202/50 96/192/50
f 99/198/51 100/200/51 102/204/51 101/202/51
f 100/200/52 2/4/52 5/10/52 102/204/52
f 6/12/53 7/14/53 104/206/53 103/205/53
f 103/205/54 104/206/54 106/208/54 105/207/54
