# Blender 3.6.5
# www.blender.org
mtllib KerStickyNote.mtl
o Cube
v -10.617290 0.908002 1.699829
v -10.617290 23.583826 0.173097
v -10.617290 0.618904 1.509376
v -10.617290 23.583826 -0.173097
v 10.617290 0.908002 1.699829
v 10.617290 23.583826 0.173097
v 10.617290 0.618904 1.509376
v 10.617290 23.583826 -0.173097
v -10.617290 1.943642 0.763026
v -10.617290 1.710423 0.507177
v 10.617290 1.710423 0.507177
v 10.617290 1.943642 0.763026
v -10.617290 3.053276 0.261413
v -10.617290 2.911341 -0.054347
v 10.617290 2.911341 -0.054347
v 10.617290 3.053276 0.261413
v -10.617290 4.019393 0.172935
v -10.617290 3.917815 -0.158020
v 10.617290 3.917815 -0.158020
v 10.617290 4.019393 0.172935
v -10.617290 4.864645 0.173097
v -10.617290 4.864645 -0.173097
v 10.617290 4.864645 -0.173097
v 10.617290 4.864645 0.173097
v -10.617290 20.981224 0.173097
v -10.617290 20.981224 -0.173097
v 10.617290 20.981224 -0.173097
v 10.617290 20.981224 0.173097
v -10.184720 23.211613 -0.492065
v 10.184720 23.211613 -0.492065
v -10.184720 21.353437 -0.492065
v 10.184720 21.353437 -0.492065
vn -1.0000 -0.0000 -0.0000
vn -0.0000 0.6507 -0.7593
vn 1.0000 -0.0000 -0.0000
vn -0.0000 -0.0000 1.0000
vn -0.0000 -0.5501 0.8351
vn -0.0000 1.0000 -0.0000
vn -0.0000 0.6708 0.7416
vn -0.0000 -0.6763 -0.7366
vn -0.0000 0.4119 0.9112
vn -0.0000 -0.4236 -0.9059
vn -0.0000 0.0912 0.9958
vn -0.0000 -0.1025 -0.9947
vn -0.0000 -0.0002 1.0000
vn -0.0000 -0.0159 -0.9999
vn -0.0000 -0.0000 -1.0000
vn -0.5935 -0.0000 -0.8048
vn -0.0000 -0.6507 -0.7593
vn 0.5935 -0.0000 -0.8048
vt 0.602472 0.422074
vt 0.614757 0.410517
vt 0.722454 0.524996
vt 0.710169 0.536553
vt 0.344708 0.165003
vt 0.501885 0.165003
vt 0.498683 0.309630
vt 0.347910 0.309630
vt 0.536553 0.710169
vt 0.524996 0.722454
vt 0.410517 0.614757
vt 0.422074 0.602472
vt 0.531599 0.335939
vt 0.514733 0.335939
vt 0.514733 0.178763
vt 0.531599 0.178763
vt 0.836474 0.771715
vt 0.993651 0.771715
vt 0.993651 0.858061
vt 0.836474 0.858061
vt 0.344708 0.007935
vt 0.501885 0.007935
vt 0.163922 0.205035
vt 0.163922 0.630312
vt 0.006746 0.630312
vt 0.006746 0.205035
vt 0.070612 0.090657
vt 0.397173 0.407582
vt 0.311533 0.329091
vt 0.006349 0.032774
vt 0.836474 0.316741
vt 0.993651 0.316741
vt 0.032774 0.006349
vt 0.329090 0.311533
vt 0.407582 0.397173
vt 0.090657 0.070612
vt 0.163922 0.858161
vt 0.006746 0.858161
vt 0.577525 0.587934
vt 0.472479 0.490375
vt 0.836474 0.061687
vt 0.993651 0.061687
vt 0.490374 0.472479
vt 0.587934 0.577525
vt 0.163922 0.898535
vt 0.006746 0.898535
vt 0.607339 0.624936
vt 0.497447 0.522459
vt 0.836474 0.014415
vt 0.993651 0.014415
vt 0.522459 0.497447
vt 0.624936 0.607339
vt 0.641522 0.335939
vt 0.636044 0.335939
vt 0.636044 0.178763
vt 0.641522 0.178763
vt 0.608120 0.634096
vt 0.493640 0.526399
vt 0.836474 0.007355
vt 0.993651 0.007355
vt 0.526399 0.493640
vt 0.634095 0.608120
vt 0.203161 0.006746
vt 0.307607 0.006746
vt 0.307607 0.163922
vt 0.203161 0.163922
vt 0.528193 0.157851
vt 0.516151 0.157851
vt 0.516151 0.007078
vt 0.528193 0.007078
vt 0.819931 0.632133
vt 0.811160 0.640384
vt 0.176963 0.514027
vt 0.176963 0.356851
vt 0.321773 0.360053
vt 0.321773 0.510825
vt 0.640384 0.811160
vt 0.632133 0.819931
s 0
usemtl Material.001
f 25/1/1 2/2/1 4/3/1 26/4/1
f 4/5/2 8/6/2 30/7/2 29/8/2
f 27/9/3 8/10/3 6/11/3 28/12/3
f 28/13/4 6/14/4 2/15/4 25/16/4
f 3/17/5 7/18/5 5/19/5 1/20/5
f 8/6/6 4/5/6 2/21/6 6/22/6
f 5/23/7 12/24/7 9/25/7 1/26/7
f 7/27/3 11/28/3 12/29/3 5/30/3
f 3/17/8 10/31/8 11/32/8 7/18/8
f 1/33/1 9/34/1 10/35/1 3/36/1
f 12/24/9 16/37/9 13/38/9 9/25/9
f 11/28/3 15/39/3 16/40/3 12/29/3
f 10/31/10 14/41/10 15/42/10 11/32/10
f 9/34/1 13/43/1 14/44/1 10/35/1
f 16/37/11 20/45/11 17/46/11 13/38/11
f 15/39/3 19/47/3 20/48/3 16/40/3
f 14/41/12 18/49/12 19/50/12 15/42/12
f 13/43/1 17/51/1 18/52/1 14/44/1
f 20/53/13 24/54/13 21/55/13 17/56/13
f 19/47/3 23/57/3 24/58/3 20/48/3
f 18/49/14 22/59/14 23/60/14 19/50/14
f 17/51/1 21/61/1 22/62/1 18/52/1
f 24/54/4 28/13/4 25/16/4 21/55/4
f 23/57/3 27/9/3 28/12/3 24/58/3
f 22/63/15 26/64/15 27/65/15 23/66/15
f 21/61/1 25/1/1 26/4/1 22/62/1
f 31/67/15 29/68/15 30/69/15 32/70/15
f 26/4/16 4/3/16 29/71/16 31/72/16
f 27/73/17 26/74/17 31/75/17 32/76/17
f 8/10/18 27/9/18 32/77/18 30/78/18
