# Blender 3.6.3
# www.blender.org
mtllib matpat.mtl
o 0
v -13.122444 23.324768 7.429104
v -15.178015 23.324768 7.429104
v -13.122444 1.433291 -5.209944
v -15.178015 1.433293 -5.209943
v -15.178015 1.449845 7.493623
v -13.122444 1.449838 7.493619
v -17.786160 75.172859 9.511320
v -18.838112 73.606918 9.511320
v -17.525068 70.572311 9.511322
v -18.522959 66.747124 9.511322
v -19.299614 65.599785 9.511324
v -19.671806 61.836281 9.511320
v -19.330208 60.060669 9.511324
v -20.739960 59.469597 9.511322
v -21.472317 45.820389 9.511322
v -23.595501 45.756176 9.511320
v -27.642345 42.208778 9.511322
v -31.006094 36.835140 9.511322
v -32.138515 31.699173 9.511322
v -32.676464 24.866417 9.511320
v -38.572117 13.873566 9.511320
v -31.854986 2.385999 9.511318
v 32.686646 2.385999 9.511318
v 34.722572 11.432148 9.511322
v 33.798744 14.475542 9.511320
v 37.550644 20.953609 9.511320
v 37.758461 31.250462 9.511322
v 36.578430 44.459450 9.511322
v 30.595451 48.256065 9.511320
v 16.979752 52.191673 9.511320
v 12.007942 57.256832 9.511324
v 9.583981 57.990871 9.511320
v 13.542652 67.453209 9.511320
v 15.467461 74.179749 9.511320
v 13.770943 81.712440 9.511316
v 8.162186 87.255264 9.511322
v -0.258865 89.629524 9.511316
v -7.159592 89.681519 9.511316
v -16.316399 85.809151 9.511322
v -18.515757 82.594521 9.511318
v -19.011070 80.309883 9.511320
v -17.843803 78.013199 9.511320
v -17.786158 75.172874 7.469923
v -18.838112 73.606918 7.469923
v -17.525068 70.572311 7.469922
v -18.522957 66.747124 7.469925
v -19.299614 65.599785 7.469923
v -19.671806 61.836281 7.469923
v -19.330208 60.060665 7.469922
v -20.739958 59.469597 7.469923
v -21.472315 45.820389 7.469922
v -23.595497 45.756180 7.469923
v -27.642342 42.208775 7.469920
v -31.006090 36.835140 7.469922
v -32.138523 31.699177 7.469923
v -32.676464 24.866413 7.469920
v -38.572113 13.873564 7.469922
v -31.854984 2.386002 7.469920
v 32.686646 2.386002 7.469920
v 34.722565 11.432149 7.469923
v 33.798744 14.475540 7.469922
v 37.550644 20.953609 7.469922
v 37.758453 31.250465 7.469923
v 36.578438 44.459454 7.469923
v 30.595463 48.256073 7.469923
v 16.979752 52.191677 7.469921
v 12.007950 57.256828 7.469923
v 9.583984 57.990871 7.469923
v 13.542652 67.453217 7.469922
v 15.467464 74.179749 7.469925
v 13.770943 81.712440 7.469920
v 8.162186 87.255257 7.469922
v -0.258858 89.629532 7.469923
v -7.159590 89.681526 7.469923
v -16.316399 85.809151 7.469923
v -18.515753 82.594528 7.469923
v -19.011070 80.309891 7.469922
v -17.843803 78.013191 7.469920
v -31.695280 1.521199 9.511320
v 32.518150 1.517200 7.469922
v -31.695280 1.521198 7.469921
v 32.518150 1.517198 9.511322
v 19.736237 23.324768 7.429102
v 17.680660 23.324768 7.429102
v 19.736237 1.433292 -5.209945
v 17.680660 1.433294 -5.209944
v 17.680660 1.449845 7.493621
v 19.736237 1.449839 7.493617
v -22.569260 58.066883 9.511322
v -22.569260 58.066883 7.469923
v -23.562435 47.877148 9.511322
v -23.562435 47.877148 7.469921
vn -0.0000 0.5000 -0.8660
vn 0.9956 -0.0936 0.0001
vn -0.0000 0.0029 1.0000
vn -1.0000 -0.0000 -0.0000
vn 1.0000 -0.0000 -0.0000
vn -0.8633 -0.5048 -0.0000
vn -0.8813 0.4726 -0.0000
vn 0.9756 -0.2196 -0.0000
vn -0.9969 0.0785 -0.0000
vn 0.9569 0.2905 -0.0000
vn 0.8653 -0.5012 -0.0000
vn -0.9765 0.2153 -0.0000
vn 0.9998 -0.0202 -0.0000
vn -0.8476 0.5306 -0.0000
vn -0.6592 0.7520 -0.0000
vn -0.0302 0.9995 -0.0000
vn 0.9960 0.0890 -0.0000
vn 0.5358 0.8443 -0.0000
vn -0.6085 0.7936 -0.0000
vn 0.2777 0.9607 -0.0000
vn -0.3867 0.9222 -0.0000
vn 0.7137 0.7005 -0.0000
vn 0.2898 0.9571 -0.0000
vn -0.9820 -0.1889 -0.0000
vn -0.9951 0.0984 -0.0000
vn -0.8281 0.5606 -0.0000
vn -0.9676 0.2524 -0.0000
vn -0.9178 -0.3971 -0.0000
vn 0.9225 -0.3859 -0.0000
vn -0.8301 0.5576 -0.0000
vn -0.9998 -0.0203 -0.0000
vn 0.9614 -0.2751 -0.0000
vn -0.8915 -0.4531 -0.0000
vn -0.9773 0.2119 -0.0000
vn -0.8253 0.5647 -0.0000
vn 0.9756 0.2197 -0.0000
vn -0.0000 -1.0000 0.0013
vn 0.0075 1.0000 -0.0000
vn 0.7029 0.7113 -0.0000
vn -0.0000 -0.0000 1.0000
vn -0.0000 -0.0000 -1.0000
vn -0.3895 0.9210 -0.0000
vn 0.2714 0.9625 -0.0000
vn -0.9834 -0.1816 -0.0000
vn 0.9817 -0.1904 -0.0000
vn -0.0001 -1.0000 -0.0000
vn -0.7014 -0.7128 -0.0000
vn -0.9953 0.0970 -0.0000
vt 0.846693 0.769068
vt 0.840435 0.769068
vt 0.846693 0.692114
vt 0.931963 0.758938
vt 0.893289 0.692114
vt 0.893289 0.759001
vt 0.792105 0.695259
vt 0.825572 0.752833
vt 0.797515 0.692114
vt 0.857264 0.692114
vt 0.851006 0.769068
vt 0.851006 0.692114
vt 0.715504 0.692114
vt 0.750012 0.750015
vt 0.742654 0.749248
vt 0.792105 0.772213
vt 0.715504 0.780675
vt 0.999010 0.876852
vt 0.982178 0.991667
vt 0.982178 0.876852
vt 0.999010 0.770370
vt 0.982178 0.770370
vt 0.982178 0.087963
vt 0.999010 0.008333
vt 0.999010 0.087963
vt 0.999010 0.712037
vt 0.982178 0.712037
vt 0.982178 0.114815
vt 0.999010 0.114815
vt 0.999010 0.179630
vt 0.982178 0.667593
vt 0.982178 0.267593
vt 0.999010 0.267593
vt 0.999010 0.667593
vt 0.982178 0.612037
vt 0.999010 0.612037
vt 0.982178 0.566667
vt 0.999010 0.566667
vt 0.982178 0.549074
vt 0.999010 0.549074
vt 0.982178 0.379630
vt 0.999010 0.379630
vt 0.999010 0.440741
vt 0.999010 0.415235
vt 0.982178 0.396296
vt 0.999010 0.396296
vt 0.999010 0.562037
vt 0.982178 0.440741
vt 0.999010 0.382407
vt 0.982178 0.382407
vt 0.999010 0.622222
vt 0.982178 0.562037
vt 0.999010 0.643519
vt 0.982178 0.622222
vt 0.982178 0.367593
vt 0.999010 0.367593
vt 0.982178 0.335185
vt 0.999010 0.335185
vt 0.982178 0.323148
vt 0.999010 0.323148
vt 0.982178 0.288889
vt 0.999010 0.288889
vt 0.999010 0.261111
vt 0.982178 0.731481
vt 0.999010 0.731481
vt 0.982178 0.244444
vt 0.982178 0.261111
vt 0.999010 0.244444
vt 0.982178 0.221296
vt 0.999010 0.221296
vt 0.982178 0.790741
vt 0.999010 0.790741
vt 0.999010 0.198148
vt 0.982178 0.178704
vt 0.982178 0.198148
vt 0.999010 0.178704
vt 0.982178 0.145370
vt 0.999010 0.145370
vt 0.982178 0.856481
vt 0.999010 0.856481
vt 0.684040 0.749248
vt 0.703990 0.786451
vt 0.711191 0.780675
vt 0.999010 0.060185
vt 0.982178 0.000926
vt 0.999010 0.000926
vt 0.999010 0.925000
vt 0.982178 0.925000
vt 0.343319 0.837022
vt 0.357379 0.772693
vt 0.191475 0.827670
vt 0.728982 0.904705
vt 0.681955 0.799389
vt 0.736052 0.807959
vt 0.836122 0.768815
vt 0.829885 0.769322
vt 0.829885 0.692114
vt 0.974949 0.759001
vt 0.936385 0.692114
vt 0.936275 0.759001
vt 0.754325 0.695259
vt 0.787792 0.752833
vt 0.759735 0.692114
vt 0.878405 0.692114
vt 0.872148 0.769068
vt 0.872148 0.692114
vt 0.711191 0.692114
vt 0.676682 0.750015
vt 0.754325 0.772213
vt 0.982178 0.060185
vt 0.999010 0.999074
vt 0.982178 0.999074
vt 0.722705 0.786451
vt 0.999010 0.991667
vt 0.982178 0.008333
vt 0.982459 0.414149
vt 0.995481 0.004519
vt 0.995481 0.414149
vt 0.999010 0.523604
vt 0.982178 0.523604
vt 0.982178 0.163310
vt 0.999010 0.000347
vt 0.999010 0.163310
vt 0.982178 0.179630
vt 0.982178 0.415235
vt 0.982178 0.643519
vt 0.420529 0.576486
vt 0.419857 0.572579
vt 0.081742 0.572558
vt 0.080685 0.576482
vt 0.068198 0.617346
vt 0.072469 0.631095
vt 0.420465 0.678038
vt 0.453655 0.628379
vt 0.409333 0.732105
vt 0.416299 0.708904
vt 0.368571 0.772404
vt 0.390572 0.756379
vt 0.360764 0.828015
vt 0.367983 0.781985
vt 0.051448 0.660358
vt 0.048343 0.706873
vt 0.051978 0.766542
vt 0.082740 0.783693
vt 0.153665 0.801473
vt 0.178855 0.824354
vt 0.350858 0.834352
vt 0.342076 0.862044
vt 0.344771 0.845043
vt 0.337763 0.867227
vt 0.168783 0.870415
vt 0.331762 0.884507
vt 0.157335 0.900801
vt 0.193248 0.959868
vt 0.164797 0.934829
vt 0.237125 0.970594
vt 0.273451 0.970829
vt 0.332238 0.905289
vt 0.322422 0.953337
vt 0.331987 0.918120
vt 0.334631 0.938815
vt 0.337685 0.928495
vt 0.338083 0.898215
vt 0.518601 0.976750
vt 0.515300 0.976100
vt 0.516850 0.760344
vt 0.513572 0.760796
vt 0.560260 0.738942
vt 0.602135 0.759780
vt 0.564508 0.981656
vt 0.552984 0.984457
vt 0.628273 0.996568
vt 0.589193 0.994867
vt 0.692611 0.974207
vt 0.678366 0.993898
vt 0.726262 0.912761
vt 0.707176 0.928938
vt 0.790574 0.926010
vt 0.764997 0.918900
vt 0.839994 0.902789
vt 0.775990 0.815036
vt 0.819113 0.921055
vt 0.628079 0.762250
vt 0.647599 0.766547
vt 0.668082 0.778349
vt 0.681654 0.792264
vt 0.689703 0.792581
vt 0.728398 0.796904
vt 0.848776 0.874785
vt 0.733770 0.803174
vt 0.848786 0.851652
vt 0.793441 0.814608
vt 0.821584 0.812885
vt 0.833843 0.820573
vt 0.804218 0.814692
vt 0.812901 0.811002
vt 0.787470 0.810929
vt 0.742780 0.806987
vt 0.757072 0.808601
vt 0.761447 0.811317
vt 0.982459 0.004519
vt 0.982178 0.000347
s 0
usemtl matpat
f 2/1/1 1/2/1 4/3/1
f 4/4/2 1/5/2 5/6/2
f 2/7/3 5/8/3 1/9/3
f 4/10/1 1/11/1 3/12/1
f 1/13/3 5/14/3 6/15/3
f 2/7/4 4/16/4 5/8/4
f 3/17/5 1/13/5 6/15/5
f 57/18/6 22/19/6 21/20/6
f 56/21/7 21/20/7 20/22/7
f 24/23/8 59/24/8 60/25/8
f 55/26/9 20/22/9 19/27/9
f 25/28/10 60/25/10 61/29/10
f 62/30/11 25/28/11 61/29/11
f 18/31/12 55/26/12 19/27/12
f 27/32/13 62/30/13 63/33/13
f 54/34/14 17/35/14 53/36/14
f 53/36/15 16/37/15 52/38/15
f 52/38/16 15/39/16 51/40/16
f 28/41/17 63/33/17 64/42/17
f 65/43/18 28/41/18 64/42/18
f 90/44/19 14/45/19 50/46/19
f 66/47/20 29/48/20 65/43/20
f 49/49/21 14/45/21 13/50/21
f 67/51/22 30/52/22 66/47/22
f 68/53/23 31/54/23 67/51/23
f 49/49/24 12/55/24 48/56/24
f 48/56/25 11/57/25 47/58/25
f 47/58/26 10/59/26 46/60/26
f 46/60/27 9/61/27 45/62/27
f 9/61/28 44/63/28 45/62/28
f 33/64/29 68/53/29 69/65/29
f 7/66/30 44/63/30 8/67/30
f 43/68/31 42/69/31 78/70/31
f 34/71/32 69/65/32 70/72/32
f 42/69/33 77/73/33 78/70/33
f 40/74/34 77/73/34 41/75/34
f 76/76/35 39/77/35 75/78/35
f 35/79/36 70/72/36 71/80/36
f 88/81/37 86/82/37 85/83/37
f 74/84/38 37/85/38 73/86/38
f 35/79/39 72/87/39 36/88/39
f 13/89/40 15/90/40 32/91/40
f 68/92/41 51/93/41 49/94/41
f 84/95/1 83/96/1 86/97/1
f 86/98/2 83/99/2 87/100/2
f 84/101/3 87/102/3 83/103/3
f 86/104/1 83/105/1 85/106/1
f 83/107/3 87/108/3 88/81/3
f 84/101/4 86/109/4 87/102/4
f 85/83/5 83/107/5 88/81/5
f 75/78/42 38/110/42 74/84/42
f 36/88/43 73/111/43 37/112/43
f 6/15/37 4/113/37 3/17/37
f 81/111/44 22/19/44 58/114/44
f 23/115/45 80/86/45 59/24/45
f 82/116/46 81/117/46 80/118/46
f 92/119/47 15/39/47 91/120/47
f 91/121/48 90/122/48 92/123/48
f 57/18/6 58/114/6 22/19/6
f 56/21/7 57/18/7 21/20/7
f 24/23/8 23/115/8 59/24/8
f 55/26/9 56/21/9 20/22/9
f 25/28/10 24/23/10 60/25/10
f 62/30/11 26/124/11 25/28/11
f 18/31/12 54/34/12 55/26/12
f 27/32/13 26/124/13 62/30/13
f 54/34/14 18/31/14 17/35/14
f 53/36/15 17/35/15 16/37/15
f 52/38/16 16/37/16 15/39/16
f 28/41/17 27/32/17 63/33/17
f 65/43/18 29/48/18 28/41/18
f 90/44/19 89/125/19 14/45/19
f 66/47/20 30/52/20 29/48/20
f 49/49/21 50/46/21 14/45/21
f 67/51/22 31/54/22 30/52/22
f 68/53/23 32/126/23 31/54/23
f 49/49/24 13/50/24 12/55/24
f 48/56/25 12/55/25 11/57/25
f 47/58/26 11/57/26 10/59/26
f 46/60/27 10/59/27 9/61/27
f 9/61/28 8/67/28 44/63/28
f 33/64/29 32/126/29 68/53/29
f 7/66/30 43/68/30 44/63/30
f 43/68/31 7/66/31 42/69/31
f 34/71/32 33/64/32 69/65/32
f 42/69/33 41/75/33 77/73/33
f 40/74/34 76/76/34 77/73/34
f 76/76/35 40/74/35 39/77/35
f 35/79/36 34/71/36 70/72/36
f 88/81/37 87/108/37 86/82/37
f 74/84/38 38/110/38 37/85/38
f 35/79/39 71/80/39 72/87/39
f 22/127/40 79/128/40 82/129/40
f 23/130/40 24/131/40 25/132/40
f 22/127/40 82/129/40 23/130/40
f 20/133/40 21/134/40 22/127/40
f 18/135/40 19/136/40 15/90/40
f 19/136/40 20/133/40 15/90/40
f 16/137/40 17/138/40 15/90/40
f 17/138/40 18/135/40 15/90/40
f 89/139/40 91/140/40 15/90/40
f 20/133/40 22/127/40 25/132/40
f 15/90/40 20/133/40 25/132/40
f 22/127/40 23/130/40 25/132/40
f 25/132/40 26/141/40 27/142/40
f 27/142/40 28/143/40 29/144/40
f 30/145/40 31/146/40 32/91/40
f 27/142/40 29/144/40 30/145/40
f 25/132/40 27/142/40 30/145/40
f 15/90/40 25/132/40 30/145/40
f 14/147/40 89/139/40 13/89/40
f 89/139/40 15/90/40 13/89/40
f 11/148/40 12/149/40 10/150/40
f 12/149/40 13/89/40 10/150/40
f 30/145/40 32/91/40 15/90/40
f 32/91/40 33/151/40 9/152/40
f 33/151/40 34/153/40 36/154/40
f 34/153/40 35/155/40 36/154/40
f 36/154/40 37/156/40 33/151/40
f 37/156/40 38/157/40 7/158/40
f 33/151/40 37/156/40 9/152/40
f 38/157/40 39/159/40 42/160/40
f 39/159/40 40/161/40 42/160/40
f 40/161/40 41/162/40 42/160/40
f 7/158/40 8/163/40 9/152/40
f 42/160/40 7/158/40 38/157/40
f 7/158/40 9/152/40 37/156/40
f 9/152/40 10/150/40 32/91/40
f 10/150/40 13/89/40 32/91/40
f 59/164/41 80/165/41 58/166/41
f 80/165/41 81/167/41 58/166/41
f 58/166/41 57/168/41 56/169/41
f 61/170/41 60/171/41 59/164/41
f 63/172/41 62/173/41 61/170/41
f 65/174/41 64/175/41 63/172/41
f 68/92/41 67/176/41 66/177/41
f 66/177/41 65/174/41 63/172/41
f 61/170/41 59/164/41 58/166/41
f 66/177/41 63/172/41 61/170/41
f 70/178/41 69/179/41 72/180/41
f 69/179/41 68/92/41 45/181/41
f 70/178/41 72/180/41 71/182/41
f 68/92/41 66/177/41 51/93/41
f 66/177/41 61/170/41 51/93/41
f 61/170/41 58/166/41 56/169/41
f 56/169/41 55/183/41 51/93/41
f 55/183/41 54/184/41 51/93/41
f 54/184/41 53/185/41 51/93/41
f 53/185/41 52/186/41 51/93/41
f 51/93/41 92/187/41 90/188/41
f 61/170/41 56/169/41 51/93/41
f 72/180/41 69/179/41 73/189/41
f 51/93/41 90/188/41 49/94/41
f 90/188/41 50/190/41 49/94/41
f 74/191/41 73/189/41 43/192/41
f 45/181/41 73/189/41 69/179/41
f 76/193/41 75/194/41 78/195/41
f 75/194/41 74/191/41 78/195/41
f 78/195/41 77/196/41 76/193/41
f 45/181/41 44/197/41 43/192/41
f 45/181/41 43/192/41 73/189/41
f 43/192/41 78/195/41 74/191/41
f 48/198/41 47/199/41 46/200/41
f 48/198/41 46/200/41 49/94/41
f 46/200/41 45/181/41 68/92/41
f 49/94/41 46/200/41 68/92/41
f 75/78/42 39/77/42 38/110/42
f 36/88/43 72/87/43 73/111/43
f 6/15/37 5/14/37 4/113/37
f 81/111/44 79/112/44 22/19/44
f 23/115/45 82/85/45 80/86/45
f 82/116/46 79/201/46 81/117/46
f 92/119/47 51/40/47 15/39/47
f 91/121/48 89/202/48 90/122/48
o 1
v -13.122444 1.433291 -5.209944
v -15.178015 1.433293 -5.209943
v -15.178015 1.449845 7.493623
v -38.572117 13.873566 9.511320
v -31.854986 2.385999 9.511318
v 37.550644 20.953609 9.511320
v 37.758461 31.250462 9.511322
v 36.578430 44.459450 9.511322
v 13.770943 81.712440 9.511316
v 8.162186 87.255264 9.511322
v -0.258865 89.629524 9.511316
v -7.159592 89.681519 9.511316
v -16.316399 85.809151 9.511322
v -18.515757 82.594521 9.511318
v -38.572113 13.873564 7.469922
v 37.550644 20.953609 7.469922
v 37.758453 31.250465 7.469923
v 36.578438 44.459454 7.469923
v 13.770943 81.712440 7.469920
v 8.162186 87.255257 7.469922
v -0.258858 89.629532 7.469923
v -7.159590 89.681526 7.469923
v -16.316399 85.809151 7.469923
v -18.515753 82.594528 7.469923
v -4.313223 37.718956 10.023310
v -31.695280 1.521199 9.511320
v 32.518150 1.517200 7.469922
v -31.695280 1.521198 7.469921
v 32.518150 1.517198 9.511322
v 19.736237 1.433292 -5.209945
v 19.736237 1.449839 7.493617
vn 0.9998 -0.0202 -0.0000
vn 0.9960 0.0890 -0.0000
vn -0.8253 0.5647 -0.0000
vn -0.0075 -1.0000 -0.0000
vn 0.7029 0.7113 -0.0000
vn 0.3895 -0.9210 -0.0000
vn 0.2714 0.9625 -0.0000
vn 0.9681 -0.2507 -0.0000
vn -0.9600 0.2802 -0.0000
vn -0.0000 -0.0000 1.0000
vn -0.0106 -0.0062 0.9999
vn -0.0188 0.0055 0.9998
vn 0.8529 0.5221 -0.0000
vn -0.5777 -0.3216 -0.7503
vn -0.4215 0.1230 -0.8984
vn -0.0043 -1.0000 0.0013
vn -0.0150 -0.0028 0.9999
vn -0.0001 -0.9994 0.0348
vn 0.0121 -0.0002 0.9999
vn 0.0123 0.0011 0.9999
vn 0.0114 0.0070 0.9999
vn 0.0082 0.0083 0.9999
vn 0.0027 0.0096 0.9999
vn 0.0001 0.0099 1.0000
vn -0.0041 0.0096 0.9999
vn -0.0114 0.0078 0.9999
vn -0.2084 0.1426 -0.9676
vn -0.0000 -1.0000 0.0013
vn -0.0000 -0.0141 0.9999
vn -0.0000 -0.9994 0.0334
vn 0.0053 -1.0000 -0.0000
vn -0.8737 -0.4864 -0.0000
vn 0.0011 0.1422 -0.9898
vn -0.0618 0.1460 -0.9873
vn 0.0053 -1.0000 0.0013
vn 0.6934 -0.1795 -0.6978
vn 0.5884 -0.0119 -0.8084
vn 0.5220 0.0466 -0.8516
vn 0.2776 0.1700 -0.9455
vn 0.1638 0.1658 -0.9725
vn 0.0428 0.1517 -0.9875
vn -0.0043 -1.0000 -0.0000
vn 0.0111 -0.0029 0.9999
vn -0.0000 0.1423 -0.9898
vn -0.0000 0.1486 -0.9889
s 0
f 99//49 108//49 109//49
f 100//50 109//50 110//50
f 116//51 105//51 115//51
f 114//52 103//52 104//52
f 101//53 112//53 102//53
f 115//54 104//54 105//54
f 102//55 113//55 103//55
f 108//56 121//56 119//56
f 107//57 106//57 116//57
f 118//58 97//58 96//58
f 97//59 117//59 96//59
f 117//60 106//60 96//60
f 101//61 110//61 111//61
f 94//62 120//62 107//62
f 116//63 94//63 107//63
f 95//64 120//64 94//64
f 117//65 97//65 118//65
f 95//66 121//66 118//66
f 98//67 99//67 117//67
f 99//68 100//68 117//68
f 100//69 101//69 117//69
f 101//70 102//70 117//70
f 102//71 103//71 117//71
f 103//72 104//72 117//72
f 104//73 105//73 117//73
f 105//74 106//74 117//74
f 115//75 94//75 116//75
f 93//76 95//76 94//76
f 121//77 117//77 118//77
f 95//78 123//78 121//78
f 123//79 119//79 121//79
f 118//80 107//80 120//80
f 113//81 93//81 114//81
f 123//76 93//76 122//76
f 93//82 115//82 114//82
f 122//83 119//83 123//83
f 122//84 108//84 119//84
f 122//85 109//85 108//85
f 122//86 110//86 109//86
f 122//87 111//87 110//87
f 122//88 112//88 111//88
f 122//89 113//89 112//89
f 99//49 98//49 108//49
f 100//50 99//50 109//50
f 116//51 106//51 105//51
f 114//52 113//52 103//52
f 101//53 111//53 112//53
f 115//54 114//54 104//54
f 102//55 112//55 113//55
f 108//56 98//56 121//56
f 107//57 96//57 106//57
f 101//61 100//61 110//61
f 95//90 118//90 120//90
f 121//91 98//91 117//91
f 118//80 96//80 107//80
f 113//92 122//92 93//92
f 123//76 95//76 93//76
f 93//93 94//93 115//93
o 2
v -37.828903 1.234655 17.437635
v -37.828903 2.234655 17.437635
v -37.828903 1.234655 -8.429913
v -37.828903 2.234655 -8.429913
v 37.683289 1.234655 17.437635
v 37.683289 2.234655 17.437635
v 37.683289 1.234655 -8.429913
v 37.683289 2.234655 -8.429913
vn -1.0000 -0.0000 -0.0000
vn -0.0000 -0.0000 -1.0000
vn 1.0000 -0.0000 -0.0000
vn -0.0000 -0.0000 1.0000
vn -0.0000 -1.0000 -0.0000
vn -0.0000 1.0000 -0.0000
s 0
f 125//94 126//94 124//94
f 127//95 130//95 126//95
f 131//96 128//96 130//96
f 129//97 124//97 128//97
f 130//98 124//98 126//98
f 127//99 129//99 131//99
f 125//94 127//94 126//94
f 127//95 131//95 130//95
f 131//96 129//96 128//96
f 129//97 125//97 124//97
f 130//98 128//98 124//98
f 127//99 125//99 129//99
