# Blender v3.6.2 OBJ File: ''
# www.blender.org
mtllib Paper Holder.mtl
o 0_0_Cube
v -11.719912 0.602027 -18.461037
v -11.719912 0.602027 -20.097620
v -11.719912 8.379519 -20.097620
v -11.719912 8.370965 -18.461037
v -11.719912 -0.003323 20.097620
v -11.719912 0.602030 20.097620
v -13.006198 0.602030 20.097620
v -13.006198 -0.003323 20.097620
v -13.006198 -0.003326 -18.461037
v -13.006198 0.602027 -18.461037
v -13.006198 0.602027 -20.097620
v -13.006198 -0.003327 -20.097620
v -11.719912 -0.003327 -20.097620
v 0.000000 0.602027 -20.097620
v 0.000000 -0.003327 -20.097620
v -11.719912 -0.003324 18.249666
v 0.000000 -0.003324 18.249666
v 0.000000 -0.003323 20.097620
v -13.006198 -0.003324 18.249666
v 0.000000 0.602030 20.097620
v 0.000000 0.602029 18.249666
v -11.719912 0.602029 18.249666
v -11.719912 1.975942 18.249666
v 0.000000 1.975942 18.249666
v -11.719912 3.792560 18.249666
v -13.006198 3.792560 18.249666
v -13.006198 3.327587 20.097620
v -11.719912 3.327587 20.097620
v -13.006198 8.379519 -20.097620
v -13.006198 0.602029 18.249666
v -13.006198 0.602028 -0.000000
v -13.006198 8.384448 -0.000001
v -13.006198 8.370965 -18.461037
v -11.719912 8.384448 -0.000001
v 0.000000 0.602027 -18.461037
v -11.719912 0.602028 -0.000000
v 0.000000 0.602028 -0.000000
v -11.719912 -0.003326 -18.461037
v -11.719912 -0.003325 0.000000
v -13.006198 -0.003325 0.000000
v 0.000000 -0.003326 -18.461037
v 0.000000 -0.003325 0.000000
v 0.000000 8.377225 -20.097620
v 0.000000 8.377226 -18.461037
v -11.719912 8.377225 -20.097620
v -11.719912 8.377226 -18.461037
v -11.719912 1.975942 20.097620
v 0.000000 1.975942 20.097620
v 11.719912 0.602027 -18.461037
v 11.719912 8.370965 -18.461037
v 11.719912 8.379519 -20.097620
v 11.719912 0.602027 -20.097620
v 11.719912 -0.003323 20.097620
v 13.006198 -0.003323 20.097620
v 13.006198 0.602030 20.097620
v 11.719912 0.602030 20.097620
v 13.006198 -0.003326 -18.461037
v 13.006198 -0.003327 -20.097620
v 13.006198 0.602027 -20.097620
v 13.006198 0.602027 -18.461037
v 11.719912 -0.003327 -20.097620
v 11.719912 -0.003324 18.249666
v 13.006198 -0.003324 18.249666
v 11.719912 1.975942 18.249666
v 11.719912 0.602029 18.249666
v 11.719912 3.792560 18.249666
v 11.719912 3.327587 20.097620
v 13.006198 3.327587 20.097620
v 13.006198 3.792560 18.249666
v 13.006198 8.379519 -20.097620
v 13.006198 0.602029 18.249666
v 13.006198 8.370965 -18.461037
v 13.006198 8.384448 -0.000001
v 13.006198 0.602028 -0.000000
v 11.719912 8.384448 -0.000001
v 11.719912 0.602028 -0.000000
v 13.006198 -0.003325 0.000000
v 11.719912 -0.003325 0.000000
v 11.719912 -0.003326 -18.461037
v 11.719912 8.377226 -18.461037
v 11.719912 8.377225 -20.097620
v 11.719912 1.975942 20.097620
vt 0.573318 0.545937
vt 0.567614 0.545937
vt 0.567614 0.001150
vt 0.573318 0.001749
vt 0.133970 0.591327
vt 0.133970 0.548990
vt 0.140898 0.548990
vt 0.140898 0.591327
vt 0.276896 0.588340
vt 0.276896 0.545937
vt 0.282600 0.545937
vt 0.282600 0.588340
vt 0.432839 0.587995
vt 0.432839 0.545592
vt 0.495958 0.545592
vt 0.495958 0.587995
vt 0.700779 0.553987
vt 0.637660 0.553987
vt 0.637660 0.547546
vt 0.700779 0.547546
vt 0.707707 0.553987
vt 0.707707 0.547546
vt 0.425911 0.587995
vt 0.425911 0.545592
vt 0.070851 0.591327
vt 0.070851 0.548990
vt 0.238745 0.653068
vt 0.238745 0.716187
vt 0.142507 0.716187
vt 0.142507 0.653068
vt 0.133970 0.325492
vt 0.140898 0.325492
vt 0.140898 0.358370
vt 0.133970 0.358370
vt 0.425911 0.000804
vt 0.432839 0.000804
vt 0.148947 0.545937
vt 0.142507 0.545937
vt 0.142507 0.355021
vt 0.148947 0.322451
vt 0.212553 0.545937
vt 0.212553 0.000805
vt 0.276896 0.001749
vt 0.264503 0.595661
vt 0.271430 0.595661
vt 0.271430 0.659983
vt 0.264503 0.659983
vt 0.489031 0.589604
vt 0.552150 0.589604
vt 0.552150 0.653939
vt 0.489031 0.653939
vt 0.707707 0.681935
vt 0.700779 0.681935
vt 0.700779 0.617593
vt 0.707707 0.617593
vt 0.637660 0.681935
vt 0.637660 0.617593
vt 0.148947 0.588340
vt 0.212553 0.588340
vt 0.701266 0.545937
vt 0.637660 0.545937
vt 0.637660 0.000804
vt 0.701266 0.322451
vt 0.700779 0.687639
vt 0.637660 0.687639
vt 0.707707 0.687639
vt 0.984570 0.545431
vt 0.978866 0.545431
vt 0.978866 0.000804
vt 0.984570 0.000804
vt 0.264503 0.589949
vt 0.271430 0.589949
vt 0.282600 0.001150
vt 0.553759 0.652723
vt 0.553759 0.589604
vt 0.559462 0.589604
vt 0.559462 0.652723
vt 0.977257 0.544587
vt 0.914137 0.544587
vt 0.914137 0.000804
vt 0.977257 0.000804
vt 0.432839 0.000965
vt 0.495958 0.000965
vt 0.991883 0.545431
vt 0.986179 0.545431
vt 0.986179 0.000804
vt 0.991883 0.000804
vt 0.707707 0.545937
vt 0.707707 0.355021
vt 0.142507 0.588340
vt 0.133970 0.000804
vt 0.140898 0.000804
vt 0.552150 0.717538
vt 0.489031 0.717538
vt 0.709316 0.610665
vt 0.709316 0.547546
vt 0.715756 0.547546
vt 0.715756 0.610665
vt 0.246794 0.686187
vt 0.240354 0.686187
vt 0.240354 0.589949
vt 0.246794 0.589949
vt 0.070851 0.452901
vt 0.133970 0.452901
vt 0.254844 0.686187
vt 0.248403 0.686187
vt 0.248403 0.589949
vt 0.254844 0.589949
vt 0.843705 0.545937
vt 0.843705 0.001749
vt 0.849409 0.001150
vt 0.849409 0.545937
vt 0.007732 0.591327
vt 0.000804 0.591327
vt 0.000804 0.548990
vt 0.007732 0.548990
vt 0.289913 0.588340
vt 0.284209 0.588340
vt 0.284209 0.545937
vt 0.289913 0.545937
vt 0.559077 0.587995
vt 0.559077 0.545592
vt 0.574541 0.553987
vt 0.574541 0.547546
vt 0.567614 0.553987
vt 0.567614 0.547546
vt 0.566005 0.587995
vt 0.566005 0.545592
vt 0.142507 0.589949
vt 0.238745 0.589949
vt 0.007732 0.325492
vt 0.007732 0.358370
vt 0.000804 0.358370
vt 0.000804 0.325492
vt 0.559077 0.000804
vt 0.566005 0.000804
vt 0.417862 0.545937
vt 0.417862 0.322451
vt 0.424302 0.355021
vt 0.424302 0.545937
vt 0.289913 0.001749
vt 0.354256 0.000805
vt 0.354256 0.545937
vt 0.279967 0.595661
vt 0.279967 0.659983
vt 0.273039 0.659983
vt 0.273039 0.595661
vt 0.425911 0.653939
vt 0.425911 0.589604
vt 0.567614 0.681935
vt 0.567614 0.617593
vt 0.574541 0.617593
vt 0.574541 0.681935
vt 0.417862 0.588340
vt 0.354256 0.588340
vt 0.715757 0.545937
vt 0.715757 0.322451
vt 0.779363 0.000804
vt 0.779363 0.545937
vt 0.574541 0.687639
vt 0.567614 0.687639
vt 0.279967 0.589949
vt 0.273039 0.589949
vt 0.284209 0.001150
vt 0.559462 0.715842
vt 0.553759 0.715842
vt 0.851018 0.544587
vt 0.851018 0.000804
vt 0.559077 0.000965
vt 0.993491 0.545431
vt 0.993491 0.000804
vt 0.999196 0.000804
vt 0.999196 0.545431
vt 0.709316 0.545937
vt 0.709316 0.355021
vt 0.424302 0.588340
vt 0.007732 0.000804
vt 0.000804 0.000804
vt 0.425911 0.717538
vt 0.715756 0.673784
vt 0.709316 0.673784
vt 0.256453 0.686187
vt 0.256453 0.589949
vt 0.262894 0.589949
vt 0.262894 0.686187
vt 0.007732 0.452901
vn 1.0000 0.0000 0.0000
vn 0.0000 0.0000 1.0000
vn -1.0000 0.0000 0.0000
vn 0.0000 0.0000 -1.0000
vn 0.0000 -1.0000 0.0000
vn 0.0000 0.9698 0.2440
vn 0.0000 1.0000 0.0022
vn 0.0000 1.0000 -0.0007
vn 0.0000 1.0000 -0.0000
vn 0.0000 1.0000 0.0052
usemtl Material.001
s 1
f 1/1/1 2/2/1 3/3/1 4/4/1
f 5/5/2 6/6/2 7/7/2 8/8/2
f 9/9/3 10/10/3 11/11/3 12/12/3
f 13/13/4 2/14/4 14/15/4 15/16/4
f 16/17/5 17/18/5 18/19/5 5/20/5
f 19/21/5 16/17/5 5/20/5 8/22/5
f 12/23/4 11/24/4 2/14/4 13/13/4
f 18/25/2 20/26/2 6/6/2 5/5/2
f 21/27/4 22/28/4 23/29/4 24/30/4
f 25/31/6 26/32/6 27/33/6 28/34/6
f 7/7/2 6/6/2 28/34/2 27/33/2
f 2/14/4 11/24/4 29/35/4 3/36/4
f 30/37/3 7/38/3 27/39/3 26/40/3
f 10/10/3 31/41/3 32/42/3 33/43/3
f 4/44/7 33/45/7 32/46/8 34/47/8
f 35/48/9 1/49/9 36/50/9 37/51/9
f 9/52/5 38/53/5 39/54/5 40/55/5
f 38/53/5 41/56/5 42/57/5 39/54/5
f 19/58/3 30/37/3 31/41/3 40/59/3
f 22/60/1 36/61/1 34/62/1 25/63/1
f 13/64/5 15/65/5 41/56/5 38/53/5
f 12/66/5 13/64/5 38/53/5 9/52/5
f 35/67/1 14/68/1 43/69/1 44/70/1
f 3/71/10 29/72/10 33/45/7 4/44/7
f 11/11/3 10/10/3 33/43/3 29/73/3
f 40/59/3 31/41/3 10/10/3 9/9/3
f 36/61/1 1/1/1 4/4/1 34/62/1
f 43/74/9 45/75/9 46/76/9 44/77/9
f 1/78/2 35/79/2 44/80/2 46/81/2
f 14/15/4 2/14/4 45/82/4 43/83/4
f 2/84/3 1/85/3 46/86/3 45/87/3
f 6/88/1 22/60/1 25/63/1 28/89/1
f 8/90/3 7/38/3 30/37/3 19/58/3
f 31/41/3 30/37/3 26/40/3 32/42/3
f 34/91/6 32/92/6 26/32/6 25/31/6
f 37/51/9 36/50/9 22/93/9 21/94/9
f 40/55/5 39/54/5 16/17/5 19/21/5
f 39/54/5 42/57/5 17/18/5 16/17/5
f 24/95/9 23/96/9 47/97/9 48/98/9
f 22/99/3 6/100/3 47/101/3 23/102/3
f 6/6/2 20/26/2 48/103/2 47/104/2
f 20/105/1 21/106/1 24/107/1 48/108/1
f 49/109/3 50/110/3 51/111/3 52/112/3
f 53/113/2 54/114/2 55/115/2 56/116/2
f 57/117/1 58/118/1 59/119/1 60/120/1
f 61/121/4 15/16/4 14/15/4 52/122/4
f 62/123/5 53/124/5 18/19/5 17/18/5
f 63/125/5 54/126/5 53/124/5 62/123/5
f 58/127/4 61/121/4 52/122/4 59/128/4
f 18/25/2 53/113/2 56/116/2 20/26/2
f 21/27/4 24/30/4 64/129/4 65/130/4
f 66/131/6 67/132/6 68/133/6 69/134/6
f 55/115/2 68/133/2 67/132/2 56/116/2
f 52/122/4 51/135/4 70/136/4 59/128/4
f 71/137/1 69/138/1 68/139/1 55/140/1
f 60/120/1 72/141/1 73/142/1 74/143/1
f 50/144/7 75/145/8 73/146/8 72/147/7
f 35/48/9 37/51/9 76/148/9 49/149/9
f 57/150/5 77/151/5 78/152/5 79/153/5
f 79/153/5 78/152/5 42/57/5 41/56/5
f 63/154/1 77/155/1 74/143/1 71/137/1
f 65/156/3 66/157/3 75/158/3 76/159/3
f 61/160/5 79/153/5 41/56/5 15/65/5
f 58/161/5 57/150/5 79/153/5 61/160/5
f 51/162/10 50/144/7 72/147/7 70/163/10
f 59/119/1 70/164/1 72/141/1 60/120/1
f 77/155/1 57/117/1 60/120/1 74/143/1
f 76/159/3 75/158/3 50/110/3 49/109/3
f 43/74/9 44/77/9 80/165/9 81/166/9
f 49/167/2 80/168/2 44/80/2 35/79/2
f 14/15/4 43/83/4 81/169/4 52/122/4
f 52/170/1 81/171/1 80/172/1 49/173/1
f 56/174/3 67/175/3 66/157/3 65/156/3
f 54/176/1 63/154/1 71/137/1 55/140/1
f 74/143/1 73/142/1 69/138/1 71/137/1
f 75/177/6 66/131/6 69/134/6 73/178/6
f 37/51/9 21/94/9 65/179/9 76/148/9
f 77/151/5 63/125/5 62/123/5 78/152/5
f 78/152/5 62/123/5 17/18/5 42/57/5
f 24/95/9 48/98/9 82/180/9 64/181/9
f 65/182/1 64/183/1 82/184/1 56/185/1
f 56/116/2 82/186/2 48/103/2 20/26/2
o 1_1_Cube.001
v -13.393549 0.016497 10.344359
v -13.393549 9.656417 10.344358
v -13.393549 9.656415 -10.344360
v -13.393549 0.016495 -10.344359
v -11.393549 9.656415 -10.344360
v -11.393549 0.016495 -10.344359
v -11.393549 9.656417 10.344358
v -11.393549 0.016497 10.344359
vt 0.375000 0.000000
vt 0.625000 0.000000
vt 0.625000 0.250000
vt 0.375000 0.250000
vt 0.625000 0.500000
vt 0.375000 0.500000
vt 0.625000 0.750000
vt 0.375000 0.750000
vt 0.625000 1.000000
vt 0.375000 1.000000
vt 0.125000 0.500000
vt 0.125000 0.750000
vt 0.875000 0.500000
vt 0.875000 0.750000
vn -1.0000 0.0000 0.0000
vn 0.0000 -0.0000 -1.0000
vn 1.0000 -0.0000 0.0000
vn 0.0000 0.0000 1.0000
vn 0.0000 -1.0000 0.0000
vn 0.0000 1.0000 -0.0000
usemtl None
s 1
f 83/187/11 84/188/11 85/189/11 86/190/11
f 86/190/12 85/189/12 87/191/12 88/192/12
f 88/192/13 87/191/13 89/193/13 90/194/13
f 90/194/14 89/193/14 84/195/14 83/196/14
f 86/197/15 88/192/15 90/194/15 83/198/15
f 87/191/16 85/199/16 84/200/16 89/193/16
o 2_2_Cube.002
v 11.394758 0.016497 10.344359
v 11.394758 9.656417 10.344358
v 11.394758 9.656415 -10.344360
v 11.394758 0.016495 -10.344359
v 13.394758 9.656415 -10.344360
v 13.394758 0.016495 -10.344359
v 13.394758 9.656417 10.344358
v 13.394758 0.016497 10.344359
vt 0.375000 0.000000
vt 0.625000 0.000000
vt 0.625000 0.250000
vt 0.375000 0.250000
vt 0.625000 0.500000
vt 0.375000 0.500000
vt 0.625000 0.750000
vt 0.375000 0.750000
vt 0.625000 1.000000
vt 0.375000 1.000000
vt 0.125000 0.500000
vt 0.125000 0.750000
vt 0.875000 0.500000
vt 0.875000 0.750000
vn -1.0000 0.0000 0.0000
vn 0.0000 -0.0000 -1.0000
vn 1.0000 -0.0000 0.0000
vn 0.0000 0.0000 1.0000
vn 0.0000 -1.0000 0.0000
vn 0.0000 1.0000 -0.0000
usemtl None
s 1
f 91/201/17 92/202/17 93/203/17 94/204/17
f 94/204/18 93/203/18 95/205/18 96/206/18
f 96/206/19 95/205/19 97/207/19 98/208/19
f 98/208/20 97/207/20 92/209/20 91/210/20
f 94/211/21 96/206/21 98/208/21 91/212/21
f 95/205/22 93/213/22 92/214/22 97/207/22
o 3_3_Cube.003
v 10.328790 0.016495 -18.236732
v 10.328790 9.656415 -18.236734
v -10.359929 9.656415 -18.236732
v -10.359929 0.016495 -18.236732
v -10.359929 9.656415 -20.236732
v -10.359929 0.016495 -20.236732
v 10.328790 9.656415 -20.236734
v 10.328790 0.016495 -20.236732
vt 0.375000 0.000000
vt 0.625000 0.000000
vt 0.625000 0.250000
vt 0.375000 0.250000
vt 0.625000 0.500000
vt 0.375000 0.500000
vt 0.625000 0.750000
vt 0.375000 0.750000
vt 0.625000 1.000000
vt 0.375000 1.000000
vt 0.125000 0.500000
vt 0.125000 0.750000
vt 0.875000 0.500000
vt 0.875000 0.750000
vn 0.0000 0.0000 1.0000
vn -1.0000 0.0000 0.0000
vn 0.0000 -0.0000 -1.0000
vn 1.0000 -0.0000 0.0000
vn 0.0000 -1.0000 0.0000
vn 0.0000 1.0000 0.0000
usemtl None
s 1
f 99/215/23 100/216/23 101/217/23 102/218/23
f 102/218/24 101/217/24 103/219/24 104/220/24
f 104/220/25 103/219/25 105/221/25 106/222/25
f 106/222/26 105/221/26 100/223/26 99/224/26
f 102/225/27 104/220/27 106/222/27 99/226/27
f 103/219/28 101/227/28 100/228/28 105/221/28
o 4_4_Cube.004
v 10.328790 0.360378 -18.182077
v 10.328790 0.360380 18.070387
v -10.359929 0.360381 18.070387
v -10.359929 0.360379 -18.182077
v -10.359929 0.926781 18.070387
v -10.359929 0.926779 -18.182077
v 10.328790 0.926780 18.070387
v 10.328790 0.926778 -18.182077
vt 0.375000 0.000000
vt 0.625000 0.000000
vt 0.625000 0.250000
vt 0.375000 0.250000
vt 0.625000 0.500000
vt 0.375000 0.500000
vt 0.625000 0.750000
vt 0.375000 0.750000
vt 0.625000 1.000000
vt 0.375000 1.000000
vt 0.125000 0.500000
vt 0.125000 0.750000
vt 0.875000 0.500000
vt 0.875000 0.750000
vn -0.0000 -1.0000 0.0000
vn -1.0000 0.0000 0.0000
vn 0.0000 1.0000 -0.0000
vn 1.0000 0.0000 0.0000
vn 0.0000 0.0000 -1.0000
vn 0.0000 0.0000 1.0000
usemtl None
s 1
f 107/229/29 108/230/29 109/231/29 110/232/29
f 110/232/30 109/231/30 111/233/30 112/234/30
f 112/234/31 111/233/31 113/235/31 114/236/31
f 114/236/32 113/235/32 108/237/32 107/238/32
f 110/239/33 112/234/33 114/236/33 107/240/33
f 111/233/34 109/241/34 108/242/34 113/235/34
