# Blender 3.6.1
# www.blender.org
mtllib sniper.mtl
o 0sniper
v -16.562626 65.236038 0.779979
v -17.494925 78.132851 0.779979
v -17.494925 78.132851 -0.605121
v -16.562626 65.236038 -0.605121
v -23.710255 103.771072 0.779983
v -24.021017 100.974174 0.779983
v -22.467186 95.846535 0.779983
v -17.650307 109.209480 0.779981
v -22.311804 105.480278 0.779983
v -19.825674 93.049629 0.779981
v -17.184155 92.117332 0.779979
v -13.454965 92.272713 0.779979
v -18.116457 124.437035 0.779981
v -19.825674 120.863205 0.779983
v -19.048756 122.727829 0.779983
v -20.136440 117.910934 0.779983
v -20.602587 133.138474 0.779984
v -20.757973 130.652359 0.779983
v -19.204138 135.624619 0.779984
v -6.307335 134.847702 0.779983
v -12.522663 138.732285 0.779983
v -16.251858 137.644592 0.779983
v -9.881150 137.799973 0.779983
v 6.589466 121.950905 0.779981
v 7.521763 122.883209 0.779981
v 8.920215 125.524712 0.779981
v -2.422760 135.469238 0.779983
v 7.832533 119.464767 0.779981
v 20.263187 88.232750 0.779978
v -12.367283 91.806564 0.779979
v 22.283169 75.802101 0.779978
v -11.901131 89.941971 0.779979
v -13.921111 80.929741 0.779979
v 18.864737 70.829834 0.779978
v 17.621670 69.897537 0.779978
v -13.921111 63.216061 0.779979
v -16.237732 48.028217 0.779978
v -16.548498 45.697468 0.779978
v 19.175507 45.036228 0.779976
v -14.373134 25.090229 0.779978
v 20.418571 37.888607 0.779976
v 21.040100 73.160583 0.779978
v 0.529526 134.847702 0.779983
v 17.155518 116.667870 0.779981
v 14.203239 119.153999 0.779981
v 11.250962 119.930923 0.779981
v 20.884718 107.655640 0.779979
v 23.215467 102.061852 0.779979
v 23.526236 92.428093 0.779978
v 21.817017 89.786583 0.779978
v 18.864737 112.627914 0.779979
v 23.992378 96.001907 0.779979
v -14.528515 22.914864 0.779978
v 21.195486 32.916344 0.779976
v 21.972399 25.924103 0.779976
v -15.771580 20.584118 0.779978
v 23.215467 13.338062 0.779975
v -18.568478 18.097988 0.779978
v -23.074591 15.145710 0.779979
v -23.154106 0.000000 0.779978
v 24.147766 0.000000 0.779975
v -19.825674 120.863205 -0.605117
v -17.650307 109.209480 -0.605118
v -20.136440 117.910934 -0.605117
v -20.602587 133.138474 -0.605117
v -19.204138 135.624619 -0.605117
v -16.251858 137.644592 -0.605118
v -18.116457 124.437035 -0.605117
v -19.048756 122.727829 -0.605117
v -20.757973 130.652359 -0.605117
v -12.522663 138.732285 -0.605118
v -9.881150 137.799973 -0.605118
v -6.307335 134.847702 -0.605118
v 7.521763 122.883209 -0.605118
v 6.589466 121.950905 -0.605118
v -12.367283 91.806564 -0.605120
v -11.901131 89.941971 -0.605120
v 7.832533 119.464767 -0.605118
v 23.992378 96.001907 -0.605121
v 18.864737 112.627914 -0.605121
v 20.884718 107.655640 -0.605121
v 23.215467 102.061852 -0.605121
v 0.529526 134.847702 -0.605118
v 8.920215 125.524712 -0.605118
v -2.422760 135.469238 -0.605118
v 14.203239 119.153999 -0.605118
v 17.155518 116.667870 -0.605120
v 11.250962 119.930923 -0.605118
v 20.263187 88.232750 -0.605121
v 22.283169 75.802101 -0.605123
v -13.921111 80.929741 -0.605121
v 21.817017 89.786583 -0.605121
v 23.526236 92.428093 -0.605121
v -13.921111 63.216061 -0.605121
v 23.215467 13.338062 -0.605124
v 24.147766 0.000000 -0.605126
v -23.154106 0.000000 -0.605123
v -23.074591 15.145710 -0.605121
v -18.568478 18.097988 -0.605123
v -15.771580 20.584118 -0.605123
v 21.972399 25.924103 -0.605124
v -14.528515 22.914864 -0.605123
v 21.195486 32.916344 -0.605124
v 20.418571 37.888607 -0.605124
v -14.373134 25.090229 -0.605123
v 19.175507 45.036228 -0.605124
v -16.548498 45.697468 -0.605121
v 17.621670 69.897537 -0.605123
v -16.237732 48.028217 -0.605121
v 18.864737 70.829834 -0.605123
v 21.040100 73.160583 -0.605123
v -24.021017 100.974174 -0.605118
v -23.710255 103.771072 -0.605118
v -22.311804 105.480278 -0.605118
v -13.454965 92.272713 -0.605120
v -19.825674 93.049629 -0.605118
v -17.184155 92.117332 -0.605120
v -22.467186 95.846535 -0.605118
vn -0.9974 -0.0721 -0.0000
vn -0.0000 -0.0000 1.0000
vn -0.0000 -0.0000 -1.0000
vn 0.4993 0.8665 -0.0000
vn 0.7433 0.6690 -0.0000
vn 0.0244 0.9997 -0.0000
vn -0.1580 0.9874 -0.0000
vn 0.8044 -0.5941 -0.0000
vn 0.7071 -0.7071 -0.0000
vn 0.8838 -0.4679 -0.0000
vn 0.8944 0.4472 -0.0000
vn -1.0000 0.0052 -0.0000
vn 0.9965 0.0840 -0.0000
vn 0.9976 0.0697 -0.0000
vn 0.9945 0.1044 -0.0000
vn 0.9912 0.1324 -0.0000
vn 0.9866 0.1629 -0.0000
vn 0.9931 0.1170 -0.0000
vn 0.9981 0.0624 -0.0000
vn -0.0000 -1.0000 -0.0000
vn -0.6075 -0.7944 -0.0000
vn -0.6074 -0.7944 -0.0000
vn -0.9999 -0.0122 -0.0000
vn -0.9701 -0.2425 -0.0000
vn -0.8453 0.5343 -0.0000
vn -0.6163 0.7875 -0.0000
vn 0.7777 -0.6287 -0.0000
vn 0.9387 -0.3448 -0.0000
vn 1.0000 -0.0011 -0.0000
vn 0.9661 0.2582 -0.0000
vn 0.9248 0.3805 -0.0000
vn 0.9237 0.3830 -0.0000
vn 0.8047 0.5936 -0.0000
vn 0.4605 0.8876 -0.0000
vn 0.0609 0.9981 -0.0000
vn -0.1351 0.9908 -0.0000
vn -0.7032 0.7110 -0.0000
vn -0.6247 0.7809 -0.0000
vn -0.9218 0.3878 -0.0000
vn -0.9958 -0.0917 -0.0000
vn -0.8651 -0.5017 -0.0000
vn -0.5452 -0.8383 -0.0000
vn -0.1483 -0.9889 -0.0000
vn -0.1806 -0.9836 -0.0000
vn -0.3939 -0.9191 -0.0000
vn -0.6078 0.7941 -0.0000
vn -0.5480 0.8365 -0.0000
vn -0.7856 0.6187 -0.0000
vn -0.9609 0.2770 -0.0000
vn -0.9999 -0.0169 -0.0000
vn -0.9999 0.0137 -0.0000
vn -0.9899 0.1415 -0.0000
vn -0.9886 0.1508 -0.0000
vn -0.9856 -0.1689 -0.0000
vn -0.9203 -0.3911 -0.0000
vn -0.9590 0.2835 -0.0000
vn -0.7374 0.6754 -0.0000
vn -0.4277 0.9039 -0.0000
vn 0.0277 0.9996 -0.0000
vn 0.0278 0.9996 -0.0000
vn 0.4924 0.8704 -0.0000
vn 0.6369 0.7710 -0.0000
vn 0.6681 -0.7441 -0.0000
vn 0.6000 -0.8000 -0.0000
vn 0.8279 -0.5608 -0.0000
vn 0.9903 -0.1389 -0.0000
vn 0.9871 0.1604 -0.0000
vn -0.9017 0.4323 -0.0000
vn -0.8779 0.4789 -0.0000
vn -0.9690 0.2472 -0.0000
vn -0.9962 -0.0866 -0.0000
vn -0.9615 -0.2747 -0.0000
vt 1.000896 0.470230
vt 1.000896 0.563192
vt 0.978169 0.563192
vt 0.978169 0.470230
vt 0.007603 0.750476
vt 0.005374 0.730293
vt 0.016518 0.693291
vt 0.051062 0.789721
vt 0.017632 0.762810
vt 0.035461 0.673108
vt 0.054405 0.666381
vt 0.081149 0.667502
vt 0.047719 0.899606
vt 0.035461 0.873817
vt 0.041033 0.887272
vt 0.033233 0.852513
vt 0.029890 0.962398
vt 0.028775 0.944457
vt 0.039919 0.980338
vt 0.132408 0.974732
vt 0.087835 1.002764
vt 0.061091 0.994915
vt 0.106779 0.996036
vt 0.224898 0.881666
vt 0.231584 0.888394
vt 0.241613 0.907455
vt 0.160267 0.979217
vt 0.233813 0.863725
vt 0.322960 0.638349
vt 0.088949 0.664138
vt 0.337446 0.548647
vt 0.092292 0.650683
vt 0.077806 0.585649
vt 0.312931 0.512766
vt 0.304016 0.506038
vt 0.077806 0.457823
vt 0.061289 0.348273
vt 0.058987 0.331448
vt 0.315159 0.326633
vt 0.074650 0.182748
vt 0.324074 0.275055
vt 0.328531 0.529585
vt 0.181439 0.974732
vt 0.058862 0.472399
vt 0.052176 0.565466
vt 0.300673 0.843542
vt 0.279501 0.861483
vt 0.258328 0.867089
vt 0.327417 0.778508
vt 0.344132 0.738142
vt 0.346361 0.668623
vt 0.334103 0.649561
vt 0.312931 0.814389
vt 0.349704 0.694412
vt 0.073459 0.167085
vt 0.329646 0.239174
vt 0.335217 0.188716
vt 0.064513 0.150335
vt 0.344132 0.097893
vt 0.044492 0.132368
vt 0.012066 0.110910
vt 0.011587 0.001641
vt 0.350818 0.001642
vt 0.929842 0.857766
vt 0.913305 0.776119
vt 0.932204 0.837082
vt 0.935748 0.943766
vt 0.925117 0.961185
vt 0.902675 0.975336
vt 0.916849 0.882804
vt 0.923936 0.870829
vt 0.936929 0.926349
vt 0.874326 0.982957
vt 0.854246 0.976425
vt 0.827078 0.955741
vt 0.721952 0.871918
vt 0.729039 0.865386
vt 0.873145 0.654194
vt 0.869601 0.641130
vt 0.719589 0.847968
vt 0.596745 0.683587
vt 0.635725 0.800069
vt 0.620369 0.765233
vt 0.602651 0.726043
vt 0.775106 0.955741
vt 0.711321 0.890424
vt 0.797548 0.960096
vt 0.671160 0.845791
vt 0.648718 0.828373
vt 0.693603 0.851234
vt 0.625094 0.629156
vt 0.609738 0.542066
vt 0.884957 0.577991
vt 0.613282 0.640042
vt 0.600289 0.658548
vt 0.884957 0.453888
vt 0.905037 0.468040
vt 0.912124 0.558395
vt 0.602651 0.104441
vt 0.595564 0.010994
vt 0.955081 0.010863
vt 0.955576 0.115898
vt 0.920867 0.135894
vt 0.897296 0.153499
vt 0.612101 0.192619
vt 0.889353 0.170989
vt 0.618007 0.241607
vt 0.623913 0.276443
vt 0.889999 0.186147
vt 0.633362 0.326519
vt 0.905309 0.330595
vt 0.645174 0.500699
vt 0.903757 0.346949
vt 0.635725 0.507230
vt 0.619188 0.523560
vt 1.000896 0.972000
vt 1.000896 0.904798
vt 0.978169 0.904798
vt 0.978169 0.972000
vt 1.000896 0.976480
vt 0.978169 0.976480
vt 1.000896 0.885758
vt 1.000896 0.879038
vt 0.978169 0.879038
vt 0.978169 0.885758
vt 1.000896 0.861117
vt 0.978169 0.861117
vt 1.000903 0.000770
vt 1.006128 0.139134
vt 0.976009 0.121349
vt 0.978169 0.000354
vt 1.000896 0.096142
vt 1.000896 0.000000
vt 0.978169 0.000000
vt 0.978169 0.096142
vt 1.000896 0.186864
vt 0.978169 0.186864
vt 1.000896 0.237265
vt 0.978169 0.237265
vt 1.000896 0.273106
vt 0.978169 0.273106
vt 1.000896 0.324627
vt 0.978169 0.324627
vt 1.000896 0.503830
vt 0.978169 0.503830
vt 1.000896 0.455669
vt 0.978169 0.455669
vt 1.000896 0.648313
vt 1.000896 0.661753
vt 0.978169 0.661753
vt 0.978169 0.648313
vt 1.000896 0.583352
vt 0.978169 0.583352
vt 0.961734 0.718422
vt 0.959372 0.738018
vt 0.948741 0.749992
vt 0.881413 0.657460
vt 0.929842 0.662903
vt 0.909762 0.656371
vt 0.949922 0.682498
vt 1.000896 0.647193
vt 1.000896 0.635993
vt 0.978169 0.635993
vt 0.978169 0.647193
vt 1.000896 0.666234
vt 0.978169 0.666234
vt 1.000896 0.691994
vt 0.978169 0.691994
vt 1.000896 0.735675
vt 0.978169 0.735675
vt 1.000896 0.775996
vt 0.978169 0.775996
vt 1.000896 0.811836
vt 0.978169 0.811836
vt 1.000896 0.840957
vt 0.978169 0.840957
vt 1.000896 0.858877
vt 0.978169 0.858877
vt 1.000896 0.864477
vt 0.978169 0.864477
vt 1.000896 0.760315
vt 1.000896 0.787196
vt 0.978169 0.787196
vt 0.978169 0.760315
vt 1.000896 0.747995
vt 0.978169 0.747995
vt 1.000896 0.727835
vt 0.978169 0.727835
vt 1.000896 0.690874
vt 0.978169 0.690874
vt 1.000896 0.670714
vt 0.978169 0.670714
vt 1.000896 0.663994
vt 0.978169 0.663994
vt 1.000896 0.665114
vt 0.978169 0.665114
vt 0.976197 0.177340
vt 0.998770 0.181165
vt 0.978466 0.195309
vt 0.998619 0.191446
vt 0.984227 0.194493
vt 1.022732 0.174518
vt 0.985007 0.183157
vt 1.018474 0.184320
vt 0.978302 0.330074
vt 1.008581 0.324337
vt 0.985790 0.341215
vt 1.001380 0.346078
vt 0.978169 0.941759
vt 0.978169 0.896958
vt 1.000896 0.896958
vt 1.000896 0.941759
vt 0.978169 0.959679
vt 1.000896 0.959679
vt 0.978169 0.977600
vt 1.000896 0.977600
vt 0.978169 0.992160
vt 1.000896 0.992160
vt 0.978169 1.000000
vt 1.000896 1.000000
vt 0.978169 0.993280
vt 1.000896 0.993280
vt 1.000896 0.510551
vt 0.978169 0.510551
vt 1.000896 0.527351
vt 0.978169 0.527351
vt 1.000896 0.546391
vt 0.978169 0.546391
vt 1.000896 0.884638
vt 0.978169 0.884638
vt 1.000896 0.871198
vt 0.978169 0.871198
vt 1.000896 0.849917
vt 0.978169 0.849917
s 1
usemtl target_sniper
f 1/1/1 2/2/1 3/3/1
f 3/3/1 4/4/1 1/1/1
f 5/5/2 6/6/2 7/7/2
f 8/8/2 5/5/2 7/7/2
f 8/8/2 9/9/2 5/5/2
f 7/7/2 10/10/2 11/11/2
f 7/7/2 11/11/2 12/12/2
f 8/8/2 7/7/2 12/12/2
f 13/13/2 8/8/2 12/12/2
f 13/13/2 14/14/2 8/8/2
f 13/13/2 15/15/2 14/14/2
f 14/14/2 16/16/2 8/8/2
f 13/13/2 17/17/2 18/18/2
f 13/13/2 19/19/2 17/17/2
f 13/13/2 20/20/2 19/19/2
f 13/13/2 12/12/2 20/20/2
f 21/21/2 22/22/2 19/19/2
f 20/20/2 21/21/2 19/19/2
f 20/20/2 23/23/2 21/21/2
f 24/24/2 25/25/2 26/26/2
f 24/24/2 26/26/2 27/27/2
f 28/28/2 24/24/2 27/27/2
f 28/28/2 27/27/2 20/20/2
f 12/12/2 28/28/2 20/20/2
f 12/12/2 29/29/2 28/28/2
f 12/12/2 30/30/2 29/29/2
f 30/30/2 31/31/2 29/29/2
f 30/30/2 32/32/2 31/31/2
f 32/32/2 33/33/2 31/31/2
f 33/33/2 34/34/2 31/31/2
f 33/33/2 35/35/2 34/34/2
f 33/33/2 36/36/2 35/35/2
f 36/36/2 37/37/2 35/35/2
f 37/37/2 38/38/2 35/35/2
f 38/38/2 39/39/2 35/35/2
f 38/38/2 40/40/2 39/39/2
f 40/40/2 41/41/2 39/39/2
f 34/34/2 42/42/2 31/31/2
f 26/26/2 43/43/2 27/27/2
f 33/33/2 1/44/2 36/36/2
f 33/33/2 2/45/2 1/44/2
f 44/46/2 45/47/2 46/48/2
f 47/49/2 44/46/2 46/48/2
f 47/49/2 46/48/2 28/28/2
f 29/29/2 47/49/2 28/28/2
f 29/29/2 48/50/2 47/49/2
f 29/29/2 49/51/2 48/50/2
f 29/29/2 50/52/2 49/51/2
f 47/49/2 51/53/2 44/46/2
f 49/51/2 52/54/2 48/50/2
f 40/40/2 53/55/2 41/41/2
f 53/55/2 54/56/2 41/41/2
f 53/55/2 55/57/2 54/56/2
f 53/55/2 56/58/2 55/57/2
f 56/58/2 57/59/2 55/57/2
f 56/58/2 58/60/2 57/59/2
f 58/60/2 59/61/2 57/59/2
f 59/61/2 60/62/2 57/59/2
f 60/62/2 61/63/2 57/59/2
f 62/64/3 63/65/3 64/66/3
f 65/67/3 66/68/3 67/69/3
f 68/70/3 65/67/3 67/69/3
f 68/70/3 67/69/3 63/65/3
f 62/64/3 68/70/3 63/65/3
f 62/64/3 69/71/3 68/70/3
f 68/70/3 70/72/3 65/67/3
f 67/69/3 71/73/3 72/74/3
f 67/69/3 72/74/3 73/75/3
f 67/69/3 73/75/3 74/76/3
f 67/69/3 74/76/3 63/65/3
f 74/76/3 75/77/3 63/65/3
f 75/77/3 76/78/3 63/65/3
f 75/77/3 77/79/3 76/78/3
f 75/77/3 78/80/3 77/79/3
f 78/80/3 79/81/3 77/79/3
f 78/80/3 80/82/3 79/81/3
f 80/82/3 81/83/3 79/81/3
f 81/83/3 82/84/3 79/81/3
f 83/85/3 84/86/3 74/76/3
f 73/75/3 83/85/3 74/76/3
f 73/75/3 85/87/3 83/85/3
f 86/88/3 87/89/3 80/82/3
f 78/80/3 86/88/3 80/82/3
f 78/80/3 88/90/3 86/88/3
f 89/91/3 90/92/3 91/93/3
f 89/91/3 91/93/3 77/79/3
f 79/81/3 89/91/3 77/79/3
f 79/81/3 92/94/3 89/91/3
f 79/81/3 93/95/3 92/94/3
f 94/96/3 4/97/3 91/93/3
f 4/97/3 3/98/3 91/93/3
f 95/99/3 96/100/3 97/101/3
f 95/99/3 97/101/3 98/102/3
f 95/99/3 98/102/3 99/103/3
f 95/99/3 99/103/3 100/104/3
f 101/105/3 95/99/3 100/104/3
f 101/105/3 100/104/3 102/106/3
f 103/107/3 101/105/3 102/106/3
f 104/108/3 103/107/3 102/106/3
f 104/108/3 102/106/3 105/109/3
f 106/110/3 104/108/3 105/109/3
f 106/110/3 105/109/3 107/111/3
f 108/112/3 106/110/3 107/111/3
f 108/112/3 107/111/3 109/113/3
f 108/112/3 109/113/3 94/96/3
f 108/112/3 94/96/3 91/93/3
f 110/114/3 108/112/3 91/93/3
f 90/92/3 110/114/3 91/93/3
f 90/92/3 111/115/3 110/114/3
f 43/116/4 26/117/5 84/118/5
f 84/118/5 83/119/4 43/116/4
f 27/120/6 43/116/4 83/119/4
f 83/119/4 85/121/6 27/120/6
f 20/116/7 27/120/6 85/121/6
f 85/121/6 73/119/7 20/116/7
f 25/122/8 24/123/9 75/124/9
f 75/124/9 74/125/8 25/122/8
f 26/117/10 25/122/8 74/125/8
f 74/125/8 84/118/10 26/117/10
f 24/123/11 28/126/11 78/127/11
f 78/127/11 75/124/11 24/123/11
f 60/128/12 59/129/12 98/130/12
f 98/130/12 97/131/12 60/128/12
f 57/132/13 61/133/14 96/134/14
f 96/134/14 95/135/13 57/132/13
f 55/136/15 57/132/13 95/135/13
f 95/135/13 101/137/15 55/136/15
f 54/138/16 55/136/15 101/137/15
f 101/137/15 103/139/16 54/138/16
f 41/140/17 54/138/16 103/139/16
f 103/139/16 104/141/17 41/140/17
f 39/142/18 41/140/17 104/141/17
f 104/141/17 106/143/18 39/142/18
f 35/144/19 39/142/18 106/143/18
f 106/143/18 108/145/19 35/144/19
f 61/133/20 60/128/20 97/131/20
f 97/131/20 96/134/20 61/133/20
f 36/146/21 1/1/22 4/4/22
f 4/4/22 94/147/21 36/146/21
f 32/148/23 30/149/24 76/150/24
f 76/150/24 77/151/23 32/148/23
f 33/152/25 32/148/23 77/151/23
f 77/151/23 91/153/25 33/152/25
f 2/2/26 33/152/25 91/153/25
f 91/153/25 3/3/26 2/2/26
f 112/154/3 113/155/3 114/156/3
f 112/154/3 114/156/3 63/65/3
f 76/78/3 112/154/3 63/65/3
f 76/78/3 115/157/3 112/154/3
f 115/157/3 116/158/3 112/154/3
f 115/157/3 117/159/3 116/158/3
f 116/158/3 118/160/3 112/154/3
f 50/161/27 29/162/9 89/163/9
f 89/163/9 92/164/27 50/161/27
f 49/165/28 50/161/27 92/164/27
f 92/164/27 93/166/28 49/165/28
f 52/167/29 49/165/28 93/166/28
f 93/166/28 79/168/29 52/167/29
f 48/169/30 52/167/29 79/168/29
f 79/168/29 82/170/30 48/169/30
f 47/171/31 48/169/30 82/170/30
f 82/170/30 81/172/31 47/171/31
f 51/173/32 47/171/31 81/172/31
f 81/172/31 80/174/32 51/173/32
f 44/175/33 51/173/32 80/174/32
f 80/174/32 87/176/33 44/175/33
f 45/177/34 44/175/33 87/176/33
f 87/176/33 86/178/34 45/177/34
f 46/179/35 45/177/34 86/178/34
f 86/178/34 88/180/35 46/179/35
f 28/126/36 46/179/35 88/180/35
f 88/180/35 78/127/36 28/126/36
f 9/181/37 8/182/38 63/183/38
f 63/183/38 114/184/37 9/181/37
f 5/185/39 9/181/37 114/184/37
f 114/184/37 113/186/39 5/185/39
f 6/187/40 5/185/39 113/186/39
f 113/186/39 112/188/40 6/187/40
f 7/189/41 6/187/40 112/188/40
f 112/188/40 118/190/41 7/189/41
f 10/191/42 7/189/41 118/190/41
f 118/190/41 116/192/42 10/191/42
f 11/193/43 10/191/42 116/192/42
f 116/192/42 117/194/43 11/193/43
f 12/195/44 11/193/43 117/194/43
f 117/194/43 115/196/44 12/195/44
f 30/149/45 12/195/44 115/196/44
f 115/196/44 76/150/45 30/149/45
f 99/197/46 98/130/47 59/129/47
f 59/129/47 58/198/46 99/197/46
f 100/199/48 99/197/46 58/198/46
f 58/198/46 56/200/48 100/199/48
f 102/201/49 100/199/48 56/200/48
f 56/200/48 53/202/49 102/201/49
f 105/203/50 102/201/49 53/202/49
f 53/202/49 40/204/50 105/203/50
f 107/205/51 105/203/50 40/204/50
f 40/204/50 38/206/51 107/205/51
f 109/207/52 107/205/51 38/206/51
f 38/206/51 37/208/52 109/207/52
f 94/147/53 109/207/52 37/208/52
f 37/208/52 36/146/53 94/147/53
f 70/209/54 68/210/55 13/211/55
f 13/211/55 18/212/54 70/209/54
f 65/213/56 70/209/54 18/212/54
f 18/212/54 17/214/56 65/213/56
f 66/215/57 65/213/56 17/214/56
f 17/214/56 19/216/57 66/215/57
f 67/217/58 66/215/57 19/216/57
f 19/216/57 22/218/58 67/217/58
f 71/219/59 67/217/58 22/218/58
f 22/218/58 21/220/60 71/219/59
f 72/221/61 71/219/59 21/220/60
f 21/220/60 23/222/61 72/221/61
f 73/119/62 72/221/61 23/222/61
f 23/222/61 20/116/62 73/119/62
f 34/223/63 35/144/64 108/145/64
f 108/145/64 110/224/63 34/223/63
f 42/225/65 34/223/63 110/224/63
f 110/224/63 111/226/65 42/225/65
f 31/227/66 42/225/65 111/226/65
f 111/226/65 90/228/66 31/227/66
f 29/162/67 31/227/66 90/228/66
f 90/228/66 89/163/67 29/162/67
f 15/229/68 13/211/69 68/210/69
f 68/210/69 69/230/68 15/229/68
f 14/231/70 15/229/68 69/230/68
f 69/230/68 62/232/70 14/231/70
f 16/233/71 14/231/70 62/232/70
f 62/232/70 64/234/71 16/233/71
f 8/182/72 16/233/71 64/234/71
f 64/234/71 63/183/72 8/182/72
o 1sniper
v -23.923468 100.119095 1.092153
v -6.440332 138.389359 1.092153
v -20.043413 138.389359 1.092153
v 16.868376 117.996780 1.092153
v 23.824280 98.374252 1.092152
v -21.939108 0.000000 1.092153
v 24.521292 0.000000 1.092152
v 16.868376 117.996780 -0.953225
v -21.939108 0.000000 -0.953224
v 24.521292 0.000000 -0.953227
v 23.824280 98.374252 -0.953227
v -20.043413 138.389359 -0.953224
v -23.923468 100.119095 -0.953224
v -6.440332 138.389359 -0.953225
v -20.340038 0.043908 26.273254
v -20.340038 0.489003 26.273254
v -20.340038 0.043908 -26.273254
v -20.340038 0.489003 -26.273254
v 23.122000 0.043908 26.273254
v 23.122000 0.489003 26.273254
v 23.122000 0.043908 -26.273254
v 23.122000 0.489003 -26.273254
vn 0.9993 -0.0379 0.0005
vn 0.9953 0.0469 0.0850
vn 0.9545 -0.2871 0.0801
vn 0.9989 0.0376 0.0284
vn 0.9996 0.0274 0.0029
vn 0.9990 -0.0437 -0.0110
vn 0.9953 0.0876 -0.0408
vn -0.9971 0.0606 0.0458
vn -0.9995 -0.0219 -0.0207
vn -0.9988 0.0440 -0.0205
vn -0.9991 0.0430 0.0017
vn -0.9984 -0.0442 0.0359
vn -0.9969 -0.0785 0.0011
vn -0.9549 0.1435 0.2599
vn -1.0000 -0.0000 -0.0000
vn -0.0000 -0.0000 -1.0000
vn 1.0000 -0.0000 -0.0000
vn -0.0000 -0.0000 1.0000
vn -0.0000 -1.0000 -0.0000
vn -0.0000 1.0000 -0.0000
vt 0.000000 0.000000
vt 0.375000 0.000000
vt 0.625000 0.000000
vt 0.625000 0.250000
vt 0.375000 0.250000
vt 0.625000 0.500000
vt 0.375000 0.500000
vt 0.625000 0.750000
vt 0.375000 0.750000
vt 0.625000 1.000000
vt 0.375000 1.000000
vt 0.125000 0.500000
vt 0.125000 0.750000
vt 0.875000 0.500000
vt 0.875000 0.750000
s 1
usemtl __phy
f 119/235/73 120/235/74 121/235/75
f 119/235/73 122/235/76 120/235/74
f 119/235/73 123/235/77 122/235/76
f 119/235/73 124/235/78 123/235/77
f 124/235/78 125/235/79 123/235/77
f 126/235/80 120/235/74 122/235/76
f 122/235/76 123/235/77 126/235/80
f 125/235/79 124/235/78 127/235/81
f 125/235/79 127/235/81 128/235/82
f 129/235/83 123/235/77 125/235/79
f 125/235/79 128/235/82 129/235/83
f 130/235/84 131/235/85 121/235/75
f 121/235/75 131/235/85 119/235/73
f 121/235/75 120/235/74 130/235/84
f 132/235/86 126/235/80 130/235/84
f 130/235/84 126/235/80 131/235/85
f 131/235/85 126/235/80 129/235/83
f 131/235/85 129/235/83 127/235/81
f 127/235/81 129/235/83 128/235/82
f 124/235/78 131/235/85 127/235/81
f 131/235/85 124/235/78 119/235/73
f 126/235/80 132/235/86 120/235/74
f 126/235/80 123/235/77 129/235/83
f 120/235/74 132/235/86 130/235/84
s 0
f 133/236/87 134/237/87 136/238/87 135/239/87
f 135/239/88 136/238/88 140/240/88 139/241/88
f 139/241/89 140/240/89 138/242/89 137/243/89
f 137/243/90 138/242/90 134/244/90 133/245/90
f 135/246/91 139/241/91 137/243/91 133/247/91
f 140/240/92 136/248/92 134/249/92 138/242/92
