# Blender 3.6.1
# www.blender.org
mtllib soldier.mtl
o 0soldier
v -39.730175 101.911858 0.640628
v -41.519543 97.736656 0.640628
v -41.718365 93.760277 0.640628
v -40.724270 89.386269 0.640628
v -38.139622 86.205147 0.640628
v -30.385672 85.409889 0.640628
v -26.409288 86.602806 0.640628
v -34.759693 85.012230 0.640628
v -32.175045 109.665825 0.640628
v -36.946709 105.291786 0.640628
v -29.789219 113.045746 0.640628
v -0.960440 131.138290 0.640628
v -24.421099 85.608688 0.640628
v -22.432905 84.018143 0.640626
v -20.444715 82.427597 0.640626
v -17.661247 81.234680 0.640626
v 27.669512 90.380356 0.640625
v -18.456524 72.486649 0.640626
v 31.844721 75.866570 0.640623
v 28.067154 69.305542 0.640623
v -15.275417 67.714981 0.640625
v 28.067154 62.545692 0.640623
v 31.447075 55.388206 0.640623
v 36.616379 46.838989 0.640622
v 34.827003 41.272049 0.640622
v 29.061249 70.896111 0.640623
v 32.639992 94.555565 0.640625
v 29.657707 91.573273 0.640625
v 27.669512 113.045746 0.640625
v 25.681324 114.835121 0.640625
v 16.535648 119.209129 0.640626
v 6.992325 132.132385 0.640628
v 3.015943 132.331207 0.640628
v 13.950993 127.360710 0.640628
v 10.372251 130.343018 0.640628
v 15.740367 123.583160 0.640628
v 34.230545 101.315407 0.640625
v 33.236450 104.695335 0.640625
v 34.230545 97.736656 0.640625
v -1.556898 132.927673 0.640628
v -2.948633 134.915848 0.640628
v -8.714387 136.506393 0.640628
v -5.334463 136.307556 0.640628
v -20.444715 135.711136 0.640629
v -20.643534 140.283966 0.640629
v -9.310844 141.675690 0.640628
v -27.005747 121.992615 0.640629
v -28.993940 119.606796 0.640628
v -26.011654 128.156006 0.640629
v -23.824640 132.927673 0.640629
v 31.844721 75.866570 -0.871269
v 29.061249 70.896111 -0.871269
v 28.067154 69.305542 -0.871271
v 34.230545 101.315407 -0.871269
v 34.230545 97.736656 -0.871269
v 32.639992 94.555565 -0.871269
v -17.661247 81.234680 -0.871268
v 29.657707 91.573273 -0.871269
v 27.669512 90.380356 -0.871269
v -18.456524 72.486649 -0.871266
v -15.275417 67.714981 -0.871269
v 28.067154 62.545692 -0.871271
v 31.447075 55.388206 -0.871271
v 36.616379 46.838989 -0.871271
v 34.827003 41.272049 -0.871271
v 33.037628 39.482674 -0.871271
v 31.844721 38.488586 -0.871271
v -18.058887 44.495693 -0.871269
v -18.655344 41.314587 -0.871268
v -18.257706 38.928768 -0.871268
v -15.076599 34.554745 -0.871269
v -22.432905 84.018143 -0.871266
v -24.421099 85.608688 -0.871266
v -20.444715 82.427597 -0.871266
v 3.015943 132.331207 -0.871266
v 6.992325 132.132385 -0.871266
v 10.372251 130.343018 -0.871266
v -0.960440 131.138290 -0.871266
v -1.556898 132.927673 -0.871266
v -2.948633 134.915848 -0.871266
v -8.714387 136.506393 -0.871266
v -5.334463 136.307556 -0.871266
v -34.759693 85.012230 -0.871266
v -38.139622 86.205147 -0.871266
v -40.724270 89.386269 -0.871266
v -26.409288 86.602806 -0.871266
v -36.946709 105.291786 -0.871266
v -32.175045 109.665825 -0.871265
v -29.789219 113.045746 -0.871265
v -20.444715 135.711136 -0.871265
v -9.310844 141.675690 -0.871265
v -30.385672 85.409889 -0.871266
v -20.643534 140.283966 -0.871263
v -41.519543 97.736656 -0.871266
v -39.730175 101.911858 -0.871266
v -41.718365 93.760277 -0.871266
v -27.005747 121.992615 -0.871265
v -26.011654 128.156006 -0.871265
v -23.824640 132.927673 -0.871265
v -28.993940 119.606796 -0.871265
v 16.535648 119.209129 -0.871268
v 25.681324 114.835121 -0.871268
v 27.669512 113.045746 -0.871268
v 33.236450 104.695335 -0.871269
v 15.740367 123.583160 -0.871266
v 13.950993 127.360710 -0.871266
v -15.275417 32.765369 -0.871269
v 31.248260 32.524002 -0.871272
v 32.242355 28.348797 -0.871272
v -20.444715 26.601971 -0.871269
v 35.025826 24.968878 -0.871272
v 38.405746 21.588957 -0.871272
v 39.797485 18.606663 -0.871272
v -20.643534 0.099413 -0.871269
v 39.996300 -0.099419 -0.871272
v 39.797485 18.606663 0.640622
v 39.996300 -0.099419 0.640620
v 38.405746 21.588957 0.640622
v 35.025826 24.968878 0.640622
v 32.242355 28.348797 0.640622
v 31.248260 32.524002 0.640622
v 31.844721 38.488586 0.640622
v 33.037628 39.482674 0.640622
v -18.058887 44.495693 0.640626
v -18.655344 41.314587 0.640625
v -18.257706 38.928768 0.640623
v -15.076599 34.554745 0.640623
v -15.275417 32.765369 0.640623
v -20.444715 26.601971 0.640625
v -20.643534 0.099413 0.640623
vn -0.0000 -0.0000 1.0000
vn -0.0000 -0.0000 -1.0000
vn -0.5140 -0.8578 -0.0000
vn -0.3939 -0.9191 -0.0000
vn -0.6247 -0.7809 -0.0000
vn -0.5390 -0.8423 -0.0000
vn -0.0860 -0.9963 -0.0000
vn 0.1899 -0.9818 -0.0000
vn -0.1240 -0.9923 -0.0000
vn -0.5761 -0.8174 -0.0000
vn -0.5760 -0.8174 -0.0000
vn -0.8992 -0.4376 -0.0000
vn -0.9962 -0.0867 -0.0000
vn -0.9743 0.2255 -0.0000
vn -0.8541 0.5200 -0.0000
vn -0.7256 0.6881 -0.0000
vn -0.7506 0.6607 -0.0000
vn -0.9332 0.3594 -0.0000
vn -0.9180 0.3965 -0.0000
vn -0.9101 0.4144 -0.0000
vn -0.9568 0.2906 -0.0000
vn -0.7925 0.6098 -0.0000
vn -0.6357 0.7719 -0.0000
vn 0.9751 0.2218 -0.0000
vn 0.9999 0.0106 -0.0000
vn 0.8191 0.5737 -0.0000
vn 0.7404 0.6722 -0.0000
vn 0.8955 0.4451 -0.0000
vn 0.9978 0.0670 -0.0000
vn 0.8833 -0.4687 -0.0000
vn 0.6743 -0.7384 -0.0000
vn 0.8535 -0.5212 -0.0000
vn 0.9520 -0.3060 -0.0000
vn -0.9692 -0.2461 -0.0000
vn -0.9959 0.0905 -0.0000
vn -0.9727 -0.2322 -0.0000
vn -0.9884 0.1517 -0.0000
vn -0.9999 0.0101 -0.0000
vn -0.9222 -0.3866 -0.0000
vn -0.9666 -0.2562 -0.0000
vn -0.9194 0.3934 -0.0000
vn -0.9384 0.3454 -0.0000
vn -1.0000 0.0075 -0.0000
vn 0.6154 -0.7882 -0.0000
vn 0.5145 -0.8575 -0.0000
vn 0.8112 -0.5847 -0.0000
vn 0.9732 -0.2298 -0.0000
vn 0.9898 0.1425 -0.0000
vn 0.9060 0.4232 -0.0000
vn 0.7564 0.6541 -0.0000
vn 0.5559 0.8312 -0.0000
vn 0.4315 0.9021 -0.0000
vn 0.9520 0.3061 -0.0000
vn 0.9839 0.1789 -0.0000
vn 0.7905 0.6125 -0.0000
vn 0.5570 0.8305 -0.0000
vn 0.2652 0.9642 -0.0000
vn -0.1205 0.9927 -0.0000
vn -0.2873 0.9578 -0.0000
vn 0.8812 0.4728 -0.0000
vn 0.8557 0.5174 -0.0000
vn 0.9758 0.2188 -0.0000
vn 0.9612 -0.2757 -0.0000
vn 0.8605 -0.5094 -0.0000
vn 0.8725 -0.4886 -0.0000
vn 0.9934 0.1146 -0.0000
vn -0.1219 0.9925 -0.0000
vn -0.9991 -0.0434 -0.0000
vn 0.8933 0.4495 -0.0000
vn 0.9487 0.3162 -0.0000
vn 0.6773 0.7357 -0.0000
vn 0.2892 0.9573 -0.0000
vn 0.0587 0.9983 -0.0000
vn -0.0033 -1.0000 -0.0000
vn 0.9610 0.2765 -0.0000
vt 0.018698 0.718561
vt 0.006452 0.689403
vt 0.005091 0.661634
vt 0.011895 0.631088
vt 0.029584 0.608872
vt 0.082653 0.603318
vt 0.109868 0.611649
vt 0.052717 0.600541
vt 0.070406 0.772712
vt 0.037749 0.742165
vt 0.086735 0.796316
vt 0.284042 0.922667
vt 0.123475 0.604707
vt 0.137083 0.593599
vt 0.150690 0.582491
vt 0.169740 0.574160
vt 0.479988 0.638030
vt 0.164297 0.513068
vt 0.508564 0.536672
vt 0.482710 0.490852
vt 0.186069 0.479744
vt 0.482710 0.443644
vt 0.505842 0.393659
vt 0.541221 0.333955
vt 0.528975 0.295078
vt 0.489513 0.501960
vt 0.514007 0.667188
vt 0.493596 0.646361
vt 0.479988 0.796316
vt 0.466381 0.808812
vt 0.403787 0.839358
vt 0.338472 0.929609
vt 0.311257 0.930997
vt 0.386097 0.896285
vt 0.361604 0.917113
vt 0.398344 0.869905
vt 0.524893 0.714396
vt 0.518089 0.738000
vt 0.524893 0.689403
vt 0.279960 0.935163
vt 0.270435 0.949047
vt 0.230973 0.960155
vt 0.254106 0.958767
vt 0.150690 0.954601
vt 0.149329 0.986536
vt 0.226891 0.996255
vt 0.105786 0.858797
vt 0.092178 0.842135
vt 0.112589 0.901839
vt 0.127557 0.935163
vt 0.607066 0.539121
vt 0.621540 0.504327
vt 0.626709 0.493192
vt 0.594660 0.717271
vt 0.594660 0.692218
vt 0.602931 0.669950
vt 0.864499 0.576700
vt 0.618439 0.649073
vt 0.628777 0.640722
vt 0.868635 0.515461
vt 0.852093 0.482058
vt 0.626709 0.445871
vt 0.609134 0.395767
vt 0.582253 0.335920
vt 0.591558 0.296950
vt 0.600863 0.284423
vt 0.607066 0.277464
vt 0.869450 0.320774
vt 0.871940 0.298166
vt 0.869447 0.281157
vt 0.853290 0.252721
vt 0.889312 0.596185
vt 0.899651 0.607319
vt 0.878973 0.585051
vt 0.756977 0.934391
vt 0.736299 0.932999
vt 0.718724 0.920473
vt 0.777654 0.926040
vt 0.780756 0.938566
vt 0.787993 0.952484
vt 0.817975 0.963618
vt 0.800399 0.962226
vt 0.953412 0.603144
vt 0.970988 0.611494
vt 0.984428 0.633763
vt 0.909989 0.614278
vt 0.964784 0.745107
vt 0.939971 0.775726
vt 0.927565 0.799387
vt 0.878973 0.958051
vt 0.821077 0.999805
vt 0.930667 0.605927
vt 0.880007 0.990062
vt 0.988563 0.692218
vt 0.979258 0.721446
vt 0.989597 0.664383
vt 0.913091 0.862017
vt 0.907921 0.905163
vt 0.896549 0.938566
vt 0.923429 0.845316
vt 0.686674 0.842532
vt 0.639116 0.811913
vt 0.628777 0.799387
vt 0.599829 0.740931
vt 0.690809 0.873152
vt 0.700114 0.899596
vt 0.974440 0.582098
vt 0.974440 0.573684
vt 0.997838 0.573684
vt 0.997838 0.582098
vt 0.974440 0.593317
vt 0.997838 0.593317
vt 0.974440 0.604536
vt 0.997838 0.604536
vt 0.974440 0.611548
vt 0.997838 0.611548
vt 0.974440 0.603133
vt 0.997838 0.603133
vt 0.974440 0.600329
vt 0.997838 0.600329
vt 0.974440 0.608743
vt 0.997838 0.608743
vt 0.974440 0.631181
vt 0.997838 0.631181
vt 0.974440 0.662032
vt 0.997838 0.662032
vt 0.974440 0.690079
vt 0.997838 0.690079
vt 0.974440 0.719529
vt 0.997838 0.719529
vt 0.974440 0.743369
vt 0.997838 0.743369
vt 0.974440 0.774221
vt 0.997838 0.774221
vt 0.974440 0.798061
vt 0.997838 0.798061
vt 0.974440 0.844339
vt 0.997838 0.844339
vt 0.974440 0.861167
vt 0.997838 0.861167
vt 0.974440 0.904640
vt 0.997838 0.904640
vt 0.974440 0.938297
vt 0.997838 0.938297
vt 0.974440 0.957929
vt 0.997838 0.957929
vt 0.854519 0.238075
vt 0.610168 0.235711
vt 0.604998 0.206483
vt 0.881571 0.196306
vt 0.590524 0.182822
vt 0.572948 0.159162
vt 0.565711 0.138285
vt 0.880007 0.008729
vt 0.564678 0.007337
vt 0.997838 0.131942
vt 0.997838 0.000000
vt 0.974440 0.000000
vt 0.974440 0.131942
vt 0.997838 0.152977
vt 0.974440 0.152977
vt 0.997838 0.176817
vt 0.974440 0.176817
vt 0.997838 0.200657
vt 0.974440 0.200657
vt 0.997838 0.230107
vt 0.974440 0.230107
vt 0.997838 0.272178
vt 0.974440 0.272178
vt 0.997838 0.279189
vt 0.974440 0.279189
vt 0.997838 0.291811
vt 0.974440 0.291811
vt 0.997838 0.331077
vt 0.974440 0.331077
vt 0.997838 0.511980
vt 0.974440 0.511980
vt 0.997838 0.478324
vt 0.974440 0.478324
vt 0.997919 0.315491
vt 0.979329 0.311315
vt 1.002728 0.288877
vt 0.981901 0.288093
vt 1.005300 0.276046
vt 0.975269 0.285207
vt 0.998668 0.254127
vt 0.984393 0.244737
vt 1.007792 0.233143
vt 0.974686 0.244196
vt 0.998085 0.200536
vt 0.974440 0.197830
vt 0.997838 0.001402
vt 0.974440 0.001402
vt 0.997838 0.646606
vt 0.997838 0.638192
vt 0.974440 0.638192
vt 0.974440 0.646606
vt 0.997838 0.667642
vt 0.974440 0.667642
vt 0.997838 0.715322
vt 0.974440 0.715322
vt 0.997838 0.739162
vt 0.974440 0.739162
vt 0.997838 0.810682
vt 0.974440 0.810682
vt 0.997838 0.841534
vt 0.974440 0.841534
vt 0.997838 0.872386
vt 0.974440 0.872386
vt 0.997838 0.899030
vt 0.974440 0.899030
vt 0.997838 0.920066
vt 0.974440 0.920066
vt 0.997838 0.932687
vt 0.974440 0.932687
vt 0.997838 0.934089
vt 0.974440 0.934089
vt 0.997838 0.925675
vt 0.974440 0.925675
vt 0.516728 0.282581
vt 0.508564 0.275639
vt 0.166821 0.317672
vt 0.162774 0.295428
vt 0.165388 0.278937
vt 0.187381 0.248180
vt 0.185993 0.235813
vt 0.504482 0.233985
vt 0.511285 0.204827
vt 0.150460 0.192671
vt 0.530336 0.181223
vt 0.553468 0.157619
vt 0.562993 0.136792
vt 0.149329 0.007545
vt 0.564354 0.006156
vt 0.997838 0.391378
vt 0.974440 0.391378
vt 0.997838 0.441863
vt 0.974440 0.441863
vt 0.997838 0.489543
vt 0.974440 0.489543
vt 0.997838 0.500762
vt 0.974440 0.500762
vt 0.997838 0.535820
vt 0.974440 0.535820
vt 0.997838 1.000000
vt 0.997838 0.963539
vt 0.974440 0.963539
vt 0.974440 1.000000
vt 0.997838 0.990184
vt 0.974440 0.990184
vt 0.997838 0.952320
vt 0.974440 0.952320
vt 0.997838 0.962136
vt 0.974440 0.962136
s 1
usemtl target_soldier
f 1/1/1 2/2/1 3/3/1
f 3/3/1 4/4/1 5/5/1
f 3/3/1 6/6/1 7/7/1
f 3/3/1 5/5/1 6/6/1
f 5/5/1 8/8/1 6/6/1
f 9/9/1 10/10/1 1/1/1
f 9/9/1 1/1/1 3/3/1
f 11/11/1 9/9/1 3/3/1
f 11/11/1 3/3/1 7/7/1
f 12/12/1 11/11/1 7/7/1
f 12/12/1 7/7/1 13/13/1
f 12/12/1 13/13/1 14/14/1
f 12/12/1 14/14/1 15/15/1
f 12/12/1 15/15/1 16/16/1
f 17/17/1 12/12/1 16/16/1
f 17/17/1 16/16/1 18/18/1
f 19/19/1 17/17/1 18/18/1
f 20/20/1 19/19/1 18/18/1
f 20/20/1 18/18/1 21/21/1
f 22/22/1 20/20/1 21/21/1
f 23/23/1 22/22/1 21/21/1
f 24/24/1 23/23/1 21/21/1
f 25/25/1 24/24/1 21/21/1
f 20/20/1 26/26/1 19/19/1
f 17/17/1 27/27/1 12/12/1
f 17/17/1 28/28/1 27/27/1
f 29/29/1 30/30/1 31/31/1
f 27/27/1 29/29/1 31/31/1
f 27/27/1 31/31/1 32/32/1
f 27/27/1 32/32/1 12/12/1
f 32/32/1 33/33/1 12/12/1
f 34/34/1 35/35/1 32/32/1
f 31/31/1 34/34/1 32/32/1
f 31/31/1 36/36/1 34/34/1
f 37/37/1 38/38/1 29/29/1
f 27/27/1 37/37/1 29/29/1
f 27/27/1 39/39/1 37/37/1
f 12/12/1 40/40/1 41/41/1
f 12/12/1 41/41/1 42/42/1
f 41/41/1 43/43/1 42/42/1
f 12/12/1 44/44/1 11/11/1
f 12/12/1 42/42/1 44/44/1
f 42/42/1 45/45/1 44/44/1
f 42/42/1 46/46/1 45/45/1
f 47/47/1 48/48/1 11/11/1
f 44/44/1 47/47/1 11/11/1
f 44/44/1 49/49/1 47/47/1
f 44/44/1 50/50/1 49/49/1
f 51/51/2 52/52/2 53/53/2
f 54/54/2 55/55/2 56/56/2
f 57/57/2 54/54/2 56/56/2
f 57/57/2 56/56/2 58/58/2
f 57/57/2 58/58/2 59/59/2
f 60/60/2 57/57/2 59/59/2
f 60/60/2 59/59/2 51/51/2
f 60/60/2 51/51/2 53/53/2
f 61/61/2 60/60/2 53/53/2
f 61/61/2 53/53/2 62/62/2
f 61/61/2 62/62/2 63/63/2
f 61/61/2 63/63/2 64/64/2
f 61/61/2 64/64/2 65/65/2
f 61/61/2 65/65/2 66/66/2
f 61/61/2 66/66/2 67/67/2
f 68/68/2 61/61/2 67/67/2
f 69/69/2 68/68/2 67/67/2
f 70/70/2 69/69/2 67/67/2
f 71/71/2 70/70/2 67/67/2
f 57/57/2 72/72/2 73/73/2
f 57/57/2 74/74/2 72/72/2
f 75/75/2 76/76/2 77/77/2
f 57/57/2 75/75/2 77/77/2
f 57/57/2 78/78/2 75/75/2
f 57/57/2 79/79/2 78/78/2
f 57/57/2 80/80/2 79/79/2
f 57/57/2 81/81/2 80/80/2
f 81/81/2 82/82/2 80/80/2
f 83/83/2 84/84/2 85/85/2
f 86/86/2 83/83/2 85/85/2
f 86/86/2 85/85/2 87/87/2
f 73/73/2 86/86/2 87/87/2
f 57/57/2 73/73/2 87/87/2
f 57/57/2 87/87/2 88/88/2
f 57/57/2 88/88/2 89/89/2
f 57/57/2 89/89/2 90/90/2
f 57/57/2 90/90/2 81/81/2
f 90/90/2 91/91/2 81/81/2
f 86/86/2 92/92/2 83/83/2
f 90/90/2 93/93/2 91/91/2
f 94/94/2 95/95/2 87/87/2
f 85/85/2 94/94/2 87/87/2
f 85/85/2 96/96/2 94/94/2
f 97/97/2 98/98/2 99/99/2
f 97/97/2 99/99/2 90/90/2
f 89/89/2 97/97/2 90/90/2
f 89/89/2 100/100/2 97/97/2
f 101/101/2 102/102/2 103/103/2
f 103/103/2 104/104/2 54/54/2
f 101/101/2 103/103/2 54/54/2
f 57/57/2 101/101/2 54/54/2
f 57/57/2 77/77/2 101/101/2
f 77/77/2 105/105/2 101/101/2
f 77/77/2 106/106/2 105/105/2
f 74/107/3 57/108/4 16/109/4
f 16/109/4 15/110/3 74/107/3
f 72/111/5 74/107/3 15/110/3
f 15/110/3 14/112/5 72/111/5
f 73/113/6 72/111/5 14/112/5
f 14/112/5 13/114/6 73/113/6
f 86/115/7 73/113/6 13/114/6
f 13/114/6 7/116/7 86/115/7
f 92/117/8 86/115/7 7/116/7
f 7/116/7 6/118/8 92/117/8
f 83/119/9 92/117/8 6/118/8
f 6/118/8 8/120/9 83/119/9
f 84/121/10 83/119/9 8/120/9
f 8/120/9 5/122/11 84/121/10
f 85/123/12 84/121/10 5/122/11
f 5/122/11 4/124/12 85/123/12
f 96/125/13 85/123/12 4/124/12
f 4/124/12 3/126/13 96/125/13
f 94/127/14 96/125/13 3/126/13
f 3/126/13 2/128/14 94/127/14
f 95/129/15 94/127/14 2/128/14
f 2/128/14 1/130/15 95/129/15
f 87/131/16 95/129/15 1/130/15
f 1/130/15 10/132/16 87/131/16
f 88/133/17 87/131/16 10/132/16
f 10/132/16 9/134/17 88/133/17
f 89/135/18 88/133/17 9/134/17
f 9/134/17 11/136/18 89/135/18
f 100/137/19 89/135/18 11/136/18
f 11/136/18 48/138/19 100/137/19
f 97/139/20 100/137/19 48/138/19
f 48/138/19 47/140/20 97/139/20
f 98/141/21 97/139/20 47/140/20
f 47/140/20 49/142/21 98/141/21
f 99/143/22 98/141/21 49/142/21
f 49/142/21 50/144/22 99/143/22
f 90/145/23 99/143/22 50/144/22
f 50/144/22 44/146/23 90/145/23
f 107/147/2 71/71/2 67/67/2
f 107/147/2 67/67/2 108/148/2
f 107/147/2 108/148/2 109/149/2
f 110/150/2 107/147/2 109/149/2
f 110/150/2 109/149/2 111/151/2
f 110/150/2 111/151/2 112/152/2
f 113/153/2 110/150/2 112/152/2
f 113/153/2 114/154/2 110/150/2
f 113/153/2 115/155/2 114/154/2
f 116/156/24 117/157/25 115/158/25
f 115/158/25 113/159/24 116/156/24
f 118/160/26 116/156/24 113/159/24
f 113/159/24 112/161/26 118/160/26
f 119/162/27 118/160/26 112/161/26
f 112/161/26 111/163/27 119/162/27
f 120/164/28 119/162/27 111/163/27
f 111/163/27 109/165/28 120/164/28
f 121/166/29 120/164/28 109/165/28
f 109/165/28 108/167/29 121/166/29
f 122/168/30 121/166/29 108/167/29
f 108/167/29 67/169/30 122/168/30
f 123/170/31 122/168/30 67/169/30
f 67/169/30 66/171/31 123/170/31
f 25/172/32 123/170/31 66/171/31
f 66/171/31 65/173/32 25/172/32
f 24/174/33 25/172/32 65/173/32
f 65/173/32 64/175/33 24/174/33
f 18/176/34 16/109/35 57/108/35
f 57/108/35 60/177/34 18/176/34
f 21/178/36 18/176/34 60/177/34
f 60/177/34 61/179/36 21/178/36
f 124/180/37 21/178/36 61/179/36
f 61/179/36 68/181/37 124/180/37
f 125/182/38 124/180/37 68/181/37
f 68/181/37 69/183/38 125/182/38
f 126/184/39 125/182/38 69/183/38
f 69/183/38 70/185/39 126/184/39
f 127/186/40 126/184/39 70/185/39
f 70/185/39 71/187/40 127/186/40
f 128/188/41 127/186/40 71/187/40
f 71/187/40 107/189/41 128/188/41
f 129/190/42 128/188/41 107/189/41
f 107/189/41 110/191/42 129/190/42
f 130/192/43 129/190/42 110/191/42
f 110/191/42 114/193/43 130/192/43
f 28/194/44 17/195/45 59/196/45
f 59/196/45 58/197/44 28/194/44
f 27/198/46 28/194/44 58/197/44
f 58/197/44 56/199/46 27/198/46
f 39/128/47 27/198/46 56/199/46
f 56/199/46 55/127/47 39/128/47
f 37/200/48 39/128/47 55/127/47
f 55/127/47 54/201/48 37/200/48
f 38/202/49 37/200/48 54/201/48
f 54/201/48 104/203/49 38/202/49
f 29/136/50 38/202/49 104/203/49
f 104/203/49 103/135/50 29/136/50
f 30/204/51 29/136/50 103/135/50
f 103/135/50 102/205/51 30/204/51
f 31/206/52 30/204/51 102/205/51
f 102/205/51 101/207/52 31/206/52
f 36/208/53 31/206/54 101/207/54
f 101/207/54 105/209/53 36/208/53
f 34/210/55 36/208/53 105/209/53
f 105/209/53 106/211/55 34/210/55
f 35/212/56 34/210/55 106/211/55
f 106/211/55 77/213/56 35/212/56
f 32/214/57 35/212/56 77/213/56
f 77/213/56 76/215/57 32/214/57
f 33/216/58 32/214/57 76/215/57
f 76/215/57 75/217/58 33/216/58
f 12/218/59 33/216/58 75/217/58
f 75/217/58 78/219/59 12/218/59
f 123/220/1 25/25/1 21/21/1
f 122/221/1 123/220/1 21/21/1
f 122/221/1 21/21/1 124/222/1
f 122/221/1 124/222/1 125/223/1
f 122/221/1 125/223/1 126/224/1
f 122/221/1 126/224/1 127/225/1
f 122/221/1 127/225/1 128/226/1
f 121/227/1 122/221/1 128/226/1
f 120/228/1 121/227/1 128/226/1
f 120/228/1 128/226/1 129/229/1
f 119/230/1 120/228/1 129/229/1
f 118/231/1 119/230/1 129/229/1
f 116/232/1 118/231/1 129/229/1
f 130/233/1 116/232/1 129/229/1
f 130/233/1 117/234/1 116/232/1
f 23/235/60 24/174/61 64/175/61
f 64/175/61 63/236/60 23/235/60
f 22/237/62 23/235/60 63/236/60
f 63/236/60 62/238/62 22/237/62
f 20/239/63 22/237/62 62/238/62
f 62/238/62 53/240/63 20/239/63
f 26/241/64 20/239/63 53/240/63
f 53/240/63 52/242/64 26/241/64
f 19/243/65 26/241/64 52/242/64
f 52/242/64 51/244/65 19/243/65
f 46/245/66 42/246/66 81/247/66
f 81/247/66 91/248/66 46/245/66
f 45/249/67 46/245/67 91/248/67
f 91/248/67 93/250/67 45/249/67
f 44/146/68 45/249/68 93/250/68
f 93/250/68 90/145/68 44/146/68
f 40/144/69 12/218/70 78/219/70
f 78/219/70 79/143/69 40/144/69
f 41/251/71 40/144/69 79/143/69
f 79/143/69 80/252/71 41/251/71
f 43/253/72 41/251/71 80/252/71
f 80/252/71 82/254/72 43/253/72
f 42/246/73 43/253/72 82/254/72
f 82/254/72 81/247/73 42/246/73
f 117/157/74 130/192/74 114/193/74
f 114/193/74 115/158/74 117/157/74
f 17/195/75 19/243/75 51/244/75
f 51/244/75 59/196/75 17/195/75
o 1soldier
v -8.264858 140.722260 -1.504807
v -20.404705 140.722260 -1.504805
v -8.264858 140.722260 1.262357
v -20.404705 140.722260 1.262357
v -42.372219 92.905540 1.262357
v 31.224943 108.205650 1.262357
v -20.633333 0.000000 1.262357
v 40.990223 0.000000 1.262357
v 31.224943 108.205650 -1.504809
v -42.372219 92.905540 -1.504805
v -20.633333 0.000000 -1.504805
v 40.990223 0.000000 -1.504809
v -13.761198 0.016774 40.271263
v -13.761198 0.461868 40.271263
v -13.761198 0.016774 -40.271263
v -13.761198 0.461868 -40.271263
v 30.639433 0.016774 40.271263
v 30.639433 0.461868 40.271263
v 30.639433 0.016774 -40.271263
v 30.639433 0.461868 -40.271263
vn -1.0000 -0.0011 0.0010
vn -0.9532 -0.2172 0.2102
vn 0.9956 0.0501 0.0795
vn 0.8841 -0.4031 0.2364
vn 0.9993 -0.0363 0.0001
vn 0.9997 0.0231 0.0081
vn 0.9991 -0.0372 -0.0210
vn 0.9951 0.0894 -0.0428
vn -0.9789 0.1927 0.0675
vn -0.9870 -0.1605 0.0002
vn -0.9993 -0.0200 -0.0311
vn -0.9997 0.0236 -0.0113
vn -1.0000 -0.0000 -0.0000
vn -0.0000 -0.0000 -1.0000
vn 1.0000 -0.0000 -0.0000
vn -0.0000 -0.0000 1.0000
vn -0.0000 -1.0000 -0.0000
vn -0.0000 1.0000 -0.0000
vt 0.000000 0.000000
vt 0.375000 0.000000
vt 0.625000 0.000000
vt 0.625000 0.250000
vt 0.375000 0.250000
vt 0.625000 0.500000
vt 0.375000 0.500000
vt 0.625000 0.750000
vt 0.375000 0.750000
vt 0.625000 1.000000
vt 0.375000 1.000000
vt 0.125000 0.500000
vt 0.125000 0.750000
vt 0.875000 0.500000
vt 0.875000 0.750000
s 1
usemtl __phy
f 131/255/76 132/255/77 133/255/78
f 132/255/77 134/255/79 133/255/78
f 135/255/80 133/255/78 134/255/79
f 135/255/80 136/255/81 133/255/78
f 135/255/80 137/255/82 136/255/81
f 137/255/82 138/255/83 136/255/81
f 133/255/78 139/255/84 131/255/76
f 136/255/81 139/255/84 133/255/78
f 132/255/77 131/255/76 140/255/85
f 140/255/85 131/255/76 141/255/86
f 141/255/86 131/255/76 142/255/87
f 131/255/76 139/255/84 142/255/87
f 142/255/87 139/255/84 138/255/83
f 139/255/84 136/255/81 138/255/83
f 134/255/79 132/255/77 140/255/85
f 134/255/79 140/255/85 135/255/80
f 140/255/85 141/255/86 137/255/82
f 140/255/85 137/255/82 135/255/80
f 141/255/86 142/255/87 138/255/83
f 141/255/86 138/255/83 137/255/82
s 0
f 143/256/88 144/257/88 146/258/88 145/259/88
f 145/259/89 146/258/89 150/260/89 149/261/89
f 149/261/90 150/260/90 148/262/90 147/263/90
f 147/263/91 148/262/91 144/264/91 143/265/91
f 145/266/92 149/261/92 147/263/92 143/267/92
f 150/260/93 146/268/93 144/269/93 148/262/93
