# Blender 3.6.1
# www.blender.org
mtllib spy.mtl
o 0spy
v 14.533716 64.211594 0.622539
v 12.694777 62.938499 0.622539
v 12.694777 62.938499 -0.638414
v 14.533716 64.211594 -0.638414
v 12.411877 108.487297 0.622540
v 10.714408 113.862633 0.622540
v 2.227047 114.428459 0.622540
v 14.109345 68.879631 0.622539
v -15.454943 72.133118 0.622539
v 15.948273 71.142914 0.622539
v 16.372643 73.123314 0.622539
v 15.240988 91.654030 0.622539
v -18.142611 75.810974 0.622540
v -20.688822 80.196106 0.622540
v -20.830276 81.893593 0.622540
v -15.313498 109.760399 0.622540
v 14.958088 97.170822 0.622540
v -12.625832 111.599319 0.622540
v 14.533716 101.697418 0.622540
v -10.079622 114.004089 0.622540
v -11.494177 120.935417 0.622540
v 2.651419 116.125916 0.622540
v 2.792875 120.086678 0.622540
v 19.060297 74.537857 0.622537
v -20.405909 107.072731 0.622542
v 2.227047 123.905991 0.622540
v -11.352720 124.613274 0.622540
v 0.953936 126.876556 0.622540
v -9.796708 127.583847 0.622540
v -6.826139 129.281326 0.622540
v -3.431189 129.564224 0.622540
v -0.884990 128.574036 0.622540
v -12.625832 111.599319 -0.638411
v -10.079622 114.004089 -0.638411
v 2.227047 114.428459 -0.638411
v -11.494177 120.935417 -0.638411
v 2.651419 116.125916 -0.638411
v 2.792875 120.086678 -0.638411
v 2.227047 123.905991 -0.638411
v -11.352720 124.613274 -0.638411
v 0.953936 126.876556 -0.638411
v -9.796708 127.583847 -0.638411
v -6.826139 129.281326 -0.638411
v -3.431189 129.564224 -0.638411
v -0.884990 128.574036 -0.638411
v 14.109345 68.879631 -0.638414
v -15.454943 72.133118 -0.638412
v 15.948273 71.142914 -0.638412
v 16.372643 73.123314 -0.638412
v 15.240988 91.654030 -0.638412
v -18.142611 75.810974 -0.638411
v -20.688822 80.196106 -0.638411
v -20.830276 81.893593 -0.638411
v -15.313498 109.760399 -0.638411
v 14.958088 97.170822 -0.638412
v 14.533716 101.697418 -0.638412
v 12.411877 108.487297 -0.638411
v 10.714408 113.862633 -0.638411
v 19.060297 74.537857 -0.638414
v -20.405909 107.072731 -0.638409
v 12.270419 47.095436 -0.638414
v -15.879313 38.325157 -0.638414
v -16.728054 34.788765 -0.638416
v 15.665359 32.101097 -0.638416
v 17.504284 20.218798 -0.638416
v -22.386290 28.281790 -0.638414
v 18.918852 13.570365 -0.638417
v 18.777395 0.000000 -0.638417
v -22.244833 0.000000 -0.638414
v 18.777395 0.000000 0.622534
v -22.244833 0.000000 0.622537
v 12.270419 47.095436 0.622537
v -15.879313 38.325157 0.622537
v -16.728054 34.788765 0.622537
v 15.665359 32.101097 0.622537
v 17.504284 20.218798 0.622536
v -22.386290 28.281790 0.622539
v 18.918852 13.570365 0.622534
vn 0.5692 -0.8222 -0.0000
vn -0.0000 -0.0000 1.0000
vn -0.0000 -0.0000 -1.0000
vn -0.0000 -1.0000 -0.0000
vn 0.0665 0.9978 -0.0000
vn 0.4657 -0.8849 -0.0000
vn 0.9566 -0.2915 -0.0000
vn 0.9959 0.0905 -0.0000
vn 0.9019 -0.4320 -0.0000
vn 0.9778 -0.2095 -0.0000
vn -0.6276 0.7785 -0.0000
vn -0.6866 0.7270 -0.0000
vn -0.6276 0.7786 -0.0000
vn -0.5166 0.8562 -0.0000
vn -0.4668 0.8844 -0.0000
vn 0.9952 0.0978 -0.0000
vn 0.9996 -0.0268 -0.0000
vn 0.9824 0.1870 -0.0000
vn 0.9836 0.1806 -0.0000
vn 0.9950 0.0994 -0.0000
vn 0.9999 -0.0104 -0.0000
vn 0.9540 0.2997 -0.0000
vn 0.9536 0.3011 -0.0000
vn 0.9804 0.1969 -0.0000
vn 0.9974 0.0723 -0.0000
vn 0.9908 0.1350 -0.0000
vn 0.9760 0.2178 -0.0000
vn -0.9967 -0.0813 -0.0000
vn -0.9798 -0.2000 -0.0000
vn -0.9663 0.2575 -0.0000
vn -0.7199 0.6940 -0.0000
vn -0.2966 0.9550 -0.0000
vn 0.1434 0.9897 -0.0000
vn 0.5296 0.8482 -0.0000
vn 0.8167 0.5771 -0.0000
vn 0.9622 0.2725 -0.0000
vn 0.9984 0.0557 -0.0000
vn 0.9902 -0.1399 -0.0000
vn 0.9701 -0.2425 -0.0000
vn -0.9375 0.3479 -0.0000
vn -1.0000 -0.0050 -0.0000
vn -0.8890 0.4579 -0.0000
vn -0.9923 0.1237 -0.0000
vn -0.9526 -0.3044 -0.0000
vn -0.8372 -0.5468 -0.0000
vn -0.9540 -0.2999 -0.0000
vn -0.9995 -0.0331 -0.0000
vn -0.9999 0.0169 -0.0000
vt 1.000655 0.495597
vt 1.000655 0.485771
vt 0.979699 0.485771
vt 0.979699 0.495597
vt 0.272073 0.836207
vt 0.259143 0.877284
vt 0.194490 0.881608
vt 0.274228 0.488134
vt 0.288236 0.497862
vt 0.285004 0.533534
vt 0.059797 0.558397
vt 0.299012 0.550830
vt 0.302245 0.565964
vt 0.293624 0.707571
vt 0.039324 0.586502
vt 0.019928 0.620012
vt 0.018850 0.632984
vt 0.060875 0.845935
vt 0.291469 0.749729
vt 0.081348 0.859988
vt 0.288236 0.784320
vt 0.100744 0.878365
vt 0.089968 0.931332
vt 0.197723 0.894579
vt 0.198800 0.924846
vt 0.322718 0.576773
vt 0.022083 0.825397
vt 0.194490 0.954033
vt 0.091046 0.959438
vt 0.184792 0.976733
vt 0.102899 0.982138
vt 0.125527 0.995110
vt 0.151388 0.997272
vt 0.170784 0.989705
vt 0.884857 0.859014
vt 0.865461 0.877391
vt 0.771715 0.880634
vt 0.876236 0.930358
vt 0.768482 0.893605
vt 0.767405 0.923872
vt 0.771715 0.953059
vt 0.875159 0.958464
vt 0.781413 0.975759
vt 0.863306 0.981164
vt 0.840678 0.994136
vt 0.814817 0.996298
vt 0.795421 0.988731
vt 0.681201 0.532560
vt 0.677968 0.496888
vt 0.691977 0.487160
vt 0.906408 0.557423
vt 0.667193 0.549856
vt 0.663960 0.564990
vt 0.672581 0.706597
vt 0.926881 0.585528
vt 0.946277 0.619038
vt 0.947354 0.632010
vt 0.905330 0.844961
vt 0.674736 0.748755
vt 0.677968 0.783346
vt 0.694132 0.835233
vt 0.707062 0.876310
vt 0.643487 0.575799
vt 0.944122 0.824423
vt 0.695209 0.366091
vt 0.909640 0.299070
vt 0.916106 0.272046
vt 0.669348 0.251508
vt 0.655340 0.160706
vt 0.959207 0.222321
vt 0.644565 0.109900
vt 0.645642 0.006199
vt 0.958130 0.006199
vt 1.000655 0.000000
vt 0.979699 0.000000
vt 1.000655 0.883179
vt 1.000655 0.878812
vt 0.979699 0.878812
vt 0.979699 0.883179
vt 1.000655 0.575297
vt 1.000655 0.564379
vt 0.979699 0.564379
vt 0.979699 0.575297
vt 1.000655 0.531625
vt 0.979699 0.531625
vt 1.000655 0.549094
vt 0.979699 0.549094
vt 1.000655 0.861344
vt 1.000655 0.879904
vt 0.979699 0.879904
vt 0.979699 0.861344
vt 1.000655 0.847151
vt 0.979699 0.847151
vt 1.000655 0.826406
vt 0.979699 0.826406
vt 0.270996 0.367065
vt 0.056565 0.300044
vt 0.050099 0.273020
vt 0.296857 0.252482
vt 0.310865 0.161680
vt 0.006997 0.223295
vt 0.321640 0.110874
vt 0.320563 0.007173
vt 0.008075 0.007173
vt 0.979699 0.363491
vt 1.000655 0.363491
vt 0.979699 0.247762
vt 1.000655 0.247762
vt 0.979699 0.156052
vt 1.000655 0.156052
vt 0.979699 0.104739
vt 1.000655 0.104739
vt 0.979699 0.837324
vt 1.000655 0.837324
vt 0.979699 0.784919
vt 1.000655 0.784919
vt 0.979699 0.749982
vt 1.000655 0.749982
vt 0.979699 0.707402
vt 1.000655 0.707402
vt 0.979699 0.933401
vt 1.000655 0.933401
vt 0.979699 0.961788
vt 1.000655 0.961788
vt 0.979699 0.984715
vt 1.000655 0.984715
vt 0.979699 0.997816
vt 1.000655 0.997816
vt 0.979699 1.000000
vt 1.000655 1.000000
vt 0.979699 0.992357
vt 1.000655 0.992357
vt 0.979699 0.979256
vt 1.000655 0.979256
vt 0.979699 0.956329
vt 1.000655 0.956329
vt 0.979699 0.926850
vt 1.000655 0.926850
vt 0.979699 0.896281
vt 1.000655 0.896281
vt 0.979699 0.218284
vt 1.000655 0.218284
vt 0.979699 0.268506
vt 1.000655 0.268506
vt 0.979699 0.295800
vt 1.000655 0.295800
vt 0.979699 0.556736
vt 1.000655 0.556736
vt 0.979699 0.585123
vt 1.000655 0.585123
vt 0.979699 0.618968
vt 1.000655 0.618968
vt 0.979699 0.632069
vt 1.000655 0.632069
s 1
usemtl target_spy
f 1/1/1 2/2/1 3/3/1
f 3/3/1 4/4/1 1/1/1
f 5/5/2 6/6/2 7/7/2
f 2/8/2 1/9/2 8/10/2
f 2/8/2 8/10/2 9/11/2
f 8/10/2 10/12/2 9/11/2
f 10/12/2 11/13/2 9/11/2
f 11/13/2 12/14/2 9/11/2
f 12/14/2 13/15/2 9/11/2
f 12/14/2 14/16/2 13/15/2
f 12/14/2 15/17/2 14/16/2
f 12/14/2 16/18/2 15/17/2
f 12/14/2 17/19/2 16/18/2
f 17/19/2 18/20/2 16/18/2
f 17/19/2 19/21/2 18/20/2
f 19/21/2 5/5/2 18/20/2
f 5/5/2 7/7/2 18/20/2
f 7/7/2 20/22/2 18/20/2
f 7/7/2 21/23/2 20/22/2
f 7/7/2 22/24/2 21/23/2
f 22/24/2 23/25/2 21/23/2
f 11/13/2 24/26/2 12/14/2
f 16/18/2 25/27/2 15/17/2
f 23/25/2 26/28/2 21/23/2
f 26/28/2 27/29/2 21/23/2
f 26/28/2 28/30/2 27/29/2
f 28/30/2 29/31/2 27/29/2
f 28/30/2 30/32/2 29/31/2
f 28/30/2 31/33/2 30/32/2
f 28/30/2 32/34/2 31/33/2
f 33/35/3 34/36/3 35/37/3
f 34/36/3 36/38/3 35/37/3
f 36/38/3 37/39/3 35/37/3
f 36/38/3 38/40/3 37/39/3
f 36/38/3 39/41/3 38/40/3
f 36/38/3 40/42/3 39/41/3
f 40/42/3 41/43/3 39/41/3
f 40/42/3 42/44/3 41/43/3
f 42/44/3 43/45/3 41/43/3
f 43/45/3 44/46/3 41/43/3
f 44/46/3 45/47/3 41/43/3
f 46/48/3 4/49/3 3/50/3
f 47/51/3 46/48/3 3/50/3
f 47/51/3 48/52/3 46/48/3
f 47/51/3 49/53/3 48/52/3
f 47/51/3 50/54/3 49/53/3
f 47/51/3 51/55/3 50/54/3
f 51/55/3 52/56/3 50/54/3
f 52/56/3 53/57/3 50/54/3
f 53/57/3 54/58/3 50/54/3
f 54/58/3 55/59/3 50/54/3
f 54/58/3 33/35/3 55/59/3
f 33/35/3 56/60/3 55/59/3
f 33/35/3 57/61/3 56/60/3
f 33/35/3 35/37/3 57/61/3
f 35/37/3 58/62/3 57/61/3
f 50/54/3 59/63/3 49/53/3
f 53/57/3 60/64/3 54/58/3
f 47/51/3 3/50/3 61/65/3
f 62/66/3 47/51/3 61/65/3
f 63/67/3 62/66/3 61/65/3
f 63/67/3 61/65/3 64/68/3
f 63/67/3 64/68/3 65/69/3
f 66/70/3 63/67/3 65/69/3
f 66/70/3 65/69/3 67/71/3
f 68/72/3 66/70/3 67/71/3
f 68/72/3 69/73/3 66/70/3
f 70/74/4 71/74/4 69/75/4
f 69/75/4 68/75/4 70/74/4
f 7/76/5 6/77/5 58/78/5
f 58/78/5 35/79/5 7/76/5
f 24/80/6 11/81/6 49/82/6
f 49/82/6 59/83/6 24/80/6
f 8/84/7 1/1/8 4/4/8
f 4/4/8 46/85/7 8/84/7
f 10/86/9 8/84/7 46/85/7
f 46/85/7 48/87/9 10/86/9
f 11/81/10 10/86/9 48/87/9
f 48/87/9 49/82/10 11/81/10
f 18/88/11 20/89/12 34/90/12
f 34/90/12 33/91/13 18/88/11
f 16/92/14 18/88/11 33/91/13
f 33/91/13 54/93/14 16/92/14
f 25/94/15 16/92/14 54/93/14
f 54/93/14 60/95/15 25/94/15
f 72/96/2 2/8/2 9/11/2
f 72/96/2 9/11/2 73/97/2
f 72/96/2 73/97/2 74/98/2
f 75/99/2 72/96/2 74/98/2
f 76/100/2 75/99/2 74/98/2
f 77/101/2 76/100/2 74/98/2
f 77/101/2 78/102/2 76/100/2
f 77/101/2 70/103/2 78/102/2
f 77/101/2 71/104/2 70/103/2
f 61/105/16 3/3/17 2/2/17
f 2/2/17 72/106/16 61/105/16
f 64/107/18 61/105/16 72/106/16
f 72/106/16 75/108/18 64/107/18
f 65/109/19 64/107/18 75/108/18
f 75/108/18 76/110/19 65/109/19
f 67/111/20 65/109/19 76/110/19
f 76/110/19 78/112/20 67/111/20
f 68/75/21 67/111/20 78/112/20
f 78/112/20 70/74/21 68/75/21
f 57/113/22 58/78/23 6/77/23
f 6/77/23 5/114/22 57/113/22
f 56/115/24 57/113/22 5/114/22
f 5/114/22 19/116/24 56/115/24
f 55/117/25 56/115/24 19/116/24
f 19/116/24 17/118/25 55/117/25
f 50/119/26 55/117/25 17/118/25
f 17/118/25 12/120/26 50/119/26
f 59/83/27 50/119/26 12/120/26
f 12/120/26 24/80/27 59/83/27
f 36/121/28 34/90/29 20/89/29
f 20/89/29 21/122/28 36/121/28
f 40/123/30 36/121/28 21/122/28
f 21/122/28 27/124/30 40/123/30
f 42/125/31 40/123/30 27/124/30
f 27/124/30 29/126/31 42/125/31
f 43/127/32 42/125/31 29/126/31
f 29/126/31 30/128/32 43/127/32
f 44/129/33 43/127/32 30/128/32
f 30/128/32 31/130/33 44/129/33
f 45/131/34 44/129/33 31/130/33
f 31/130/33 32/132/34 45/131/34
f 41/133/35 45/131/34 32/132/34
f 32/132/34 28/134/35 41/133/35
f 39/135/36 41/133/35 28/134/35
f 28/134/35 26/136/36 39/135/36
f 38/137/37 39/135/36 26/136/36
f 26/136/36 23/138/37 38/137/37
f 37/139/38 38/137/37 23/138/37
f 23/138/37 22/140/38 37/139/38
f 35/79/39 37/139/38 22/140/38
f 22/140/38 7/76/39 35/79/39
f 66/141/40 69/75/41 71/74/41
f 71/74/41 77/142/40 66/141/40
f 63/143/42 66/141/40 77/142/40
f 77/142/40 74/144/42 63/143/42
f 62/145/43 63/143/42 74/144/42
f 74/144/42 73/146/43 62/145/43
f 47/147/44 62/145/43 73/146/43
f 73/146/43 9/148/44 47/147/44
f 51/149/45 47/147/44 9/148/44
f 9/148/44 13/150/45 51/149/45
f 52/151/46 51/149/45 13/150/45
f 13/150/45 14/152/46 52/151/46
f 53/153/47 52/151/46 14/152/46
f 14/152/46 15/154/47 53/153/47
f 60/95/48 53/153/47 15/154/47
f 15/154/47 25/94/48 60/95/48
o 1spy
v 10.892953 113.603584 -0.996952
v 19.544109 74.585373 -0.996953
v 0.903712 129.008820 -0.996952
v -20.534607 106.180458 -0.996950
v -10.384738 129.008820 -0.996950
v -22.606125 28.305992 -0.996950
v 19.403559 0.000000 -0.996953
v -22.591288 0.000000 -0.996950
v 0.903712 129.008820 0.919592
v -10.384738 129.008820 0.919592
v -20.534607 106.180458 0.919593
v 10.892953 113.603584 0.919592
v 19.544109 74.585373 0.919590
v -22.606125 28.305992 0.919593
v -22.591288 0.000000 0.919593
v 19.403559 0.000000 0.919590
v -22.370937 0.035036 35.371677
v -22.370937 0.480131 35.371677
v -22.370937 0.035036 -35.371677
v -22.370937 0.480131 -35.371677
v 22.370937 0.035036 35.371677
v 22.370937 0.480131 35.371677
v 22.370937 0.035036 -35.371677
v 22.370937 0.480131 -35.371677
vn -0.8087 0.5646 0.1650
vn -0.9990 0.0441 0.0020
vn -0.9992 0.0280 0.0284
vn -0.9989 -0.0469 0.0085
vn -0.9587 -0.1628 0.2334
vn -0.9989 -0.0470 0.0010
vn -0.9993 0.0330 -0.0186
vn -0.9869 -0.0901 -0.1337
vn 0.9294 0.1578 0.3335
vn 0.9916 -0.1064 0.0736
vn 0.9978 -0.0667 0.0053
vn 0.9976 0.0634 0.0260
vn 0.9993 0.0384 0.0043
vn 0.9994 -0.0343 0.0005
vn 0.9967 -0.0454 -0.0675
vn 0.9971 0.0659 -0.0372
vn -1.0000 -0.0000 -0.0000
vn -0.0000 -0.0000 -1.0000
vn 1.0000 -0.0000 -0.0000
vn -0.0000 -0.0000 1.0000
vn -0.0000 -1.0000 -0.0000
vn -0.0000 1.0000 -0.0000
vt 0.000000 0.000000
vt 0.375000 0.000000
vt 0.625000 0.000000
vt 0.625000 0.250000
vt 0.375000 0.250000
vt 0.625000 0.500000
vt 0.375000 0.500000
vt 0.625000 0.750000
vt 0.375000 0.750000
vt 0.625000 1.000000
vt 0.375000 1.000000
vt 0.125000 0.500000
vt 0.125000 0.750000
vt 0.875000 0.500000
vt 0.875000 0.750000
s 1
usemtl __phy
f 79/155/49 80/155/50 81/155/51
f 81/155/51 80/155/50 82/155/52
f 81/155/51 82/155/52 83/155/53
f 82/155/52 80/155/50 84/155/54
f 84/155/54 80/155/50 85/155/55
f 84/155/54 85/155/55 86/155/56
f 83/155/53 87/155/57 81/155/51
f 83/155/53 88/155/58 87/155/57
f 83/155/53 82/155/52 88/155/58
f 88/155/58 82/155/52 89/155/59
f 81/155/51 90/155/60 79/155/49
f 81/155/51 87/155/57 90/155/60
f 91/155/61 80/155/50 79/155/49
f 79/155/49 90/155/60 91/155/61
f 92/155/62 84/155/54 86/155/56
f 92/155/62 86/155/56 93/155/63
f 86/155/56 85/155/55 94/155/64
f 86/155/56 94/155/64 93/155/63
f 84/155/54 89/155/59 82/155/52
f 89/155/59 84/155/54 92/155/62
f 87/155/57 88/155/58 90/155/60
f 88/155/58 89/155/59 90/155/60
f 89/155/59 91/155/61 90/155/60
f 89/155/59 92/155/62 91/155/61
f 92/155/62 94/155/64 91/155/61
f 92/155/62 93/155/63 94/155/64
f 80/155/50 94/155/64 85/155/55
f 80/155/50 91/155/61 94/155/64
s 0
f 95/156/65 96/157/65 98/158/65 97/159/65
f 97/159/66 98/158/66 102/160/66 101/161/66
f 101/161/67 102/160/67 100/162/67 99/163/67
f 99/163/68 100/162/68 96/164/68 95/165/68
f 97/166/69 101/161/69 99/163/69 95/167/69
f 102/160/70 98/168/70 96/169/70 100/162/70
