# Blender 3.6.5
# www.blender.org
mtllib A Doug.mtl
o A_Doug
v -3.278176 0.461502 -1.000001
v 0.912863 20.352604 58.429356
v -59.584946 0.858414 -0.999999
v 0.912864 11.994820 64.330101
v 0.912864 14.935513 61.408760
v -59.584946 0.687599 1.000001
v 0.912865 4.875221 72.223572
v -1.083107 0.461502 0.999999
v -1.083107 61.870499 0.999999
v -57.389877 0.461502 1.000001
v -1.083107 0.461502 -1.000001
v -1.083107 61.870499 -1.000001
v -57.389877 0.461502 -0.999999
v -57.389877 0.687599 1.000001
v -57.389877 0.858414 -0.999999
v -1.282204 4.875221 72.223572
v -1.282205 11.994820 64.330101
v -1.282205 14.935513 61.408760
v -1.282205 20.352604 58.429356
v -1.282206 21.436012 53.012287
v -1.282206 22.983749 49.123596
v -1.282207 27.936516 42.951988
v -1.282207 29.639023 41.230129
v -1.282207 29.329475 38.792446
v -1.282207 31.651089 36.799732
v -1.282207 31.341530 33.859035
v -1.282207 35.675194 31.150496
v -1.282208 42.330471 26.990953
v -1.282208 50.997795 23.798750
v -1.282208 54.712368 20.858047
v -1.282209 69.725418 17.646494
v -1.282209 73.439987 13.719113
v -1.282210 79.476166 6.096512
v -1.282210 83.345512 0.176405
v -1.282210 96.810806 0.679437
v -1.282210 103.775635 2.401290
v -1.282210 112.597733 3.155818
v -1.282210 122.193695 -0.307245
v -1.282211 131.789673 -5.685637
v -1.282211 135.504227 -12.360242
v -1.282212 133.801712 -22.923552
v -1.282213 123.741432 -30.294651
v -1.282213 110.895218 -33.486858
v -1.282213 103.311310 -33.719009
v -1.282213 89.691216 -30.778320
v -1.282213 85.357552 -28.301926
v -1.282214 80.250023 -37.414227
v -1.282214 75.142494 -45.288345
v -1.282215 71.427925 -49.931564
v -1.282215 0.851120 -49.931557
v -1.282204 0.541580 72.436378
v 0.912863 21.436012 53.012287
v 0.912863 22.983749 49.123596
v 0.912862 27.936516 42.951988
v 0.912862 29.639023 41.230129
v 0.912862 29.329475 38.792446
v 0.912862 31.651089 36.799732
v 0.912861 31.341530 33.859035
v 0.912861 35.675194 31.150496
v 0.912861 42.330471 26.990953
v 0.912861 50.997795 23.798750
v 0.912860 54.712368 20.858047
v 0.912860 69.725418 17.646494
v 0.912860 73.439987 13.719113
v 0.912859 79.476166 6.096512
v 0.912858 83.345512 0.176405
v 0.912858 96.810806 0.679437
v 0.912859 103.775635 2.401290
v 0.912859 112.597733 3.155818
v 0.912858 122.193695 -0.307245
v 0.912858 131.789673 -5.685637
v 0.912857 135.504227 -12.360242
v 0.912856 133.801712 -22.923552
v 0.912856 123.741432 -30.294651
v 0.912855 110.895218 -33.486858
v 0.912855 103.311310 -33.719009
v 0.912856 89.691216 -30.778320
v 0.912856 85.357552 -28.301926
v 0.912855 80.250023 -37.414227
v 0.912854 75.142494 -45.288345
v 0.912854 71.427925 -49.931564
v 0.912854 0.851120 -49.931557
v 0.912865 0.541580 72.436378
v 2.663119 21.436012 53.012287
v 2.663119 22.983749 49.123596
v 2.663117 42.330471 26.990953
v 2.663117 50.997795 23.798750
v 2.663117 35.675194 31.150496
v 2.663118 29.639023 41.230129
v 2.663118 29.329475 38.792446
v 2.663120 20.352604 58.429356
v 2.663119 27.936516 42.951988
v 2.663120 14.935513 61.408760
v 2.663118 31.651089 36.799732
v 2.663118 31.341530 33.859035
v 2.663121 4.875221 72.223572
v 2.663120 11.994820 64.330101
v 2.663116 54.712368 20.858047
v 2.663116 69.725418 17.646494
v 2.663116 73.439987 13.719113
v 2.663115 79.476166 6.096512
v 2.663115 83.345512 0.176405
v 2.663115 96.810806 0.679437
v 2.663115 103.775635 2.401290
v 2.663115 112.597733 3.155818
v 2.663115 122.193695 -0.307245
v 2.663114 131.789673 -5.685637
v 2.663114 135.504227 -12.360242
v 2.663113 133.801712 -22.923552
v 2.663112 123.741432 -30.294651
v 2.663112 110.895218 -33.486858
v 2.663112 103.311310 -33.719009
v 2.663112 89.691216 -30.778320
v 2.663112 85.357552 -28.301926
v 2.663111 80.250023 -37.414227
v 2.663111 75.142494 -45.288345
v 2.663110 71.427925 -49.931564
v 2.663110 0.851120 -49.931557
v 2.663121 0.541580 72.436378
vn -0.0000 -0.4961 -0.8682
vn -0.0000 -0.2110 -0.9775
vn -0.0000 -0.0373 0.9993
vn -0.0000 0.7840 0.6208
vn -0.0000 0.7048 0.7094
vn -0.0000 0.4819 0.8762
vn -0.0000 -0.0000 1.0000
vn -0.0000 -0.0000 -1.0000
vn 1.0000 -0.0000 -0.0000
vn -0.0000 -1.0000 -0.0000
vn -0.7349 0.6739 -0.0762
vn -0.0000 0.9806 0.1961
vn -0.0000 0.7265 0.6871
vn -0.0000 0.2092 0.9779
vn -0.0000 0.8723 -0.4889
vn -0.0000 0.8371 0.5471
vn -0.0000 0.9291 0.3698
vn -0.0000 0.8390 -0.5442
vn -0.0000 0.7799 0.6259
vn -0.0000 0.7809 -0.6247
vn -0.0000 -0.2400 0.9708
vn -0.0000 0.7111 0.7031
vn -0.0000 -0.0852 0.9964
vn -0.0000 0.9920 -0.1260
vn -0.0000 -1.0000 -0.0025
vn -0.0000 0.3395 0.9406
vn -0.0000 0.6513 0.7588
vn -0.0000 0.0490 0.9988
vn -0.0000 0.4889 0.8723
vn -0.0000 0.9945 -0.1047
vn -0.0000 0.8738 0.4863
vn -0.0000 0.5300 0.8480
vn -0.0000 0.9873 -0.1591
vn -0.0000 0.5910 -0.8067
vn -0.0000 0.3456 0.9384
vn -0.0000 0.2412 -0.9705
vn -0.0000 0.6207 0.7840
vn -0.0000 0.7426 0.6698
vn -0.0000 0.0306 -0.9995
vn -1.0000 -0.0000 -0.0000
vn -0.7358 0.6772 -0.0000
vt 0.000000 0.000000
vt 0.033139 0.998520
vt 0.033086 0.001401
vt 0.033139 0.001401
vt 0.015775 0.998520
vt 0.015869 0.001401
vt 0.015869 0.998520
vt 0.080869 0.077839
vt 0.081420 0.092307
vt 0.080869 0.092307
vt 0.039296 0.001401
vt 0.039847 0.998520
vt 0.039296 0.998520
vt 0.035942 0.998599
vt 0.036492 0.001401
vt 0.036492 0.998599
vt 0.981043 0.304823
vt 0.749707 0.257766
vt 0.625911 0.419716
vt 0.018671 0.998520
vt 0.001401 0.001401
vt 0.081420 0.077839
vt 0.039847 0.001401
vt 0.035941 0.998599
vt 0.035941 0.001401
vt 0.036494 0.998598
vt 0.453525 0.539498
vt 0.417083 0.567610
vt 0.416101 0.584722
vt 0.981043 0.583500
vt 0.959607 0.290156
vt 0.923254 0.269988
vt 0.881185 0.249821
vt 0.892617 0.232709
vt 0.906194 0.178930
vt 0.505777 0.502219
vt 0.480767 0.506497
vt 0.467012 0.527887
vt 0.905122 0.148984
vt 0.523730 0.496108
vt 0.571426 0.471051
vt 0.560172 0.469829
vt 0.552223 0.476551
vt 0.594203 0.463106
vt 0.580626 0.461884
vt 0.890384 0.098260
vt 0.856354 0.058536
vt 0.807586 0.051814
vt 0.776771 0.066481
vt 0.751940 0.104371
vt 0.735952 0.142262
vt 0.739435 0.177096
vt 0.747385 0.204597
vt 0.722375 0.273044
vt 0.687184 0.296878
vt 0.669052 0.311545
vt 0.654225 0.370825
vt 0.640648 0.385493
vt 0.606707 0.445995
s 0
usemtl Material.001
f 77/1/1 46/1/1 45/1/1
f 76/1/2 45/1/2 44/1/2
f 102/1/3 67/1/3 66/1/3
f 32/1/4 65/1/4 33/1/4
f 17/1/5 5/1/5 18/1/5
f 5/1/6 19/1/6 18/1/6
f 8/2/7 14/3/7 10/4/7
f 15/5/8 11/6/8 13/7/8
f 12/8/9 8/9/9 11/10/9
f 10/11/10 11/12/10 8/13/10
f 14/14/11 12/15/11 13/16/11
f 19/1/12 52/1/12 20/1/12
f 31/1/13 64/1/13 32/1/13
f 30/1/14 63/1/14 31/1/14
f 46/1/15 79/1/15 47/1/15
f 33/1/16 66/1/16 34/1/16
f 20/1/17 53/1/17 21/1/17
f 47/1/18 80/1/18 48/1/18
f 66/1/3 35/1/3 34/1/3
f 21/1/19 54/1/19 22/1/19
f 48/1/20 81/1/20 49/1/20
f 67/1/21 36/1/21 35/1/21
f 54/1/22 23/1/22 22/1/22
f 81/1/8 50/1/8 49/1/8
f 68/1/23 37/1/23 36/1/23
f 23/1/24 56/1/24 24/1/24
f 82/1/25 51/1/25 50/1/25
f 37/1/26 70/1/26 38/1/26
f 56/1/27 25/1/27 24/1/27
f 83/1/28 16/1/28 51/1/28
f 38/1/29 71/1/29 39/1/29
f 25/1/30 58/1/30 26/1/30
f 39/1/31 72/1/31 40/1/31
f 58/1/32 27/1/32 26/1/32
f 40/1/33 73/1/33 41/1/33
f 27/1/32 60/1/32 28/1/32
f 41/1/34 74/1/34 42/1/34
f 28/1/35 61/1/35 29/1/35
f 42/1/36 75/1/36 43/1/36
f 29/1/37 62/1/37 30/1/37
f 16/1/38 4/1/38 17/1/38
f 75/1/39 44/1/39 43/1/39
f 28/1/40 30/1/40 49/1/40
f 117/17/9 102/18/9 86/19/9
f 80/1/20 117/1/20 81/1/20
f 103/1/21 68/1/21 67/1/21
f 117/1/8 82/1/8 81/1/8
f 104/1/23 69/1/23 68/1/23
f 52/1/17 85/1/17 53/1/17
f 118/1/25 83/1/25 82/1/25
f 69/1/26 106/1/26 70/1/26
f 60/1/35 87/1/35 61/1/35
f 119/1/28 7/1/28 83/1/28
f 70/1/29 107/1/29 71/1/29
f 59/1/32 86/1/32 60/1/32
f 71/1/31 108/1/31 72/1/31
f 55/1/24 90/1/24 56/1/24
f 2/1/12 84/1/12 52/1/12
f 72/1/33 109/1/33 73/1/33
f 73/1/34 110/1/34 74/1/34
f 54/1/22 89/1/22 55/1/22
f 4/1/5 93/1/5 5/1/5
f 74/1/36 111/1/36 75/1/36
f 53/1/19 92/1/19 54/1/19
f 61/1/37 98/1/37 62/1/37
f 111/1/39 76/1/39 75/1/39
f 5/1/6 91/1/6 2/1/6
f 62/1/14 99/1/14 63/1/14
f 112/1/2 77/1/2 76/1/2
f 56/1/27 94/1/27 57/1/27
f 63/1/13 100/1/13 64/1/13
f 113/1/1 78/1/1 77/1/1
f 57/1/30 95/1/30 58/1/30
f 64/1/4 101/1/4 65/1/4
f 78/1/15 115/1/15 79/1/15
f 7/1/38 97/1/38 4/1/38
f 65/1/16 102/1/16 66/1/16
f 79/1/18 116/1/18 80/1/18
f 58/1/32 88/1/32 59/1/32
f 77/1/1 78/1/1 46/1/1
f 76/1/2 77/1/2 45/1/2
f 102/1/3 103/1/3 67/1/3
f 32/1/4 64/1/4 65/1/4
f 17/1/5 4/1/5 5/1/5
f 5/1/6 2/1/6 19/1/6
f 8/2/7 9/20/7 14/3/7
f 15/5/8 12/21/8 11/6/8
f 12/8/9 9/22/9 8/9/9
f 10/11/10 13/23/10 11/12/10
f 13/16/40 10/24/40 14/14/40
f 14/14/41 9/25/41 12/15/41
f 12/15/7 15/26/7 13/16/7
f 19/1/12 2/1/12 52/1/12
f 31/1/13 63/1/13 64/1/13
f 30/1/14 62/1/14 63/1/14
f 46/1/15 78/1/15 79/1/15
f 33/1/16 65/1/16 66/1/16
f 20/1/17 52/1/17 53/1/17
f 47/1/18 79/1/18 80/1/18
f 66/1/3 67/1/3 35/1/3
f 21/1/19 53/1/19 54/1/19
f 48/1/20 80/1/20 81/1/20
f 67/1/21 68/1/21 36/1/21
f 54/1/22 55/1/22 23/1/22
f 81/1/8 82/1/8 50/1/8
f 68/1/23 69/1/23 37/1/23
f 23/1/24 55/1/24 56/1/24
f 82/1/25 83/1/25 51/1/25
f 37/1/26 69/1/26 70/1/26
f 56/1/27 57/1/27 25/1/27
f 83/1/28 7/1/28 16/1/28
f 38/1/29 70/1/29 71/1/29
f 25/1/30 57/1/30 58/1/30
f 39/1/31 71/1/31 72/1/31
f 58/1/32 59/1/32 27/1/32
f 40/1/33 72/1/33 73/1/33
f 27/1/32 59/1/32 60/1/32
f 41/1/34 73/1/34 74/1/34
f 28/1/35 60/1/35 61/1/35
f 42/1/36 74/1/36 75/1/36
f 29/1/37 61/1/37 62/1/37
f 16/1/38 7/1/38 4/1/38
f 75/1/39 76/1/39 44/1/39
f 51/1/40 16/1/40 17/1/40
f 18/1/40 19/1/40 20/1/40
f 51/1/40 17/1/40 18/1/40
f 49/1/40 50/1/40 51/1/40
f 47/1/40 48/1/40 49/1/40
f 44/1/40 45/1/40 46/1/40
f 46/1/40 47/1/40 49/1/40
f 49/1/40 51/1/40 18/1/40
f 18/1/40 20/1/40 21/1/40
f 22/1/40 23/1/40 24/1/40
f 49/1/40 18/1/40 21/1/40
f 21/1/40 22/1/40 24/1/40
f 24/1/40 25/1/40 26/1/40
f 21/1/40 24/1/40 26/1/40
f 43/1/40 44/1/40 46/1/40
f 41/1/40 42/1/40 43/1/40
f 39/1/40 40/1/40 41/1/40
f 37/1/40 38/1/40 39/1/40
f 35/1/40 36/1/40 37/1/40
f 32/1/40 33/1/40 34/1/40
f 35/1/40 37/1/40 39/1/40
f 31/1/40 32/1/40 34/1/40
f 34/1/40 35/1/40 39/1/40
f 39/1/40 41/1/40 43/1/40
f 39/1/40 43/1/40 46/1/40
f 30/1/40 31/1/40 34/1/40
f 34/1/40 39/1/40 46/1/40
f 49/1/40 21/1/40 26/1/40
f 49/1/40 26/1/40 27/1/40
f 34/1/40 46/1/40 49/1/40
f 28/1/40 29/1/40 30/1/40
f 30/1/40 34/1/40 49/1/40
f 49/1/40 27/1/40 28/1/40
f 97/27/9 96/28/9 119/29/9
f 119/29/9 118/30/9 117/17/9
f 117/17/9 116/31/9 115/32/9
f 114/33/9 113/34/9 112/35/9
f 117/17/9 115/32/9 114/33/9
f 97/27/9 119/29/9 117/17/9
f 84/36/9 91/37/9 93/38/9
f 93/38/9 97/27/9 117/17/9
f 114/33/9 112/35/9 111/39/9
f 85/40/9 84/36/9 93/38/9
f 90/41/9 89/42/9 92/43/9
f 85/40/9 93/38/9 117/17/9
f 90/41/9 92/43/9 85/40/9
f 95/44/9 94/45/9 90/41/9
f 95/44/9 90/41/9 85/40/9
f 114/33/9 111/39/9 110/46/9
f 110/46/9 109/47/9 108/48/9
f 108/48/9 107/49/9 106/50/9
f 106/50/9 105/51/9 104/52/9
f 106/50/9 104/52/9 103/53/9
f 110/46/9 108/48/9 106/50/9
f 114/33/9 110/46/9 106/50/9
f 106/50/9 103/53/9 102/18/9
f 102/18/9 101/54/9 100/55/9
f 100/55/9 99/56/9 98/57/9
f 98/57/9 87/58/9 86/19/9
f 102/18/9 100/55/9 98/57/9
f 114/33/9 106/50/9 102/18/9
f 95/44/9 85/40/9 117/17/9
f 88/59/9 95/44/9 117/17/9
f 117/17/9 114/33/9 102/18/9
f 102/18/9 98/57/9 86/19/9
f 86/19/9 88/59/9 117/17/9
f 80/1/20 116/1/20 117/1/20
f 103/1/21 104/1/21 68/1/21
f 117/1/8 118/1/8 82/1/8
f 104/1/23 105/1/23 69/1/23
f 52/1/17 84/1/17 85/1/17
f 118/1/25 119/1/25 83/1/25
f 69/1/26 105/1/26 106/1/26
f 60/1/35 86/1/35 87/1/35
f 119/1/28 96/1/28 7/1/28
f 70/1/29 106/1/29 107/1/29
f 59/1/32 88/1/32 86/1/32
f 71/1/31 107/1/31 108/1/31
f 55/1/24 89/1/24 90/1/24
f 2/1/12 91/1/12 84/1/12
f 72/1/33 108/1/33 109/1/33
f 73/1/34 109/1/34 110/1/34
f 54/1/22 92/1/22 89/1/22
f 4/1/5 97/1/5 93/1/5
f 74/1/36 110/1/36 111/1/36
f 53/1/19 85/1/19 92/1/19
f 61/1/37 87/1/37 98/1/37
f 111/1/39 112/1/39 76/1/39
f 5/1/6 93/1/6 91/1/6
f 62/1/14 98/1/14 99/1/14
f 112/1/2 113/1/2 77/1/2
f 56/1/27 90/1/27 94/1/27
f 63/1/13 99/1/13 100/1/13
f 113/1/1 114/1/1 78/1/1
f 57/1/30 94/1/30 95/1/30
f 64/1/4 100/1/4 101/1/4
f 78/1/15 114/1/15 115/1/15
f 7/1/38 96/1/38 97/1/38
f 65/1/16 101/1/16 102/1/16
f 79/1/18 115/1/18 116/1/18
f 58/1/32 95/1/32 88/1/32
l 11 1
l 14 6
l 15 3
