# Blender 3.6.2
# www.blender.org
mtllib ac_coffee_cup.mtl
o _0_0_node
v -7.103514 -8.379934 -0.423346
v -4.959400 -8.374220 -0.693769
v -5.531926 -6.523452 3.441225
v -8.825165 -8.383823 0.882909
v -9.663029 -8.384834 2.874995
v -9.392603 -8.382715 5.019107
v -8.086351 -8.378016 6.740766
v -6.094268 -8.372007 7.578629
v -3.950155 -8.366295 7.308198
v -2.228516 -8.362404 6.001937
v -1.390653 -8.361387 4.009864
v -1.661071 -8.363516 1.865729
v -2.967322 -8.368212 0.144089
v -7.103514 -8.379934 -0.423346
v -8.378697 10.553535 -3.434741
v -4.959400 -8.374220 -0.693769
v -4.571159 10.563643 -3.914955
v -8.825165 -8.383823 0.882909
v -11.436066 10.546568 -1.115051
v -7.103514 -8.379934 -0.423346
v -8.378697 10.553535 -3.434741
v -9.663029 -8.384834 2.874995
v -12.923928 10.544886 2.422518
v -8.825165 -8.383823 0.882909
v -11.436066 10.546568 -1.115051
v -9.392603 -8.382715 5.019107
v -12.443762 10.548462 6.230134
v -8.086351 -8.378016 6.740766
v -10.124075 10.556875 9.287451
v -6.094268 -8.372007 7.578629
v -6.586483 10.567650 10.775337
v -3.950155 -8.366295 7.308198
v -2.778931 10.577745 10.295100
v -2.228516 -8.362404 6.001937
v 0.278435 10.584709 7.975410
v -3.950155 -8.366295 7.308198
v -2.778931 10.577745 10.295100
v -1.390653 -8.361387 4.009864
v 1.766299 10.586401 4.437859
v -2.228516 -8.362404 6.001937
v 0.278435 10.584709 7.975410
v -1.661071 -8.363516 1.865729
v 1.286052 10.582598 0.630286
v -2.967322 -8.368212 0.144089
v -1.033643 10.574184 -2.427046
v 1.286052 10.582598 0.630286
v -1.033643 10.574184 -2.427046
v -5.532133 -6.445339 3.441172
v 1.766299 10.586401 4.437859
v 0.278435 10.584709 7.975410
v -2.778931 10.577745 10.295100
v -6.586483 10.567650 10.775337
v -10.124075 10.556875 9.287451
v -12.443762 10.548462 6.230134
v -12.923928 10.544886 2.422518
v -11.436066 10.546568 -1.115051
v -8.378697 10.553535 -3.434741
v -4.571159 10.563643 -3.914955
v -5.552114 -4.560762 1.036475
v -5.552114 -4.390029 1.036476
v -3.473653 -4.560762 4.636476
v -3.473654 -4.390029 4.636476
v -7.630576 -4.560762 4.636476
v -7.630576 -4.390029 4.636476
vn 0.0034 -1.0000 0.0002
vn -0.1709 -0.8892 -0.4244
vn 0.0633 -0.8877 -0.4560
vn -0.3556 -0.8918 -0.2798
vn 0.2861 -0.8864 -0.3638
vn -0.4477 -0.8919 -0.0641
vn 0.4255 -0.8884 -0.1725
vn -0.4238 -0.8892 0.1725
vn 0.4587 -0.8863 0.0642
vn -0.2759 -0.8901 0.3627
vn 0.3668 -0.8879 0.2776
vn -0.0587 -0.8885 0.4551
vn 0.1730 -0.8888 0.4244
vn -0.0034 1.0000 -0.0002
vn 0.2426 0.9645 -0.1041
vn 0.1602 0.9643 -0.2107
vn 0.2659 0.9632 0.0386
vn 0.0358 0.9631 -0.2668
vn 0.2078 0.9649 0.1608
vn -0.1074 0.9621 -0.2505
vn 0.0986 0.9638 0.2477
vn -0.2137 0.9630 -0.1645
vn -0.0418 0.9639 0.2628
vn -0.2674 0.9630 -0.0333
vn -0.1664 0.9641 0.2071
vn -0.2490 0.9633 0.1005
vn 0.0633 -0.8878 -0.4559
vn 0.4254 -0.8884 -0.1725
vn 0.2659 0.9632 0.0385
vn 0.2077 0.9649 0.1608
vn -0.2675 0.9630 -0.0333
vn -0.2491 0.9633 0.1005
vn -0.1664 0.9641 0.2070
vn -0.2760 -0.8901 0.3627
vn -0.0418 0.9639 0.2629
vn 0.1730 -0.8888 0.4245
vn -0.2136 0.9630 -0.1645
vn -0.3556 -0.8918 -0.2797
vn -0.1074 0.9621 -0.2506
vn 0.2078 0.9649 0.1607
vn 0.3669 -0.8879 0.2776
vn 0.8660 -0.0000 -0.5000
vn -0.0000 -0.0000 1.0000
vn -0.0000 1.0000 -0.0000
vn -0.8660 -0.0000 -0.5000
vn -0.0000 -1.0000 -0.0000
vt 0.792683 0.209087
vt 0.934034 0.085282
vt 0.985772 0.163772
vt 0.844422 0.039966
vt 0.985772 0.254404
vt 0.740945 0.039966
vt 0.934034 0.332893
vt 0.651333 0.085282
vt 0.844420 0.378209
vt 0.599594 0.163771
vt 0.740945 0.378208
vt 0.599594 0.254403
vt 0.651332 0.332893
vt 0.800167 0.426794
vt 0.822783 0.868878
vt 0.803604 0.868878
vt 0.835903 0.868878
vt 0.783503 0.868878
vt 0.839447 0.868878
vt 0.767868 0.868878
vt 0.832466 0.868878
vt 0.760887 0.868878
vt 0.816831 0.868878
vt 0.764431 0.868878
vt 0.796730 0.868878
vt 0.777551 0.868878
vt 0.016342 0.234175
vt 0.128029 0.234175
vt 0.128029 0.994224
vt 0.489668 0.234175
vt 0.601356 0.994224
vt 0.489668 0.994224
vt 0.371634 0.234175
vt 0.371634 0.994224
vt 0.253600 0.234175
vt 0.253600 0.994224
vt 0.124941 0.234175
vt 0.124941 0.994224
vt 0.040880 0.234175
vt 0.116004 0.994224
vt 0.031943 0.994224
vt 0.031943 0.234175
vt 0.034878 0.234175
vt 0.118939 0.994224
vt 0.034878 0.994224
vt 0.012208 0.234175
vt 0.123895 0.234175
vt 0.123895 0.994224
vt 0.103851 0.994224
vt 0.019790 0.234175
vt 0.103851 0.234175
vt 0.109017 0.994224
vt 0.024956 0.994224
vt 0.024956 0.234175
vt 0.107953 0.994224
vt 0.023913 0.234175
vt 0.107974 0.234175
vt 0.094527 0.994224
vt 0.010487 0.994224
vt 0.010487 0.234175
vt 0.363326 0.114112
vt 0.363326 0.179997
vt 0.319403 0.179997
vt 0.319403 0.114112
vt 0.275479 0.179997
vt 0.275479 0.114112
vt 0.291886 0.065358
vt 0.264499 0.112795
vt 0.237111 0.065358
vt 0.231556 0.179997
vt 0.231556 0.114112
vt 0.330383 0.112795
vt 0.357771 0.065358
vt 0.302996 0.065358
s 1
usemtl m_fg_coffee_mat
f 3/1/1 1/2/2 2/3/3
f 3/1/1 4/4/4 1/2/2
f 3/1/1 2/3/3 13/5/5
f 3/1/1 5/6/6 4/4/4
f 3/1/1 13/5/5 12/7/7
f 3/1/1 6/8/8 5/6/6
f 3/1/1 12/7/7 11/9/9
f 3/1/1 7/10/10 6/8/8
f 3/1/1 11/9/9 10/11/11
f 3/1/1 8/12/12 7/10/10
f 3/1/1 10/11/11 9/13/13
f 3/1/1 9/13/13 8/12/12
f 48/14/14 46/15/15 47/16/16
f 48/14/14 49/17/17 46/15/15
f 48/14/14 47/16/16 58/18/18
f 48/14/14 50/19/19 49/17/17
f 48/14/14 58/18/18 57/20/20
f 48/14/14 51/21/21 50/19/19
f 48/14/14 57/20/20 56/22/22
f 48/14/14 52/23/23 51/21/21
f 48/14/14 56/22/22 55/24/24
f 48/14/14 53/25/25 52/23/23
f 48/14/14 55/24/24 54/26/26
f 48/14/14 54/26/26 53/25/25
f 16/27/27 14/28/2 15/29/20
f 16/30/27 15/31/20 17/32/18
f 16/30/27 17/32/18 44/33/5
f 17/32/18 45/34/16 44/33/5
f 45/34/16 42/35/28 44/33/5
f 45/34/16 43/36/15 42/35/28
f 43/36/15 38/37/9 42/35/28
f 43/36/15 39/38/29 38/37/9
f 39/38/29 40/39/11 38/37/9
f 39/40/29 41/41/30 40/42/11
f 22/37/6 23/38/31 24/39/4
f 22/37/6 27/36/32 23/38/31
f 22/37/6 26/35/8 27/36/32
f 24/43/4 23/44/31 25/45/22
f 26/35/8 29/34/33 27/36/32
f 26/35/8 28/33/34 29/34/33
f 28/33/34 31/32/35 29/34/33
f 28/33/34 30/30/12 31/32/35
f 30/30/12 33/31/21 31/32/35
f 30/46/12 32/47/36 33/48/21
f 19/49/37 20/50/2 18/51/38
f 19/52/37 21/53/39 20/54/2
f 35/55/40 36/56/36 34/57/41
f 35/58/40 37/59/21 36/60/36
s 0
f 59/61/42 60/62/42 62/63/42 61/64/42
f 61/64/43 62/63/43 64/65/43 63/66/43
f 62/67/44 60/68/44 64/69/44
f 63/66/45 64/65/45 60/70/45 59/71/45
f 59/72/46 61/73/46 63/74/46
