# Blender 3.6.2
# www.blender.org
mtllib bible_la_creature.mtl
o 0
v 10.688515 15.599999 -3.400000
v 10.688515 -15.599999 -3.400000
v 5.423103 8.801166 3.400000
v 5.423103 -1.820216 3.400000
v -10.511484 15.599999 -3.400000
v -10.511484 -15.599999 -3.400000
v -5.246074 8.801166 3.400000
v -5.246074 -1.820216 3.400000
v -9.625397 15.599999 2.800000
v -9.625397 15.599999 -2.800000
v 9.688515 15.599999 2.800000
v 9.688515 15.599999 -2.800000
v 9.688515 -15.599999 2.800000
v 9.688515 -15.599999 -2.800000
v -9.625397 -15.599999 2.800000
v -9.625397 -15.599999 -2.800000
v 10.622022 15.599999 2.611217
v 10.622022 15.599999 -2.611217
v -3.332902 15.599999 -2.800000
v -3.332902 15.599999 2.800000
v -3.332902 -15.599999 -2.800000
v -0.233229 -15.599999 -2.800000
v -3.332902 -15.599999 2.800000
v 10.622022 -15.599999 2.611217
v 10.622022 -15.599999 -2.611217
v 3.772564 -5.986579 -2.800000
v -10.862333 15.599999 0.000000
v -9.969093 15.599999 0.000000
v -9.969093 -15.599999 0.000000
v -10.862333 -15.599999 0.000000
v 9.688515 14.600000 -2.800000
v 9.688515 -14.600000 -2.800000
v 9.688515 14.600000 2.800000
v 9.688515 -14.600000 2.800000
v -9.777279 14.600000 -2.800000
v -9.777279 -14.600000 -2.800000
v -9.777279 14.600000 2.800000
v -9.777279 -14.600000 2.800000
v -10.128128 -14.600000 0.000000
v 9.330514 14.600000 0.000000
v -10.128128 14.600000 0.000000
v 9.330514 -14.600000 0.000000
v 10.688515 15.599999 3.400000
v 10.688515 -15.599999 3.400000
v -10.511484 -15.599999 3.400000
v -10.511484 15.599999 3.400000
vn -0.0000 1.0000 -0.0000
vn -0.0000 -0.0000 1.0000
vn -0.9947 -0.0000 -0.1026
vn -0.0000 -1.0000 -0.0000
vn 0.9965 -0.0000 -0.0840
vn 0.9965 -0.0000 0.0840
vn -0.0000 -0.0000 -1.0000
vn 0.9926 -0.0000 -0.1218
vn -0.1982 -0.0000 -0.9802
vn -0.1982 -0.0000 0.9802
vn 0.9926 -0.0000 0.1218
vn -0.9947 -0.0000 0.1026
vn -0.9922 -0.0000 -0.1243
vn 0.9919 -0.0000 -0.1268
vn 0.9919 -0.0000 0.1268
vn -0.9922 -0.0000 0.1243
vt 0.829480 0.660491
vt 0.828721 0.661911
vt 0.828721 0.660491
vt 0.828721 0.647236
vt 0.828721 0.645816
vt 0.829480 0.647236
vt 0.844815 0.661911
vt 0.839366 0.660491
vt 0.844056 0.660491
vt 0.961245 0.960131
vt 0.043524 0.042420
vt 0.961245 0.042420
vt 0.828721 0.621674
vt 0.812626 0.629721
vt 0.812626 0.621674
vt 0.796531 0.653863
vt 0.797290 0.647236
vt 0.797290 0.653863
vt 0.812626 0.645816
vt 0.804334 0.647236
vt 0.801981 0.647236
vt 0.812626 0.661911
vt 0.797290 0.660491
vt 0.801981 0.660491
vt 0.812626 0.647236
vt 0.828721 0.629721
vt 0.826122 0.678006
vt 0.815224 0.672826
vt 0.815224 0.678006
vt 0.826122 0.661911
vt 0.826122 0.672826
vt 0.826122 0.621674
vt 0.815224 0.613627
vt 0.815224 0.621674
vt 0.826122 0.629721
vt 0.815224 0.634901
vt 0.826122 0.634901
vt 0.826122 0.645816
vt 0.818582 0.640857
vt 0.815224 0.637499
vt 0.815224 0.645816
vt 0.826122 0.666252
vt 0.815224 0.667090
vt 0.826122 0.667090
vt 0.826122 0.640637
vt 0.815224 0.641475
vt 0.826122 0.641475
vt 0.815224 0.629721
vt 0.828721 0.613627
vt 0.812626 0.613627
vt 0.844815 0.645816
vt 0.844056 0.647236
vt 0.790799 0.176289
vt 0.795674 0.211254
vt 0.790799 0.211254
vt 0.174992 0.683111
vt 0.152853 0.705251
vt 0.152853 0.683111
vt 0.174992 0.627762
vt 0.152853 0.638832
vt 0.152853 0.627762
vt 0.793217 0.176294
vt 0.790660 0.211259
vt 0.790660 0.176294
vt 0.795775 0.176294
vt 0.793217 0.211259
vt 0.174992 0.638832
vt 0.152853 0.660971
vt 0.795775 0.141330
vt 0.793217 0.141330
vt 0.790660 0.141330
vt 0.174992 0.616692
vt 0.152853 0.616692
vt 0.795674 0.141325
vt 0.790799 0.141325
vt 0.788858 0.712204
vt 0.808959 0.708619
vt 0.805374 0.712204
vt 0.788858 0.728720
vt 0.785273 0.708619
vt 0.808959 0.732305
vt 0.805374 0.728719
vt 0.785273 0.732305
vt 0.844056 0.653863
vt 0.844815 0.653863
vt 0.043528 0.960127
vt 0.796531 0.645816
vt 0.811867 0.647236
vt 0.811867 0.660491
vt 0.812626 0.660491
vt 0.796531 0.661911
vt 0.815224 0.661911
vt 0.826122 0.613627
vt 0.815224 0.666252
vt 0.815224 0.640637
vt 0.839366 0.647236
vt 0.795674 0.176289
vt 0.174992 0.705251
vt 0.795775 0.211259
vt 0.174992 0.660971
s 0
usemtl Material
f 11/1/1 43/2/1 17/3/1
f 18/4/1 1/5/1 12/6/1
f 46/7/1 20/8/1 9/9/1
f 3/10/2 8/11/2 4/12/2
f 27/13/3 6/14/3 30/15/3
f 30/16/4 16/17/4 29/18/4
f 2/19/4 22/20/4 21/21/4
f 44/22/4 15/23/4 23/24/4
f 44/22/5 17/3/5 43/2/5
f 1/5/6 25/25/6 2/19/6
f 5/26/7 2/19/7 6/14/7
f 9/27/7 23/28/7 15/29/7
f 11/30/7 23/28/7 20/31/7
f 28/32/8 15/33/8 29/34/8
f 10/35/2 21/36/2 19/37/2
f 12/38/2 21/36/2 26/39/2
f 22/40/2 14/41/2 26/39/2
f 17/42/9 13/43/9 11/44/9
f 12/45/10 25/46/10 18/47/10
f 10/35/11 29/34/11 16/48/11
f 15/23/4 30/16/4 29/18/4
f 46/49/12 30/15/12 45/50/12
f 1/5/1 5/51/1 10/52/1
f 40/53/1 37/54/1 33/55/1
f 33/56/2 38/57/2 34/58/2
f 41/59/13 36/60/13 39/61/13
f 42/62/4 38/63/4 39/64/4
f 40/65/14 34/66/14 42/62/14
f 35/67/7 32/68/7 36/60/7
f 31/69/15 42/62/15 32/70/15
f 36/71/4 42/62/4 39/64/4
f 37/72/16 39/61/16 38/73/16
f 35/74/1 40/53/1 31/75/1
f 4/76/2 43/77/2 3/78/2
f 8/79/2 44/80/2 4/76/2
f 3/78/2 46/81/2 7/82/2
f 8/79/2 46/81/2 45/83/2
f 9/9/1 28/84/1 27/85/1
f 46/7/1 43/2/1 11/1/1
f 46/7/1 11/1/1 20/8/1
f 9/9/1 27/85/1 46/7/1
f 3/10/2 7/86/2 8/11/2
f 27/13/3 5/26/3 6/14/3
f 30/16/4 6/87/4 16/17/4
f 16/17/4 6/87/4 2/19/4
f 2/19/4 25/25/4 14/88/4
f 2/19/4 14/88/4 22/20/4
f 21/21/4 16/17/4 2/19/4
f 13/89/4 24/90/4 44/22/4
f 44/22/4 45/91/4 15/23/4
f 23/24/4 13/89/4 44/22/4
f 44/22/5 24/90/5 17/3/5
f 1/5/6 18/4/6 25/25/6
f 5/26/7 1/5/7 2/19/7
f 9/27/7 20/31/7 23/28/7
f 11/30/7 13/92/7 23/28/7
f 28/32/8 9/93/8 15/33/8
f 10/35/2 16/48/2 21/36/2
f 26/39/2 14/41/2 12/38/2
f 12/38/2 19/37/2 21/36/2
f 21/36/2 22/40/2 26/39/2
f 17/42/9 24/94/9 13/43/9
f 12/45/10 14/95/10 25/46/10
f 10/35/11 28/32/11 29/34/11
f 15/23/4 45/91/4 30/16/4
f 46/49/12 27/13/12 30/15/12
f 19/96/1 12/6/1 1/5/1
f 5/51/1 27/85/1 28/84/1
f 10/52/1 19/96/1 1/5/1
f 5/51/1 28/84/1 10/52/1
f 40/53/1 41/97/1 37/54/1
f 33/56/2 37/98/2 38/57/2
f 41/59/13 35/67/13 36/60/13
f 42/62/4 34/66/4 38/63/4
f 40/65/14 33/99/14 34/66/14
f 35/67/7 31/100/7 32/68/7
f 31/69/15 40/65/15 42/62/15
f 36/71/4 32/70/4 42/62/4
f 37/72/16 41/59/16 39/61/16
f 35/74/1 41/97/1 40/53/1
f 4/76/2 44/80/2 43/77/2
f 8/79/2 45/83/2 44/80/2
f 3/78/2 43/77/2 46/81/2
f 8/79/2 7/82/2 46/81/2
o 1.001
v -10.708184 -15.599999 3.400000
v -10.708184 15.599999 3.400000
v -10.708184 -15.599999 -3.400000
v -10.708184 15.599999 -3.400000
v 10.491815 -15.599999 3.400000
v 10.491815 15.599999 3.400000
v 10.491815 -15.599999 -3.400000
v 10.491815 15.599999 -3.400000
vn -1.0000 -0.0000 -0.0000
vn -0.0000 -0.0000 -1.0000
vn 1.0000 -0.0000 -0.0000
vn -0.0000 -0.0000 1.0000
vn -0.0000 -1.0000 -0.0000
vn -0.0000 1.0000 -0.0000
vt 0.625000 0.000000
vt 0.375000 0.250000
vt 0.375000 0.000000
vt 0.625000 0.250000
vt 0.375000 0.500000
vt 0.625000 0.500000
vt 0.375000 0.750000
vt 0.625000 0.750000
vt 0.375000 1.000000
vt 0.125000 0.750000
vt 0.125000 0.500000
vt 0.875000 0.500000
vt 0.625000 1.000000
vt 0.875000 0.750000
s 0
f 48/101/17 49/102/17 47/103/17
f 50/104/18 53/105/18 49/102/18
f 54/106/19 51/107/19 53/105/19
f 52/108/20 47/109/20 51/107/20
f 53/105/21 47/110/21 49/111/21
f 50/112/22 52/108/22 54/106/22
f 48/101/17 50/104/17 49/102/17
f 50/104/18 54/106/18 53/105/18
f 54/106/19 52/108/19 51/107/19
f 52/108/20 48/113/20 47/109/20
f 53/105/21 51/107/21 47/110/21
f 50/112/22 48/114/22 52/108/22
