# Blender 3.6.3
# www.blender.org
mtllib briccc.mtl
o cube.001
v 11.023438 8.898438 5.710937
v 11.023438 8.898438 -5.710938
v 11.023438 -0.398437 5.710938
v 11.023438 -0.398438 -5.710938
v -11.023438 8.898438 -5.710938
v -11.023438 8.898438 5.710937
v -11.023438 -0.398438 -5.710938
v -11.023438 -0.398437 5.710938
v 10.625000 8.500000 5.312500
v 10.625000 8.500000 -5.312500
v 10.625000 0.000000 5.312500
v 10.625000 -0.000000 -5.312500
v -10.625000 8.500000 -5.312500
v -10.625000 8.500000 5.312500
v -10.625000 -0.000000 -5.312500
v -10.625000 0.000000 5.312500
vn -0.0000 -0.0000 1.0000
vn -1.0000 -0.0000 -0.0000
vn -0.0000 -0.0000 -1.0000
vn 1.0000 -0.0000 -0.0000
vn -0.0000 -1.0000 -0.0000
vn -0.0000 1.0000 -0.0000
vt 0.156250 0.429688
vt 0.156250 0.554688
vt 0.468750 0.554688
vt 0.468750 0.429688
vt 0.000000 0.429688
vt 0.000000 0.554688
vt 0.625000 0.429688
vt 0.625000 0.554688
vt 0.937500 0.554688
vt 0.937500 0.429688
vt 0.468750 0.710938
vt 0.156250 0.710938
vt 0.781250 0.554688
vt 0.781250 0.710938
vt 0.156250 0.718750
vt 0.468750 0.718750
vt 0.468750 0.843750
vt 0.156250 0.843750
vt 0.000000 0.718750
vt 0.000000 0.843750
vt 0.625000 0.718750
vt 0.937500 0.718750
vt 0.937500 0.843750
vt 0.625000 0.843750
vt 0.468750 1.000000
vt 0.156250 1.000000
vt 0.781250 0.843750
vt 0.781250 1.000000
s 0
usemtl m_369e24de-4c09-6365-2c33-e31d34116fbd
f 4/1/1 2/2/1 5/3/1 7/4/1
f 3/5/2 1/6/2 2/2/2 4/1/2
f 8/7/3 6/8/3 1/9/3 3/10/3
f 7/4/4 5/3/4 6/8/4 8/7/4
f 6/11/5 5/3/5 2/2/5 1/12/5
f 7/13/6 8/14/6 3/11/6 4/3/6
f 12/15/3 15/16/3 13/17/3 10/18/3
f 11/19/4 12/15/4 10/18/4 9/20/4
f 16/21/1 11/22/1 9/23/1 14/24/1
f 15/16/2 16/21/2 14/24/2 13/17/2
f 14/25/6 9/26/6 10/18/6 13/17/6
f 15/27/5 12/17/5 11/25/5 16/28/5
