# Blender 3.4.1
# www.blender.org
mtllib darkkelplush.mtl
o kelplush.mo
v 0.000000 20.254103 -5.436561
v -2.888082 21.125280 -2.888074
v 0.000000 21.125280 -4.084404
v -3.844238 20.254103 -3.844231
v -4.084411 21.125280 0.000006
v 0.000000 14.810473 -7.038486
v -5.436568 20.254103 0.000006
v -2.888082 21.125280 2.888088
v -4.976993 14.810473 -4.976987
v 0.000000 6.851354 -8.476467
v -7.038492 14.810471 0.000005
v -3.844238 20.254103 3.844244
v -5.993772 6.851353 -5.993770
v 0.000000 1.427227 -8.860558
v -8.476470 6.851351 0.000003
v -5.268932 0.000002 -5.268932
v 0.000000 0.000003 -7.451362
v -6.265365 1.427226 -6.265365
v -8.860558 1.427224 0.000000
v -7.451362 0.000000 0.000000
v -5.268932 -0.000002 5.268932
v -4.976993 14.810469 4.976998
v -5.993772 6.851350 5.993774
v -6.265365 1.427223 6.265365
v 0.000000 1.427221 8.860558
v 0.000000 -0.000003 7.451362
v 5.268932 -0.000002 5.268932
v 0.000000 6.851349 8.476473
v 0.000000 14.810469 7.038496
v 0.000000 20.254101 5.436574
v 0.000000 21.125280 4.084417
v 3.844238 20.254103 3.844244
v 2.888082 21.125280 2.888088
v 4.976993 14.810469 4.976998
v 5.436568 20.254103 0.000006
v 4.084411 21.125280 0.000006
v 2.888082 21.125280 -2.888074
v 7.038492 14.810471 0.000005
v 3.844238 20.254103 -3.844231
v 4.976993 14.810473 -4.976987
v 8.476470 6.851351 0.000003
v 5.993772 6.851353 -5.993770
v 5.993772 6.851350 5.993774
v 8.860558 1.427224 0.000000
v 6.265365 1.427223 6.265365
v 7.451362 0.000000 0.000000
v 5.268932 0.000002 -5.268932
v 6.265365 1.427226 -6.265365
v 0.000000 0.000000 0.000000
v -9.822091 25.005472 0.000009
v -4.009871 20.854111 -4.009863
v -5.670836 20.854111 0.000006
v 0.000000 19.334635 0.000006
v -6.945291 25.005474 -6.945282
v -11.341568 30.676201 0.000010
v 0.000000 20.854115 -5.670830
v 4.009871 20.854111 -4.009863
v 5.670836 20.854111 0.000006
v 9.822091 25.005472 0.000009
v 0.000000 25.005476 -9.822083
v 6.945291 25.005474 -6.945282
v 11.341673 30.676201 0.000010
v 0.000000 30.676207 -11.341662
v 8.019742 30.676203 -8.019732
v 6.945291 36.347038 -6.945279
v 9.822091 36.347038 0.000012
v -8.019742 30.676203 -8.019732
v -6.945291 36.347038 -6.945279
v -9.822091 36.347038 0.000012
v 0.000000 36.347038 -9.822185
v 4.009871 40.498398 -4.009857
v 5.670836 40.498398 0.000013
v 0.000000 42.017872 0.000014
v 0.000000 40.498398 -5.670824
v -4.009871 40.498398 -4.009857
v -5.670836 40.498398 0.000013
v 4.009871 40.498398 4.009884
v 6.945291 36.347038 6.945303
v 0.000000 40.498398 5.670849
v 8.019742 30.676199 8.019753
v 0.000000 36.347034 9.822102
v -4.009871 40.498398 4.009884
v -6.945291 36.347038 6.945303
v 0.000000 30.676197 11.341578
v -8.019742 30.676199 8.019753
v -6.945291 25.005470 6.945300
v 6.945291 25.005470 6.945300
v -4.009871 20.854111 4.009878
v 0.000000 25.005466 9.822098
v 0.000000 20.854109 5.670843
v 4.009871 20.854111 4.009878
vn -0.2189 0.8202 -0.5285
vn -0.2189 0.8203 -0.5285
vn -0.5285 0.8203 -0.2189
vn -0.3693 0.2624 -0.8915
vn -0.5285 0.8202 -0.2189
vn -0.5285 0.8202 0.2189
vn -0.3775 0.1646 -0.9113
vn -0.8915 0.2624 -0.3693
vn -0.5285 0.8203 0.2189
vn -0.8915 0.2624 0.3693
vn -0.3819 0.0653 -0.9219
vn -0.9113 0.1646 -0.3775
vn -0.2827 -0.6739 -0.6826
vn -0.9219 0.0653 -0.3819
vn -0.6826 -0.6739 -0.2827
vn -0.6826 -0.6739 0.2827
vn -0.9113 0.1646 0.3775
vn -0.9219 0.0653 0.3819
vn -0.2827 -0.6739 0.6826
vn -0.3819 0.0653 0.9219
vn 0.2827 -0.6739 0.6826
vn -0.3775 0.1646 0.9113
vn -0.3693 0.2624 0.8915
vn -0.2189 0.8203 0.5285
vn -0.2189 0.8202 0.5285
vn 0.2189 0.8202 0.5285
vn 0.3693 0.2624 0.8915
vn 0.2189 0.8203 0.5285
vn 0.3775 0.1646 0.9113
vn 0.5285 0.8203 0.2189
vn 0.5285 0.8202 0.2189
vn 0.5285 0.8202 -0.2189
vn 0.8915 0.2624 0.3693
vn 0.5285 0.8203 -0.2189
vn 0.8915 0.2624 -0.3693
vn 0.2189 0.8202 -0.5285
vn 0.2189 0.8203 -0.5285
vn 0.3693 0.2624 -0.8915
vn 0.3775 0.1646 -0.9113
vn 0.9113 0.1646 -0.3775
vn 0.9113 0.1646 0.3775
vn 0.3819 0.0653 -0.9219
vn 0.3819 0.0653 0.9219
vn 0.9219 0.0653 -0.3819
vn 0.9219 0.0653 0.3819
vn 0.6826 -0.6739 0.2827
vn 0.6826 -0.6739 -0.2827
vn 0.2827 -0.6739 -0.6826
vn -0.0000 -1.0000 -0.0000
vn -0.6786 -0.6786 -0.2811
vn -0.2573 -0.9604 -0.1066
vn -0.8968 -0.2403 -0.3715
vn -0.1066 -0.9604 -0.2573
vn -0.2811 -0.6786 -0.6786
vn 0.1066 -0.9604 -0.2573
vn 0.2573 -0.9604 -0.1066
vn 0.6786 -0.6786 -0.2811
vn 0.2811 -0.6786 -0.6786
vn 0.8968 -0.2403 -0.3715
vn -0.3715 -0.2403 -0.8968
vn 0.3715 -0.2403 -0.8968
vn 0.8968 0.2403 -0.3715
vn 0.3715 0.2403 -0.8968
vn -0.8968 0.2403 -0.3715
vn -0.3715 0.2403 -0.8968
vn 0.6786 0.6786 -0.2811
vn 0.2811 0.6786 -0.6786
vn 0.2573 0.9604 -0.1066
vn 0.1066 0.9604 -0.2573
vn -0.2811 0.6786 -0.6786
vn -0.1066 0.9604 -0.2573
vn -0.6786 0.6786 -0.2811
vn -0.2573 0.9604 -0.1066
vn 0.6786 0.6786 0.2811
vn 0.2573 0.9604 0.1066
vn 0.8968 0.2403 0.3715
vn 0.1066 0.9604 0.2573
vn 0.2811 0.6786 0.6786
vn -0.1066 0.9604 0.2573
vn -0.2811 0.6786 0.6786
vn -0.2573 0.9604 0.1066
vn -0.6786 0.6786 0.2811
vn -0.8968 0.2403 0.3715
vn 0.3715 0.2403 0.8968
vn -0.3715 0.2403 0.8968
vn -0.8968 -0.2403 0.3715
vn -0.3715 -0.2403 0.8968
vn -0.6786 -0.6786 0.2811
vn 0.3715 -0.2403 0.8968
vn 0.8968 -0.2403 0.3715
vn 0.6786 -0.6786 0.2811
vn -0.2573 -0.9604 0.1066
vn -0.2811 -0.6786 0.6786
vn -0.1066 -0.9604 0.2573
vn 0.2573 -0.9604 0.1066
vn 0.1066 -0.9604 0.2573
vn 0.2811 -0.6786 0.6786
vt 0.064941 0.055664
vt 0.064941 0.702148
vt 0.041779 0.136719
vt 0.041779 0.055664
vt 0.041779 0.702148
vt 0.064941 0.136719
vt 0.041779 0.217285
vt 0.146851 0.055664
vt 0.146851 0.702148
vt 0.064941 0.217285
vt 0.041779 0.298340
vt 0.146851 0.136719
vt 0.263428 0.055664
vt 0.263428 0.702148
vt 0.146851 0.217285
vt 0.064941 0.298340
vt 0.263428 0.136719
vt 0.342041 0.055664
vt 0.342041 0.702148
vt 0.263428 0.217285
vt 0.370850 0.136719
vt 0.253906 0.830444
vt 0.370850 0.055664
vt 0.370850 0.702148
vt 0.253906 0.916687
vt 0.342041 0.136719
vt 0.342041 0.217285
vt 0.370850 0.217285
vt 0.192993 0.769409
vt 0.370850 0.298340
vt 0.106689 0.769409
vt 0.146851 0.298340
vt 0.263428 0.298340
vt 0.342041 0.298340
vt 0.342041 0.378906
vt 0.370850 0.378906
vt 0.045685 0.830444
vt 0.370850 0.459961
vt 0.045685 0.916687
vt 0.263428 0.378906
vt 0.146851 0.378906
vt 0.064941 0.378906
vt 0.041779 0.378906
vt 0.064941 0.459961
vt 0.041779 0.459961
vt 0.146851 0.459961
vt 0.064941 0.540527
vt 0.041779 0.540527
vt 0.041779 0.621338
vt 0.146851 0.540527
vt 0.064941 0.621338
vt 0.146851 0.621338
vt 0.263428 0.540527
vt 0.263428 0.621338
vt 0.263428 0.459961
vt 0.342041 0.540527
vt 0.342041 0.459961
vt 0.370850 0.540527
vt 0.106689 0.977692
vt 0.370850 0.621338
vt 0.192993 0.977692
vt 0.342041 0.621338
vt 0.149780 0.873535
vt 0.458008 0.389160
vt 0.520508 0.644775
vt 0.600586 0.408691
vt 0.546387 0.460938
vt 0.606445 0.545654
vt 0.663086 0.496094
vt 0.730469 0.507324
vt 0.568848 0.335938
vt 0.414062 0.279297
vt 0.500000 0.767212
vt 0.659180 0.393066
vt 0.720703 0.404297
vt 0.787109 0.456543
vt 0.846680 0.543213
vt 0.872559 0.356934
vt 0.935059 0.615723
vt 0.655273 0.320312
vt 0.744629 0.323242
vt 0.891602 0.234375
vt 0.978516 0.725586
vt 0.652832 0.256836
vt 0.749023 0.249023
vt 0.737305 0.177734
vt 0.847656 0.124512
vt 0.958008 0.848145
vt 0.556641 0.264648
vt 0.561035 0.190430
vt 0.433350 0.156738
vt 0.543457 0.877258
vt 0.650391 0.193359
vt 0.705078 0.104980
vt 0.759277 0.052734
vt 0.872070 0.947083
vt 0.642578 0.017578
vt 0.748047 0.985466
vt 0.646484 0.120605
vt 0.584961 0.109375
vt 0.518555 0.057129
vt 0.631836 0.949707
vt 0.806152 0.894470
vt 0.830566 0.813599
vt 0.744629 0.882629
vt 0.835449 0.739502
vt 0.741211 0.809814
vt 0.686035 0.898071
vt 0.654297 0.824951
vt 0.739258 0.746582
vt 0.643066 0.753418
vt 0.647949 0.679443
vt 0.824219 0.667969
vt 0.672363 0.598389
vt 0.737305 0.683105
vt 0.733887 0.610352
vt 0.792480 0.594727
s 0
usemtl inst_kelplush
f 1/1/1 2/3/1 3/4/1
f 2/3/2 1/1/2 4/6/2
f 4/6/3 5/7/3 2/3/3
f 6/8/4 4/6/4 1/1/4
f 4/6/5 7/10/5 5/7/5
f 7/10/6 8/11/6 5/7/6
f 4/6/4 6/8/4 9/12/4
f 6/8/7 10/13/7 9/12/7
f 4/6/8 11/15/8 7/10/8
f 11/15/8 4/6/8 9/12/8
f 7/10/9 12/16/9 8/11/9
f 11/15/10 12/16/10 7/10/10
f 9/12/7 10/13/7 13/17/7
f 14/18/11 13/17/11 10/13/11
f 9/12/12 15/20/12 11/15/12
f 15/20/12 9/12/12 13/17/12
f 16/21/13 14/18/13 17/23/13
f 13/17/11 14/18/11 18/26/11
f 14/18/13 16/21/13 18/26/13
f 19/27/14 13/17/14 18/26/14
f 16/21/15 19/27/15 18/26/15
f 13/17/14 19/27/14 15/20/14
f 19/27/15 16/21/15 20/28/15
f 21/30/16 19/27/16 20/28/16
f 11/15/17 15/20/17 22/32/17
f 12/16/10 11/15/10 22/32/10
f 19/27/18 23/33/18 15/20/18
f 22/32/17 15/20/17 23/33/17
f 19/27/16 21/30/16 24/34/16
f 23/33/18 19/27/18 24/34/18
f 21/30/19 25/35/19 24/34/19
f 25/35/20 23/33/20 24/34/20
f 25/35/19 21/30/19 26/36/19
f 27/38/21 25/35/21 26/36/21
f 28/40/22 22/32/22 23/33/22
f 23/33/20 25/35/20 28/40/20
f 29/41/23 12/16/23 22/32/23
f 22/32/22 28/40/22 29/41/22
f 12/16/23 29/41/23 30/42/23
f 30/42/24 8/11/24 12/16/24
f 8/11/25 30/42/25 31/43/25
f 32/44/26 31/43/26 30/42/26
f 29/41/27 32/44/27 30/42/27
f 31/43/28 32/44/28 33/45/28
f 29/41/29 28/40/29 34/46/29
f 32/44/27 29/41/27 34/46/27
f 35/47/30 33/45/30 32/44/30
f 33/45/31 35/47/31 36/48/31
f 35/47/32 37/49/32 36/48/32
f 32/44/33 38/50/33 35/47/33
f 38/50/33 32/44/33 34/46/33
f 35/47/34 39/51/34 37/49/34
f 38/50/35 39/51/35 35/47/35
f 37/49/36 1/2/36 3/5/36
f 1/2/37 37/49/37 39/51/37
f 39/51/38 6/9/38 1/2/38
f 6/9/38 39/51/38 40/52/38
f 39/51/35 38/50/35 40/52/35
f 40/52/39 10/14/39 6/9/39
f 38/50/40 41/53/40 40/52/40
f 34/46/41 41/53/41 38/50/41
f 10/14/39 40/52/39 42/54/39
f 40/52/40 41/53/40 42/54/40
f 42/54/42 14/19/42 10/14/42
f 41/53/41 34/46/41 43/55/41
f 34/46/29 28/40/29 43/55/29
f 25/35/43 43/55/43 28/40/43
f 44/56/44 42/54/44 41/53/44
f 43/55/45 44/56/45 41/53/45
f 43/55/43 25/35/43 45/57/43
f 44/56/45 43/55/45 45/57/45
f 25/35/21 27/38/21 45/57/21
f 44/56/46 45/57/46 27/38/46
f 44/56/46 27/38/46 46/58/46
f 47/60/47 44/56/47 46/58/47
f 14/19/48 47/60/48 17/24/48
f 44/56/47 47/60/47 48/62/47
f 14/19/48 48/62/48 47/60/48
f 42/54/44 44/56/44 48/62/44
f 14/19/42 42/54/42 48/62/42
f 46/59/49 27/39/49 49/63/49
f 47/61/49 46/59/49 49/63/49
f 27/39/49 26/37/49 49/63/49
f 17/25/49 47/61/49 49/63/49
f 26/37/49 21/31/49 49/63/49
f 16/22/49 17/25/49 49/63/49
f 21/31/49 20/29/49 49/63/49
f 20/29/49 16/22/49 49/63/49
f 50/64/50 51/66/50 52/67/50
f 53/69/51 52/67/51 51/66/51
f 51/66/50 50/64/50 54/71/50
f 55/72/52 54/71/52 50/64/52
f 53/69/53 51/66/53 56/74/53
f 54/71/54 56/74/54 51/66/54
f 53/69/55 56/74/55 57/75/55
f 53/69/56 57/75/56 58/76/56
f 57/75/57 59/78/57 58/76/57
f 60/80/58 57/75/58 56/74/58
f 56/74/54 54/71/54 60/80/54
f 59/78/57 57/75/57 61/81/57
f 57/75/58 60/80/58 61/81/58
f 61/81/59 62/82/59 59/78/59
f 54/71/60 63/84/60 60/80/60
f 63/84/61 61/81/61 60/80/61
f 62/82/59 61/81/59 64/85/59
f 61/81/61 63/84/61 64/85/61
f 65/86/62 62/82/62 64/85/62
f 63/84/63 65/86/63 64/85/63
f 62/82/62 65/86/62 66/87/62
f 63/84/60 54/71/60 67/89/60
f 54/71/52 55/72/52 67/89/52
f 55/72/64 68/90/64 67/89/64
f 68/90/65 63/84/65 67/89/65
f 68/90/64 55/72/64 69/91/64
f 65/86/63 63/84/63 70/93/63
f 63/84/65 68/90/65 70/93/65
f 71/94/66 66/87/66 65/86/66
f 70/93/67 71/94/67 65/86/67
f 66/87/66 71/94/66 72/95/66
f 71/94/68 73/97/68 72/95/68
f 71/94/67 70/93/67 74/99/67
f 74/99/69 73/97/69 71/94/69
f 75/100/70 70/93/70 68/90/70
f 70/93/70 75/100/70 74/99/70
f 75/100/71 73/97/71 74/99/71
f 69/91/72 75/100/72 68/90/72
f 76/101/73 73/97/73 75/100/73
f 75/100/72 69/91/72 76/101/72
f 77/103/74 66/88/74 72/96/74
f 72/96/75 73/98/75 77/103/75
f 66/88/74 77/103/74 78/104/74
f 78/104/76 62/83/76 66/88/76
f 77/103/77 73/98/77 79/105/77
f 62/83/76 78/104/76 80/106/76
f 81/107/78 77/103/78 79/105/78
f 77/103/78 81/107/78 78/104/78
f 79/105/79 73/98/79 82/108/79
f 82/108/80 81/107/80 79/105/80
f 82/108/81 73/98/81 76/102/81
f 69/92/82 82/108/82 76/102/82
f 82/108/82 69/92/82 83/109/82
f 81/107/80 82/108/80 83/109/80
f 55/73/83 83/109/83 69/92/83
f 84/110/84 78/104/84 81/107/84
f 83/109/85 84/110/85 81/107/85
f 78/104/84 84/110/84 80/106/84
f 83/109/83 55/73/83 85/111/83
f 84/110/85 83/109/85 85/111/85
f 55/73/86 86/112/86 85/111/86
f 86/112/87 84/110/87 85/111/87
f 86/112/86 55/73/86 50/65/86
f 52/68/88 86/112/88 50/65/88
f 84/110/89 87/113/89 80/106/89
f 87/113/90 62/83/90 80/106/90
f 62/83/90 87/113/90 59/79/90
f 58/77/91 59/79/91 87/113/91
f 86/112/88 52/68/88 88/114/88
f 53/70/92 88/114/92 52/68/92
f 84/110/87 86/112/87 89/115/87
f 88/114/93 89/115/93 86/112/93
f 87/113/89 84/110/89 89/115/89
f 53/70/94 90/116/94 88/114/94
f 89/115/93 88/114/93 90/116/93
f 53/70/95 58/77/95 91/117/95
f 53/70/96 91/117/96 90/116/96
f 58/77/91 87/113/91 91/117/91
f 91/117/97 89/115/97 90/116/97
f 87/113/97 89/115/97 91/117/97
