# Blender 3.6.1
# www.blender.org
mtllib demo.mtl
o 0demo
v -22.097750 0.000000 0.695797
v -22.248281 24.271244 0.695799
v -22.248281 24.271244 -0.646040
v -22.097750 0.000000 -0.646042
v -33.095135 80.831947 0.695800
v -33.546730 77.068703 0.695800
v -32.493023 72.101204 0.695800
v 27.417896 107.475754 0.695799
v 24.708368 112.142181 0.695799
v 21.848282 114.701195 0.695799
v 11.461729 117.862305 0.695800
v -19.095854 57.198757 0.695799
v -23.310692 100.701897 0.695802
v -29.934013 83.993073 0.695800
v -31.439308 83.240417 0.695800
v 17.181877 116.658058 0.695800
v -33.095135 100.099770 0.695802
v -7.655574 126.894104 0.695800
v -22.859100 106.120979 0.695802
v -4.343922 130.506821 0.695802
v -6.150279 129.152069 0.695802
v 3.784694 131.711075 0.695802
v 10.408013 120.722397 0.695800
v -1.333317 131.560547 0.695802
v 9.956421 127.195168 0.695800
v 7.698483 130.205765 0.695802
v 10.558544 123.281395 0.695800
v -24.213879 111.389534 0.695802
v -23.912817 108.830513 0.695802
v -9.311401 127.195168 0.695800
v -12.623067 127.195168 0.695800
v -17.891607 124.034042 0.695802
v -20.601151 115.905434 0.695802
v -24.063349 113.798004 0.695802
v -15.633671 126.291977 0.695800
v -19.396915 121.324486 0.695802
v 32.987514 0.000000 0.695794
v 32.987514 0.000000 -0.646045
v -4.343922 130.506821 -0.646037
v -1.333317 131.560547 -0.646037
v 3.784694 131.711075 -0.646037
v -7.655574 126.894104 -0.646037
v -6.150279 129.152069 -0.646037
v 7.698483 130.205765 -0.646037
v 9.956421 127.195168 -0.646037
v 10.408013 120.722397 -0.646037
v 11.461729 117.862305 -0.646038
v -23.310692 100.701897 -0.646037
v -20.601151 115.905434 -0.646037
v -22.859100 106.120979 -0.646037
v -24.213879 111.389534 -0.646037
v -24.063349 113.798004 -0.646037
v -23.912817 108.830513 -0.646037
v 10.558544 123.281395 -0.646037
v -12.623067 127.195168 -0.646037
v -9.311401 127.195168 -0.646037
v -17.891607 124.034042 -0.646035
v -19.396915 121.324486 -0.646035
v -15.633671 126.291977 -0.646037
v -29.934013 83.993073 -0.646038
v -33.095135 100.099770 -0.646037
v -32.794086 61.413597 -0.646038
v -32.493023 72.101204 -0.646038
v -33.095135 80.831947 -0.646038
v -33.546730 77.068703 -0.646038
v -31.439308 83.240417 -0.646038
v -33.697258 68.789558 -0.646038
v -33.847790 65.176842 -0.646038
v 26.063120 78.272919 -0.646042
v 29.675861 99.798706 -0.646040
v 28.170551 80.530884 -0.646042
v 27.417896 107.475754 -0.646040
v 21.848282 114.701195 -0.646040
v 17.181877 116.658058 -0.646038
v 28.923206 103.260918 -0.646040
v 24.708368 112.142181 -0.646040
v -27.676062 56.747162 -0.646038
v -30.686653 58.854584 -0.646038
v -19.095854 57.198757 -0.646038
v -20.450619 47.952003 -0.646038
v 26.514713 69.391678 -0.646042
v 24.708368 67.585320 -0.646042
v 27.417896 49.220657 -0.646043
v -20.902212 45.249023 -0.646038
v -20.450619 41.534134 -0.646040
v -19.440393 37.317055 -0.646040
v -17.577625 31.126335 -0.646040
v 33.589638 36.275085 -0.646043
v 29.525330 28.146467 -0.646043
v -17.622217 26.243729 -0.646040
v 29.525330 21.673677 -0.646043
v 29.826391 17.910435 -0.646043
v 31.181143 15.351420 -0.646043
v 32.234859 11.889241 -0.646045
v 28.170551 80.530884 0.695797
v 26.063120 78.272919 0.695797
v 29.675861 99.798706 0.695799
v 28.923206 103.260918 0.695799
v 26.514713 69.391678 0.695797
v 24.708368 67.585320 0.695797
v 27.417896 49.220657 0.695795
v 33.589638 36.275085 0.695795
v -17.622217 26.243729 0.695799
v -17.577625 31.126335 0.695799
v -30.686653 58.854584 0.695800
v -27.676062 56.747162 0.695799
v -23.461224 55.994511 0.695799
v -33.847790 65.176842 0.695800
v -33.697258 68.789558 0.695800
v -32.794086 61.413597 0.695800
v -20.450619 47.952003 0.695799
v -20.902212 45.249023 0.695799
v -20.450619 41.534134 0.695799
v -19.440393 37.317055 0.695799
v 29.525330 28.146467 0.695795
v 29.525330 21.673677 0.695795
v 29.826391 17.910435 0.695794
v 32.234859 11.889241 0.695794
v 31.181143 15.351420 0.695794
v -23.461224 55.994511 -0.646038
vn -1.0000 -0.0062 -0.0000
vn -0.0000 -0.0000 1.0000
vn -0.0000 -1.0000 -0.0000
vn -0.0000 -0.0000 -1.0000
vn -0.9813 -0.1926 -0.0000
vn -0.0614 0.9981 -0.0000
vn -0.9996 -0.0273 -0.0000
vn -0.9981 0.0624 -0.0000
vn -0.9704 -0.2416 -0.0000
vn -0.9897 -0.1434 -0.0000
vn -0.9965 0.0830 -0.0000
vn -0.5199 0.8542 -0.0000
vn 0.9153 -0.4027 -0.0000
vn 0.7311 -0.6823 -0.0000
vn 0.9977 0.0680 -0.0000
vn 0.9615 0.2750 -0.0000
vn 0.9071 0.4210 -0.0000
vn 0.7754 0.6315 -0.0000
vn 0.5341 0.8454 -0.0000
vn 0.2977 0.9547 -0.0000
vn 0.2060 0.9785 -0.0000
vn 0.9987 0.0508 -0.0000
vn 0.7071 -0.7071 -0.0000
vn 0.9566 0.2914 -0.0000
vn 0.9027 0.4303 -0.0000
vn 0.9893 0.1460 -0.0000
vn -0.8318 0.5551 -0.0000
vn -1.0000 0.0091 -0.0000
vn -0.3922 0.9199 -0.0000
vn -0.9654 -0.2607 -0.0000
vn -0.9576 -0.2881 -0.0000
vn -0.9842 -0.1771 -0.0000
vn -0.9998 0.0223 -0.0000
vn -0.9879 0.1549 -0.0000
vn -0.9894 0.1450 -0.0000
vn 0.0898 0.9960 -0.0000
vn 0.1789 0.9839 -0.0000
vn -0.1452 0.9894 -0.0000
vn -0.5128 0.8585 -0.0000
vn -0.7983 0.6022 -0.0000
vn -0.9349 0.3550 -0.0000
vn -0.9762 0.2169 -0.0000
vn 0.9840 0.1784 -0.0000
vn 0.9980 0.0632 -0.0000
vn 0.9245 0.3813 -0.0000
vn 0.9601 0.2796 -0.0000
vn 0.9992 0.0399 -0.0000
vn 0.9732 -0.2298 -0.0000
vn 0.8944 -0.4472 -0.0000
vn 0.9892 0.1466 -0.0000
vn 0.9383 0.3457 -0.0000
vn 0.9989 0.0469 -0.0000
vn 0.9218 0.3876 -0.0000
vn 0.6030 0.7978 -0.0000
vn 0.1681 0.9858 -0.0000
vn -0.1820 0.9833 -0.0000
vn -0.4707 0.8823 -0.0000
vn -0.7265 0.6872 -0.0000
vn -0.8321 0.5547 -0.0000
vn -0.6564 0.7544 -0.0000
vn -0.9356 0.3531 -0.0000
vn -0.4472 0.8944 -0.0000
vn 0.0462 -0.9989 -0.0000
vn 0.2659 -0.9640 -0.0000
vn -0.3836 -0.9235 -0.0000
vn -0.6789 -0.7342 -0.0000
vn -0.8865 -0.4626 -0.0000
vn -0.9933 -0.1154 -0.0000
vn -0.9810 0.1940 -0.0000
vn -0.9976 0.0698 -0.0000
vn -0.9990 -0.0448 -0.0000
vt 0.999736 0.000015
vt 0.999736 0.206235
vt 0.979712 0.206235
vt 0.979712 0.000015
vt 0.007308 0.607036
vt 0.003918 0.578440
vt 0.011827 0.540693
vt 0.461507 0.809498
vt 0.441170 0.844957
vt 0.419703 0.864402
vt 0.341743 0.888423
vt 0.112384 0.427452
vt 0.080748 0.758024
vt 0.031034 0.631057
vt 0.019736 0.625338
vt 0.384678 0.879272
vt 0.007308 0.753449
vt 0.198252 0.957054
vt 0.084137 0.799203
vt 0.223109 0.984507
vt 0.209551 0.974212
vt 0.284121 0.993658
vt 0.333834 0.910156
vt 0.245706 0.992514
vt 0.330445 0.959342
vt 0.313497 0.982219
vt 0.334964 0.929602
vt 0.073969 0.839238
vt 0.076228 0.819792
vt 0.185824 0.959342
vt 0.160967 0.959342
vt 0.121423 0.935321
vt 0.101085 0.873553
vt 0.075099 0.857539
vt 0.138370 0.952479
vt 0.110124 0.914732
vt 0.999736 0.000000
vt 0.979712 0.000000
vt 0.791277 0.964412
vt 0.772267 0.972022
vt 0.739948 0.973109
vt 0.812189 0.938320
vt 0.802684 0.954627
vt 0.715234 0.962237
vt 0.700976 0.940494
vt 0.698125 0.893746
vt 0.691471 0.873089
vt 0.911045 0.749152
vt 0.893935 0.858956
vt 0.908193 0.788290
vt 0.916748 0.826341
vt 0.915797 0.843736
vt 0.914847 0.807859
vt 0.697174 0.912228
vt 0.843557 0.940494
vt 0.822645 0.940494
vt 0.876825 0.917663
vt 0.886331 0.898094
vt 0.862567 0.933971
vt 0.952868 0.628475
vt 0.972830 0.744803
vt 0.970928 0.465399
vt 0.969027 0.542589
vt 0.972830 0.605645
vt 0.975681 0.578465
vt 0.962374 0.623039
vt 0.976632 0.518671
vt 0.977582 0.492579
vt 0.599269 0.587163
vt 0.576456 0.742628
vt 0.585962 0.603470
vt 0.590714 0.798074
vt 0.625884 0.850259
vt 0.655351 0.864392
vt 0.581209 0.767634
vt 0.607824 0.831777
vt 0.938610 0.431697
vt 0.957621 0.446917
vt 0.884430 0.434959
vt 0.891119 0.369217
vt 0.596418 0.523019
vt 0.607824 0.509973
vt 0.590714 0.377338
vt 0.895959 0.348938
vt 0.892844 0.322360
vt 0.886365 0.292672
vt 0.876574 0.247429
vt 0.551742 0.283841
vt 0.577407 0.225134
vt 0.874968 0.211340
vt 0.904384 0.199371
vt 0.577407 0.178385
vt 0.575506 0.151206
vt 0.566951 0.132724
vt 0.903385 0.021858
vt 0.555544 0.021851
vt 0.560297 0.107719
vt 0.999736 0.637707
vt 0.999736 0.759995
vt 0.979712 0.759995
vt 0.979712 0.637707
vt 0.999736 0.764567
vt 0.979712 0.764567
vt 0.999736 0.845711
vt 0.999736 0.863997
vt 0.979712 0.863997
vt 0.979712 0.845711
vt 0.999736 0.826282
vt 0.979712 0.826282
vt 0.999736 0.805710
vt 0.979712 0.805710
vt 0.999736 0.879998
vt 0.979712 0.879998
vt 0.999736 0.611421
vt 0.999736 0.594278
vt 0.979712 0.594278
vt 0.979712 0.611421
vt 0.999736 0.757709
vt 0.979712 0.757709
vt 0.999736 0.783996
vt 0.979712 0.783996
vt 0.999736 0.815996
vt 0.979712 0.815996
vt 0.999736 0.851426
vt 0.979712 0.851426
vt 0.999736 0.870854
vt 0.979712 0.870854
vt 0.999736 0.885712
vt 0.979712 0.885712
vt 0.999736 0.894855
vt 0.979712 0.894855
vt 0.999736 0.526848
vt 0.979712 0.526848
vt 0.999736 0.513133
vt 0.979712 0.513133
vt 0.999736 0.373702
vt 0.999736 0.275414
vt 0.979712 0.275414
vt 0.979712 0.373702
vt 0.999736 0.218981
vt 0.999736 0.237950
vt 0.979712 0.237950
vt 0.979712 0.218981
vt 0.025385 0.440034
vt 0.047982 0.424020
vt 0.079618 0.418301
vt 0.001658 0.488076
vt 0.002788 0.515528
vt 0.009567 0.459479
vt 0.478455 0.751161
vt 0.472806 0.777470
vt 0.451339 0.587590
vt 0.441170 0.506377
vt 0.102343 0.357231
vt 0.461507 0.366827
vt 0.098819 0.336651
vt 0.102240 0.308424
vt 0.109826 0.276375
vt 0.123655 0.229337
vt 0.507831 0.268456
vt 0.477325 0.206689
vt 0.123355 0.192485
vt 0.477325 0.157503
vt 0.479585 0.128907
vt 0.088503 0.177310
vt 0.089852 -0.007192
vt 0.497663 0.083153
vt 0.503312 -0.007192
vt 0.489754 0.109461
vt 0.454728 0.520103
vt 0.979712 0.286752
vt 0.999736 0.286752
vt 0.979712 0.317230
vt 0.999736 0.317230
vt 0.979712 0.344699
vt 0.999736 0.344699
vt 0.979712 0.366680
vt 0.999736 0.366680
vt 0.979712 0.434274
vt 0.999736 0.434274
vt 0.999736 0.965714
vt 0.999736 0.963428
vt 0.979712 0.963428
vt 0.979712 0.965714
vt 0.999736 0.958856
vt 0.979712 0.958856
vt 0.999736 0.941713
vt 0.979712 0.941713
vt 0.999736 0.921141
vt 0.979712 0.921141
vt 0.999736 0.090268
vt 0.979712 0.090268
vt 0.999736 0.116554
vt 0.979712 0.116554
vt 0.999736 0.135983
vt 0.979712 0.135983
vt 0.999736 0.164555
vt 0.979712 0.164555
vt 0.999736 0.213699
vt 0.979712 0.213699
vt 0.999736 0.916570
vt 0.979712 0.916570
vt 0.999736 0.935999
vt 0.979712 0.935999
vt 0.999736 0.988571
vt 0.979712 0.988571
vt 0.999736 1.000000
vt 0.979712 1.000000
vt 0.999736 0.998857
vt 0.979712 0.998857
vt 0.999736 0.990857
vt 0.979712 0.990857
vt 0.999736 0.980571
vt 0.979712 0.980571
vt 0.979712 0.631993
vt 0.979712 0.613707
vt 0.999736 0.613707
vt 0.999736 0.631993
vt 0.979712 0.425131
vt 0.999736 0.425131
vt 0.979712 0.430846
vt 0.999736 0.430846
vt 0.979712 0.446846
vt 0.999736 0.446846
vt 0.979712 0.466275
vt 0.999736 0.466275
vt 0.979712 0.494847
vt 0.999736 0.494847
vt 0.979712 0.522276
vt 0.999736 0.522276
vt 0.979712 0.547419
vt 0.999736 0.547419
vt 0.979712 0.585135
vt 0.999736 0.585135
vt 0.467157 0.604748
vt 0.911995 0.426261
s 1
usemtl target_demoman
f 1/1/1 2/2/1 3/3/1
f 3/3/1 4/4/1 1/1/1
f 5/5/2 6/6/2 7/7/2
f 8/8/2 9/9/2 10/10/2
f 8/8/2 10/10/2 11/11/2
f 12/12/2 8/8/2 11/11/2
f 13/13/2 12/12/2 11/11/2
f 13/13/2 7/7/2 12/12/2
f 13/13/2 14/14/2 7/7/2
f 14/14/2 5/5/2 7/7/2
f 14/14/2 15/15/2 5/5/2
f 10/10/2 16/16/2 11/11/2
f 13/13/2 17/17/2 14/14/2
f 13/13/2 11/11/2 18/18/2
f 19/19/2 13/13/2 18/18/2
f 20/20/2 21/21/2 18/18/2
f 22/22/2 20/20/2 18/18/2
f 11/11/2 22/22/2 18/18/2
f 11/11/2 23/23/2 22/22/2
f 22/22/2 24/24/2 20/20/2
f 25/25/2 26/26/2 22/22/2
f 23/23/2 25/25/2 22/22/2
f 23/23/2 27/27/2 25/25/2
f 28/28/2 29/29/2 19/19/2
f 18/18/2 30/30/2 31/31/2
f 18/18/2 31/31/2 32/32/2
f 19/19/2 18/18/2 32/32/2
f 33/33/2 19/19/2 32/32/2
f 33/33/2 28/28/2 19/19/2
f 33/33/2 34/34/2 28/28/2
f 31/31/2 35/35/2 32/32/2
f 33/33/2 32/32/2 36/36/2
f 37/37/3 1/1/3 4/4/3
f 4/4/3 38/38/3 37/37/3
f 39/39/4 40/40/4 41/41/4
f 42/42/4 39/39/4 41/41/4
f 42/42/4 43/43/4 39/39/4
f 41/41/4 44/44/4 45/45/4
f 41/41/4 45/45/4 46/46/4
f 42/42/4 41/41/4 46/46/4
f 42/42/4 46/46/4 47/47/4
f 42/42/4 47/47/4 48/48/4
f 49/49/4 42/42/4 48/48/4
f 49/49/4 48/48/4 50/50/4
f 51/51/4 49/49/4 50/50/4
f 51/51/4 52/52/4 49/49/4
f 51/51/4 50/50/4 53/53/4
f 45/45/4 54/54/4 46/46/4
f 55/55/4 56/56/4 42/42/4
f 49/49/4 55/55/4 42/42/4
f 49/49/4 57/57/4 55/55/4
f 49/49/4 58/58/4 57/57/4
f 57/57/4 59/59/4 55/55/4
f 60/60/4 61/61/4 48/48/4
f 47/47/4 62/62/4 48/48/4
f 62/62/4 60/60/4 48/48/4
f 62/62/4 63/63/4 60/60/4
f 63/63/4 64/64/4 60/60/4
f 63/63/4 65/65/4 64/64/4
f 64/64/4 66/66/4 60/60/4
f 62/62/4 67/67/4 63/63/4
f 62/62/4 68/68/4 67/67/4
f 47/47/4 69/69/4 62/62/4
f 70/70/4 71/71/4 69/69/4
f 72/72/4 70/70/4 69/69/4
f 47/47/4 72/72/4 69/69/4
f 47/47/4 73/73/4 72/72/4
f 47/47/4 74/74/4 73/73/4
f 72/72/4 75/75/4 70/70/4
f 73/73/4 76/76/4 72/72/4
f 77/77/4 78/78/4 62/62/4
f 79/79/4 77/77/4 62/62/4
f 69/69/4 79/79/4 62/62/4
f 69/69/4 80/80/4 79/79/4
f 69/69/4 81/81/4 80/80/4
f 81/81/4 82/82/4 80/80/4
f 82/82/4 83/83/4 80/80/4
f 83/83/4 84/84/4 80/80/4
f 83/83/4 85/85/4 84/84/4
f 83/83/4 86/86/4 85/85/4
f 83/83/4 87/87/4 86/86/4
f 83/83/4 88/88/4 87/87/4
f 88/88/4 89/89/4 87/87/4
f 89/89/4 90/90/4 87/87/4
f 89/89/4 3/91/4 90/90/4
f 89/89/4 91/92/4 3/91/4
f 91/92/4 92/93/4 3/91/4
f 92/93/4 93/94/4 3/91/4
f 93/94/4 4/95/4 3/91/4
f 93/94/4 38/96/4 4/95/4
f 93/94/4 94/97/4 38/96/4
f 14/98/5 17/99/5 61/100/5
f 61/100/5 60/101/5 14/98/5
f 17/99/6 13/102/6 48/103/6
f 48/103/6 61/100/6 17/99/6
f 28/104/7 34/105/8 52/106/8
f 52/106/8 51/107/7 28/104/7
f 29/108/9 28/104/7 51/107/7
f 51/107/7 53/109/9 29/108/9
f 19/110/10 29/108/9 53/109/9
f 53/109/9 50/111/10 19/110/10
f 13/102/11 19/110/10 50/111/10
f 50/111/10 48/103/11 13/102/11
f 34/105/12 33/112/12 49/113/12
f 49/113/12 52/106/12 34/105/12
f 95/114/13 96/115/14 69/116/14
f 69/116/14 71/117/13 95/114/13
f 97/118/15 95/114/13 71/117/13
f 71/117/13 70/119/15 97/118/15
f 98/120/16 97/118/15 70/119/15
f 70/119/15 75/121/16 98/120/16
f 8/122/17 98/120/16 75/121/16
f 75/121/16 72/123/17 8/122/17
f 9/124/18 8/122/17 72/123/17
f 72/123/17 76/125/18 9/124/18
f 10/126/19 9/124/18 76/125/18
f 76/125/18 73/127/19 10/126/19
f 16/128/20 10/126/19 73/127/19
f 73/127/19 74/129/20 16/128/20
f 11/130/21 16/128/20 74/129/20
f 74/129/20 47/131/21 11/130/21
f 96/115/22 99/132/22 81/133/22
f 81/133/22 69/116/22 96/115/22
f 81/133/23 99/132/23 100/134/23
f 100/134/23 82/135/23 81/133/23
f 101/136/24 102/137/25 88/138/25
f 88/138/25 83/139/24 101/136/24
f 100/134/26 101/136/24 83/139/24
f 83/139/24 82/135/26 100/134/26
f 103/140/27 104/141/28 87/142/28
f 87/142/28 90/143/27 103/140/27
f 2/2/29 103/140/27 90/143/27
f 90/143/27 3/3/29 2/2/29
f 105/144/2 106/145/2 107/146/2
f 105/144/2 107/146/2 12/12/2
f 7/7/2 105/144/2 12/12/2
f 7/7/2 108/147/2 105/144/2
f 7/7/2 109/148/2 108/147/2
f 108/147/2 110/149/2 105/144/2
f 97/150/2 98/151/2 8/8/2
f 96/152/2 97/150/2 8/8/2
f 12/12/2 96/152/2 8/8/2
f 12/12/2 100/153/2 96/152/2
f 12/12/2 111/154/2 100/153/2
f 111/154/2 101/155/2 100/153/2
f 111/154/2 112/156/2 101/155/2
f 112/156/2 113/157/2 101/155/2
f 113/157/2 114/158/2 101/155/2
f 114/158/2 104/159/2 101/155/2
f 104/159/2 102/160/2 101/155/2
f 104/159/2 115/161/2 102/160/2
f 104/159/2 103/162/2 115/161/2
f 103/162/2 116/163/2 115/161/2
f 103/162/2 117/164/2 116/163/2
f 103/162/2 2/165/2 117/164/2
f 2/165/2 1/166/2 117/164/2
f 1/166/2 118/167/2 117/164/2
f 1/166/2 37/168/2 118/167/2
f 118/167/2 119/169/2 117/164/2
f 100/153/2 99/170/2 96/152/2
f 86/171/30 87/142/31 104/141/31
f 104/141/31 114/172/30 86/171/30
f 85/173/32 86/171/30 114/172/30
f 114/172/30 113/174/32 85/173/32
f 84/175/33 85/173/32 113/174/32
f 113/174/32 112/176/33 84/175/33
f 80/177/34 84/175/33 112/176/33
f 112/176/33 111/178/34 80/177/34
f 79/179/35 80/177/34 111/178/34
f 111/178/34 12/180/35 79/179/35
f 30/181/36 18/182/37 42/183/37
f 42/183/37 56/184/36 30/181/36
f 31/181/38 30/181/36 56/184/36
f 56/184/36 55/184/38 31/181/38
f 35/185/39 31/181/38 55/184/38
f 55/184/38 59/186/39 35/185/39
f 32/187/40 35/185/39 59/186/39
f 59/186/39 57/188/40 32/187/40
f 36/189/41 32/187/40 57/188/40
f 57/188/40 58/190/41 36/189/41
f 33/112/42 36/189/41 58/190/41
f 58/190/41 49/113/42 33/112/42
f 118/191/43 37/37/44 38/38/44
f 38/38/44 94/192/43 118/191/43
f 119/193/45 118/191/43 94/192/43
f 94/192/43 93/194/45 119/193/45
f 117/195/46 119/193/45 93/194/45
f 93/194/45 92/196/46 117/195/46
f 116/197/47 117/195/46 92/196/46
f 92/196/46 91/198/47 116/197/47
f 115/199/48 116/197/47 91/198/47
f 91/198/47 89/200/48 115/199/48
f 102/137/49 115/199/48 89/200/48
f 89/200/48 88/138/49 102/137/49
f 23/201/50 11/130/51 47/131/51
f 47/131/51 46/202/50 23/201/50
f 27/203/52 23/201/50 46/202/50
f 46/202/50 54/204/52 27/203/52
f 25/181/53 27/203/52 54/204/52
f 54/204/52 45/184/53 25/181/53
f 26/205/54 25/181/53 45/184/53
f 45/184/53 44/206/54 26/205/54
f 22/207/55 26/205/54 44/206/54
f 44/206/54 41/208/55 22/207/55
f 24/209/56 22/207/55 41/208/55
f 41/208/55 40/210/56 24/209/56
f 20/211/57 24/209/56 40/210/56
f 40/210/56 39/212/57 20/211/57
f 21/213/58 20/211/57 39/212/57
f 39/212/57 43/214/58 21/213/58
f 18/182/59 21/213/58 43/214/58
f 43/214/58 42/183/59 18/182/59
f 66/215/60 64/216/61 5/217/61
f 5/217/61 15/218/60 66/215/60
f 60/101/62 66/215/60 15/218/60
f 15/218/60 14/98/62 60/101/62
f 120/219/63 79/179/64 12/180/64
f 12/180/64 107/220/63 120/219/63
f 77/221/65 120/219/63 107/220/63
f 107/220/63 106/222/65 77/221/65
f 78/223/66 77/221/65 106/222/65
f 106/222/65 105/224/66 78/223/66
f 62/225/67 78/223/66 105/224/66
f 105/224/66 110/226/67 62/225/67
f 68/227/68 62/225/67 110/226/67
f 110/226/67 108/228/68 68/227/68
f 67/229/69 68/227/68 108/228/68
f 108/228/68 109/230/69 67/229/69
f 63/231/70 67/229/69 109/230/69
f 109/230/69 7/232/70 63/231/70
f 65/233/71 63/231/70 7/232/70
f 7/232/70 6/234/71 65/233/71
f 64/216/61 65/233/71 6/234/71
f 6/234/71 5/217/61 64/216/61
f 96/152/2 95/235/2 97/150/2
f 79/79/4 120/236/4 77/77/4
o 1demo
v 8.198372 132.606827 0.963709
v -12.998203 132.606827 -0.963709
v -12.998203 132.606827 0.963709
v 8.198372 132.606827 -0.963709
v 33.371769 0.000000 -0.963710
v -21.852577 0.000000 -0.963707
v 33.863670 35.768902 -0.963710
v -34.051823 61.431007 -0.963707
v -33.371769 100.290100 -0.963707
v 28.733637 107.602539 0.963707
v 28.733637 107.602539 -0.963710
v 33.371769 0.000000 0.963707
v 33.863670 35.768902 0.963707
v -21.852577 0.000000 0.963710
v -33.371769 100.290100 0.963710
v -34.051823 61.431007 0.963710
v -19.028431 0.145415 37.001839
v -19.028431 0.590510 37.001839
v -19.028431 0.145415 -37.001839
v -19.028431 0.590510 -37.001839
v 32.296005 0.145415 37.001839
v 32.296005 0.590510 37.001839
v 32.296005 0.145415 -37.001839
v 32.296005 0.590510 -37.001839
vn 0.9710 0.0883 0.2222
vn -0.9808 -0.0892 0.1733
vn 0.9974 -0.0520 0.0498
vn -0.9997 0.0141 0.0175
vn -0.9961 0.0696 -0.0547
vn -0.9990 -0.0202 -0.0405
vn -0.9997 0.0235 0.0012
vn -0.9982 -0.0593 -0.0068
vn -0.9997 -0.0243 0.0098
vn 0.9992 0.0391 0.0104
vn -0.9899 0.1371 0.0363
vn 0.9936 0.0347 -0.1076
vn 0.9997 0.0262 0.0007
vn 0.9988 -0.0406 -0.0263
vn 0.9987 -0.0497 0.0098
vn 0.9998 -0.0175 -0.0020
vn -1.0000 -0.0000 -0.0000
vn -0.0000 -0.0000 -1.0000
vn 1.0000 -0.0000 -0.0000
vn -0.0000 -0.0000 1.0000
vn -0.0000 -1.0000 -0.0000
vn -0.0000 1.0000 -0.0000
vt 0.000000 0.000000
vt 0.375000 0.000000
vt 0.625000 0.000000
vt 0.625000 0.250000
vt 0.375000 0.250000
vt 0.625000 0.500000
vt 0.375000 0.500000
vt 0.625000 0.750000
vt 0.375000 0.750000
vt 0.625000 1.000000
vt 0.375000 1.000000
vt 0.125000 0.500000
vt 0.125000 0.750000
vt 0.875000 0.500000
vt 0.875000 0.750000
s 1
usemtl __phy
f 121/237/72 122/237/73 123/237/74
f 121/237/72 124/237/75 122/237/73
f 125/237/76 126/237/77 127/237/78
f 127/237/78 126/237/77 128/237/79
f 127/237/78 128/237/79 129/237/80
f 127/237/78 129/237/80 124/237/75
f 124/237/75 129/237/80 122/237/73
f 123/237/74 122/237/73 129/237/80
f 124/237/75 130/237/81 131/237/82
f 124/237/75 121/237/72 130/237/81
f 123/237/74 130/237/81 121/237/72
f 132/237/83 125/237/76 133/237/84
f 125/237/76 127/237/78 133/237/84
f 125/237/76 132/237/83 126/237/77
f 126/237/77 132/237/83 134/237/85
f 135/237/86 130/237/81 123/237/74
f 135/237/86 136/237/87 130/237/81
f 136/237/87 133/237/84 130/237/81
f 136/237/87 134/237/85 133/237/84
f 134/237/85 132/237/83 133/237/84
f 133/237/84 127/237/78 130/237/81
f 123/237/74 129/237/80 135/237/86
f 130/237/81 127/237/78 131/237/82
f 124/237/75 131/237/82 127/237/78
f 129/237/80 128/237/79 135/237/86
f 134/237/85 136/237/87 128/237/79
f 134/237/85 128/237/79 126/237/77
f 128/237/79 136/237/87 135/237/86
s 0
f 137/238/88 138/239/88 140/240/88 139/241/88
f 139/241/89 140/240/89 144/242/89 143/243/89
f 143/243/90 144/242/90 142/244/90 141/245/90
f 141/245/91 142/244/91 138/246/91 137/247/91
f 139/248/92 143/243/92 141/245/92 137/249/92
f 144/242/93 140/250/93 138/251/93 142/244/93
