# Blender 4.0.0
# www.blender.org
mtllib laptop.mtl
o 0laptop
v -26.569237 2.187527 -14.483850
v 26.571983 31.526794 -22.007969
v 26.571987 2.187540 -14.483847
v -26.569242 31.526783 -22.007973
v -26.569242 31.752058 -21.129551
v 26.571983 31.526794 -22.007969
v -26.569242 31.526783 -22.007973
v 26.571983 31.752069 -21.129551
v -26.569237 2.412800 -13.605429
v -26.569242 31.752058 -21.129551
v -26.569237 2.187527 -14.483850
v -26.569242 31.526783 -22.007973
v -26.569237 2.412800 -13.605429
v 26.571983 31.752069 -21.129551
v -26.569242 31.752058 -21.129551
v 26.571987 2.412813 -13.605427
v 26.571993 0.033041 -16.311735
v -26.569246 0.033041 -16.311737
v 26.571993 1.846735 -16.311737
v -26.569246 1.846735 -16.311739
v -26.569246 0.033043 16.244055
v 26.571993 1.846737 16.244053
v -26.569246 1.846737 16.244055
v 26.571993 0.033043 16.244053
v -26.569246 0.033043 16.244055
v 26.571993 0.033041 -16.311735
v 26.571993 0.033043 16.244053
v -26.569246 0.033041 -16.311737
v 26.571993 1.846735 -16.311737
v -26.569246 1.846735 -16.311739
v 26.571993 1.846737 16.244053
v -26.569246 1.846737 16.244055
v -26.569246 0.033041 -16.311737
v -26.569246 0.033043 16.244055
v -26.569246 1.846735 -16.311739
v -26.569246 1.846737 16.244055
v 26.571987 2.187540 -14.483847
v 26.571983 31.526794 -22.007969
v 26.571983 31.752069 -21.129551
v 26.571987 2.412813 -13.605427
v 26.571993 1.846735 -16.311737
v 26.571993 1.846737 16.244053
v 26.571993 0.033043 16.244053
v 26.571993 0.033041 -16.311735
v -26.750607 2.844265 -14.588732
v -26.750607 1.756050 -13.500517
v -26.750607 2.844265 -13.500516
v -26.750607 1.756049 -14.588733
v 26.753353 2.844265 -14.588730
v -26.750607 1.756049 -14.588733
v -26.750607 2.844265 -14.588732
v 26.753353 1.756049 -14.588732
v 26.753353 2.844265 -13.500514
v -26.750607 1.756050 -13.500517
v 26.753353 1.756050 -13.500516
v -26.750607 2.844265 -13.500516
v 26.753353 2.844265 -14.588730
v -26.750607 2.844265 -14.588732
v -26.750607 2.844265 -13.500516
v 26.753353 2.844265 -13.500514
v 26.753353 2.844265 -14.588730
v 26.753353 2.844265 -13.500514
v 26.753353 1.756050 -13.500516
v 26.753353 1.756049 -14.588732
v -24.814020 3.854596 -13.735403
v 24.126057 3.854596 -13.735403
v -24.814020 29.973492 -20.428415
v 24.126057 29.973492 -20.428415
v -24.147484 4.289662 -13.814683
v -3.159055 4.289662 -13.814683
v -24.147484 5.741801 -14.186795
v -3.159055 5.741801 -14.186795
v 25.140293 7.532896 -15.953076
v 14.556720 4.945449 -15.290042
v 22.615793 17.222717 -18.436110
v 12.032220 14.635269 -17.773073
v -16.030294 14.746489 -17.801580
v -24.909086 17.642538 -18.543703
v -11.543704 27.654049 -21.109167
v -20.422495 30.550100 -21.851284
vn -0.0000 -0.2484 -0.9687
vn -0.0000 0.9687 -0.2484
vn -1.0000 -0.0000 -0.0000
vn -0.0000 0.2484 0.9687
vn -0.2201 0.0393 -0.9747
vn 0.3307 0.5433 -0.7717
vn -0.0393 -0.2201 -0.9747
vn 0.5433 -0.3307 -0.7717
vn 0.5433 0.3307 0.7717
vn -0.3463 -0.4722 0.8106
vn 0.6007 -0.1976 0.7746
vn -0.3789 0.4420 0.8130
vn 0.3307 -0.7717 -0.5433
vn -0.0393 -0.9747 0.2201
vn -0.4420 -0.8130 -0.3789
vn 0.5433 -0.7717 0.3307
vn -0.2201 0.9747 0.0393
vn 0.3307 0.7717 0.5433
vn -0.4722 0.8106 -0.3463
vn 0.1976 0.7746 -0.6007
vn -0.7717 0.3307 0.5433
vn -0.7717 0.5433 -0.3307
vn -0.7717 -0.5433 0.3307
vn -0.7746 -0.6007 -0.1976
vn 1.0000 -0.0000 -0.0000
vn 0.9747 -0.0393 0.2201
vn 0.8106 -0.3463 -0.4722
vn 0.8130 0.3789 -0.4420
vn 0.9747 0.2201 0.0393
vn -0.0000 -0.0000 -1.0000
vn -0.0000 -0.0000 1.0000
vn -0.0000 1.0000 -0.0000
vn -0.0000 0.2482 0.9687
vn -0.0000 -0.2482 -0.9687
vt 0.111317 0.003906
vt 0.160140 0.171846
vt 0.111317 0.171846
vt 0.160140 0.003906
vt 0.070305 0.179657
vt 0.066399 0.347598
vt 0.066399 0.179657
vt 0.070305 0.347598
vt 0.085929 0.179657
vt 0.085929 0.277297
vt 0.082023 0.179657
vt 0.082023 0.277297
vt 0.048823 0.179657
vt 0.001953 0.347598
vt 0.001953 0.179657
vt 0.048823 0.347598
vt 0.062494 0.179657
vt 0.062494 0.347598
vt 0.058588 0.179657
vt 0.058588 0.347598
vt 0.074211 0.347598
vt 0.078117 0.179657
vt 0.078117 0.347598
vt 0.074211 0.179657
vt 0.052729 0.171846
vt 0.001953 0.003906
vt 0.052729 0.003906
vt 0.001953 0.171846
vt 0.056635 0.171846
vt 0.056635 0.003906
vt 0.107411 0.171846
vt 0.107411 0.003906
vt 0.093740 0.179657
vt 0.093740 0.281203
vt 0.089835 0.179657
vt 0.089835 0.281203
vt 0.052729 0.183563
vt 0.054682 0.179657
vt 0.054682 0.183563
vt 0.052729 0.179657
vt 0.165999 0.171846
vt 0.164046 0.003906
vt 0.165999 0.003906
vt 0.164046 0.171846
vt 0.167952 0.171846
vt 0.169905 0.003906
vt 0.169905 0.171846
vt 0.167952 0.003906
vt 0.226197 0.143687
vt 0.996882 0.143687
vt 0.994420 0.990524
vt 0.228503 0.990524
vt 0.273604 0.029439
vt 0.711731 0.029439
vt 0.711731 0.090064
vt 0.273604 0.090065
vt 0.153648 0.527322
vt 0.034345 0.527322
vt 0.034345 0.745780
vt 0.153648 0.745780
vt 0.208780 0.733656
vt 0.122768 0.733656
vt 0.122768 0.988664
vt 0.208780 0.988664
s 0
usemtl inst_laptop
f 1/1/1 2/2/1 3/3/1
f 2/2/1 1/1/1 4/4/1
f 5/5/2 6/6/2 7/7/2
f 6/6/2 5/5/2 8/8/2
f 9/9/3 10/10/3 11/11/3
f 12/12/3 11/11/3 10/10/3
f 13/13/4 14/14/4 15/15/4
f 14/14/4 13/13/4 16/16/4
s 1
f 17/17/5 18/18/6 19/19/7
f 20/20/8 19/19/7 18/18/6
f 21/21/9 22/22/10 23/23/11
f 22/22/10 21/21/9 24/24/12
f 25/25/13 26/26/14 27/27/15
f 26/26/14 25/25/13 28/28/16
f 29/29/17 30/30/18 31/31/19
f 30/30/18 32/32/20 31/31/19
f 33/33/21 34/34/22 35/35/23
f 36/36/24 35/35/23 34/34/22
s 0
f 37/11/25 38/12/25 39/10/25
f 37/11/25 39/10/25 40/9/25
s 1
f 41/35/26 42/36/27 43/34/28
f 41/35/26 43/34/28 44/33/29
s 0
f 45/37/3 46/38/3 47/39/3
f 46/38/3 45/37/3 48/40/3
f 49/41/30 50/42/30 51/43/30
f 50/42/30 49/41/30 52/44/30
f 53/45/31 54/46/31 55/47/31
f 54/46/31 53/45/31 56/48/31
f 57/41/32 58/43/32 59/48/32
f 57/41/32 59/48/32 60/45/32
f 61/37/25 62/39/25 63/38/25
f 61/37/25 63/38/25 64/40/25
f 65/49/33 66/50/33 68/51/33 67/52/33
f 69/53/33 70/54/33 72/55/33 71/56/33
f 73/57/34 74/58/34 76/59/34 75/60/34
f 77/61/34 78/62/34 80/63/34 79/64/34
o 1laptop
v -27.073721 -0.062406 17.152529
v -27.073721 1.937593 17.152529
v -27.073721 -0.062406 -17.533846
v -27.073721 1.937593 -17.533846
v 27.089212 -0.062406 17.152529
v 27.089212 1.937593 17.152529
v 27.089212 -0.062406 -17.533846
v 27.089212 1.937593 -17.533846
vn -1.0000 -0.0000 -0.0000
vn -0.0000 -0.0000 -1.0000
vn 1.0000 -0.0000 -0.0000
vn -0.0000 -0.0000 1.0000
vn -0.0000 -1.0000 -0.0000
vn -0.0000 1.0000 -0.0000
vt 0.375000 0.000000
vt 0.625000 0.000000
vt 0.625000 0.250000
vt 0.375000 0.250000
vt 0.625000 0.500000
vt 0.375000 0.500000
vt 0.625000 0.750000
vt 0.375000 0.750000
vt 0.625000 1.000000
vt 0.375000 1.000000
vt 0.125000 0.500000
vt 0.125000 0.750000
vt 0.875000 0.500000
vt 0.875000 0.750000
s 0
f 81/65/35 82/66/35 84/67/35 83/68/35
f 83/68/36 84/67/36 88/69/36 87/70/36
f 87/70/37 88/69/37 86/71/37 85/72/37
f 85/72/38 86/71/38 82/73/38 81/74/38
f 83/75/39 87/70/39 85/72/39 81/76/39
f 88/69/40 84/77/40 82/78/40 86/71/40
o 2laptop
v -27.073721 -0.062406 17.152529
v -27.073721 1.937593 17.152529
v -27.073721 -0.062406 -17.533846
v -27.073721 1.937593 -17.533846
v 27.089212 -0.062406 17.152529
v 27.089212 1.937593 17.152529
v 27.089212 -0.062406 -17.533846
v 27.089212 1.937593 -17.533846
vn -1.0000 -0.0000 -0.0000
vn -0.0000 -0.0000 -1.0000
vn 1.0000 -0.0000 -0.0000
vn -0.0000 -0.0000 1.0000
vn -0.0000 -1.0000 -0.0000
vn -0.0000 1.0000 -0.0000
vt 0.375000 0.000000
vt 0.625000 0.000000
vt 0.625000 0.250000
vt 0.375000 0.250000
vt 0.625000 0.500000
vt 0.375000 0.500000
vt 0.625000 0.750000
vt 0.375000 0.750000
vt 0.625000 1.000000
vt 0.375000 1.000000
vt 0.125000 0.500000
vt 0.125000 0.750000
vt 0.875000 0.500000
vt 0.875000 0.750000
s 0
f 89/79/41 90/80/41 92/81/41 91/82/41
f 91/82/42 92/81/42 96/83/42 95/84/42
f 95/84/43 96/83/43 94/85/43 93/86/43
f 93/86/44 94/85/44 90/87/44 89/88/44
f 91/89/45 95/84/45 93/86/45 89/90/45
f 96/83/46 92/91/46 90/92/46 94/85/46
