# Blender v3.6.3 OBJ File: 'untitled.blend'
# www.blender.org
mtllib Lego brick.mtl
o 0_Cube
v 2.035922 2.271726 -3.053883
v 2.029649 -0.002534 -3.173771
v 2.035922 2.271726 3.053883
v 2.029649 -0.002534 3.173771
v -2.035922 2.271726 -3.053883
v -2.030400 -0.002534 -3.173771
v -2.035922 2.271726 3.053883
v -2.030400 -0.002534 3.173771
v -2.274260 -0.002534 -3.411391
v -2.274260 -0.002534 3.411391
v 2.274260 -0.002534 -3.411391
v 2.274260 -0.002534 3.411391
v -2.030400 1.984805 -3.173771
v -2.030400 1.984805 3.173771
v 2.029649 1.984805 -3.173771
v 2.029649 1.984805 3.173771
v 2.274260 2.271726 3.411391
v -2.274260 2.271726 3.411391
v 2.274260 2.271726 -3.411391
v -2.274260 2.271726 -3.411391
v 2.035922 2.751850 3.053883
v -2.035922 2.751850 3.053883
v 2.035922 2.751850 -3.053883
v -2.035922 2.751850 -3.053883
vt 0.852743 0.001036
vt 0.852743 0.236744
vt 0.797157 0.236744
vt 0.797157 0.001036
vt 0.001036 0.264338
vt 0.001036 0.001036
vt 0.264338 0.001036
vt 0.264338 0.264338
vt 0.001036 0.529711
vt 0.001036 0.266410
vt 0.264338 0.266410
vt 0.264338 0.529711
vt 0.761867 0.513443
vt 0.761867 0.758404
vt 0.531783 0.758404
vt 0.531783 0.513443
vt 0.266410 0.264338
vt 0.266410 0.001036
vt 0.529711 0.001036
vt 0.529711 0.264338
vt 0.266410 0.529711
vt 0.266410 0.266410
vt 0.529711 0.266410
vt 0.529711 0.529711
vt 0.250221 0.785915
vt 0.250221 0.540953
vt 0.264338 0.531783
vt 0.264338 0.795085
vt 0.015196 0.785915
vt 0.001036 0.795085
vt 0.015196 0.540953
vt 0.001036 0.531783
vt 0.766809 0.511371
vt 0.531783 0.511371
vt 0.531783 0.266410
vt 0.766809 0.266410
vt 0.496493 0.531783
vt 0.496493 0.776745
vt 0.266410 0.776745
vt 0.266410 0.531783
vt 0.994022 0.513443
vt 0.994022 0.748468
vt 0.763939 0.748468
vt 0.763939 0.513443
vt 0.998964 0.266410
vt 0.998964 0.501435
vt 0.768881 0.501435
vt 0.768881 0.266410
vt 0.781288 0.014833
vt 0.545580 0.014833
vt 0.531783 0.001036
vt 0.795085 0.001036
vt 0.781288 0.250541
vt 0.795085 0.264338
vt 0.545580 0.250541
vt 0.531783 0.264338
vt 0.767491 0.996185
vt 0.531783 0.996185
vt 0.531783 0.760476
vt 0.767491 0.760476
vt 0.910401 0.001036
vt 0.910401 0.236744
vt 0.854815 0.236744
vt 0.854815 0.001036
vt 0.968059 0.001036
vt 0.968059 0.236744
vt 0.912473 0.236744
vt 0.912473 0.001036
vt 0.825149 0.760476
vt 0.825149 0.996185
vt 0.769563 0.996185
vt 0.769563 0.760476
vn 0.0000 0.0000 -1.0000
vn 0.0000 0.0000 1.0000
vn -1.0000 0.0000 0.0000
vn 1.0000 0.0000 0.0000
vn 0.0000 -1.0000 0.0000
vn 0.0000 1.0000 0.0000
usemtl Material
s off
f 1/1/1 5/2/1 24/3/1 23/4/1
f 12/5/2 17/6/2 18/7/2 10/8/2
f 10/9/3 18/10/3 20/11/3 9/12/3
f 8/13/4 6/14/4 13/15/4 14/16/4
f 11/17/4 19/18/4 17/19/4 12/20/4
f 9/21/1 20/22/1 19/23/1 11/24/1
f 6/25/5 8/26/5 10/27/5 9/28/5
f 2/29/5 6/25/5 9/28/5 11/30/5
f 8/26/5 4/31/5 12/32/5 10/27/5
f 4/31/5 2/29/5 11/30/5 12/32/5
f 13/33/5 15/34/5 16/35/5 14/36/5
f 2/37/3 4/38/3 16/39/3 15/40/3
f 6/41/2 2/42/2 15/43/2 13/44/2
f 4/45/1 8/46/1 14/47/1 16/48/1
f 3/49/6 7/50/6 18/51/6 17/52/6
f 1/53/6 3/49/6 17/52/6 19/54/6
f 7/50/6 5/55/6 20/56/6 18/51/6
f 5/55/6 1/53/6 19/54/6 20/56/6
f 23/57/6 24/58/6 22/59/6 21/60/6
f 3/61/4 1/62/4 23/63/4 21/64/4
f 5/65/3 7/66/3 22/67/3 24/68/3
f 7/69/2 3/70/2 21/71/2 22/72/2
o 1_Cube.001
v 1.868272 0.000000 2.926784
v 1.868272 2.000000 2.926784
v 1.868272 0.000000 -2.926784
v 1.868272 2.000000 -2.926784
v 2.027128 0.000000 2.926784
v 2.027128 2.000000 2.926784
v 2.027128 0.000000 -2.926784
v 2.027128 2.000000 -2.926784
vt 0.375000 0.000000
vt 0.625000 0.000000
vt 0.625000 0.250000
vt 0.375000 0.250000
vt 0.625000 0.500000
vt 0.375000 0.500000
vt 0.625000 0.750000
vt 0.375000 0.750000
vt 0.625000 1.000000
vt 0.375000 1.000000
vt 0.125000 0.500000
vt 0.125000 0.750000
vt 0.875000 0.500000
vt 0.875000 0.750000
vn -1.0000 0.0000 0.0000
vn 0.0000 0.0000 -1.0000
vn 1.0000 0.0000 0.0000
vn 0.0000 0.0000 1.0000
vn 0.0000 -1.0000 0.0000
vn 0.0000 1.0000 0.0000
usemtl None
s off
f 25/73/7 26/74/7 28/75/7 27/76/7
f 27/76/8 28/75/8 32/77/8 31/78/8
f 31/78/9 32/77/9 30/79/9 29/80/9
f 29/80/10 30/79/10 26/81/10 25/82/10
f 27/83/11 31/78/11 29/80/11 25/84/11
f 32/77/12 28/85/12 26/86/12 30/79/12
o 2_Cube.002
v -2.021264 0.000000 2.906870
v -2.021264 2.000000 2.906870
v -2.021264 0.000000 -2.906870
v -2.021264 2.000000 -2.906870
v -1.862409 0.000000 2.906870
v -1.862409 2.000000 2.906870
v -1.862409 0.000000 -2.906870
v -1.862409 2.000000 -2.906870
vt 0.375000 0.000000
vt 0.625000 0.000000
vt 0.625000 0.250000
vt 0.375000 0.250000
vt 0.625000 0.500000
vt 0.375000 0.500000
vt 0.625000 0.750000
vt 0.375000 0.750000
vt 0.625000 1.000000
vt 0.375000 1.000000
vt 0.125000 0.500000
vt 0.125000 0.750000
vt 0.875000 0.500000
vt 0.875000 0.750000
vn -1.0000 0.0000 0.0000
vn 0.0000 0.0000 -1.0000
vn 1.0000 0.0000 0.0000
vn 0.0000 0.0000 1.0000
vn 0.0000 -1.0000 0.0000
vn 0.0000 1.0000 0.0000
usemtl None
s off
f 33/87/13 34/88/13 36/89/13 35/90/13
f 35/90/14 36/89/14 40/91/14 39/92/14
f 39/92/15 40/91/15 38/93/15 37/94/15
f 37/94/16 38/93/16 34/95/16 33/96/16
f 35/97/17 39/92/17 37/94/17 33/98/17
f 40/91/18 36/99/18 34/100/18 38/93/18
o 3_Cube.003
v 1.943107 0.000000 -2.818869
v 1.943107 2.000000 -2.818869
v -1.942400 0.000000 -2.818869
v -1.942400 2.000000 -2.818869
v 1.943107 0.000000 -2.977725
v 1.943107 2.000000 -2.977725
v -1.942400 0.000000 -2.977725
v -1.942400 2.000000 -2.977725
vt 0.375000 0.000000
vt 0.625000 0.000000
vt 0.625000 0.250000
vt 0.375000 0.250000
vt 0.625000 0.500000
vt 0.375000 0.500000
vt 0.625000 0.750000
vt 0.375000 0.750000
vt 0.625000 1.000000
vt 0.375000 1.000000
vt 0.125000 0.500000
vt 0.125000 0.750000
vt 0.875000 0.500000
vt 0.875000 0.750000
vn 0.0000 0.0000 1.0000
vn -1.0000 0.0000 0.0000
vn -0.0000 0.0000 -1.0000
vn 1.0000 0.0000 0.0000
vn 0.0000 -1.0000 0.0000
vn 0.0000 1.0000 0.0000
usemtl None
s off
f 41/101/19 42/102/19 44/103/19 43/104/19
f 43/104/20 44/103/20 48/105/20 47/106/20
f 47/106/21 48/105/21 46/107/21 45/108/21
f 45/108/22 46/107/22 42/109/22 41/110/22
f 43/111/23 47/106/23 45/108/23 41/112/23
f 48/105/24 44/113/24 42/114/24 46/107/24
o 4_Cube.004
v 1.943107 0.000000 2.978303
v 1.943107 2.000000 2.978303
v -1.942400 0.000000 2.978303
v -1.942400 2.000000 2.978303
v 1.943107 0.000000 2.819448
v 1.943107 2.000000 2.819448
v -1.942400 0.000000 2.819448
v -1.942400 2.000000 2.819448
vt 0.375000 0.000000
vt 0.625000 0.000000
vt 0.625000 0.250000
vt 0.375000 0.250000
vt 0.625000 0.500000
vt 0.375000 0.500000
vt 0.625000 0.750000
vt 0.375000 0.750000
vt 0.625000 1.000000
vt 0.375000 1.000000
vt 0.125000 0.500000
vt 0.125000 0.750000
vt 0.875000 0.500000
vt 0.875000 0.750000
vn 0.0000 0.0000 1.0000
vn -1.0000 0.0000 0.0000
vn -0.0000 0.0000 -1.0000
vn 1.0000 0.0000 0.0000
vn 0.0000 -1.0000 0.0000
vn 0.0000 1.0000 0.0000
usemtl None
s off
f 49/115/25 50/116/25 52/117/25 51/118/25
f 51/118/26 52/117/26 56/119/26 55/120/26
f 55/120/27 56/119/27 54/121/27 53/122/27
f 53/122/28 54/121/28 50/123/28 49/124/28
f 51/125/29 55/120/29 53/122/29 49/126/29
f 56/119/30 52/127/30 50/128/30 54/121/30
o 5_Cube.005
v -1.696334 2.074051 2.673702
v -1.696334 2.369266 2.673702
v -1.696334 2.074051 -2.673702
v -1.696334 2.369266 -2.673702
v 1.701571 2.074051 2.673702
v 1.701571 2.369266 2.673702
v 1.701571 2.074051 -2.673702
v 1.701571 2.369266 -2.673702
vt 0.375000 0.000000
vt 0.625000 0.000000
vt 0.625000 0.250000
vt 0.375000 0.250000
vt 0.625000 0.500000
vt 0.375000 0.500000
vt 0.625000 0.750000
vt 0.375000 0.750000
vt 0.625000 1.000000
vt 0.375000 1.000000
vt 0.125000 0.500000
vt 0.125000 0.750000
vt 0.875000 0.500000
vt 0.875000 0.750000
vn -1.0000 0.0000 0.0000
vn 0.0000 0.0000 -1.0000
vn 1.0000 0.0000 0.0000
vn 0.0000 0.0000 1.0000
vn 0.0000 -1.0000 0.0000
vn 0.0000 1.0000 0.0000
usemtl None
s off
f 57/129/31 58/130/31 60/131/31 59/132/31
f 59/132/32 60/131/32 64/133/32 63/134/32
f 63/134/33 64/133/33 62/135/33 61/136/33
f 61/136/34 62/135/34 58/137/34 57/138/34
f 59/139/35 63/134/35 61/136/35 57/140/35
f 64/133/36 60/141/36 58/142/36 62/135/36
