# Blender 3.6.1
# www.blender.org
mtllib obamid.mtl
o 0
v -20.000000 -6.000000 20.000000
v -20.000000 -6.000000 -20.000000
v 0.000000 24.000000 0.000000
v 20.000000 -6.000000 20.000000
v 20.000000 -6.000000 -20.000000
vn -0.8321 0.5547 -0.0000
vn -0.0000 -1.0000 -0.0000
vn -0.0000 0.5547 -0.8321
vn 0.8321 0.5547 -0.0000
vn -0.0000 0.5547 0.8321
vt 0.628906 0.402344
vt 0.796875 0.695312
vt 0.457031 0.695312
vt 0.625000 0.394531
vt 0.289062 0.394531
vt 0.289062 0.058594
vt 0.625000 0.058594
vt 0.453125 0.687500
vt 0.289062 0.398438
vt 0.625000 0.398438
vt 0.453125 0.703125
vt 0.625000 0.992188
vt 0.289062 0.992188
vt 0.625000 0.984375
s 0
usemtl Material
f 2/1/1 1/2/1 3/3/1
f 2/4/2 5/5/2 4/6/2 1/7/2
f 3/8/3 5/9/3 2/10/3
f 3/11/4 4/12/4 5/13/4
f 3/3/5 1/2/5 4/14/5
o 1
v -20.000000 -6.000000 20.000000
v -20.000000 -6.000000 -20.000000
v 0.000000 24.000000 0.000000
v 20.000000 -6.000000 20.000000
v 20.000000 -6.000000 -20.000000
vn -0.8321 0.5547 -0.0000
vn -0.0000 -1.0000 -0.0000
vn -0.0000 0.5547 -0.8321
vn 0.8321 0.5547 -0.0000
vn -0.0000 0.5547 0.8321
vt 0.628906 0.402344
vt 0.796875 0.695312
vt 0.457031 0.695312
vt 0.625000 0.394531
vt 0.289062 0.394531
vt 0.289062 0.058594
vt 0.625000 0.058594
vt 0.453125 0.687500
vt 0.289062 0.398438
vt 0.625000 0.398438
vt 0.453125 0.703125
vt 0.625000 0.992188
vt 0.289062 0.992188
vt 0.625000 0.984375
s 0
f 7/15/6 6/16/6 8/17/6
f 7/18/7 10/19/7 9/20/7 6/21/7
f 8/22/8 10/23/8 7/24/8
f 8/25/9 9/26/9 10/27/9
f 8/17/10 6/16/10 9/28/10
