# Blender 3.6.1
# www.blender.org
mtllib orange.mtl
o 0
v -5.000000 -5.000000 -5.000000
v -5.000000 5.000001 -5.000000
v 5.000000 -5.000000 -5.000000
v 5.000000 5.000000 -5.000000
v -5.000000 -5.000000 5.000000
v -5.000000 5.000000 5.000000
v 5.000000 -5.000000 5.000000
v 5.000000 5.000000 5.000000
v 2.966500 -5.729328 -5.729328
v -0.000000 -6.095679 -6.095679
v -2.966500 -5.729328 -5.729328
v -5.729328 -2.966500 -5.729329
v -6.095678 0.000000 -6.095679
v -5.729328 2.966501 -5.729329
v -2.966499 5.729328 -5.729328
v 0.000001 6.095679 -6.095679
v 2.966501 5.729328 -5.729328
v 5.729329 2.966500 -5.729328
v 6.095679 -0.000000 -6.095678
v 5.729328 -2.966501 -5.729328
v 5.729328 -5.729329 2.966500
v 6.095678 -6.095679 0.000000
v 5.729328 -5.729329 -2.966500
v 5.729329 5.729328 -2.966500
v 6.095679 6.095678 0.000000
v 5.729329 5.729328 2.966500
v 5.729328 2.966500 5.729329
v 6.095678 -0.000000 6.095679
v 5.729328 -2.966501 5.729329
v -2.966501 -5.729328 5.729328
v -0.000001 -6.095679 6.095679
v 2.966499 -5.729328 5.729328
v 2.966499 5.729328 5.729328
v 0.000000 6.095679 6.095679
v -2.966500 5.729328 5.729328
v -5.729328 2.966501 5.729328
v -6.095679 0.000000 6.095678
v -5.729329 -2.966500 5.729327
v -5.729329 -5.729328 -2.966500
v -6.095679 -6.095678 -0.000000
v -5.729329 -5.729328 2.966499
v -5.729328 5.729329 2.966499
v -6.095678 6.095679 -0.000000
v -5.729328 5.729329 -2.966500
v -3.161571 -3.161571 -7.289899
v -3.331405 0.000000 -7.818288
v -3.161571 3.161571 -7.289900
v 0.000000 -3.331405 -7.818288
v 0.000000 0.000000 -8.395062
v 0.000001 3.331405 -7.818288
v 3.161571 -3.161571 -7.289900
v 3.331405 -0.000000 -7.818288
v 3.161572 3.161571 -7.289899
v 7.289899 -3.161572 -3.161571
v 7.818288 -0.000001 -3.331405
v 7.289900 3.161571 -3.161571
v 7.818287 -3.331405 0.000000
v 8.395062 -0.000001 0.000000
v 7.818288 3.331404 0.000000
v 7.289899 -3.161572 3.161571
v 7.818288 -0.000001 3.331405
v 7.289899 3.161571 3.161571
v 3.161571 -3.161571 7.289899
v 3.331405 -0.000000 7.818288
v 3.161571 3.161571 7.289900
v -0.000001 -3.331405 7.818288
v -0.000000 0.000000 8.395062
v -0.000000 3.331405 7.818288
v -3.161572 -3.161571 7.289900
v -3.331405 0.000000 7.818288
v -3.161571 3.161571 7.289899
v -7.289900 -3.161571 3.161571
v -7.818288 0.000001 3.331405
v -7.289900 3.161572 3.161571
v -7.818288 -3.331404 -0.000000
v -8.395062 0.000001 -0.000000
v -7.818287 3.331405 -0.000000
v -7.289900 -3.161571 -3.161571
v -7.818288 0.000001 -3.331405
v -7.289898 3.161572 -3.161571
v 3.161571 -7.289900 -3.161571
v 3.331404 -7.818288 0.000000
v 3.161570 -7.289900 3.161571
v -0.000000 -7.818288 -3.331405
v -0.000001 -8.395062 -0.000000
v -0.000001 -7.818288 3.331405
v -3.161572 -7.289899 -3.161571
v -3.331405 -7.818287 -0.000000
v -3.161572 -7.289898 3.161571
v 3.161572 7.289898 3.161571
v 3.331405 7.818287 0.000000
v 3.161572 7.289899 -3.161571
v 0.000000 7.818288 3.331405
v 0.000001 8.395062 0.000000
v 0.000001 7.818288 -3.331405
v -3.161571 7.289900 3.161571
v -3.331404 7.818288 -0.000000
v -3.161570 7.289899 -3.161571
vn -0.1697 -0.1697 -0.9708
vn -0.1697 0.1697 -0.9708
vn 0.1697 -0.1697 -0.9708
vn 0.1697 0.1697 -0.9708
vn -0.4674 -0.4674 -0.7504
vn -0.5213 -0.1678 -0.8367
vn -0.5213 0.1678 -0.8367
vn -0.4674 0.4674 -0.7504
vn -0.1678 0.5213 -0.8367
vn 0.1678 0.5213 -0.8367
vn 0.4674 0.4674 -0.7504
vn 0.5213 0.1678 -0.8367
vn 0.5213 -0.1678 -0.8367
vn 0.4674 -0.4674 -0.7504
vn 0.1678 -0.5213 -0.8367
vn -0.1678 -0.5213 -0.8367
vn 0.9708 -0.1697 -0.1697
vn 0.9708 0.1697 -0.1697
vn 0.9708 -0.1697 0.1697
vn 0.9708 0.1697 0.1697
vn 0.7504 -0.4674 -0.4674
vn 0.8367 -0.1678 -0.5213
vn 0.8367 0.1678 -0.5213
vn 0.7504 0.4674 -0.4674
vn 0.8367 0.5213 -0.1678
vn 0.8367 0.5213 0.1678
vn 0.7504 0.4674 0.4674
vn 0.8367 0.1678 0.5213
vn 0.8367 -0.1678 0.5213
vn 0.7504 -0.4674 0.4674
vn 0.8367 -0.5213 0.1678
vn 0.8367 -0.5213 -0.1678
vn 0.1697 -0.1697 0.9708
vn 0.1697 0.1697 0.9708
vn -0.1697 -0.1697 0.9708
vn -0.1697 0.1697 0.9708
vn 0.4674 -0.4674 0.7504
vn 0.5213 -0.1678 0.8367
vn 0.5213 0.1678 0.8367
vn 0.4674 0.4674 0.7504
vn 0.1678 0.5213 0.8367
vn -0.1678 0.5213 0.8367
vn -0.4674 0.4674 0.7504
vn -0.5213 0.1678 0.8367
vn -0.5213 -0.1678 0.8367
vn -0.4674 -0.4674 0.7504
vn -0.1678 -0.5213 0.8367
vn 0.1678 -0.5213 0.8367
vn -0.9708 -0.1697 0.1697
vn -0.9708 0.1697 0.1697
vn -0.9708 -0.1697 -0.1697
vn -0.9708 0.1697 -0.1697
vn -0.7504 -0.4674 0.4674
vn -0.8367 -0.1678 0.5213
vn -0.8367 0.1678 0.5213
vn -0.7504 0.4674 0.4674
vn -0.8367 0.5213 0.1678
vn -0.8367 0.5213 -0.1678
vn -0.7504 0.4674 -0.4674
vn -0.8367 0.1678 -0.5213
vn -0.8367 -0.1678 -0.5213
vn -0.7504 -0.4674 -0.4674
vn -0.8367 -0.5213 -0.1678
vn -0.8367 -0.5213 0.1678
vn 0.1697 -0.9708 -0.1697
vn 0.1697 -0.9708 0.1697
vn -0.1697 -0.9708 -0.1697
vn -0.1697 -0.9708 0.1697
vn 0.4674 -0.7504 -0.4674
vn 0.5213 -0.8367 -0.1678
vn 0.5213 -0.8367 0.1678
vn 0.4674 -0.7504 0.4674
vn 0.1678 -0.8367 0.5213
vn -0.1678 -0.8367 0.5213
vn -0.4674 -0.7504 0.4674
vn -0.5213 -0.8367 0.1678
vn -0.5213 -0.8367 -0.1678
vn -0.4674 -0.7504 -0.4674
vn -0.1678 -0.8367 -0.5213
vn 0.1678 -0.8367 -0.5213
vn 0.1697 0.9708 0.1697
vn 0.1697 0.9708 -0.1697
vn -0.1697 0.9708 0.1697
vn -0.1697 0.9708 -0.1697
vn 0.4674 0.7504 0.4674
vn 0.5213 0.8367 0.1678
vn 0.5213 0.8367 -0.1678
vn 0.4674 0.7504 -0.4674
vn 0.1678 0.8367 -0.5213
vn -0.1678 0.8367 -0.5213
vn -0.4674 0.7504 -0.4674
vn -0.5213 0.8367 -0.1678
vn -0.5213 0.8367 0.1678
vn -0.4674 0.7504 0.4674
vn -0.1678 0.8367 0.5213
vn 0.1678 0.8367 0.5213
vt 0.015625 0.015625
vt 0.031250 0.015625
vt 0.031250 0.031250
vt 0.015625 0.031250
vt 0.046875 0.015625
vt 0.046875 0.031250
vt 0.031250 0.046875
vt 0.015625 0.046875
vt 0.046875 0.046875
vt 0.000000 0.000000
vt 0.015625 0.000000
vt 0.000000 0.015625
vt 0.031250 0.000000
vt 0.046875 0.000000
vt 0.062500 0.000000
vt 0.062500 0.015625
vt 0.062500 0.031250
vt 0.062500 0.046875
vt 0.062500 0.062500
vt 0.046875 0.062500
vt 0.031250 0.062500
vt 0.015625 0.062500
vt 0.000000 0.046875
vt 0.000000 0.062500
vt 0.000000 0.031250
vt 0.750000 0.250000
vt 0.750000 0.500000
vt 0.500000 0.500000
vt 0.500000 0.250000
vt 0.750000 0.750000
vt 0.500000 0.750000
vt 0.250000 0.500000
vt 0.250000 0.250000
vt 0.250000 0.750000
vt 0.125000 0.000000
vt 0.125000 0.031250
vt 0.093750 0.031250
vt 0.093750 0.000000
vt 0.125000 0.062500
vt 0.093750 0.062500
vt 0.125000 0.093750
vt 0.093750 0.093750
vt 0.125000 0.125000
vt 0.093750 0.125000
vt 0.062500 0.125000
vt 0.062500 0.093750
vt 0.031250 0.125000
vt 0.031250 0.093750
vt 0.000000 0.125000
vt 0.000000 0.093750
s 0
usemtl Material.001
f 45/1/1 46/2/1 49/3/1 48/4/1
f 46/2/2 47/5/2 50/6/2 49/3/2
f 48/4/3 49/3/3 52/7/3 51/8/3
f 49/3/4 50/6/4 53/9/4 52/7/4
f 1/10/5 12/11/5 45/1/5 11/12/5
f 12/11/6 13/13/6 46/2/6 45/1/6
f 13/13/7 14/14/7 47/5/7 46/2/7
f 14/14/8 2/15/8 15/16/8 47/5/8
f 47/5/9 15/16/9 16/17/9 50/6/9
f 50/6/10 16/17/10 17/18/10 53/9/10
f 53/9/11 17/18/11 4/19/11 18/20/11
f 52/7/12 53/9/12 18/20/12 19/21/12
f 51/8/13 52/7/13 19/21/13 20/22/13
f 9/23/14 51/8/14 20/22/14 3/24/14
f 10/25/15 48/4/15 51/8/15 9/23/15
f 11/12/16 45/1/16 48/4/16 10/25/16
f 54/1/17 55/2/17 58/3/17 57/4/17
f 55/2/18 56/5/18 59/6/18 58/3/18
f 57/4/19 58/3/19 61/7/19 60/8/19
f 58/3/20 59/6/20 62/9/20 61/7/20
f 3/10/21 20/11/21 54/1/21 23/12/21
f 20/11/22 19/13/22 55/2/22 54/1/22
f 19/13/23 18/14/23 56/5/23 55/2/23
f 18/14/24 4/15/24 24/16/24 56/5/24
f 56/5/25 24/16/25 25/17/25 59/6/25
f 59/6/26 25/17/26 26/18/26 62/9/26
f 62/9/27 26/18/27 8/19/27 27/20/27
f 61/7/28 62/9/28 27/20/28 28/21/28
f 60/8/29 61/7/29 28/21/29 29/22/29
f 21/23/30 60/8/30 29/22/30 7/24/30
f 22/25/31 57/4/31 60/8/31 21/23/31
f 23/12/32 54/1/32 57/4/32 22/25/32
f 63/26/33 64/27/33 67/28/33 66/29/33
f 64/27/34 65/30/34 68/31/34 67/28/34
f 66/29/35 67/28/35 70/32/35 69/33/35
f 67/28/36 68/31/36 71/34/36 70/32/36
f 7/35/37 29/36/37 63/37/37 32/38/37
f 29/36/38 28/39/38 64/40/38 63/37/38
f 28/39/39 27/41/39 65/42/39 64/40/39
f 27/41/40 8/43/40 33/44/40 65/42/40
f 65/42/41 33/44/41 34/45/41 68/46/41
f 68/46/42 34/45/42 35/47/42 71/48/42
f 71/48/43 35/47/43 6/49/43 36/50/43
f 70/21/44 71/48/44 36/50/44 37/24/44
f 69/3/45 70/21/45 37/24/45 38/25/45
f 30/13/46 69/3/46 38/25/46 5/10/46
f 31/15/47 66/17/47 69/3/47 30/13/47
f 32/38/48 63/37/48 66/17/48 31/15/48
f 72/1/49 73/2/49 76/3/49 75/4/49
f 73/2/50 74/5/50 77/6/50 76/3/50
f 75/4/51 76/3/51 79/7/51 78/8/51
f 76/3/52 77/6/52 80/9/52 79/7/52
f 5/10/53 38/11/53 72/1/53 41/12/53
f 38/11/54 37/13/54 73/2/54 72/1/54
f 37/13/55 36/14/55 74/5/55 73/2/55
f 36/14/56 6/15/56 42/16/56 74/5/56
f 74/5/57 42/16/57 43/17/57 77/6/57
f 77/6/58 43/17/58 44/18/58 80/9/58
f 80/9/59 44/18/59 2/19/59 14/20/59
f 79/7/60 80/9/60 14/20/60 13/21/60
f 78/8/61 79/7/61 13/21/61 12/22/61
f 39/23/62 78/8/62 12/22/62 1/24/62
f 40/25/63 75/4/63 78/8/63 39/23/63
f 41/12/64 72/1/64 75/4/64 40/25/64
f 81/1/65 82/2/65 85/3/65 84/4/65
f 82/2/66 83/5/66 86/6/66 85/3/66
f 84/4/67 85/3/67 88/7/67 87/8/67
f 85/3/68 86/6/68 89/9/68 88/7/68
f 3/10/69 23/11/69 81/1/69 9/12/69
f 23/11/70 22/13/70 82/2/70 81/1/70
f 22/13/71 21/14/71 83/5/71 82/2/71
f 21/14/72 7/15/72 32/16/72 83/5/72
f 83/5/73 32/16/73 31/17/73 86/6/73
f 86/6/74 31/17/74 30/18/74 89/9/74
f 89/9/75 30/18/75 5/19/75 41/20/75
f 88/7/76 89/9/76 41/20/76 40/21/76
f 87/8/77 88/7/77 40/21/77 39/22/77
f 11/23/78 87/8/78 39/22/78 1/24/78
f 10/25/79 84/4/79 87/8/79 11/23/79
f 9/12/80 81/1/80 84/4/80 10/25/80
f 90/1/81 91/2/81 94/3/81 93/4/81
f 91/2/82 92/5/82 95/6/82 94/3/82
f 93/4/83 94/3/83 97/7/83 96/8/83
f 94/3/84 95/6/84 98/9/84 97/7/84
f 8/10/85 26/11/85 90/1/85 33/12/85
f 26/11/86 25/13/86 91/2/86 90/1/86
f 25/13/87 24/14/87 92/5/87 91/2/87
f 24/14/88 4/15/88 17/16/88 92/5/88
f 92/5/89 17/16/89 16/17/89 95/6/89
f 95/6/90 16/17/90 15/18/90 98/9/90
f 98/9/91 15/18/91 2/19/91 44/20/91
f 97/7/92 98/9/92 44/20/92 43/21/92
f 96/8/93 97/7/93 43/21/93 42/22/93
f 35/23/94 96/8/94 42/22/94 6/24/94
f 34/25/95 93/4/95 96/8/95 35/23/95
f 33/12/96 90/1/96 93/4/96 34/25/96
o 1
v -5.000000 -5.000000 5.000000
v -5.000000 5.000001 5.000000
v -5.000000 -5.000000 -5.000000
v -5.000000 5.000000 -5.000000
v 5.000000 -5.000000 5.000000
v 5.000000 5.000000 5.000000
v 5.000000 -5.000000 -5.000000
v 5.000000 5.000000 -5.000000
v -5.729328 -5.729328 -2.966500
v -6.095679 -6.095679 0.000000
v -5.729328 -5.729328 2.966501
v -5.729328 -2.966500 5.729328
v -6.095679 0.000000 6.095679
v -5.729328 2.966501 5.729328
v -5.729328 5.729328 2.966500
v -6.095679 6.095679 -0.000000
v -5.729328 5.729328 -2.966501
v -5.729328 2.966500 -5.729328
v -6.095679 -0.000000 -6.095679
v -5.729328 -2.966501 -5.729328
v 2.966500 -5.729329 -5.729328
v 0.000000 -6.095679 -6.095678
v -2.966500 -5.729329 -5.729328
v -2.966500 5.729328 -5.729329
v 0.000000 6.095678 -6.095679
v 2.966500 5.729328 -5.729329
v 5.729328 2.966500 -5.729328
v 6.095679 -0.000000 -6.095679
v 5.729328 -2.966501 -5.729328
v 5.729328 -5.729328 2.966501
v 6.095679 -6.095679 0.000000
v 5.729328 -5.729328 -2.966500
v 5.729328 5.729328 -2.966500
v 6.095679 6.095679 -0.000000
v 5.729328 5.729328 2.966500
v 5.729328 2.966501 5.729328
v 6.095679 0.000000 6.095679
v 5.729327 -2.966500 5.729328
v -2.966500 -5.729328 5.729329
v 0.000000 -6.095678 6.095679
v 2.966499 -5.729328 5.729329
v 2.966499 5.729329 5.729328
v 0.000000 6.095679 6.095678
v -2.966500 5.729329 5.729328
v -7.289899 -3.161571 3.161571
v -7.818288 0.000000 3.331405
v -7.289900 3.161571 3.161571
v -7.818288 -3.331405 0.000000
v -8.395062 0.000000 0.000000
v -7.818288 3.331405 -0.000000
v -7.289900 -3.161571 -3.161571
v -7.818288 -0.000000 -3.331405
v -7.289899 3.161571 -3.161571
v -3.161571 -3.161572 -7.289898
v -3.331405 -0.000001 -7.818288
v -3.161571 3.161571 -7.289900
v 0.000000 -3.331405 -7.818287
v 0.000000 -0.000001 -8.395062
v 0.000000 3.331404 -7.818288
v 3.161571 -3.161572 -7.289899
v 3.331405 -0.000001 -7.818288
v 3.161571 3.161571 -7.289899
v 7.289899 -3.161571 -3.161571
v 7.818288 -0.000000 -3.331405
v 7.289900 3.161571 -3.161571
v 7.818288 -3.331405 0.000000
v 8.395062 0.000000 0.000000
v 7.818288 3.331405 -0.000000
v 7.289900 -3.161571 3.161571
v 7.818288 0.000000 3.331405
v 7.289899 3.161571 3.161571
v 3.161571 -3.161571 7.289900
v 3.331405 0.000001 7.818288
v 3.161571 3.161572 7.289899
v 0.000000 -3.331404 7.818288
v 0.000000 0.000001 8.395062
v 0.000000 3.331405 7.818287
v -3.161571 -3.161571 7.289900
v -3.331405 0.000001 7.818288
v -3.161571 3.161572 7.289898
v -3.161571 -7.289900 -3.161571
v 0.000000 -7.818288 -3.331404
v 3.161571 -7.289900 -3.161571
v -3.331405 -7.818288 0.000001
v 0.000000 -8.395062 0.000001
v 3.331405 -7.818288 0.000001
v -3.161571 -7.289899 3.161572
v 0.000000 -7.818287 3.331405
v 3.161571 -7.289898 3.161572
v 3.161571 7.289898 -3.161572
v 0.000000 7.818287 -3.331405
v -3.161571 7.289899 -3.161572
v 3.331405 7.818288 -0.000001
v 0.000000 8.395062 -0.000001
v -3.331405 7.818288 -0.000001
v 3.161571 7.289900 3.161571
v 0.000000 7.818288 3.331404
v -3.161571 7.289899 3.161571
vn -0.9708 -0.1697 0.1697
vn -0.9708 0.1697 0.1697
vn -0.9708 -0.1697 -0.1697
vn -0.9708 0.1697 -0.1697
vn -0.7504 -0.4674 0.4674
vn -0.8367 -0.1678 0.5213
vn -0.8367 0.1678 0.5213
vn -0.7504 0.4674 0.4674
vn -0.8367 0.5213 0.1678
vn -0.8367 0.5213 -0.1678
vn -0.7504 0.4674 -0.4674
vn -0.8367 0.1678 -0.5213
vn -0.8367 -0.1678 -0.5213
vn -0.7504 -0.4674 -0.4674
vn -0.8367 -0.5213 -0.1678
vn -0.8367 -0.5213 0.1678
vn -0.1697 -0.1697 -0.9708
vn -0.1697 0.1697 -0.9708
vn 0.1697 -0.1697 -0.9708
vn 0.1697 0.1697 -0.9708
vn -0.4674 -0.4674 -0.7504
vn -0.5213 -0.1678 -0.8367
vn -0.5213 0.1678 -0.8367
vn -0.4674 0.4674 -0.7504
vn -0.1678 0.5213 -0.8367
vn 0.1678 0.5213 -0.8367
vn 0.4674 0.4674 -0.7504
vn 0.5213 0.1678 -0.8367
vn 0.5213 -0.1678 -0.8367
vn 0.4674 -0.4674 -0.7504
vn 0.1678 -0.5213 -0.8367
vn -0.1678 -0.5213 -0.8367
vn 0.9708 -0.1697 -0.1697
vn 0.9708 0.1697 -0.1697
vn 0.9708 -0.1697 0.1697
vn 0.9708 0.1697 0.1697
vn 0.7504 -0.4674 -0.4674
vn 0.8367 -0.1678 -0.5213
vn 0.8367 0.1678 -0.5213
vn 0.7504 0.4674 -0.4674
vn 0.8367 0.5213 -0.1678
vn 0.8367 0.5213 0.1678
vn 0.7504 0.4674 0.4674
vn 0.8367 0.1678 0.5213
vn 0.8367 -0.1678 0.5213
vn 0.7504 -0.4674 0.4674
vn 0.8367 -0.5213 0.1678
vn 0.8367 -0.5213 -0.1678
vn 0.1697 -0.1697 0.9708
vn 0.1697 0.1697 0.9708
vn -0.1697 -0.1697 0.9708
vn -0.1697 0.1697 0.9708
vn 0.4674 -0.4674 0.7504
vn 0.5213 -0.1678 0.8367
vn 0.5213 0.1678 0.8367
vn 0.4674 0.4674 0.7504
vn 0.1678 0.5213 0.8367
vn -0.1678 0.5213 0.8367
vn -0.4674 0.4674 0.7504
vn -0.5213 0.1678 0.8367
vn -0.5213 -0.1678 0.8367
vn -0.4674 -0.4674 0.7504
vn -0.1678 -0.5213 0.8367
vn 0.1678 -0.5213 0.8367
vn -0.1697 -0.9708 -0.1697
vn 0.1697 -0.9708 -0.1697
vn -0.1697 -0.9708 0.1697
vn 0.1697 -0.9708 0.1697
vn -0.4674 -0.7504 -0.4674
vn -0.1678 -0.8367 -0.5213
vn 0.1678 -0.8367 -0.5213
vn 0.4674 -0.7504 -0.4674
vn 0.5213 -0.8367 -0.1678
vn 0.5213 -0.8367 0.1678
vn 0.4674 -0.7504 0.4674
vn 0.1678 -0.8367 0.5213
vn -0.1678 -0.8367 0.5213
vn -0.4674 -0.7504 0.4674
vn -0.5213 -0.8367 0.1678
vn -0.5213 -0.8367 -0.1678
vn 0.1697 0.9708 -0.1697
vn -0.1697 0.9708 -0.1697
vn 0.1697 0.9708 0.1697
vn -0.1697 0.9708 0.1697
vn 0.4674 0.7504 -0.4674
vn 0.1678 0.8367 -0.5213
vn -0.1678 0.8367 -0.5213
vn -0.4674 0.7504 -0.4674
vn -0.5213 0.8367 -0.1678
vn -0.5213 0.8367 0.1678
vn -0.4674 0.7504 0.4674
vn -0.1678 0.8367 0.5213
vn 0.1678 0.8367 0.5213
vn 0.4674 0.7504 0.4674
vn 0.5213 0.8367 0.1678
vn 0.5213 0.8367 -0.1678
vt 0.437500 0.062500
vt 0.500000 0.062500
vt 0.500000 0.125000
vt 0.437500 0.125000
vt 0.562500 0.062500
vt 0.562500 0.125000
vt 0.500000 0.187500
vt 0.437500 0.187500
vt 0.562500 0.187500
vt 0.375000 0.000000
vt 0.437500 0.000000
vt 0.375000 0.062500
vt 0.500000 0.000000
vt 0.562500 0.000000
vt 0.625000 0.000000
vt 0.625000 0.062500
vt 0.625000 0.125000
vt 0.625000 0.187500
vt 0.625000 0.250000
vt 0.562500 0.250000
vt 0.500000 0.250000
vt 0.437500 0.250000
vt 0.375000 0.187500
vt 0.375000 0.250000
vt 0.375000 0.125000
vt 0.437500 0.312500
vt 0.500000 0.312500
vt 0.500000 0.375000
vt 0.437500 0.375000
vt 0.562500 0.312500
vt 0.562500 0.375000
vt 0.500000 0.437500
vt 0.437500 0.437500
vt 0.562500 0.437500
vt 0.375000 0.312500
vt 0.625000 0.312500
vt 0.625000 0.375000
vt 0.625000 0.437500
vt 0.625000 0.500000
vt 0.562500 0.500000
vt 0.500000 0.500000
vt 0.437500 0.500000
vt 0.375000 0.437500
vt 0.375000 0.500000
vt 0.375000 0.375000
vt 0.437500 0.562500
vt 0.500000 0.562500
vt 0.500000 0.625000
vt 0.437500 0.625000
vt 0.562500 0.562500
vt 0.562500 0.625000
vt 0.500000 0.687500
vt 0.437500 0.687500
vt 0.562500 0.687500
vt 0.375000 0.562500
vt 0.625000 0.562500
vt 0.625000 0.625000
vt 0.625000 0.687500
vt 0.625000 0.750000
vt 0.562500 0.750000
vt 0.500000 0.750000
vt 0.437500 0.750000
vt 0.375000 0.687500
vt 0.375000 0.750000
vt 0.375000 0.625000
vt 0.437500 0.812500
vt 0.500000 0.812500
vt 0.500000 0.875000
vt 0.437500 0.875000
vt 0.562500 0.812500
vt 0.562500 0.875000
vt 0.500000 0.937500
vt 0.437500 0.937500
vt 0.562500 0.937500
vt 0.375000 0.812500
vt 0.625000 0.812500
vt 0.625000 0.875000
vt 0.625000 0.937500
vt 0.625000 1.000000
vt 0.562500 1.000000
vt 0.500000 1.000000
vt 0.437500 1.000000
vt 0.375000 0.937500
vt 0.375000 1.000000
vt 0.375000 0.875000
vt 0.187500 0.562500
vt 0.250000 0.562500
vt 0.250000 0.625000
vt 0.187500 0.625000
vt 0.312500 0.562500
vt 0.312500 0.625000
vt 0.250000 0.687500
vt 0.187500 0.687500
vt 0.312500 0.687500
vt 0.125000 0.500000
vt 0.187500 0.500000
vt 0.125000 0.562500
vt 0.250000 0.500000
vt 0.312500 0.500000
vt 0.312500 0.750000
vt 0.250000 0.750000
vt 0.187500 0.750000
vt 0.125000 0.687500
vt 0.125000 0.750000
vt 0.125000 0.625000
vt 0.687500 0.562500
vt 0.750000 0.562500
vt 0.750000 0.625000
vt 0.687500 0.625000
vt 0.812500 0.562500
vt 0.812500 0.625000
vt 0.750000 0.687500
vt 0.687500 0.687500
vt 0.812500 0.687500
vt 0.687500 0.500000
vt 0.750000 0.500000
vt 0.812500 0.500000
vt 0.875000 0.500000
vt 0.875000 0.562500
vt 0.875000 0.625000
vt 0.875000 0.687500
vt 0.875000 0.750000
vt 0.812500 0.750000
vt 0.750000 0.750000
vt 0.687500 0.750000
s 0
usemtl Material.001
f 143/51/97 144/52/97 147/53/97 146/54/97
f 144/52/98 145/55/98 148/56/98 147/53/98
f 146/54/99 147/53/99 150/57/99 149/58/99
f 147/53/100 148/56/100 151/59/100 150/57/100
f 99/60/101 110/61/101 143/51/101 109/62/101
f 110/61/102 111/63/102 144/52/102 143/51/102
f 111/63/103 112/64/103 145/55/103 144/52/103
f 112/64/104 100/65/104 113/66/104 145/55/104
f 145/55/105 113/66/105 114/67/105 148/56/105
f 148/56/106 114/67/106 115/68/106 151/59/106
f 151/59/107 115/68/107 102/69/107 116/70/107
f 150/57/108 151/59/108 116/70/108 117/71/108
f 149/58/109 150/57/109 117/71/109 118/72/109
f 107/73/110 149/58/110 118/72/110 101/74/110
f 108/75/111 146/54/111 149/58/111 107/73/111
f 109/62/112 143/51/112 146/54/112 108/75/112
f 152/76/113 153/77/113 156/78/113 155/79/113
f 153/77/114 154/80/114 157/81/114 156/78/114
f 155/79/115 156/78/115 159/82/115 158/83/115
f 156/78/116 157/81/116 160/84/116 159/82/116
f 101/74/117 118/72/117 152/76/117 121/85/117
f 118/72/118 117/71/118 153/77/118 152/76/118
f 117/71/119 116/70/119 154/80/119 153/77/119
f 116/70/120 102/69/120 122/86/120 154/80/120
f 154/80/121 122/86/121 123/87/121 157/81/121
f 157/81/122 123/87/122 124/88/122 160/84/122
f 160/84/123 124/88/123 106/89/123 125/90/123
f 159/82/124 160/84/124 125/90/124 126/91/124
f 158/83/125 159/82/125 126/91/125 127/92/125
f 119/93/126 158/83/126 127/92/126 105/94/126
f 120/95/127 155/79/127 158/83/127 119/93/127
f 121/85/128 152/76/128 155/79/128 120/95/128
f 161/96/129 162/97/129 165/98/129 164/99/129
f 162/97/130 163/100/130 166/101/130 165/98/130
f 164/99/131 165/98/131 168/102/131 167/103/131
f 165/98/132 166/101/132 169/104/132 168/102/132
f 105/94/133 127/92/133 161/96/133 130/105/133
f 127/92/134 126/91/134 162/97/134 161/96/134
f 126/91/135 125/90/135 163/100/135 162/97/135
f 125/90/136 106/89/136 131/106/136 163/100/136
f 163/100/137 131/106/137 132/107/137 166/101/137
f 166/101/138 132/107/138 133/108/138 169/104/138
f 169/104/139 133/108/139 104/109/139 134/110/139
f 168/102/140 169/104/140 134/110/140 135/111/140
f 167/103/141 168/102/141 135/111/141 136/112/141
f 128/113/142 167/103/142 136/112/142 103/114/142
f 129/115/143 164/99/143 167/103/143 128/113/143
f 130/105/144 161/96/144 164/99/144 129/115/144
f 170/116/145 171/117/145 174/118/145 173/119/145
f 171/117/146 172/120/146 175/121/146 174/118/146
f 173/119/147 174/118/147 177/122/147 176/123/147
f 174/118/148 175/121/148 178/124/148 177/122/148
f 103/114/149 136/112/149 170/116/149 139/125/149
f 136/112/150 135/111/150 171/117/150 170/116/150
f 135/111/151 134/110/151 172/120/151 171/117/151
f 134/110/152 104/109/152 140/126/152 172/120/152
f 172/120/153 140/126/153 141/127/153 175/121/153
f 175/121/154 141/127/154 142/128/154 178/124/154
f 178/124/155 142/128/155 100/129/155 112/130/155
f 177/122/156 178/124/156 112/130/156 111/131/156
f 176/123/157 177/122/157 111/131/157 110/132/157
f 137/133/158 176/123/158 110/132/158 99/134/158
f 138/135/159 173/119/159 176/123/159 137/133/159
f 139/125/160 170/116/160 173/119/160 138/135/160
f 179/136/161 180/137/161 183/138/161 182/139/161
f 180/137/162 181/140/162 184/141/162 183/138/162
f 182/139/163 183/138/163 186/142/163 185/143/163
f 183/138/164 184/141/164 187/144/164 186/142/164
f 101/145/165 121/146/165 179/136/165 107/147/165
f 121/146/166 120/148/166 180/137/166 179/136/166
f 120/148/167 119/149/167 181/140/167 180/137/167
f 119/149/168 105/94/168 130/105/168 181/140/168
f 181/140/169 130/105/169 129/115/169 184/141/169
f 184/141/170 129/115/170 128/113/170 187/144/170
f 187/144/171 128/113/171 103/114/171 139/150/171
f 186/142/172 187/144/172 139/150/172 138/151/172
f 185/143/173 186/142/173 138/151/173 137/152/173
f 109/153/174 185/143/174 137/152/174 99/154/174
f 108/155/175 182/139/175 185/143/175 109/153/175
f 107/147/176 179/136/176 182/139/176 108/155/176
f 188/156/177 189/157/177 192/158/177 191/159/177
f 189/157/178 190/160/178 193/161/178 192/158/178
f 191/159/179 192/158/179 195/162/179 194/163/179
f 192/158/180 193/161/180 196/164/180 195/162/180
f 106/89/181 124/165/181 188/156/181 131/106/181
f 124/165/182 123/166/182 189/157/182 188/156/182
f 123/166/183 122/167/183 190/160/183 189/157/183
f 122/167/184 102/168/184 115/169/184 190/160/184
f 190/160/185 115/169/185 114/170/185 193/161/185
f 193/161/186 114/170/186 113/171/186 196/164/186
f 196/164/187 113/171/187 100/172/187 142/173/187
f 195/162/188 196/164/188 142/173/188 141/174/188
f 194/163/189 195/162/189 141/174/189 140/175/189
f 133/108/190 194/163/190 140/175/190 104/109/190
f 132/107/191 191/159/191 194/163/191 133/108/191
f 131/106/192 188/156/192 191/159/192 132/107/192
