# Blender 3.6.1
# www.blender.org
mtllib pyro.mtl
o 0pyro
v -21.633204 111.394707 0.956886
v -19.239962 113.051582 0.956886
v -19.239962 113.051582 -0.684171
v -21.633204 111.394707 -0.684171
v -19.424059 105.135429 -0.684171
v -1.566638 124.281502 -0.684173
v 1.194802 126.122490 -0.684173
v 4.324470 126.122490 -0.684173
v 8.006400 124.465599 -0.684173
v -3.039423 122.256416 -0.684173
v 11.504232 120.599571 -0.684173
v 14.633901 114.892563 -0.684173
v 16.290751 108.817360 -0.684173
v 18.684027 105.319527 -0.684174
v 20.524975 98.507927 -0.684174
v 21.445467 92.616821 -0.684176
v 21.629564 85.068863 -0.684176
v 21.813662 79.730049 -0.684176
v 45.746292 60.215755 -0.684178
v 46.482685 46.960773 -0.684178
v 46.114487 36.099068 -0.684178
v 42.064327 29.839762 -0.684178
v 38.934692 28.919270 -0.684178
v 43.905308 67.763733 -0.684176
v 26.600182 80.098244 -0.684176
v 40.775673 73.838936 -0.684176
v 33.595879 79.361855 -0.684176
v 37.277809 77.336792 -0.684176
v 31.202602 27.446501 -0.684178
v -22.185499 103.110344 -0.684171
v -24.210577 99.980675 -0.684171
v -26.235657 95.194160 -0.684173
v -28.076607 87.093910 -0.684173
v -29.181194 70.709282 -0.684173
v -33.231323 69.236519 -0.684173
v -36.360992 66.106865 -0.684173
v -38.754234 61.504444 -0.684174
v -39.858822 55.429241 -0.684174
v -39.490623 50.642719 -0.684174
v -37.097347 44.199322 -0.684174
v -35.256401 38.308228 -0.684174
v -34.335911 31.128450 -0.684174
v -35.256401 21.923594 -0.684176
v 35.068665 12.902833 -0.684179
v 31.386700 -0.092046 -0.684179
v -37.097347 0.092052 -0.684176
v 35.068665 12.902833 0.956880
v 31.386700 -0.092046 0.956878
v 31.202602 27.446501 0.956880
v -37.097347 0.092052 0.956881
v -19.424059 105.135429 0.956886
v -3.039423 122.256416 0.956886
v -19.792255 118.390396 0.956887
v -5.616764 125.017899 0.956886
v -19.424059 121.888229 0.956887
v -17.767176 124.649704 0.956886
v -15.005736 126.858849 0.956886
v -11.691971 127.595238 0.956886
v -8.378237 127.042938 0.956886
v 4.324470 126.122490 0.956886
v 1.194802 126.122490 0.956886
v -1.566638 124.281502 0.956886
v 8.006400 124.465599 0.956886
v 11.504232 120.599571 0.956886
v 14.633901 114.892563 0.956884
v 16.290751 108.817360 0.956884
v 18.684027 105.319527 0.956883
v 20.524975 98.507927 0.956883
v 21.445467 92.616821 0.956883
v 21.629564 85.068863 0.956883
v 21.813662 79.730049 0.956881
v 45.746292 60.215755 0.956881
v 46.482685 46.960773 0.956881
v 46.114487 36.099068 0.956880
v 42.064327 29.839762 0.956880
v 38.934692 28.919270 0.956880
v 43.905308 67.763733 0.956881
v 26.600182 80.098244 0.956881
v 40.775673 73.838936 0.956881
v 33.595879 79.361855 0.956881
v 37.277809 77.336792 0.956881
v -22.185499 103.110344 0.956886
v -24.210577 99.980675 0.956886
v -26.235657 95.194160 0.956886
v -28.076607 87.093910 0.956886
v -29.181194 70.709282 0.956884
v -33.231323 69.236519 0.956884
v -36.360992 66.106865 0.956884
v -38.754234 61.504444 0.956884
v -39.858822 55.429241 0.956884
v -39.490623 50.642719 0.956884
v -37.097347 44.199322 0.956883
v -35.256401 38.308228 0.956883
v -34.335911 31.128450 0.956883
v -35.256401 21.923594 0.956883
v -19.792255 118.390396 -0.684171
v -19.424059 121.888229 -0.684171
v -17.767176 124.649704 -0.684173
v -15.005736 126.858849 -0.684173
v -11.691971 127.595238 -0.684173
v -8.378237 127.042938 -0.684173
v -5.616764 125.017899 -0.684173
vn -0.5692 0.8222 -0.0000
vn -0.0000 -0.0000 -1.0000
vn 1.0000 -0.0081 -0.0000
vn 0.9621 -0.2726 -0.0000
vn 0.9664 0.2569 -0.0000
vn -0.0027 -1.0000 -0.0000
vn -0.9430 -0.3328 -0.0000
vn -0.0000 -0.0000 1.0000
vn -0.9894 0.1449 -0.0000
vn -0.9977 0.0673 -0.0000
vn -0.9518 0.3068 -0.0000
vn -0.8836 0.4682 -0.0000
vn -0.7275 0.6861 -0.0000
vn -0.5914 0.8064 -0.0000
vn -1.0000 0.0009 -0.0000
vn -0.9947 -0.1029 -0.0000
vn -0.9484 0.3171 -0.0000
vn -0.7530 0.6581 -0.0000
vn -0.4320 0.9019 -0.0000
vn -0.0268 0.9996 -0.0000
vn 0.3884 0.9215 -0.0000
vn 0.6641 0.7476 -0.0000
vn 0.7311 0.6823 -0.0000
vn -0.9958 0.0918 -0.0000
vn -0.9965 0.0840 -0.0000
vn -0.9999 -0.0139 -0.0000
vn -0.9769 -0.2135 -0.0000
vn -0.9463 -0.3233 -0.0000
vn -0.9767 -0.2145 -0.0000
vn -0.9987 0.0515 -0.0000
vn -0.9461 0.3237 -0.0000
vn -0.8066 0.5911 -0.0000
vn -0.5372 0.8435 -0.0000
vn -0.3417 0.9398 -0.0000
vn 0.0141 0.9999 -0.0000
vn 0.2992 0.9542 -0.0000
vn -0.0767 0.9971 -0.0000
vn 0.2349 -0.9720 -0.0000
vn 0.1871 -0.9823 -0.0000
vn 0.5982 -0.8013 -0.0000
vn 0.9541 -0.2994 -0.0000
vn 0.9999 0.0108 -0.0000
vn 0.9892 0.1468 -0.0000
vn 0.9368 0.3499 -0.0000
vn 0.8077 0.5896 -0.0000
vn 0.6005 0.7996 -0.0000
vn -0.2898 0.9571 -0.0000
vn 0.2099 0.9777 -0.0000
vn -0.6925 0.7214 -0.0000
vn -0.8087 0.5882 -0.0000
vn 0.9996 0.0294 -0.0000
vn 0.9994 0.0345 -0.0000
vn 0.9960 0.0896 -0.0000
vn 0.9781 0.2080 -0.0000
vn 0.9081 0.4187 -0.0000
vn 0.9076 0.4197 -0.0000
vn 0.9272 0.3746 -0.0000
vn 0.8147 0.5798 -0.0000
vn 0.5884 0.8086 -0.0000
vt 1.001202 0.873123
vt 1.001202 0.886099
vt 0.979971 0.886099
vt 0.979971 0.873123
vt 0.901965 0.760955
vt 0.911767 0.801437
vt 0.901148 0.812153
vt 0.822733 0.884784
vt 0.810480 0.896690
vt 0.796594 0.896690
vt 0.780257 0.885974
vt 0.829267 0.871686
vt 0.764738 0.860971
vt 0.750851 0.824060
vt 0.743500 0.784768
vt 0.732881 0.762146
vt 0.724713 0.718091
vt 0.720629 0.679990
vt 0.719812 0.631173
vt 0.718995 0.596644
vt 0.612807 0.470434
vt 0.609540 0.384707
vt 0.611173 0.314458
vt 0.629144 0.273976
vt 0.643030 0.268022
vt 0.620975 0.519251
vt 0.697757 0.599026
vt 0.634861 0.558543
vt 0.666718 0.594263
vt 0.650381 0.581166
vt 0.677337 0.258497
vt 0.914218 0.747858
vt 0.923203 0.727617
vt 0.932188 0.696659
vt 0.940356 0.644271
vt 0.945257 0.538302
vt 0.963228 0.528777
vt 0.977114 0.508536
vt 0.987733 0.478769
vt 0.992634 0.439477
vt 0.991000 0.408520
vt 0.980381 0.366847
vt 0.972213 0.328746
vt 0.968129 0.282310
vt 0.972213 0.222777
vt 0.660183 0.164435
vt 0.676520 0.080390
vt 0.980381 0.081580
vt 1.001202 0.101771
vt 1.001202 0.000000
vt 0.979971 0.000000
vt 0.979971 0.101771
vt 1.001202 0.215672
vt 0.979971 0.215672
vt 1.001203 0.001442
vt 0.979971 0.001442
vt 1.001202 0.824103
vt 0.979971 0.824103
vt 0.247719 0.871958
vt 0.140529 0.846386
vt 0.144063 0.811072
vt 0.231229 0.890224
vt 0.142885 0.869522
vt 0.153487 0.887788
vt 0.171155 0.902401
vt 0.192358 0.907272
vt 0.213560 0.903619
vt 0.128751 0.800112
vt 0.142885 0.758710
vt 0.294836 0.897530
vt 0.274811 0.897530
vt 0.257142 0.885353
vt 0.318394 0.886571
vt 0.340774 0.860999
vt 0.360798 0.823249
vt 0.371399 0.783064
vt 0.386712 0.759928
vt 0.398491 0.714872
vt 0.404381 0.675905
vt 0.405559 0.625979
vt 0.406737 0.590665
vt 0.559865 0.461586
vt 0.564577 0.373911
vt 0.562221 0.302065
vt 0.536307 0.260663
vt 0.516282 0.254574
vt 0.548086 0.511513
vt 0.437362 0.593100
vt 0.528062 0.551698
vt 0.482123 0.588229
vt 0.505681 0.574834
vt 0.466810 0.244832
vt 0.125217 0.745315
vt 0.112260 0.724614
vt 0.099303 0.692953
vt 0.087524 0.639373
vt 0.080456 0.530997
vt 0.054542 0.521255
vt 0.034518 0.500554
vt 0.019205 0.470111
vt 0.012137 0.429926
vt 0.014493 0.398265
vt 0.029806 0.355645
vt 0.041585 0.316678
vt 0.047475 0.269187
vt 0.041585 0.208301
vt 0.491546 0.148633
vt 0.467988 0.062677
vt 0.029806 0.063895
vt 0.979971 0.682808
vt 0.979971 0.554490
vt 1.001203 0.554490
vt 1.001203 0.682808
vt 0.979971 0.746247
vt 1.001203 0.746247
vt 0.979971 0.783733
vt 1.001203 0.783733
vt 0.979971 0.808243
vt 1.001202 0.808243
vt 0.979971 0.927911
vt 1.001202 0.927911
vt 0.979971 0.955305
vt 1.001202 0.955305
vt 0.979971 0.976932
vt 1.001202 0.976932
vt 0.979971 0.994233
vt 1.001202 0.994233
vt 0.979971 1.000000
vt 1.001202 1.000000
vt 0.979971 0.995675
vt 1.001202 0.995675
vt 0.979971 0.979815
vt 1.001202 0.979815
vt 0.979971 0.958188
vt 1.001202 0.958188
vt 0.979971 0.172418
vt 1.001203 0.172418
vt 0.979971 0.244507
vt 1.001203 0.244507
vt 0.979971 0.300737
vt 1.001203 0.300737
vt 0.979971 0.346874
vt 1.001203 0.346874
vt 0.979971 0.397336
vt 1.001203 0.397336
vt 0.979971 0.434822
vt 1.001203 0.434822
vt 0.979971 0.482401
vt 1.001203 0.482401
vt 0.979971 0.518446
vt 1.001203 0.518446
vt 0.979971 0.542956
vt 1.001203 0.542956
vt 1.001202 0.628021
vt 1.001202 0.622254
vt 0.979971 0.622254
vt 0.979971 0.628021
vt 1.001202 0.625137
vt 0.979971 0.625137
vt 1.001202 0.227206
vt 0.979971 0.227206
vt 1.001202 0.234415
vt 0.979971 0.234415
vt 1.001202 0.283436
vt 0.979971 0.283436
vt 1.001202 0.368500
vt 0.979971 0.368500
vt 1.001202 0.472309
vt 0.979971 0.472309
vt 1.001202 0.531422
vt 0.979971 0.531422
vt 1.001202 0.579000
vt 0.979971 0.579000
vt 1.001202 0.606394
vt 0.979971 0.606394
vt 1.001202 0.988466
vt 0.979971 0.988466
vt 1.001202 0.974048
vt 0.979971 0.974048
vt 1.001202 0.666949
vt 0.979971 0.666949
vt 1.001202 0.726062
vt 0.979971 0.726062
vt 1.001202 0.772199
vt 0.979971 0.772199
vt 1.001202 0.825545
vt 0.979971 0.825545
vt 1.001202 0.852939
vt 0.979971 0.852939
vt 1.001202 0.900517
vt 0.979971 0.900517
vt 1.001202 0.945213
vt 0.979971 0.945213
vt 1.001202 0.975490
vt 0.979971 0.975490
vt 0.903599 0.846683
vt 0.840703 0.889546
vt 0.901965 0.869305
vt 0.894614 0.887165
vt 0.882361 0.901453
vt 0.867658 0.906215
vt 0.852955 0.902644
s 1
usemtl target_pyro
f 1/1/1 2/2/1 3/3/1
f 3/3/1 4/4/1 1/1/1
f 5/5/2 4/6/2 3/7/2
f 6/8/2 7/9/2 8/10/2
f 6/8/2 8/10/2 9/11/2
f 6/8/2 9/11/2 10/12/2
f 9/11/2 11/13/2 10/12/2
f 11/13/2 12/14/2 10/12/2
f 12/14/2 13/15/2 10/12/2
f 13/15/2 3/7/2 10/12/2
f 13/15/2 14/16/2 3/7/2
f 14/16/2 15/17/2 3/7/2
f 15/17/2 16/18/2 3/7/2
f 16/18/2 17/19/2 3/7/2
f 17/19/2 18/20/2 3/7/2
f 18/20/2 19/21/2 3/7/2
f 19/21/2 5/5/2 3/7/2
f 19/21/2 20/22/2 5/5/2
f 20/22/2 21/23/2 5/5/2
f 21/23/2 22/24/2 5/5/2
f 22/24/2 23/25/2 5/5/2
f 18/20/2 24/26/2 19/21/2
f 18/20/2 25/27/2 24/26/2
f 25/27/2 26/28/2 24/26/2
f 25/27/2 27/29/2 26/28/2
f 27/29/2 28/30/2 26/28/2
f 23/25/2 29/31/2 5/5/2
f 29/31/2 30/32/2 5/5/2
f 29/31/2 31/33/2 30/32/2
f 29/31/2 32/34/2 31/33/2
f 29/31/2 33/35/2 32/34/2
f 29/31/2 34/36/2 33/35/2
f 29/31/2 35/37/2 34/36/2
f 29/31/2 36/38/2 35/37/2
f 29/31/2 37/39/2 36/38/2
f 29/31/2 38/40/2 37/39/2
f 29/31/2 39/41/2 38/40/2
f 29/31/2 40/42/2 39/41/2
f 29/31/2 41/43/2 40/42/2
f 29/31/2 42/44/2 41/43/2
f 29/31/2 43/45/2 42/44/2
f 29/31/2 44/46/2 43/45/2
f 44/46/2 45/47/2 43/45/2
f 45/47/2 46/48/2 43/45/2
f 47/49/3 48/50/4 45/51/4
f 45/51/4 44/52/3 47/49/3
f 49/53/5 47/49/3 44/52/3
f 44/52/3 29/54/5 49/53/5
f 48/50/6 50/55/6 46/56/6
f 46/56/6 45/51/6 48/50/6
f 51/57/7 1/1/7 4/4/7
f 4/4/7 5/58/7 51/57/7
f 52/59/8 53/60/8 2/61/8
f 52/59/8 54/62/8 53/60/8
f 54/62/8 55/63/8 53/60/8
f 54/62/8 56/64/8 55/63/8
f 54/62/8 57/65/8 56/64/8
f 54/62/8 58/66/8 57/65/8
f 54/62/8 59/67/8 58/66/8
f 2/61/8 1/68/8 51/69/8
f 60/70/8 61/71/8 62/72/8
f 60/70/8 62/72/8 63/73/8
f 62/72/8 52/59/8 63/73/8
f 52/59/8 64/74/8 63/73/8
f 52/59/8 65/75/8 64/74/8
f 52/59/8 66/76/8 65/75/8
f 52/59/8 2/61/8 66/76/8
f 2/61/8 67/77/8 66/76/8
f 2/61/8 68/78/8 67/77/8
f 2/61/8 69/79/8 68/78/8
f 2/61/8 70/80/8 69/79/8
f 2/61/8 71/81/8 70/80/8
f 2/61/8 72/82/8 71/81/8
f 2/61/8 51/69/8 72/82/8
f 51/69/8 73/83/8 72/82/8
f 51/69/8 74/84/8 73/83/8
f 51/69/8 75/85/8 74/84/8
f 51/69/8 76/86/8 75/85/8
f 72/82/8 77/87/8 71/81/8
f 77/87/8 78/88/8 71/81/8
f 77/87/8 79/89/8 78/88/8
f 79/89/8 80/90/8 78/88/8
f 79/89/8 81/91/8 80/90/8
f 51/69/8 49/92/8 76/86/8
f 51/69/8 82/93/8 49/92/8
f 82/93/8 83/94/8 49/92/8
f 83/94/8 84/95/8 49/92/8
f 84/95/8 85/96/8 49/92/8
f 85/96/8 86/97/8 49/92/8
f 86/97/8 87/98/8 49/92/8
f 87/98/8 88/99/8 49/92/8
f 88/99/8 89/100/8 49/92/8
f 89/100/8 90/101/8 49/92/8
f 90/101/8 91/102/8 49/92/8
f 91/102/8 92/103/8 49/92/8
f 92/103/8 93/104/8 49/92/8
f 93/104/8 94/105/8 49/92/8
f 94/105/8 95/106/8 49/92/8
f 95/106/8 47/107/8 49/92/8
f 95/106/8 48/108/8 47/107/8
f 95/106/8 50/109/8 48/108/8
f 33/110/9 34/111/10 86/112/10
f 86/112/10 85/113/9 33/110/9
f 32/114/11 33/110/9 85/113/9
f 85/113/9 84/115/11 32/114/11
f 31/116/12 32/114/11 84/115/11
f 84/115/11 83/117/12 31/116/12
f 30/118/13 31/116/12 83/117/12
f 83/117/12 82/119/13 30/118/13
f 5/58/14 30/118/13 82/119/13
f 82/119/13 51/57/14 5/58/14
f 96/120/15 3/3/16 2/2/16
f 2/2/16 53/121/15 96/120/15
f 97/122/17 96/120/15 53/121/15
f 53/121/15 55/123/17 97/122/17
f 98/124/18 97/122/17 55/123/17
f 55/123/17 56/125/18 98/124/18
f 99/126/19 98/124/18 56/125/18
f 56/125/18 57/127/19 99/126/19
f 100/128/20 99/126/19 57/127/19
f 57/127/19 58/129/20 100/128/20
f 101/130/21 100/128/20 58/129/20
f 58/129/20 59/131/21 101/130/21
f 102/132/22 101/130/21 59/131/21
f 59/131/21 54/133/22 102/132/22
f 10/134/23 102/132/22 54/133/22
f 54/133/22 52/135/23 10/134/23
f 43/136/24 46/56/25 50/55/25
f 50/55/25 95/137/24 43/136/24
f 42/138/26 43/136/24 95/137/24
f 95/137/24 94/139/26 42/138/26
f 41/140/27 42/138/26 94/139/26
f 94/139/26 93/141/27 41/140/27
f 40/142/28 41/140/27 93/141/27
f 93/141/27 92/143/28 40/142/28
f 39/144/29 40/142/28 92/143/28
f 92/143/28 91/145/29 39/144/29
f 38/146/30 39/144/29 91/145/29
f 91/145/29 90/147/30 38/146/30
f 37/148/31 38/146/30 90/147/30
f 90/147/30 89/149/31 37/148/31
f 36/150/32 37/148/31 89/149/31
f 89/149/31 88/151/32 36/150/32
f 35/152/33 36/150/32 88/151/32
f 88/151/32 87/153/33 35/152/33
f 34/111/34 35/152/33 87/153/33
f 87/153/33 86/112/34 34/111/34
f 78/154/35 80/155/36 27/156/36
f 27/156/36 25/157/35 78/154/35
f 71/158/37 78/154/35 25/157/35
f 25/157/35 18/159/37 71/158/37
f 76/160/38 49/53/39 29/54/39
f 29/54/39 23/161/38 76/160/38
f 75/162/40 76/160/38 23/161/38
f 23/161/38 22/163/40 75/162/40
f 74/164/41 75/162/40 22/163/40
f 22/163/40 21/165/41 74/164/41
f 73/166/42 74/164/41 21/165/41
f 21/165/41 20/167/42 73/166/42
f 72/168/43 73/166/42 20/167/42
f 20/167/42 19/169/43 72/168/43
f 77/170/44 72/168/43 19/169/43
f 19/169/43 24/171/44 77/170/44
f 79/172/45 77/170/44 24/171/44
f 24/171/44 26/173/45 79/172/45
f 81/174/46 79/172/45 26/173/45
f 26/173/45 28/175/46 81/174/46
f 80/155/36 81/174/46 28/175/46
f 28/175/46 27/156/36 80/155/36
f 61/176/47 60/176/48 8/177/48
f 8/177/48 7/177/47 61/176/47
f 62/178/49 61/176/47 7/177/47
f 7/177/47 6/179/49 62/178/49
f 52/135/50 62/178/49 6/179/49
f 6/179/49 10/134/50 52/135/50
f 70/180/51 71/158/52 18/159/52
f 18/159/52 17/181/51 70/180/51
f 69/182/53 70/180/51 17/181/51
f 17/181/51 16/183/53 69/182/53
f 68/184/54 69/182/53 16/183/53
f 16/183/53 15/185/54 68/184/54
f 67/186/55 68/184/54 15/185/54
f 15/185/54 14/187/55 67/186/55
f 66/188/56 67/186/55 14/187/55
f 14/187/55 13/189/56 66/188/56
f 65/190/57 66/188/56 13/189/56
f 13/189/56 12/191/57 65/190/57
f 64/192/58 65/190/57 12/191/57
f 12/191/57 11/193/58 64/192/58
f 63/194/59 64/192/58 11/193/58
f 11/193/58 9/195/59 63/194/59
f 60/176/48 63/194/59 9/195/59
f 9/195/59 8/177/48 60/176/48
f 3/7/2 96/196/2 10/12/2
f 96/196/2 102/197/2 10/12/2
f 96/196/2 97/198/2 102/197/2
f 97/198/2 98/199/2 102/197/2
f 98/199/2 99/200/2 102/197/2
f 99/200/2 100/201/2 102/197/2
f 100/201/2 101/202/2 102/197/2
o 1pyro
v -40.638172 57.658947 1.639336
v 6.736590 126.589195 1.639334
v -17.196163 126.589195 1.639336
v -37.231113 0.000000 1.639336
v 32.644516 0.000000 1.639332
v 43.463295 71.209076 -1.466771
v 6.736590 126.589195 -1.466769
v 43.463295 71.209076 1.639332
v -17.196163 126.589195 -1.466769
v 46.850391 36.194828 1.639332
v 46.850391 36.194828 -1.466771
v 32.644516 0.000000 -1.466771
v -37.231113 0.000000 -1.466768
v -40.638172 57.658947 -1.466768
v -33.439465 0.108892 55.570774
v -33.439465 0.553987 55.570774
v -33.439465 0.108892 -55.570774
v -33.439465 0.553987 -55.570774
v 33.439465 0.108892 55.570774
v 33.439465 0.553987 55.570774
v 33.439465 0.108892 -55.570774
v 33.439465 0.553987 -55.570774
vn 0.9923 -0.1230 0.0111
vn 0.9998 0.0099 0.0153
vn 0.9600 -0.2492 0.1280
vn 0.9997 -0.0151 -0.0192
vn 0.9991 0.0097 -0.0413
vn -0.9362 0.3320 0.1151
vn -0.9989 0.0350 0.0308
vn 0.9064 0.3736 0.1969
vn -0.9830 -0.1275 0.1320
vn 0.9933 0.1145 -0.0174
vn -0.9999 0.0142 -0.0021
vn -0.9889 0.0879 -0.1194
vn -0.9970 -0.0476 -0.0605
vn -0.9990 -0.0443 0.0099
vn -1.0000 -0.0000 -0.0000
vn -0.0000 -0.0000 -1.0000
vn 1.0000 -0.0000 -0.0000
vn -0.0000 -0.0000 1.0000
vn -0.0000 -1.0000 -0.0000
vn -0.0000 1.0000 -0.0000
vt 0.000000 0.000000
vt 0.375000 0.000000
vt 0.625000 0.000000
vt 0.625000 0.250000
vt 0.375000 0.250000
vt 0.625000 0.500000
vt 0.375000 0.500000
vt 0.625000 0.750000
vt 0.375000 0.750000
vt 0.625000 1.000000
vt 0.375000 1.000000
vt 0.125000 0.500000
vt 0.125000 0.750000
vt 0.875000 0.500000
vt 0.875000 0.750000
s 1
usemtl __phy
f 103/203/60 104/203/61 105/203/62
f 103/203/60 106/203/63 104/203/61
f 106/203/63 107/203/64 104/203/61
f 108/203/65 109/203/66 110/203/67
f 109/203/66 104/203/61 110/203/67
f 104/203/61 111/203/68 105/203/62
f 104/203/61 109/203/66 111/203/68
f 104/203/61 107/203/64 112/203/69
f 112/203/69 110/203/67 104/203/61
f 110/203/67 112/203/69 108/203/65
f 112/203/69 113/203/70 108/203/65
f 112/203/69 114/203/71 113/203/70
f 112/203/69 107/203/64 114/203/71
f 113/203/70 114/203/71 115/203/72
f 113/203/70 115/203/72 116/203/73
f 113/203/70 116/203/73 109/203/66
f 109/203/66 116/203/73 111/203/68
f 115/203/72 114/203/71 107/203/64
f 115/203/72 107/203/64 106/203/63
f 115/203/72 106/203/63 103/203/60
f 105/203/62 116/203/73 103/203/60
f 116/203/73 105/203/62 111/203/68
f 116/203/73 115/203/72 103/203/60
f 109/203/66 108/203/65 113/203/70
s 0
f 117/204/74 118/205/74 120/206/74 119/207/74
f 119/207/75 120/206/75 124/208/75 123/209/75
f 123/209/76 124/208/76 122/210/76 121/211/76
f 121/211/77 122/210/77 118/212/77 117/213/77
f 119/214/78 123/209/78 121/211/78 117/215/78
f 124/208/79 120/216/79 118/217/79 122/210/79
