# Blender 3.6.1
# www.blender.org
mtllib ratshot2 box2.mtl
o cuboid
v 6.000000 17.437500 1.499999
v 6.000000 17.437500 -3.562501
v 6.000000 0.000000 1.500000
v 6.000000 -0.000000 -3.562500
v -7.500000 17.437500 1.499999
v -7.500000 17.437500 -3.562501
v -7.500000 0.000000 1.500000
v -7.500000 -0.000000 -3.562500
v -7.500000 17.625000 -3.375001
v 6.000000 17.625000 -3.375001
v 6.000000 17.484375 -0.000001
v -7.500000 17.484375 -0.000001
vn 1.0000 -0.0000 -0.0000
vn -1.0000 -0.0000 -0.0000
vn -0.0000 1.0000 -0.0000
vn -0.0000 -1.0000 -0.0000
vn -0.0000 -0.0000 1.0000
vn -0.0000 -0.0000 -1.0000
vn -0.0000 0.9993 0.0384
vn -0.0000 0.9999 -0.0132
vt 0.105469 0.632812
vt 0.000000 0.632812
vt 0.000000 0.269531
vt 0.105469 0.269531
vt 0.214844 0.269531
vt 0.214844 0.632812
vt 0.109375 0.632812
vt 0.109375 0.269531
vt 0.218750 0.527344
vt 0.500000 0.527344
vt 0.500000 0.632812
vt 0.218750 0.632812
vt 0.500000 0.417969
vt 0.500000 0.523438
vt 0.218750 0.523438
vt 0.218750 0.417969
vt 0.281250 0.636719
vt 0.281250 1.000000
vt 0.000000 1.000000
vt 0.000000 0.636719
vt 0.566406 1.000000
vt 0.285156 1.000000
vt 0.285156 0.636719
vt 0.566406 0.636719
vt 0.785156 0.632812
vt 0.503906 0.632812
vt 0.503906 0.531250
vt 0.785156 0.531250
vt 0.785156 0.527344
vt 0.503906 0.527344
vt 0.503906 0.453125
vt 0.785156 0.453125
s 0
usemtl m_b13d4c79-dfa5-ecac-96ed-98fc5be9ffa5
f 2/1/1 1/2/1 3/3/1 4/4/1
f 7/5/2 5/6/2 6/7/2 8/8/2
f 5/9/3 1/10/3 2/11/3 6/12/3
f 4/13/4 3/14/4 7/15/4 8/16/4
f 3/17/5 1/18/5 5/19/5 7/20/5
f 6/21/6 2/22/6 4/23/6 8/24/6
f 10/25/7 9/26/7 5/27/7 1/28/7
f 12/29/8 11/30/8 2/31/8 6/32/8
