# Blender 3.1.0
# www.blender.org
mtllib Riot_shield.mtl
o Cube
v -0.879044 54.973648 -15.763187
v -0.879044 105.973534 -12.776857
v 0.879044 54.973648 -15.763187
v 0.879044 105.973534 -12.776857
v -0.879044 54.973648 0.000000
v -0.879044 105.973541 -0.000000
v 0.879044 54.973648 0.000000
v 0.879044 105.973541 -0.000000
v -9.694658 76.783401 -33.549408
v -9.694658 54.973648 -33.549408
v -7.936570 54.973648 -33.549408
v -7.936570 76.783401 -33.549408
v -0.879044 131.307800 0.000000
v -0.879044 131.307800 -15.763187
v 0.879044 131.307800 -15.763187
v 0.879044 131.307800 0.000000
v 0.879044 0.449249 -15.763187
v -0.879044 0.449249 -15.763187
v 0.879044 0.449249 0.000000
v -0.879044 0.449249 0.000000
v -0.879044 122.050095 -0.000000
v 0.879044 122.050095 -12.776857
v -0.879044 122.050095 -12.776857
v 0.879044 128.581573 0.000000
v 0.879044 3.175476 -15.763187
v -0.879044 3.175476 -15.763187
v -0.879044 3.175476 0.000000
v -7.936570 3.175476 -33.549408
v 0.879044 3.175476 0.000000
v -8.565347 76.783401 -30.895844
v -8.565347 54.973648 -30.895844
v -6.807258 54.973648 -30.895844
v -6.807258 76.783401 -30.895844
v -8.565347 131.307800 -30.895844
v -6.807258 131.307800 -30.895844
v -6.807258 0.449249 -30.895844
v -8.565347 128.581573 -30.895844
v -6.807258 128.581573 -30.895844
v -6.807258 3.175476 -30.895844
v -8.565347 3.175476 -30.895844
v -9.694658 128.581573 -33.549408
v -8.914323 131.174377 -31.715839
v -9.229139 130.787140 -32.455570
v -9.478978 130.184021 -33.042622
v -9.639386 129.424026 -33.419533
v -7.936570 128.581573 -33.549408
v -7.881298 129.424026 -33.419533
v -7.720890 130.184021 -33.042622
v -7.471051 130.787140 -32.455570
v -7.156234 131.174377 -31.715839
v -7.156234 0.582680 -31.715839
v -7.471051 0.969910 -32.455570
v -7.720890 1.573036 -33.042622
v -7.881298 2.333023 -33.419533
v -9.694658 3.175476 -33.549408
v -8.565347 0.449249 -30.895844
v -9.639386 2.333023 -33.419533
v -9.478978 1.573036 -33.042622
v -9.229139 0.969910 -32.455570
v -8.914323 0.582680 -31.715839
v -7.595970 1.271477 -32.749096
v -9.354058 1.271477 -32.749096
v -9.354058 130.485565 -32.749096
v -7.595970 130.485565 -32.749096
v -0.879044 54.973648 15.763187
v -0.879044 105.973534 12.776857
v 0.879044 54.973648 15.763187
v 0.879044 105.973534 12.776857
v -9.694658 76.783401 33.549408
v -9.694658 54.973648 33.549408
v -7.936570 54.973648 33.549408
v -7.936570 76.783401 33.549408
v -0.879044 131.307800 15.763187
v 0.879044 131.307800 15.763187
v 0.879044 0.449249 15.763187
v -0.879044 0.449249 15.763187
v 0.879044 122.050095 12.776857
v -0.879044 122.050095 12.776857
v 0.879044 3.175476 15.763187
v -0.879044 3.175476 15.763187
v -7.936570 3.175476 33.549408
v -8.565347 76.783401 30.895844
v -8.565347 54.973648 30.895844
v -6.807258 54.973648 30.895844
v -6.807258 76.783401 30.895844
v -8.565347 131.307800 30.895844
v -6.807258 131.307800 30.895844
v -6.807258 0.449249 30.895844
v -8.565347 128.581573 30.895844
v -6.807258 128.581573 30.895844
v -6.807258 3.175476 30.895844
v -8.565347 3.175476 30.895844
v -9.694658 128.581573 33.549408
v -8.914323 131.174377 31.715839
v -9.229139 130.787140 32.455570
v -9.478978 130.184021 33.042622
v -9.639386 129.424026 33.419533
v -7.936570 128.581573 33.549408
v -7.881298 129.424026 33.419533
v -7.720890 130.184021 33.042622
v -7.471051 130.787140 32.455570
v -7.156234 131.174377 31.715839
v -7.156234 0.582680 31.715839
v -7.471051 0.969910 32.455570
v -7.720890 1.573036 33.042622
v -7.881298 2.333023 33.419533
v -9.694658 3.175476 33.549408
v -8.565347 0.449249 30.895844
v -9.639386 2.333023 33.419533
v -9.478978 1.573036 33.042622
v -9.229139 0.969910 32.455570
v -8.914323 0.582680 31.715839
v -7.595970 1.271477 32.749096
v -9.354058 1.271477 32.749096
v -9.354058 130.485565 32.749096
v -7.595970 130.485565 32.749096
v -5.273864 56.810242 10.294150
v -5.273864 74.713112 10.294150
v -4.484636 56.810242 10.550587
v -4.484636 74.713112 10.550587
v -3.996866 56.810242 11.221945
v -3.996866 74.713112 11.221945
v -3.996866 56.810242 12.051787
v -3.996866 74.713112 12.051787
v -4.484636 56.810242 12.723145
v -4.484636 74.713112 12.723145
v -5.273864 56.810242 12.979582
v -5.273864 74.713112 12.979582
v -6.063093 56.810242 12.723145
v -6.063093 74.713112 12.723145
v -6.550863 56.810242 12.051788
v -6.550863 74.713112 12.051788
v -6.550863 56.810242 11.221944
v -6.550863 74.713112 11.221944
v -6.063093 56.810242 10.550587
v -6.063093 74.713112 10.550587
v -6.836962 55.121513 15.660419
v -6.836962 56.954224 15.660419
v -6.836962 55.121513 -15.660418
v -6.836962 56.954224 -15.660418
v 0.837011 55.121513 15.660419
v 0.837011 56.954224 15.660419
v 0.837011 55.121513 -15.660418
v 0.837011 56.954224 -15.660418
v -6.836961 74.825333 15.660419
v -6.836961 76.658043 15.660419
v -6.836961 74.825333 -15.660418
v -6.836961 76.658043 -15.660418
v 0.837011 74.825333 15.660419
v 0.837011 76.658043 15.660419
v 0.837011 74.825333 -15.660418
v 0.837011 76.658043 -15.660418
v -0.879044 76.783401 0.000000
v -0.879044 76.783401 -15.763187
v 0.879044 76.783401 -15.763187
v 0.879044 76.783401 0.000000
v 0.879044 128.581573 -15.763187
v -0.879044 128.581573 -15.763187
v 0.879044 122.050095 -0.000000
v -0.879044 128.581573 0.000000
v -0.879044 76.783401 15.763187
v 0.879044 76.783401 15.763187
v 0.879044 128.581573 15.763187
v -0.879044 128.581573 15.763187
v 3.560912 122.050095 0.000000
v 3.560912 105.973541 0.000000
v -3.560912 108.008484 0.000000
v -3.560912 122.050095 0.000000
v -3.560912 108.008476 -9.835310
v 3.560912 108.008476 -9.835310
v 3.560912 120.015152 -9.835310
v -3.560912 120.015152 -9.835310
v -3.560912 108.008476 9.835310
v 3.560912 108.008476 9.835310
v 3.560912 120.015152 9.835310
v -3.560912 120.015152 9.835310
v -3.560912 105.973541 0.000000
v -3.560912 105.973534 -12.776855
v 3.560912 105.973534 -12.776855
v 3.560912 108.008484 0.000000
v 3.560912 122.050095 -12.776855
v -3.560912 122.050095 -12.776855
v 3.560912 120.015152 0.000000
v -3.560912 120.015152 0.000000
v -3.560912 105.973534 12.776855
v 3.560912 105.973534 12.776855
v 3.560912 122.050095 12.776855
v -3.560912 122.050095 12.776855
vn -0.8790 -0.0000 -0.0000
vn -0.1142 -0.0000 15.6296
vn 0.8790 -0.0000 -0.0000
vn -0.0000 -0.0000 -15.7632
vn 0.1142 -0.0000 -15.6296
vn -0.0000 10.9049 -0.0000
vn -0.0959 -0.0000 15.6690
vn -0.0000 -10.9049 -0.0000
vn 0.0959 -0.0000 -15.6690
vn -0.0000 10.6152 -3.6092
vn -0.0000 8.6959 -9.5117
vn -0.0000 6.0907 -13.0753
vn -0.0000 3.5389 -14.9100
vn -0.0000 1.1564 -15.6743
vn -0.0000 -10.6152 -3.6092
vn -0.0000 -8.6959 -9.5116
vn -0.0000 -6.0907 -13.0753
vn -0.0000 -3.5389 -14.9100
vn -0.0000 -1.1564 -15.6743
vn -0.1142 0.0001 15.6296
vn -0.0000 6.0908 -13.0752
vn -0.1142 -0.0000 -15.6296
vn -0.0000 -0.0000 15.7632
vn 0.1142 -0.0000 15.6296
vn -0.0959 -0.0000 -15.6690
vn 0.0959 -0.0000 15.6690
vn -0.0000 10.6152 3.6092
vn -0.0000 8.6959 9.5117
vn -0.0000 6.0907 13.0753
vn -0.0000 3.5389 14.9100
vn -0.0000 1.1564 15.6743
vn -0.0000 -10.6152 3.6092
vn -0.0000 -8.6959 9.5116
vn -0.0000 -6.0907 13.0753
vn -0.0000 -3.5389 14.9100
vn -0.0000 -1.1564 15.6743
vn -0.1142 0.0001 -15.6296
vn -0.0000 6.0908 13.0752
vn 0.0159 -0.0000 -15.7606
vn 0.0673 -0.0000 -15.7170
vn 0.8790 -0.0000 0.0002
vn 0.0673 -0.0000 15.7170
vn 0.0159 -0.0000 15.7606
vn -0.0159 -0.0000 15.7606
vn -0.0673 -0.0000 15.7170
vn -0.0673 -0.0000 -15.7170
vn -0.0159 -0.0000 -15.7606
vt 0.380252 0.857597
vt 0.608576 0.165191
vt 0.668177 0.109623
vt 0.853370 0.677682
vt 0.910779 0.109623
vt 0.463390 0.386016
vt 0.490041 0.423730
vt 0.443162 0.783138
vt 0.740680 0.119374
vt 0.898476 0.274903
vt 0.608576 0.275938
vt 0.360305 0.857597
vt 0.748460 0.276257
vt 0.360351 0.857758
vt 0.853599 0.753907
vt 0.709870 0.109623
vt 0.363305 0.423730
vt 0.363200 0.423730
vt 0.363036 0.386016
vt 0.362911 0.783138
vt 0.699359 0.119374
vt 0.748412 0.011401
vt 0.656954 0.527726
vt 0.651310 0.576217
vt 0.608576 0.011401
vt 0.656954 0.473982
vt 0.651310 0.423783
vt 0.603210 0.473982
vt 0.651402 0.423730
vt 0.603210 0.527726
vt 0.651402 0.576269
vt 0.362940 0.957302
vt 0.362730 0.957864
vt 0.656952 0.954952
vt 0.489701 0.957302
vt 0.656952 0.928080
vt 0.603209 0.928080
vt 0.490041 0.957619
vt 0.363305 0.957619
vt 0.603209 0.954951
vt 0.363200 0.957619
vt 0.490041 0.042382
vt 0.603212 0.073625
vt 0.656956 0.073625
vt 0.489701 0.042696
vt 0.363305 0.042382
vt 0.603212 0.046753
vt 0.363200 0.042382
vt 0.362940 0.042696
vt 0.363230 0.042547
vt 0.656956 0.046753
vt 0.943247 0.753907
vt 0.793255 0.109623
vt 0.740680 0.119374
vt 0.443162 0.875893
vt 0.823321 0.274903
vt 0.942848 0.677682
vt 0.834947 0.109623
vt 0.363305 0.938551
vt 0.363200 0.938551
vt 0.362911 0.898796
vt 0.490041 0.061450
vt 0.463390 0.099389
vt 0.380252 0.800627
vt 0.489701 0.061751
vt 0.362940 0.061751
vt 0.363230 0.061660
vt 0.360351 0.800612
vt 0.603211 0.346340
vt 0.651402 0.061449
vt 0.363305 0.061450
vt 0.363200 0.061450
vt 0.363036 0.099389
vt 0.696301 0.565191
vt 0.617625 0.576217
vt 0.748412 0.042302
vt 0.617625 0.423783
vt 0.400383 0.857597
vt 0.608576 0.042302
vt 0.564429 0.386016
vt 0.617749 0.423730
vt 0.561565 0.616067
vt 0.617749 0.576269
vt 0.656953 0.691704
vt 0.617625 0.957304
vt 0.603210 0.691704
vt 0.617749 0.957617
vt 0.617748 0.042381
vt 0.603211 0.310004
vt 0.964337 0.565191
vt 0.617625 0.938249
vt 0.561565 0.898795
vt 0.617749 0.938550
vt 0.564429 0.099388
vt 0.617748 0.061449
vt 0.400383 0.800627
vt 0.617625 0.061752
vt 0.651310 0.938249
vt 0.656953 0.655368
vt 0.656953 0.680940
vt 0.628034 0.956371
vt 0.637425 0.953664
vt 0.656953 0.671187
vt 0.656953 0.663342
vt 0.644877 0.949449
vt 0.649661 0.944137
vt 0.656953 0.658054
vt 0.603210 0.655368
vt 0.651402 0.938550
vt 0.603210 0.658054
vt 0.649754 0.944442
vt 0.603210 0.663342
vt 0.644974 0.949757
vt 0.637529 0.953975
vt 0.603210 0.671187
vt 0.603210 0.680940
vt 0.628148 0.956684
vt 0.628148 0.043314
vt 0.603211 0.320768
vt 0.637529 0.046023
vt 0.603211 0.330521
vt 0.603211 0.338366
vt 0.644974 0.050241
vt 0.603211 0.343654
vt 0.649755 0.055556
vt 0.651310 0.061752
vt 0.656955 0.346340
vt 0.656955 0.310004
vt 0.617625 0.042698
vt 0.649661 0.055864
vt 0.656955 0.343654
vt 0.656955 0.338366
vt 0.644877 0.050552
vt 0.637425 0.046337
vt 0.656955 0.330521
vt 0.656955 0.320768
vt 0.628034 0.043630
vt 0.641252 0.048132
vt 0.603211 0.334444
vt 0.641151 0.048445
vt 0.656955 0.334444
vt 0.641151 0.951557
vt 0.656953 0.667265
vt 0.641252 0.951866
vt 0.603210 0.667265
vt 0.344212 0.857758
vt 0.748460 0.388790
vt 0.853599 0.835283
vt 0.744009 0.423483
vt 0.751562 0.109623
vt 0.279987 0.386016
vt 0.228608 0.423730
vt 0.658039 0.119374
vt 0.277773 0.783138
vt 0.733194 0.274903
vt 0.608528 0.540736
vt 0.656954 0.527726
vt 0.072070 0.576516
vt 0.748460 0.540736
vt 0.656954 0.473982
vt 0.073202 0.424806
vt 0.603210 0.473982
vt 0.073933 0.423730
vt 0.603210 0.527726
vt 0.073933 0.576269
vt 0.227127 0.957864
vt 0.656952 0.928080
vt 0.603209 0.928080
vt 0.228607 0.957619
vt 0.228608 0.042382
vt 0.603212 0.073625
vt 0.656956 0.073625
vt 0.260670 0.042547
vt 0.277773 0.875894
vt 0.658039 0.274903
vt 0.823321 0.119374
vt 0.751562 0.109623
vt 0.943247 0.835283
vt 0.668177 0.423483
vt 0.228608 0.061450
vt 0.279987 0.099389
vt 0.344212 0.800612
vt 0.260670 0.061660
vt 0.603211 0.346340
vt 0.073933 0.061449
vt 0.696522 0.943964
vt 0.106023 0.576516
vt 0.608528 0.509842
vt 0.107081 0.424806
vt 0.320043 0.857758
vt 0.748460 0.509842
vt 0.160909 0.386016
vt 0.107723 0.423730
vt 0.163534 0.616067
vt 0.107723 0.576269
vt 0.656953 0.691704
vt 0.106023 0.957865
vt 0.603210 0.691704
vt 0.107723 0.957617
vt 0.107723 0.042381
vt 0.603211 0.310004
vt 0.964743 0.943964
vt 0.106023 0.938797
vt 0.163534 0.898795
vt 0.107723 0.938550
vt 0.160909 0.099388
vt 0.107723 0.061449
vt 0.320043 0.800613
vt 0.107081 0.061661
vt 0.072070 0.938798
vt 0.656953 0.655368
vt 0.656953 0.680940
vt 0.095531 0.956932
vt 0.086066 0.954224
vt 0.656953 0.671187
vt 0.656953 0.663342
vt 0.078555 0.950005
vt 0.073732 0.944690
vt 0.656953 0.658054
vt 0.603210 0.655368
vt 0.073933 0.938550
vt 0.603210 0.658054
vt 0.075587 0.944442
vt 0.603210 0.663342
vt 0.080387 0.949757
vt 0.087862 0.953975
vt 0.603210 0.671187
vt 0.603210 0.680940
vt 0.097281 0.956684
vt 0.097282 0.043314
vt 0.603211 0.320768
vt 0.087862 0.046023
vt 0.603211 0.330521
vt 0.603211 0.338366
vt 0.080387 0.050241
vt 0.603211 0.343654
vt 0.075587 0.055556
vt 0.073202 0.061661
vt 0.656955 0.346340
vt 0.656955 0.310004
vt 0.107081 0.042548
vt 0.074860 0.055755
vt 0.656955 0.343654
vt 0.656955 0.338366
vt 0.079673 0.050427
vt 0.087168 0.046198
vt 0.656955 0.330521
vt 0.656955 0.320768
vt 0.096612 0.043484
vt 0.084124 0.048132
vt 0.603211 0.334444
vt 0.083420 0.048313
vt 0.656955 0.334444
vt 0.082311 0.952114
vt 0.656953 0.667265
vt 0.084124 0.951866
vt 0.603210 0.667265
vt 0.738642 0.068359
vt 0.687139 0.068359
vt 0.750000 0.490000
vt 0.738642 0.094111
vt 0.250000 0.490000
vt 0.687139 0.094111
vt 0.733492 0.068359
vt 0.891068 0.444164
vt 0.733492 0.094111
vt 0.391068 0.444164
vt 0.728341 0.068359
vt 0.978254 0.324164
vt 0.728341 0.094111
vt 0.478254 0.324164
vt 0.723191 0.068359
vt 0.978254 0.175836
vt 0.723191 0.094111
vt 0.478254 0.175836
vt 0.718041 0.068359
vt 0.891068 0.055836
vt 0.718041 0.094111
vt 0.391068 0.055836
vt 0.712891 0.068359
vt 0.750000 0.010000
vt 0.712891 0.094111
vt 0.250000 0.010000
vt 0.707740 0.068359
vt 0.608932 0.055836
vt 0.707740 0.094111
vt 0.108932 0.055836
vt 0.702590 0.068359
vt 0.521746 0.175836
vt 0.702590 0.094111
vt 0.021746 0.175836
vt 0.697440 0.068359
vt 0.521746 0.324164
vt 0.021746 0.324164
vt 0.697440 0.094111
vt 0.692289 0.068359
vt 0.608932 0.444164
vt 0.108932 0.444164
vt 0.692289 0.094111
vt 0.706453 0.042608
vt 0.706453 0.094111
vt 0.693577 0.081235
vt 0.719328 0.042608
vt 0.719328 0.094111
vt 0.732204 0.081235
vt 0.706453 0.055484
vt 0.693577 0.068359
vt 0.719328 0.055484
vt 0.732204 0.068359
vt 0.706453 0.081235
vt 0.719328 0.081235
vt 0.706453 0.068359
vt 0.719328 0.068359
vt 0.706453 0.042608
vt 0.706453 0.094111
vt 0.693577 0.081235
vt 0.719328 0.042608
vt 0.719328 0.094111
vt 0.732204 0.081235
vt 0.706453 0.055484
vt 0.693577 0.068359
vt 0.719328 0.055484
vt 0.732204 0.068359
vt 0.706453 0.081235
vt 0.719328 0.081235
vt 0.706453 0.068359
vt 0.719328 0.068359
vt 0.748412 0.275938
vt 0.608528 0.276257
vt 0.696301 0.753751
vt 0.696522 0.753907
vt 0.748412 0.165191
vt 0.696301 0.659902
vt 0.490041 0.576269
vt 0.461900 0.616067
vt 0.363305 0.576269
vt 0.363200 0.576269
vt 0.362911 0.616067
vt 0.490041 0.938551
vt 0.461900 0.898796
vt 0.489701 0.938248
vt 0.964336 0.659902
vt 0.362911 0.875894
vt 0.782000 0.119374
vt 0.362940 0.938248
vt 0.362730 0.938796
vt 0.964336 0.753751
vt 0.964742 0.753907
vt 0.608528 0.388791
vt 0.696522 0.854303
vt 0.228608 0.576269
vt 0.257874 0.616067
vt 0.228607 0.938551
vt 0.257874 0.898796
vt 0.227127 0.938796
vt 0.964742 0.854303
vt 0.782000 0.274903
vt 0.362911 0.875894
vt 0.699359 0.274903
vt 0.362911 0.783138
vt 0.858935 0.440542
vt 0.782706 0.155654
vt 0.858935 0.489757
vt 0.793255 0.266553
vt 0.782706 0.466014
vt 0.867178 0.155380
vt 0.711690 0.142687
vt 0.858935 0.416915
vt 0.427399 0.797856
vt 0.858935 0.142687
vt 0.711690 0.416915
vt 0.427399 0.862338
vt 0.858935 0.271229
vt 0.867178 0.420615
vt 0.711690 0.271229
vt 0.858935 0.014145
vt 0.858935 0.513384
vt 0.692525 0.155654
vt 0.711690 0.014145
vt 0.711690 0.513384
vt 0.291561 0.797856
vt 0.858935 0.416915
vt 0.711690 0.142687
vt 0.291561 0.862338
vt 0.711690 0.416915
vt 0.858935 0.142687
vt 0.692525 0.421036
vt 0.709870 0.266554
vt 0.782706 0.110676
vt 0.668177 0.266554
vt 0.910779 0.266553
vt 0.892442 0.110347
vt 0.740680 0.274903
vt 0.898476 0.119374
vt 0.443162 0.783138
vt 0.711690 0.440542
vt 0.362911 0.797856
vt 0.711690 0.489757
vt 0.740680 0.274903
vt 0.823321 0.119374
vt 0.443162 0.875893
vt 0.834947 0.266553
vt 0.892442 0.465440
vt 0.858935 0.344072
vt 0.362911 0.862338
vt 0.711690 0.344072
vt 0.782706 0.421036
vt 0.744009 0.266553
vt 0.751562 0.266554
vt 0.665554 0.110676
vt 0.658039 0.274903
vt 0.733194 0.430433
vt 0.277773 0.783138
vt 0.658039 0.430433
vt 0.823321 0.274903
vt 0.277773 0.875894
vt 0.751562 0.266553
vt 0.668177 0.266553
vt 0.665554 0.466014
s 0
usemtl Material
f 5/11/1 153/328/1 154/332/1 1/2/1
f 31/79/2 30/76/2 9/22/2 10/25/2
f 158/341/1 160/345/1 13/32/1 14/35/1
f 27/66/1 26/65/1 18/45/1 20/49/1
f 3/7/3 155/334/3 156/336/3 7/17/3
f 10/26/4 9/23/4 12/30/4 11/28/4
f 33/83/5 32/81/5 11/29/5 12/31/5
f 15/37/6 14/36/6 13/34/6 16/40/6
f 41/98/2 37/91/2 44/105/2 45/106/2
f 24/59/3 157/339/3 15/38/3 16/39/3
f 37/91/7 158/341/7 14/35/7 34/85/7
f 18/44/8 17/43/8 19/47/8 20/51/8
f 39/95/5 36/88/5 51/118/5 52/120/5
f 39/95/9 25/62/9 17/42/9 36/88/9
f 25/62/3 29/71/3 19/46/3 17/42/3
f 12/30/4 9/23/4 41/99/4 46/108/4
f 30/74/7 154/333/7 158/342/7 37/90/7
f 78/177/6 21/53/6 168/364/6 188/417/6
f 33/83/5 12/31/5 46/109/5 38/93/5
f 22/54/6 159/344/6 165/357/6 181/399/6
f 3/6/3 7/19/3 29/73/3 25/63/3
f 32/80/9 3/6/9 25/63/9 39/94/9
f 10/26/4 11/28/4 28/69/4 55/127/4
f 31/77/2 10/27/2 55/126/2 40/97/2
f 5/12/1 1/1/1 26/64/1 27/68/1
f 1/1/7 31/78/7 40/96/7 26/64/7
f 11/29/5 32/81/5 39/95/5 28/70/5
f 155/335/9 33/82/9 38/92/9 157/340/9
f 9/24/2 30/75/2 37/91/2 41/98/2
f 40/97/2 55/126/2 57/130/2 58/133/2
f 17/43/8 18/44/8 56/128/8 36/89/8
f 14/36/6 15/37/6 35/86/6 34/84/6
f 157/339/9 38/93/9 35/87/9 15/38/9
f 26/65/7 40/97/7 56/129/7 18/45/7
f 155/334/9 3/7/9 32/81/9 33/83/9
f 1/2/7 154/332/7 30/76/7 31/79/7
f 34/84/10 35/86/10 50/116/10 42/100/10
f 42/100/11 50/116/11 49/115/11 43/103/11
f 63/143/12 64/145/12 48/112/12 44/104/12
f 44/104/13 48/112/13 47/110/13 45/107/13
f 45/107/14 47/110/14 46/108/14 41/99/14
f 36/89/15 56/128/15 60/136/15 51/119/15
f 51/119/16 60/136/16 59/135/16 52/121/16
f 61/139/17 62/141/17 58/132/17 53/122/17
f 53/122/18 58/132/18 57/131/18 54/124/18
f 54/124/19 57/131/19 55/127/19 28/69/19
f 35/87/5 38/93/5 49/114/5 50/117/5
f 38/93/5 46/109/5 47/111/5 48/113/5
f 37/91/2 34/85/2 42/101/2 43/102/2
f 44/105/20 37/91/20 43/102/20 63/142/20
f 49/114/5 38/93/5 48/113/5 64/144/5
f 40/97/2 58/133/2 62/140/2 59/134/2
f 56/129/2 40/97/2 59/134/2 60/137/2
f 39/95/5 52/120/5 61/138/5 53/123/5
f 28/70/5 39/95/5 53/123/5 54/125/5
f 52/121/17 59/135/17 62/141/17 61/139/17
f 43/103/21 49/115/21 64/145/21 63/143/21
f 5/13/1 65/147/1 161/349/1 153/329/1
f 83/191/22 70/159/22 69/156/22 82/188/22
f 164/355/1 73/166/1 13/33/1 160/346/1
f 27/67/1 20/50/1 76/173/1 80/183/1
f 67/152/3 7/18/3 156/337/3 162/351/3
f 70/160/23 71/162/23 72/164/23 69/157/23
f 85/195/24 72/165/24 71/163/24 84/193/24
f 74/168/6 16/40/6 13/34/6 73/167/6
f 93/210/22 97/218/22 96/217/22 89/203/22
f 24/60/3 16/41/3 74/169/3 163/353/3
f 89/203/25 86/197/25 73/166/25 164/355/25
f 76/172/8 20/51/8 19/47/8 75/171/8
f 91/207/24 104/232/24 103/230/24 88/200/24
f 91/207/26 88/200/26 75/170/26 79/180/26
f 79/180/3 75/170/3 19/48/3 29/72/3
f 72/164/23 98/220/23 93/211/23 69/157/23
f 82/186/25 89/202/25 164/356/25 161/350/25
f 68/153/8 8/21/8 166/359/8 186/411/8
f 85/195/24 90/205/24 98/221/24 72/165/24
f 2/3/8 6/16/8 177/388/8 178/390/8
f 67/151/3 79/181/3 29/73/3 7/19/3
f 84/192/26 91/206/26 79/181/26 67/151/26
f 70/160/23 107/239/23 81/184/23 71/162/23
f 83/189/22 92/209/22 107/238/22 70/161/22
f 5/14/1 27/68/1 80/182/1 65/146/1
f 65/146/25 80/182/25 92/208/25 83/190/25
f 71/163/24 81/185/24 91/207/24 84/193/24
f 162/352/26 163/354/26 90/204/26 85/194/26
f 69/158/22 93/210/22 89/203/22 82/187/22
f 92/209/22 110/245/22 109/242/22 107/238/22
f 75/171/8 88/201/8 108/240/8 76/172/8
f 73/167/6 86/196/6 87/198/6 74/168/6
f 163/353/26 74/169/26 87/199/26 90/205/26
f 80/183/25 76/173/25 108/241/25 92/209/25
f 162/351/26 85/195/26 84/193/26 67/152/26
f 65/147/25 83/191/25 82/188/25 161/349/25
f 86/196/27 94/212/27 102/228/27 87/198/27
f 94/212/28 95/215/28 101/227/28 102/228/28
f 115/255/29 96/216/29 100/224/29 116/257/29
f 96/216/30 97/219/30 99/222/30 100/224/30
f 97/219/31 93/211/31 98/220/31 99/222/31
f 88/201/32 103/231/32 112/248/32 108/240/32
f 103/231/33 104/233/33 111/247/33 112/248/33
f 113/251/34 105/234/34 110/244/34 114/253/34
f 105/234/35 106/236/35 109/243/35 110/244/35
f 106/236/36 81/184/36 107/239/36 109/243/36
f 87/199/24 102/229/24 101/226/24 90/205/24
f 90/205/24 100/225/24 99/223/24 98/221/24
f 89/203/22 95/214/22 94/213/22 86/197/22
f 96/217/37 115/254/37 95/214/37 89/203/37
f 101/226/24 116/256/24 100/225/24 90/205/24
f 92/209/22 111/246/22 114/252/22 110/245/22
f 108/241/22 112/249/22 111/246/22 92/209/22
f 91/207/24 105/235/24 113/250/24 104/232/24
f 81/185/24 106/237/24 105/235/24 91/207/24
f 104/233/34 113/251/34 114/253/34 111/247/34
f 95/215/38 115/255/38 116/257/38 101/227/38
f 117/258/39 118/261/39 120/266/39 119/264/39
f 119/264/40 120/266/40 122/270/40 121/268/40
f 121/268/41 122/270/41 124/274/41 123/272/41
f 123/272/42 124/274/42 126/278/42 125/276/42
f 125/276/43 126/278/43 128/282/43 127/280/43
f 127/280/44 128/282/44 130/286/44 129/284/44
f 129/284/45 130/286/45 132/290/45 131/288/45
f 131/288/1 132/290/1 134/295/1 133/292/1
f 120/267/6 118/262/6 136/298/6 134/294/6 132/291/6 130/287/6 128/283/6 126/279/6 124/275/6 122/271/6
f 133/292/46 134/295/46 136/299/46 135/296/46
f 135/296/47 136/299/47 118/263/47 117/259/47
f 117/260/8 119/265/8 121/269/8 123/273/8 125/277/8 127/281/8 129/285/8 131/289/8 133/293/8 135/297/8
f 137/300/1 138/303/1 140/308/1 139/306/1
f 139/306/4 140/308/4 144/313/4 143/312/4
f 143/312/3 144/313/3 142/311/3 141/310/3
f 141/310/23 142/311/23 138/304/23 137/301/23
f 139/307/8 143/312/8 141/310/8 137/302/8
f 144/313/6 140/309/6 138/305/6 142/311/6
f 145/314/1 146/317/1 148/322/1 147/320/1
f 147/320/4 148/322/4 152/327/4 151/326/4
f 151/326/3 152/327/3 150/325/3 149/324/3
f 149/324/23 150/325/23 146/318/23 145/315/23
f 147/321/8 151/326/8 149/324/8 145/316/8
f 152/327/6 148/323/6 146/319/6 150/325/6
f 6/15/1 2/4/1 154/333/1 153/330/1
f 4/8/3 8/20/3 156/338/3 155/335/3
f 22/55/3 4/8/3 155/335/3 157/340/3
f 2/4/1 23/57/1 158/342/1 154/333/1
f 159/343/3 22/55/3 157/340/3 24/61/3
f 23/57/1 21/52/1 160/347/1 158/342/1
f 66/148/1 6/15/1 153/331/1 161/350/1
f 8/20/3 68/154/3 162/352/3 156/338/3
f 68/154/3 77/174/3 163/354/3 162/352/3
f 78/178/1 66/148/1 161/350/1 164/356/1
f 77/174/3 159/343/3 24/61/3 163/354/3
f 21/52/1 78/178/1 164/356/1 160/348/1
f 171/373/8 183/404/8 184/406/8 172/375/8
f 175/382/8 176/385/8 184/406/8 183/404/8
f 173/376/4 176/386/4 175/383/4 174/379/4
f 174/380/6 180/396/6 167/361/6 173/377/6
f 8/21/8 4/9/8 179/393/8 166/359/8
f 77/175/23 68/155/23 186/412/23 187/414/23
f 21/53/6 23/58/6 182/402/6 168/364/6
f 4/10/4 22/56/4 181/400/4 179/394/4
f 66/149/23 78/179/23 188/418/23 185/408/23
f 6/16/8 66/150/8 185/409/8 177/388/8
f 23/58/4 2/5/4 178/391/4 182/402/4
f 159/344/6 77/176/6 187/415/6 165/357/6
f 167/362/1 169/366/1 178/392/1 177/389/1
f 170/369/3 180/397/3 166/360/3 179/395/3
f 171/372/3 170/369/3 179/395/3 181/401/3
f 169/366/1 172/374/1 182/403/1 178/392/1
f 183/405/3 171/372/3 181/401/3 165/358/3
f 172/374/1 184/407/1 168/365/1 182/403/1
f 173/378/1 167/362/1 177/389/1 185/410/1
f 180/397/3 174/381/3 186/413/3 166/360/3
f 174/381/3 175/384/3 187/416/3 186/413/3
f 176/387/1 173/378/1 185/410/1 188/419/1
f 175/384/3 183/405/3 165/358/3 187/416/3
f 184/407/1 176/387/1 188/419/1 168/365/1
f 170/370/23 171/373/23 172/375/23 169/367/23
f 167/363/6 180/398/6 170/371/6 169/368/6
