# Blender 3.6.1
# www.blender.org
mtllib scout.mtl
o 0scout
v 23.872797 -0.065971 0.927730
v -26.594902 -0.065971 0.927733
v -26.594902 -0.065971 -0.678914
v 23.872797 -0.065971 -0.678917
v 4.767692 113.122719 0.927737
v 3.325805 120.151955 0.927738
v 2.424614 123.215988 0.927738
v 0.802490 127.361427 0.927738
v -4.424376 128.983566 0.927738
v -14.878112 123.215988 0.927738
v 16.663330 103.750412 0.927737
v -14.878112 113.843666 0.927737
v -19.924742 84.825546 0.927738
v -18.663082 110.599403 0.927738
v -17.401426 112.221535 0.927737
v -19.744503 100.325905 0.927738
v -12.895502 127.541656 0.927738
v -14.337397 125.739296 0.927738
v -9.471005 128.803314 0.927738
v 12.878349 112.221535 0.927737
v 16.663330 105.913246 0.927737
v 8.732910 114.023911 0.927737
v 11.256225 113.663437 0.927737
v -18.122370 77.796310 0.927737
v -15.238579 75.272995 0.927735
v -19.564264 81.401054 0.927738
v 12.517874 93.837395 0.927737
v 14.500491 98.343307 0.927737
v 11.796937 77.796310 0.927735
v 16.663330 64.819267 0.927735
v 18.285456 57.790031 0.927733
v -25.217272 43.858868 0.927737
v -25.757980 41.696026 0.927737
v -25.757980 38.812241 0.927737
v -23.463041 27.603111 0.927735
v 20.087833 46.975830 0.927732
v 20.628532 38.684937 0.927732
v 19.006407 35.981384 0.927732
v 18.285456 25.527651 0.927732
v -26.571398 16.511889 0.927735
v 19.186644 20.661259 0.927732
v 20.808769 17.236759 0.927732
v 22.971607 13.091311 0.927732
v 24.053036 9.847050 0.927732
v -14.878112 113.843666 -0.678911
v -14.878112 123.215988 -0.678909
v -14.337397 125.739296 -0.678909
v 16.663330 105.913246 -0.678911
v 16.663330 103.750412 -0.678911
v 14.500491 98.343307 -0.678911
v 12.517874 93.837395 -0.678911
v 4.767692 113.122719 -0.678911
v 3.325805 120.151955 -0.678909
v -9.471005 128.803314 -0.678909
v -12.895502 127.541656 -0.678909
v 8.732910 114.023911 -0.678911
v 11.256225 113.663437 -0.678911
v 12.878349 112.221535 -0.678911
v 0.802490 127.361427 -0.678909
v 2.424614 123.215988 -0.678909
v -4.424376 128.983566 -0.678909
v -18.663082 110.599403 -0.678909
v -17.401426 112.221535 -0.678911
v -19.924742 84.825546 -0.678909
v 11.796937 77.796310 -0.678912
v -19.744503 100.325905 -0.678909
v -18.122370 77.796310 -0.678912
v -19.564264 81.401054 -0.678911
v -15.238579 75.272995 -0.678912
v 16.663330 64.819267 -0.678912
v 18.285456 57.790031 -0.678914
v -25.217272 43.858868 -0.678911
v -25.757980 41.696026 -0.678911
v -25.757980 38.812241 -0.678911
v -23.463041 27.603111 -0.678912
v 20.087833 46.975830 -0.678916
v 20.628532 38.684937 -0.678916
v 19.006407 35.981384 -0.678916
v 18.285456 25.527651 -0.678914
v -26.571398 16.511889 -0.678912
v 19.186644 20.661259 -0.678916
v 20.808769 17.236759 -0.678916
v 22.971607 13.091311 -0.678916
v 24.053036 9.847050 -0.678917
vn -0.0000 -1.0000 -0.0000
vn -0.0000 -0.0000 1.0000
vn -0.0000 -0.0000 -1.0000
vn 0.9885 0.1512 -0.0000
vn 0.9998 -0.0182 -0.0000
vn 0.9205 0.3906 -0.0000
vn 0.8953 0.4454 -0.0000
vn 0.9515 0.3077 -0.0000
vn 0.9984 0.0571 -0.0000
vn 0.9540 -0.2999 -0.0000
vn 0.9719 -0.2354 -0.0000
vn 0.9934 0.1149 -0.0000
vn 0.9809 0.1947 -0.0000
vn 0.9574 0.2886 -0.0000
vn 0.9877 0.1563 -0.0000
vn 0.9737 -0.2277 -0.0000
vn 0.9220 -0.3871 -0.0000
vn 0.9820 -0.1891 -0.0000
vn 0.9637 0.2669 -0.0000
vn 0.7698 0.6383 -0.0000
vn 0.4208 0.9072 -0.0000
vn 0.4207 0.9072 -0.0000
vn -0.0408 0.9992 -0.0000
vn -0.2216 0.9751 -0.0000
vn -0.8161 -0.5780 -0.0000
vn -0.6585 -0.7526 -0.0000
vn -0.9707 -0.2403 -0.0000
vn -0.9989 -0.0466 -0.0000
vn -0.9983 0.0582 -0.0000
vn -0.9276 0.3737 -0.0000
vn -0.6747 0.7381 -0.0000
vn -0.5408 0.8412 -0.0000
vn -0.9906 0.1369 -0.0000
vn -0.9629 0.2699 -0.0000
vn -1.0000 0.0014 -0.0000
vn 0.1322 0.9912 -0.0000
vn 0.2964 0.9551 -0.0000
vn -0.1931 0.9812 -0.0000
vn -0.5847 0.8112 -0.0000
vn -0.9035 0.4286 -0.0000
vn -0.9944 0.1054 -0.0000
vn -1.0000 -0.0000 -0.0000
vn 0.9462 0.3236 -0.0000
vn 0.9312 0.3644 -0.0000
vn 0.9703 0.2418 -0.0000
vn 0.9796 0.2009 -0.0000
vn -0.9621 0.2728 -0.0000
vn -0.9531 0.3027 -0.0000
vn -0.9925 0.1222 -0.0000
vn -0.9949 -0.1008 -0.0000
vn -0.9797 -0.2006 -0.0000
vt 0.990824 0.000000
vt 0.990914 0.000720
vt 0.967291 0.000461
vt 0.967291 0.000000
vt 0.206622 0.778682
vt 0.197129 0.826369
vt 0.191196 0.847156
vt 0.180517 0.875279
vt 0.146107 0.886284
vt 0.077285 0.847156
vt 0.284936 0.715099
vt 0.077285 0.783573
vt 0.044061 0.586709
vt 0.052367 0.761563
vt 0.060673 0.772568
vt 0.045248 0.691866
vt 0.090338 0.876502
vt 0.080845 0.864274
vt 0.112882 0.885061
vt 0.260017 0.772568
vt 0.284936 0.729772
vt 0.232726 0.784795
vt 0.249338 0.782350
vt 0.055927 0.539022
vt 0.074912 0.521904
vt 0.046434 0.563477
vt 0.257644 0.647847
vt 0.270697 0.678416
vt 0.252898 0.539022
vt 0.284936 0.450984
vt 0.295615 0.403297
vt 0.009436 0.308810
vt 0.005945 0.294286
vt 0.005851 0.275152
vt 0.020730 0.198994
vt 0.307480 0.329931
vt 0.311040 0.273685
vt 0.300361 0.255343
vt 0.295615 0.184424
vt -0.001127 0.123786
vt 0.301548 0.151409
vt 0.312227 0.128177
vt 0.326466 0.100054
vt 0.333585 0.078044
vt 0.332398 0.010793
vt 0.000149 0.010793
vt 0.846393 0.827763
vt 0.846393 0.885264
vt 0.843135 0.900744
vt 0.656327 0.779109
vt 0.656327 0.765840
vt 0.669360 0.732667
vt 0.681307 0.705022
vt 0.728009 0.823340
vt 0.736698 0.866465
vt 0.813810 0.919543
vt 0.834446 0.911802
vt 0.704115 0.828869
vt 0.688909 0.826658
vt 0.679135 0.817811
vt 0.751903 0.910697
vt 0.742128 0.885264
vt 0.783399 0.920648
vt 0.869201 0.807859
vt 0.861598 0.817811
vt 0.876803 0.649734
vt 0.685651 0.606608
vt 0.875717 0.744830
vt 0.865942 0.606608
vt 0.874631 0.628724
vt 0.848565 0.591128
vt 0.656327 0.526993
vt 0.646552 0.483867
vt 0.908553 0.398464
vt 0.911798 0.385109
vt 0.911723 0.367478
vt 0.898197 0.298988
vt 0.635691 0.417521
vt 0.632433 0.366655
vt 0.642208 0.350068
vt 0.646552 0.285934
vt 0.917809 0.231072
vt 0.641121 0.256078
vt 0.631347 0.235068
vt 0.618314 0.209635
vt 0.611797 0.189731
vt 0.612883 0.128913
vt 0.916992 0.128866
vt 0.990824 0.076816
vt 0.967291 0.076816
vt 0.990824 0.101955
vt 0.967291 0.101955
vt 0.990824 0.134078
vt 0.967291 0.134078
vt 0.990824 0.160615
vt 0.967291 0.160615
vt 0.990824 0.198324
vt 0.967291 0.198324
vt 0.990824 0.279330
vt 0.967291 0.279330
vt 0.990824 0.300279
vt 0.967291 0.300279
vt 0.990824 0.364525
vt 0.967291 0.364525
vt 0.990824 0.448324
vt 0.967291 0.448324
vt 0.990824 0.502793
vt 0.967291 0.502793
vt 0.990824 0.603352
vt 0.967291 0.603352
vt 0.990824 0.727654
vt 0.967291 0.727654
vt 0.990824 0.762570
vt 0.967291 0.762570
vt 0.990824 0.804469
vt 0.967291 0.804469
vt 0.990824 0.821229
vt 0.967291 0.821229
vt 0.990824 0.870112
vt 0.967291 0.870112
vt 0.990824 0.881285
vt 0.967291 0.881285
vt 0.990824 0.884078
vt 0.967291 0.884078
vt 0.990824 0.877095
vt 0.967291 0.877095
vt 0.967291 0.583799
vt 0.990824 0.583799
vt 0.967291 0.631285
vt 0.990824 0.631285
vt 0.967291 0.657821
vt 0.990824 0.657821
vt 0.967291 0.777933
vt 0.990824 0.777933
vt 0.967291 0.857542
vt 0.990824 0.857542
vt 0.967291 0.882682
vt 0.990824 0.882682
vt 0.994712 0.145889
vt 1.012295 0.231484
vt 0.965939 0.243518
vt 0.949597 0.138803
vt 0.990824 1.000000
vt 0.990824 0.987430
vt 0.967291 0.987430
vt 0.967291 1.000000
vt 0.990824 0.998603
vt 0.967291 0.998603
vt 0.990824 0.988827
vt 0.967291 0.988827
vt 0.990824 0.974860
vt 0.967291 0.974860
vt 0.990824 0.955307
vt 0.967291 0.955307
vt 0.967291 0.931564
vt 0.990824 0.931564
vt 0.997408 0.342372
vt 0.977302 0.333573
vt 1.007653 0.314494
vt 0.976925 0.321371
vt 0.995444 0.305761
vt 0.973040 0.313419
s 1
usemtl target_scout
f 1/1/1 2/2/1 3/3/1
f 3/3/1 4/4/1 1/1/1
f 5/5/2 6/6/2 7/7/2
f 7/7/2 8/8/2 9/9/2
f 5/5/2 7/7/2 9/9/2
f 5/5/2 9/9/2 10/10/2
f 5/5/2 10/10/2 11/11/2
f 10/10/2 12/12/2 11/11/2
f 12/12/2 13/13/2 11/11/2
f 12/12/2 14/14/2 13/13/2
f 12/12/2 15/15/2 14/14/2
f 14/14/2 16/16/2 13/13/2
f 17/17/2 18/18/2 10/10/2
f 9/9/2 17/17/2 10/10/2
f 9/9/2 19/19/2 17/17/2
f 20/20/2 11/11/2 21/21/2
f 20/20/2 22/22/2 11/11/2
f 22/22/2 5/5/2 11/11/2
f 20/20/2 23/23/2 22/22/2
f 13/13/2 24/24/2 25/25/2
f 13/13/2 26/26/2 24/24/2
f 27/27/2 28/28/2 11/11/2
f 13/13/2 27/27/2 11/11/2
f 13/13/2 29/29/2 27/27/2
f 13/13/2 25/25/2 29/29/2
f 25/25/2 30/30/2 29/29/2
f 25/25/2 31/31/2 30/30/2
f 25/25/2 32/32/2 31/31/2
f 32/32/2 33/33/2 31/31/2
f 33/33/2 34/34/2 31/31/2
f 34/34/2 35/35/2 31/31/2
f 35/35/2 36/36/2 31/31/2
f 35/35/2 37/37/2 36/36/2
f 35/35/2 38/38/2 37/37/2
f 35/35/2 39/39/2 38/38/2
f 35/35/2 40/40/2 39/39/2
f 40/40/2 41/41/2 39/39/2
f 40/40/2 42/42/2 41/41/2
f 40/40/2 43/43/2 42/42/2
f 40/40/2 44/44/2 43/43/2
f 40/40/2 1/45/2 44/44/2
f 40/40/2 2/46/2 1/45/2
f 45/47/3 46/48/3 47/49/3
f 48/50/3 49/51/3 50/52/3
f 48/50/3 50/52/3 51/53/3
f 48/50/3 51/53/3 52/54/3
f 51/53/3 45/47/3 52/54/3
f 45/47/3 53/55/3 52/54/3
f 45/47/3 54/56/3 53/55/3
f 45/47/3 47/49/3 54/56/3
f 47/49/3 55/57/3 54/56/3
f 56/58/3 57/59/3 52/54/3
f 57/59/3 48/50/3 52/54/3
f 57/59/3 58/60/3 48/50/3
f 59/61/3 60/62/3 53/55/3
f 54/56/3 59/61/3 53/55/3
f 54/56/3 61/63/3 59/61/3
f 62/64/3 63/65/3 45/47/3
f 51/53/3 62/64/3 45/47/3
f 51/53/3 64/66/3 62/64/3
f 51/53/3 65/67/3 64/66/3
f 64/66/3 66/68/3 62/64/3
f 67/69/3 68/70/3 64/66/3
f 65/67/3 67/69/3 64/66/3
f 65/67/3 69/71/3 67/69/3
f 65/67/3 70/72/3 69/71/3
f 70/72/3 71/73/3 69/71/3
f 71/73/3 72/74/3 69/71/3
f 71/73/3 73/75/3 72/74/3
f 71/73/3 74/76/3 73/75/3
f 71/73/3 75/77/3 74/76/3
f 71/73/3 76/78/3 75/77/3
f 76/78/3 77/79/3 75/77/3
f 77/79/3 78/80/3 75/77/3
f 78/80/3 79/81/3 75/77/3
f 79/81/3 80/82/3 75/77/3
f 79/81/3 81/83/3 80/82/3
f 81/83/3 82/84/3 80/82/3
f 82/84/3 83/85/3 80/82/3
f 83/85/3 84/86/3 80/82/3
f 84/86/3 4/87/3 80/82/3
f 4/87/3 3/88/3 80/82/3
f 44/89/4 1/1/5 4/4/5
f 4/4/5 84/90/4 44/89/4
f 43/91/6 44/89/4 84/90/4
f 84/90/4 83/92/6 43/91/6
f 42/93/7 43/91/6 83/92/6
f 83/92/6 82/94/7 42/93/7
f 41/95/8 42/93/7 82/94/7
f 82/94/7 81/96/8 41/95/8
f 39/97/9 41/95/8 81/96/8
f 81/96/8 79/98/9 39/97/9
f 38/99/10 39/97/9 79/98/9
f 79/98/9 78/100/10 38/99/10
f 37/101/11 38/99/10 78/100/10
f 78/100/10 77/102/11 37/101/11
f 36/103/12 37/101/11 77/102/11
f 77/102/11 76/104/12 36/103/12
f 31/105/13 36/103/12 76/104/12
f 76/104/12 71/106/13 31/105/13
f 30/107/14 31/105/13 71/106/13
f 71/106/13 70/108/14 30/107/14
f 29/109/15 30/107/14 70/108/14
f 70/108/14 65/110/15 29/109/15
f 27/111/16 29/109/15 65/110/15
f 65/110/15 51/112/16 27/111/16
f 28/113/17 27/111/16 51/112/16
f 51/112/16 50/114/17 28/113/17
f 11/115/18 28/113/17 50/114/17
f 50/114/17 49/116/18 11/115/18
f 21/117/19 11/115/18 49/116/18
f 49/116/18 48/118/19 21/117/19
f 20/119/20 21/117/19 48/118/19
f 48/118/19 58/120/20 20/119/20
f 23/121/21 20/119/20 58/120/20
f 58/120/20 57/122/22 23/121/21
f 22/123/23 23/121/21 57/122/22
f 57/122/22 56/124/23 22/123/23
f 5/125/24 22/123/23 56/124/23
f 56/124/23 52/126/24 5/125/24
f 67/110/25 69/127/26 25/128/26
f 25/128/26 24/109/25 67/110/25
f 68/129/27 67/110/25 24/109/25
f 24/109/25 26/130/27 68/129/27
f 64/131/28 68/129/27 26/130/27
f 26/130/27 13/132/28 64/131/28
f 66/133/29 64/131/28 13/132/28
f 13/132/28 16/134/29 66/133/29
f 62/135/30 66/133/29 16/134/29
f 16/134/29 14/136/30 62/135/30
f 63/120/31 62/135/30 14/136/30
f 14/136/30 15/119/31 63/120/31
f 45/137/32 63/120/31 15/119/31
f 15/119/31 12/138/32 45/137/32
f 40/139/33 35/140/34 75/141/34
f 75/141/34 80/142/33 40/139/33
f 2/2/35 40/139/33 80/142/33
f 80/142/33 3/3/35 2/2/35
f 9/143/36 8/144/37 59/145/37
f 59/145/37 61/146/36 9/143/36
f 19/147/38 9/143/36 61/146/36
f 61/146/36 54/148/38 19/147/38
f 17/149/39 19/147/38 54/148/38
f 54/148/38 55/150/39 17/149/39
f 18/151/40 17/149/39 55/150/39
f 55/150/39 47/152/40 18/151/40
f 10/153/41 18/151/40 47/152/40
f 47/152/40 46/154/41 10/153/41
f 12/138/42 10/153/41 46/154/41
f 46/154/41 45/137/42 12/138/42
f 60/154/43 59/145/44 8/144/44
f 8/144/44 7/153/43 60/154/43
f 53/155/45 60/154/43 7/153/43
f 7/153/43 6/156/45 53/155/45
f 52/126/46 53/155/45 6/156/45
f 6/156/45 5/125/46 52/126/46
f 32/157/47 25/128/48 69/127/48
f 69/127/48 72/158/47 32/157/47
f 33/159/49 32/157/47 72/158/47
f 72/158/47 73/160/49 33/159/49
f 34/161/50 33/159/49 73/160/49
f 73/160/49 74/162/50 34/161/50
f 35/140/51 34/161/50 74/162/50
f 74/162/50 75/141/51 35/140/51
o 1scout
v -25.425911 0.000000 1.351546
v -23.753954 52.150284 1.351546
v -25.425911 0.000000 -1.351542
v -23.753954 52.150284 -1.351542
v -1.836746 128.582550 -1.351544
v 16.289759 105.550346 -1.351544
v -13.403422 127.024811 -1.351544
v -19.515778 110.538368 -1.351542
v 25.425911 0.000000 -1.351544
v -19.515778 110.538368 1.351544
v -13.403422 127.024811 1.351544
v 16.289759 105.550346 1.351544
v 25.425911 0.000000 1.351542
v -1.836746 128.582550 1.351544
v -25.367338 0.112272 31.246653
v -25.367338 0.557367 31.246653
v -25.367338 0.112272 -31.246653
v -25.367338 0.557367 -31.246653
v 25.367338 0.112272 31.246653
v 25.367338 0.557367 31.246653
v 25.367338 0.112272 -31.246653
v 25.367338 0.557367 -31.246653
vn 0.9973 -0.0530 -0.0499
vn 0.9980 -0.0629 0.0034
vn -0.9986 -0.0383 -0.0360
vn -0.9974 -0.0725 0.0039
vn -0.9479 0.1867 0.2581
vn -0.9977 0.0667 0.0142
vn -0.9946 -0.0576 0.0858
vn -0.9890 -0.1465 0.0203
vn -0.9984 0.0531 -0.0210
vn 0.9977 -0.0667 0.0092
vn 0.8478 -0.4367 0.3009
vn 0.9989 0.0460 0.0097
vn 0.9965 0.0772 -0.0305
vn 0.9774 0.1239 0.1714
vn -1.0000 -0.0000 -0.0000
vn -0.0000 -0.0000 -1.0000
vn 1.0000 -0.0000 -0.0000
vn -0.0000 -0.0000 1.0000
vn -0.0000 -1.0000 -0.0000
vn -0.0000 1.0000 -0.0000
vt 0.000000 0.000000
vt 0.375000 0.000000
vt 0.625000 0.000000
vt 0.625000 0.250000
vt 0.375000 0.250000
vt 0.625000 0.500000
vt 0.375000 0.500000
vt 0.625000 0.750000
vt 0.375000 0.750000
vt 0.625000 1.000000
vt 0.375000 1.000000
vt 0.125000 0.500000
vt 0.125000 0.750000
vt 0.875000 0.500000
vt 0.875000 0.750000
s 1
usemtl __phy
f 85/163/52 86/163/53 87/163/54
f 87/163/54 86/163/53 88/163/55
f 89/163/56 90/163/57 91/163/58
f 91/163/58 90/163/57 92/163/59
f 92/163/59 90/163/57 88/163/55
f 88/163/55 90/163/57 87/163/54
f 87/163/54 90/163/57 93/163/60
f 92/163/59 88/163/55 86/163/53
f 94/163/61 95/163/62 92/163/59
f 92/163/59 95/163/62 91/163/58
f 96/163/63 86/163/53 97/163/64
f 96/163/63 94/163/61 86/163/53
f 96/163/63 98/163/65 94/163/61
f 98/163/65 95/163/62 94/163/61
f 94/163/61 92/163/59 86/163/53
f 91/163/58 98/163/65 89/163/56
f 91/163/58 95/163/62 98/163/65
f 86/163/53 85/163/52 97/163/64
f 98/163/65 96/163/63 90/163/57
f 90/163/57 89/163/56 98/163/65
f 90/163/57 96/163/63 97/163/64
f 97/163/64 93/163/60 90/163/57
f 93/163/60 97/163/64 87/163/54
f 87/163/54 97/163/64 85/163/52
s 0
f 99/164/66 100/165/66 102/166/66 101/167/66
f 101/167/67 102/166/67 106/168/67 105/169/67
f 105/169/68 106/168/68 104/170/68 103/171/68
f 103/171/69 104/170/69 100/172/69 99/173/69
f 101/174/70 105/169/70 103/171/70 99/175/70
f 106/168/71 102/176/71 100/177/71 104/170/71
