# Blender 3.1.0
# www.blender.org
mtllib STARShield.mtl
o STARShield
v 27.857971 95.173485 -10.715748
v 25.188850 7.510849 -9.650487
v 26.437025 7.487343 -8.460059
v 29.106142 95.149826 -9.525320
v 28.557356 118.144394 -10.994922
v 29.805529 118.120880 -9.804493
v 9.628804 0.722816 5.696663
v -23.187897 1.786591 11.005987
v -22.911964 1.798775 12.708611
v 9.904592 0.735153 7.399289
v -38.490540 97.479256 12.794547
v -24.289747 126.509125 10.284092
v -24.013954 126.521469 11.986864
v -38.214607 97.491592 14.497323
v 13.552846 129.601868 4.130507
v 13.828634 129.614197 5.833282
v 12.524488 95.825706 4.540892
v 12.800277 95.838051 6.243664
v -15.386945 65.144341 10.844936
v -15.317153 67.435570 10.817020
v -13.055310 67.362251 10.451163
v -13.125101 65.071022 10.478933
v -12.021512 67.131416 -5.954911
v 4.022526 66.611435 -8.550726
v 3.952734 64.320206 -8.522807
v -12.091302 64.840195 -5.927139
v -14.283501 67.204735 -5.589054
v -12.339469 67.117310 -7.916868
v -13.724433 67.162125 -7.692799
v 3.704716 66.597183 -10.512537
v 6.112901 66.543701 -8.888812
v 5.129938 66.551048 -10.743217
v 9.446158 66.632004 6.732947
v 11.536534 66.564270 6.394716
v -14.353146 64.913506 -5.561136
v -13.794223 64.870903 -7.664881
v -12.409260 64.826088 -7.889098
v 3.634924 64.305954 -10.484766
v 5.060147 64.259819 -10.715299
v 6.043109 64.252472 -8.861043
v 11.466743 64.273048 6.422483
v 9.376369 64.340782 6.760719
v -9.281562 102.442116 8.046205
v -9.226611 104.248032 8.024313
v -7.443760 104.190292 7.735885
v -7.498859 102.384369 7.757781
v -5.943017 104.045120 -0.447827
v 6.702967 103.635193 -2.493685
v 6.648015 101.829269 -2.471792
v -5.997968 102.239204 -0.425791
v -7.725719 104.102867 -0.159258
v -6.193532 104.033958 -1.994123
v -7.285223 104.069366 -1.817511
v 6.452452 103.624023 -4.040124
v 8.350641 103.581856 -2.760216
v 7.575879 103.587730 -4.221877
v 10.291737 103.614624 4.805072
v 11.939412 103.561279 4.538539
v -7.780819 102.296951 -0.137365
v -7.340175 102.263443 -1.795620
v -6.248484 102.228043 -1.972229
v 6.397500 101.818108 -4.018231
v 7.520926 101.781662 -4.199984
v 8.295691 101.775940 -2.738323
v 11.884459 101.755371 4.560435
v 10.236785 101.808701 4.826963
vn 0.2026 -0.0088 -0.2126
vn -0.0089 -0.2937 0.0036
vn -0.2599 0.1307 0.0412
vn 0.1258 0.2574 -0.0653
vn -0.0470 -0.0021 -0.2901
vn 0.2042 -0.0036 0.2113
vn 0.0470 0.0021 0.2901
vn -0.2072 0.0038 -0.2084
vn -0.0237 0.2929 0.0017
vn 0.0775 -0.2803 -0.0419
vn -0.2863 -0.0467 0.0467
vn 0.0089 0.2937 -0.0036
vn -0.2931 0.0087 -0.0186
vn 0.2931 -0.0087 0.0186
vn -0.2839 0.0077 -0.0756
vn 0.2595 -0.0096 -0.1376
vn -0.2768 0.0096 0.0982
vn 0.2768 -0.0096 -0.0982
vn 0.0090 0.2937 -0.0036
vn 0.0089 0.2937 -0.0035
vn -0.2889 0.0082 -0.0531
vn -0.2889 0.0081 -0.0531
vn 0.2889 -0.0081 0.0531
vn 0.2889 -0.0082 0.0531
vn 0.2636 -0.0096 -0.1296
vn -0.2636 0.0096 0.1296
vt 1.000000 0.583164
vt 0.959750 0.736793
vt 1.000000 0.000000
vt 0.959750 0.057752
vt 0.494233 0.355133
vt 0.989476 0.000000
vt 0.957595 0.061497
vt 0.483362 0.357730
vt 0.989476 0.583164
vt 0.957595 0.734483
vt 1.000000 0.735976
vt 0.532201 0.011955
vt 0.959750 0.914728
vt 0.989476 0.735976
vt 0.523228 0.005283
vt 0.957595 0.910832
vt 0.821563 0.000119
vt 0.467810 0.213007
vt 0.557473 0.011360
vt 0.571834 0.000119
vt 0.989476 0.829269
vt 0.547356 0.006690
vt 0.571479 0.004377
vt 0.978453 0.829252
vt 0.818981 0.004377
vt 0.457693 0.208337
vt 0.433349 0.736793
vt 0.990009 0.195659
vt 0.989476 0.000017
vt 0.534588 0.965001
vt 0.455692 0.385692
vt 0.978453 0.000000
vt 0.534565 0.960656
vt 0.444557 0.385998
vt 0.434228 0.734483
vt 0.978986 0.195642
vt 0.821563 0.998426
vt 0.451667 0.132830
vt 0.818981 0.993783
vt 0.440532 0.133136
vt 0.821563 0.736793
vt 0.818981 0.734483
vt 0.001286 0.034499
vt 0.078866 0.021986
vt 0.229949 0.151243
vt 0.001286 0.047012
vt 0.298756 0.002617
vt 0.089949 0.021986
vt 0.012369 0.047012
vt 0.298790 0.015130
vt 0.045618 0.084147
vt 0.012369 0.034499
vt 0.229983 0.138730
vt 0.034535 0.084147
vt 0.101032 0.021986
vt 0.239613 0.034669
vt 0.045618 0.021986
vt 0.101032 0.110744
vt 0.239855 0.123427
vt 0.067784 0.021986
vt 0.112115 0.110744
vt 0.171048 0.030433
vt 0.078866 0.021986
vt 0.112115 0.021986
vt 0.170806 0.119191
vt 0.034535 0.021986
vt 0.239579 0.022156
vt 0.089949 0.086901
vt 0.230004 0.034703
vt 0.145364 0.029648
vt 0.229983 0.027040
vt 0.145364 0.021986
vt 0.089949 0.097281
vt 0.230246 0.123460
vt 0.145364 0.118406
vt 0.239887 0.134991
vt 0.101032 0.033328
vt 0.230268 0.131345
vt 0.145364 0.126291
vt 0.101032 0.021986
vt 0.298759 0.139679
vt 0.145364 0.047012
vt 0.067784 0.089629
vt 0.298790 0.151243
vt 0.155607 0.047012
vt 0.101032 0.101676
vt 0.170771 0.131704
vt 0.078866 0.086901
vt 0.161176 0.126820
vt 0.134281 0.021986
vt 0.078866 0.097281
vt 0.161197 0.119158
vt 0.134281 0.029648
vt 0.161439 0.030400
vt 0.134281 0.118406
vt 0.161460 0.022515
vt 0.134281 0.126291
vt 0.089949 0.021986
vt 0.171079 0.018869
vt 0.089949 0.033328
vt 0.229983 0.002617
vt 0.155607 0.034499
vt 0.089949 0.101676
vt 0.229951 0.014181
vt 0.145364 0.034499
vt 0.078866 0.089629
vt 0.012369 0.034499
vt 0.056701 0.084742
vt 0.356415 0.151243
vt 0.012369 0.021986
vt 0.414073 0.002617
vt 0.045618 0.084742
vt 0.001286 0.021986
vt 0.414107 0.015130
vt 0.023452 0.071776
vt 0.001286 0.034499
vt 0.356449 0.138730
vt 0.012369 0.071776
vt 0.123198 0.110744
vt 0.366079 0.034630
vt 0.023452 0.021986
vt 0.123198 0.021986
vt 0.366321 0.123388
vt 0.023452 0.021986
vt 0.112115 0.021986
vt 0.308662 0.030472
vt 0.034535 0.021986
vt 0.112115 0.110744
vt 0.308420 0.119230
vt 0.012369 0.021986
vt 0.366045 0.022117
vt 0.045618 0.032367
vt 0.356470 0.034664
vt 0.123198 0.118629
vt 0.356449 0.027002
vt 0.123198 0.126291
vt 0.045618 0.021986
vt 0.356712 0.123421
vt 0.123198 0.029871
vt 0.366352 0.134952
vt 0.067784 0.033328
vt 0.356733 0.131306
vt 0.123198 0.021986
vt 0.067783 0.021986
vt 0.414076 0.139679
vt 0.155607 0.021986
vt 0.023452 0.077091
vt 0.414107 0.151243
vt 0.067784 0.089305
vt 0.145364 0.021986
vt 0.308386 0.131743
vt 0.056701 0.032367
vt 0.298790 0.126859
vt 0.134281 0.126291
vt 0.056701 0.021986
vt 0.298811 0.119197
vt 0.134281 0.118629
vt 0.299053 0.030439
vt 0.134281 0.029871
vt 0.299075 0.022554
vt 0.134281 0.021986
vt 0.056701 0.021986
vt 0.308694 0.018908
vt 0.056701 0.033328
vt 0.356449 0.002617
vt 0.056701 0.089305
vt 0.145364 0.034499
vt 0.356417 0.014181
vt 0.155607 0.034499
vt 0.034535 0.077091
s 1
usemtl ShieldMaterial
f 1/1/1 3/6/1 2/3/1
f 1/1/1 4/9/1 3/6/1
f 5/11/1 4/9/1 1/1/1
f 5/11/1 6/14/1 4/9/1
f 7/18/2 9/22/2 8/19/2
f 7/18/2 10/26/2 9/22/2
f 11/28/3 13/32/3 12/29/3
f 11/28/3 14/36/3 13/32/3
f 15/38/4 6/15/4 5/12/4
f 15/38/4 16/40/4 6/15/4
f 17/41/5 12/30/5 15/37/5
f 17/41/5 11/27/5 12/30/5
f 7/17/5 11/27/5 17/41/5
f 7/17/5 8/20/5 11/27/5
f 18/42/6 6/16/6 16/39/6
f 18/42/6 4/10/6 6/16/6
f 10/25/6 4/10/6 18/42/6
f 10/25/6 3/7/6 4/10/6
f 14/35/7 16/39/7 13/33/7
f 14/35/7 18/42/7 16/39/7
f 9/23/7 18/42/7 14/35/7
f 9/23/7 10/25/7 18/42/7
f 1/2/8 15/37/8 5/13/8
f 1/2/8 17/41/8 15/37/8
f 2/4/8 17/41/8 1/2/8
f 2/4/8 7/17/8 17/41/8
f 12/31/9 16/40/9 15/38/9
f 12/31/9 13/34/9 16/40/9
f 2/5/10 10/26/10 7/18/10
f 2/5/10 3/8/10 10/26/10
f 8/21/11 14/36/11 11/28/11
f 8/21/11 9/24/11 14/36/11
f 19/43/7 21/49/7 20/46/7
f 19/43/7 22/52/7 21/49/7
f 23/55/7 25/61/7 24/58/7
f 23/55/7 26/64/7 25/61/7
f 27/67/12 20/47/12 21/50/12
f 27/67/12 21/50/12 23/56/12
f 27/67/12 23/56/12 28/69/12
f 27/67/12 28/69/12 29/71/12
f 28/69/12 23/56/12 24/59/12
f 28/69/12 24/59/12 30/74/12
f 30/74/12 24/59/12 31/76/12
f 30/74/12 31/76/12 32/78/12
f 31/76/12 24/59/12 33/81/12
f 31/76/12 33/81/12 34/84/12
f 35/88/13 20/48/13 27/68/13
f 35/88/13 19/44/13 20/48/13
f 26/65/2 22/53/2 19/45/2
f 26/65/2 19/45/2 35/87/2
f 26/65/2 35/87/2 36/89/2
f 26/65/2 36/89/2 37/92/2
f 26/65/2 37/92/2 38/94/2
f 26/65/2 38/94/2 25/62/2
f 25/62/2 38/94/2 39/96/2
f 25/62/2 39/96/2 40/99/2
f 25/62/2 40/99/2 41/101/2
f 25/62/2 41/101/2 42/104/2
f 23/57/14 22/54/14 26/66/14
f 23/57/14 21/51/14 22/54/14
f 37/93/5 36/90/5 29/72/5
f 37/93/5 29/72/5 28/70/5
f 37/93/5 28/70/5 30/75/5
f 37/93/5 30/75/5 38/95/5
f 38/95/5 30/75/5 32/79/5
f 38/95/5 32/79/5 39/97/5
f 35/88/15 29/73/15 36/91/15
f 35/88/15 27/68/15 29/73/15
f 31/77/16 39/98/16 32/80/16
f 31/77/16 40/100/16 39/98/16
f 33/82/7 41/102/7 34/85/7
f 33/82/7 42/105/7 41/102/7
f 24/60/17 42/106/17 33/83/17
f 24/60/17 25/63/17 42/106/17
f 40/100/18 34/86/18 41/103/18
f 40/100/18 31/77/18 34/86/18
f 43/107/7 45/113/7 44/110/7
f 43/107/7 46/116/7 45/113/7
f 47/119/7 49/125/7 48/122/7
f 47/119/7 50/128/7 49/125/7
f 51/131/12 44/111/12 45/114/12
f 51/131/12 45/114/12 47/120/12
f 51/131/12 47/120/12 52/133/12
f 51/131/12 52/133/12 53/135/19
f 52/133/12 47/120/12 48/123/12
f 52/133/12 48/123/12 54/138/12
f 54/138/12 48/123/12 55/140/12
f 54/138/12 55/140/12 56/142/20
f 55/140/12 48/123/12 57/145/12
f 55/140/12 57/145/12 58/148/12
f 59/152/21 44/112/22 51/132/21
f 59/152/21 43/108/22 44/112/22
f 50/129/2 46/117/2 43/109/2
f 50/129/2 43/109/2 59/151/2
f 50/129/2 59/151/2 60/153/2
f 50/129/2 60/153/2 61/156/2
f 50/129/2 61/156/2 62/158/2
f 50/129/2 62/158/2 49/126/2
f 49/126/2 62/158/2 63/160/2
f 49/126/2 63/160/2 64/163/2
f 49/126/2 64/163/2 65/165/2
f 49/126/2 65/165/2 66/168/2
f 47/121/23 46/118/24 50/130/23
f 47/121/23 45/115/24 46/118/24
f 61/157/5 60/154/5 53/136/5
f 61/157/5 53/136/5 52/134/5
f 61/157/5 52/134/5 54/139/5
f 61/157/5 54/139/5 62/159/5
f 62/159/5 54/139/5 56/143/5
f 62/159/5 56/143/5 63/161/5
f 59/152/15 53/137/15 60/155/15
f 59/152/15 51/132/15 53/137/15
f 55/141/16 63/162/16 56/144/16
f 55/141/16 64/164/16 63/162/16
f 64/164/16 55/141/16 58/149/25
f 64/164/16 58/149/25 65/166/25
f 57/146/7 65/167/7 58/150/7
f 57/146/7 66/169/7 65/167/7
f 48/124/26 66/170/26 57/147/26
f 48/124/26 49/127/26 66/170/26
